<?xml version="1.0" encoding="UTF-8" standalone="no"?>
<!-- Created with Inkscape (http://www.inkscape.org/) -->

<svg
   xmlns:dc="http://purl.org/dc/elements/1.1/"
   xmlns:cc="http://creativecommons.org/ns#"
   xmlns:rdf="http://www.w3.org/1999/02/22-rdf-syntax-ns#"
   xmlns:svg="http://www.w3.org/2000/svg"
   xmlns="http://www.w3.org/2000/svg"
   xmlns:sodipodi="http://sodipodi.sourceforge.net/DTD/sodipodi-0.dtd"
   xmlns:inkscape="http://www.inkscape.org/namespaces/inkscape"
   width="210mm"
   height="297mm"
   viewBox="0 0 210 297"
   version="1.1"
   id="svg3719"
   sodipodi:docname="dessin.svg"
   inkscape:version="0.92.4 (5da689c313, 2019-01-14)">
  <defs
     id="defs3713">
	

		
	</defs>
  <sodipodi:namedview
     id="base"
     pagecolor="#ffffff"
     bordercolor="#666666"
     borderopacity="1.0"
     inkscape:pageopacity="0.0"
     inkscape:pageshadow="2"
     inkscape:zoom="2"
     inkscape:cx="353.69691"
     inkscape:cy="555.31555"
     inkscape:document-units="mm"
     inkscape:current-layer="layer1"
     showgrid="false"
     inkscape:window-width="1920"
     inkscape:window-height="986"
     inkscape:window-x="-11"
     inkscape:window-y="-11"
     inkscape:window-maximized="1" />
  <metadata
     id="metadata3716">
    <rdf:RDF>
      <cc:Work
         rdf:about="">
        <dc:format>image/svg+xml</dc:format>
        <dc:type
           rdf:resource="http://purl.org/dc/dcmitype/StillImage" />
      </cc:Work>
    </rdf:RDF>
  </metadata>
  <g
     inkscape:label="Calque 1"
     inkscape:groupmode="layer"
     id="layer1">
    <text
       transform="scale(0.92062255,1.0862215)"
       id="text4710"
       y="140.39545"
       x="95.43544"
       style="font-style:normal;font-variant:normal;font-weight:normal;font-stretch:normal;font-size:11.16047764px;line-height:1.25;font-family:'OCR A Extended';-inkscape-font-specification:'OCR A Extended, Normal';font-variant-ligatures:normal;font-variant-caps:normal;font-variant-numeric:normal;font-feature-settings:normal;text-align:start;letter-spacing:0px;word-spacing:0px;writing-mode:lr-tb;text-anchor:start;fill:#000000;fill-opacity:1;stroke:none;stroke-width:0.2989369"
       xml:space="preserve"><tspan
         style="font-style:normal;font-variant:normal;font-weight:normal;font-stretch:normal;font-size:10.23055553px;font-family:'OCR A Extended';-inkscape-font-specification:'OCR A Extended, Normal';font-variant-ligatures:normal;font-variant-caps:normal;font-variant-numeric:normal;font-feature-settings:normal;text-align:start;writing-mode:lr-tb;text-anchor:start;stroke-width:0.2989369"
         y="140.39545"
         x="95.43544"
         id="tspan4708"
         sodipodi:role="line">Keybox</tspan></text>
    <g
       id="g3776"
       transform="matrix(0.06703231,0,0,0.04992158,87.081454,154.86471)">
</g>
    <g
       id="g3778"
       transform="matrix(0.06703231,0,0,0.04992158,87.081454,154.86471)">
</g>
    <g
       id="g3780"
       transform="matrix(0.06703231,0,0,0.04992158,87.081454,154.86471)">
</g>
    <g
       id="g3782"
       transform="matrix(0.06703231,0,0,0.04992158,87.081454,154.86471)">
</g>
    <g
       id="g3784"
       transform="matrix(0.06703231,0,0,0.04992158,87.081454,154.86471)">
</g>
    <g
       id="g3786"
       transform="matrix(0.06703231,0,0,0.04992158,87.081454,154.86471)">
</g>
    <g
       id="g3788"
       transform="matrix(0.06703231,0,0,0.04992158,87.081454,154.86471)">
</g>
    <g
       id="g3790"
       transform="matrix(0.06703231,0,0,0.04992158,87.081454,154.86471)">
</g>
    <g
       id="g3792"
       transform="matrix(0.06703231,0,0,0.04992158,87.081454,154.86471)">
</g>
    <g
       id="g3794"
       transform="matrix(0.06703231,0,0,0.04992158,87.081454,154.86471)">
</g>
    <g
       id="g3796"
       transform="matrix(0.06703231,0,0,0.04992158,87.081454,154.86471)">
</g>
    <g
       id="g3798"
       transform="matrix(0.06703231,0,0,0.04992158,87.081454,154.86471)">
</g>
    <g
       id="g3800"
       transform="matrix(0.06703231,0,0,0.04992158,87.081454,154.86471)">
</g>
    <g
       id="g3802"
       transform="matrix(0.06703231,0,0,0.04992158,87.081454,154.86471)">
</g>
    <g
       id="g3804"
       transform="matrix(0.06703231,0,0,0.04992158,87.081454,154.86471)">
</g>
    <rect
       style="opacity:0.93999999;fill:none;stroke:#000000;stroke-width:1;stroke-linejoin:round;stroke-miterlimit:4;stroke-dasharray:none;stroke-opacity:1;stroke-linecap:round"
       id="rect4673"
       width="38.431652"
       height="33.182671"
       x="85.784172"
       y="139.41919"
       ry="4.5040193" />
    <g
       id="g4885"
       transform="matrix(-4.788013e-4,-0.03661862,0.03661862,-4.788013e-4,95.901669,172.00703)">
      <g
         id="g4828">
	<g
   id="g4826">
		<path
   id="path4824"
   d="m 382.616,133.644 h -61.908 c -2.148,0 -4.156,-0.436 -4.156,1.7 v 61.904 c 0,2.14 2.008,3.28 4.156,3.28 h 15.516 v 49.764 l -70.82,69.436 V 113.972 h 27.86 c 0.024,0 0.056,0 0.056,0 2.164,0 3.892,-2.744 3.892,-4.88 0,-0.78 -0.228,-2.016 -0.624,-2.628 L 254.616,2.544 C 254.024,1.088 252.6,0 251.032,0 c -1.58,0 -3,0.892 -3.584,2.352 l -42.24,104.304 c -0.484,1.196 -0.344,3.552 0.376,4.616 0.72,1.068 1.92,2.704 3.208,2.704 h 25.136 v 279.308 l -66.884,-69.672 v -71.948 c 11.804,-5.852 18.888,-17.824 18.888,-31.188 0,-19.208 -15.856,-34.832 -35.06,-34.832 -19.212,0 -34.744,15.62 -34.744,34.832 0,13.364 7.64,25.336 19.444,31.188 v 78.356 c 0,0.992 -0.116,2.008 0.084,3.056 0.084,0.388 0.1,0.756 0.22,1.124 l 0.084,0.436 c 0.116,0.432 0.22,0.868 0.392,1.3 0.196,0.452 0.408,0.88 0.648,1.308 l 0.22,0.392 c 0.164,0.332 0.328,0.664 0.544,0.976 0.584,0.88 1.24,1.676 1.932,2.364 l 85.872,85.868 c -10.568,8.008 -16.964,20.632 -16.964,33.992 0,23.52 19.132,42.652 42.656,42.652 23.516,0 41.976,-19.132 41.976,-42.652 0,-17.776 -12.1,-33.412 -27.836,-39.752 v -57.576 l 96.5,-95.836 c 0.704,-0.7 1.712,-1.504 2.288,-2.38 0.22,-0.308 0.556,-0.64 0.728,-0.976 l 0.296,-0.396 c 0.244,-0.432 0.524,-0.872 0.704,-1.312 0.172,-0.42 0.32,-0.856 0.444,-1.292 l 0.132,-0.432 c 0.124,-0.372 0.532,-0.74 0.616,-1.164 0.196,-1.008 0.58,-2.028 0.58,-3.016 v -56.176 h 14.92 c 2.14,0 4.752,-1.14 4.752,-3.28 v -61.904 c 0.004,-2.136 -2.604,-1.7 -4.744,-1.7 z"
   inkscape:connector-curvature="0" />

	</g>

</g>
      <g
         id="g4830">
</g>
      <g
         id="g4832">
</g>
      <g
         id="g4834">
</g>
      <g
         id="g4836">
</g>
      <g
         id="g4838">
</g>
      <g
         id="g4840">
</g>
      <g
         id="g4842">
</g>
      <g
         id="g4844">
</g>
      <g
         id="g4846">
</g>
      <g
         id="g4848">
</g>
      <g
         id="g4850">
</g>
      <g
         id="g4852">
</g>
      <g
         id="g4854">
</g>
      <g
         id="g4856">
</g>
      <g
         id="g4858">
</g>
    </g>
    <rect
       style="opacity:1;fill:#ffffff;fill-opacity:1;stroke:none;stroke-width:1.0467838;stroke-linejoin:round;stroke-miterlimit:4;stroke-dasharray:none;stroke-opacity:1;paint-order:fill markers stroke"
       id="rect4941"
       width="5.4860225"
       height="2.2177999"
       x="89.14035"
       y="138.87746"
       ry="0" />
    <rect
       style="opacity:1;fill:#ffffff;fill-opacity:1;stroke:none;stroke-width:0.9870739;stroke-linejoin:round;stroke-miterlimit:4;stroke-dasharray:none;stroke-opacity:1;paint-order:fill markers stroke"
       id="rect4941-4"
       width="5.4414024"
       height="1.9789559"
       x="-120.67016"
       y="-140.97975"
       ry="0"
       transform="matrix(-0.99999967,8.070745e-4,-9.8980376e-4,-0.99999951,0,0)" />
    <path
       style="opacity:0.93999999;fill:#ffffff;fill-opacity:1;stroke:none;stroke-width:1;stroke-linecap:round;stroke-linejoin:round;stroke-miterlimit:4;stroke-dasharray:none;stroke-opacity:1;paint-order:fill markers stroke"
       id="path4970"
       sodipodi:type="arc"
       sodipodi:cx="94.924118"
       sodipodi:cy="144.94368"
       sodipodi:rx="0.53787994"
       sodipodi:ry="0.046772167"
       sodipodi:start="3.1817178"
       sodipodi:end="6.2384525"
       sodipodi:open="true"
       d="m 94.386671,144.9418 a 0.53787994,0.04677217 0 0 1 0.536208,-0.0449 0.53787994,0.04677217 0 0 1 0.538581,0.0447" />
  </g>
  <g
     inkscape:groupmode="layer"
     id="layer2"
     inkscape:label="rond"
     style="display:inline">
    <path
       style="opacity:0.93999999;fill:none;stroke:#000000;stroke-width:1;stroke-linecap:round;stroke-linejoin:round;stroke-miterlimit:4;stroke-dasharray:none;stroke-opacity:1"
       id="path4764"
       sodipodi:type="arc"
       sodipodi:cx="105.00723"
       sodipodi:cy="140.12614"
       sodipodi:rx="15.949309"
       sodipodi:ry="17.305702"
       sodipodi:start="3.1724016"
       sodipodi:end="6.2513499"
       sodipodi:open="true"
       d="m 89.065492,139.59306 a 15.949309,17.305702 0 0 1 15.933558,-16.77262 15.949309,17.305702 0 0 1 15.94941,16.75486" />
    <path
       style="opacity:0.93999999;fill:none;stroke:#000000;stroke-width:1;stroke-linecap:round;stroke-linejoin:round;stroke-miterlimit:4;stroke-dasharray:none;stroke-opacity:1"
       id="path4764-6"
       sodipodi:type="arc"
       sodipodi:cx="105.00478"
       sodipodi:cy="139.8382"
       sodipodi:rx="10.389699"
       sodipodi:ry="11.273279"
       sodipodi:start="3.181725"
       sodipodi:end="6.2462473"
       sodipodi:open="true"
       d="m 94.62345,139.38589 a 10.389699,11.273279 0 0 1 10.39793,-10.82096 10.389699,11.273279 0 0 1 10.36602,10.85695" />
  </g>
</svg>
