<?xml version="1.0" encoding="UTF-8" standalone="no"?>
<!-- Created with Inkscape (http://www.inkscape.org/) -->

<svg
   xmlns:dc="http://purl.org/dc/elements/1.1/"
   xmlns:cc="http://creativecommons.org/ns#"
   xmlns:rdf="http://www.w3.org/1999/02/22-rdf-syntax-ns#"
   xmlns:svg="http://www.w3.org/2000/svg"
   xmlns="http://www.w3.org/2000/svg"
   xmlns:sodipodi="http://sodipodi.sourceforge.net/DTD/sodipodi-0.dtd"
   xmlns:inkscape="http://www.inkscape.org/namespaces/inkscape"
   width="210mm"
   height="297mm"
   viewBox="0 0 210 297"
   version="1.1"
   id="svg3719"
   sodipodi:docname="Logo_text_obj.svg"
   inkscape:version="0.92.4 5da689c313, 2019-01-14">
  <defs
     id="defs3713" />
  <sodipodi:namedview
     id="base"
     pagecolor="#ffffff"
     bordercolor="#666666"
     borderopacity="1.0"
     inkscape:pageopacity="0.0"
     inkscape:pageshadow="2"
     inkscape:zoom="4"
     inkscape:cx="337.49652"
     inkscape:cy="532.09049"
     inkscape:document-units="mm"
     inkscape:current-layer="text4710"
     showgrid="false"
     inkscape:window-width="1440"
     inkscape:window-height="871"
     inkscape:window-x="1920"
     inkscape:window-y="0"
     inkscape:window-maximized="1"
     inkscape:pagecheckerboard="true" />
  <metadata
     id="metadata3716">
    <rdf:RDF>
      <cc:Work
         rdf:about="">
        <dc:format>image/svg+xml</dc:format>
        <dc:type
           rdf:resource="http://purl.org/dc/dcmitype/StillImage" />
        <dc:title></dc:title>
      </cc:Work>
    </rdf:RDF>
  </metadata>
  <g
     inkscape:label="Calque 1"
     inkscape:groupmode="layer"
     id="layer1">
    <g
       aria-label="Keybox"
       transform="scale(0.92062255,1.0862215)"
       style="font-style:normal;font-variant:normal;font-weight:normal;font-stretch:normal;font-size:11.16047764px;line-height:1.25;font-family:'OCR A Extended';-inkscape-font-specification:'OCR A Extended, Normal';font-variant-ligatures:normal;font-variant-caps:normal;font-variant-numeric:normal;font-feature-settings:normal;text-align:start;letter-spacing:0px;word-spacing:0px;writing-mode:lr-tb;text-anchor:start;fill:#000000;fill-opacity:1;stroke:none;stroke-width:0.2989369"
       id="text4710">
      <path
         d="m 96.459495,139.97583 v -5.78965 q 0,-0.17984 0.119889,-0.30472 0.124885,-0.12488 0.299723,-0.12488 0.174839,0 0.294728,0.12488 0.124885,0.11989 0.124885,0.29473 v 1.98317 l 2.687519,-2.29289 q 0.139871,-0.11489 0.314711,-0.11489 0.17484,0 0.29473,0.12988 0.11989,0.12988 0.11989,0.29972 0,0.17484 -0.13488,0.28974 l -3.047187,2.58761 3.047187,2.63257 q 0.12488,0.1049 0.12488,0.26975 0,0.16485 -0.12488,0.29972 -0.11989,0.13488 -0.29972,0.13488 -0.16985,0 -0.304722,-0.1149 l -2.677528,-2.30787 v 2.00315 q 0,0.17484 -0.124885,0.29973 -0.119889,0.11989 -0.294728,0.11989 -0.169843,0 -0.294728,-0.11989 -0.124884,-0.12489 -0.124884,-0.29973 z"
         style="font-style:normal;font-variant:normal;font-weight:normal;font-stretch:normal;font-size:10.23055553px;font-family:'OCR A Extended';-inkscape-font-specification:'OCR A Extended, Normal';font-variant-ligatures:normal;font-variant-caps:normal;font-variant-numeric:normal;font-feature-settings:normal;text-align:start;writing-mode:lr-tb;text-anchor:start;stroke-width:0.2989369"
         id="path853" />
      <path
         d="m 106.87488,137.15344 v 1.01406 q 0,0.16985 -0.12489,0.29473 -0.12488,0.12489 -0.29472,0.12489 h -2.96726 v 0.24477 q 0,0.2148 0.18483,0.36466 l 0.24477,0.20481 q 0.19982,0.15486 0.37965,0.15486 h 2.15801 q 0.16984,0 0.29472,0.12489 0.12489,0.11989 0.12489,0.29472 0,0.16985 -0.12988,0.29473 -0.12489,0.12489 -0.28973,0.12489 h -2.21296 q -0.2198,0 -0.46457,-0.0899 -0.23978,-0.0949 -0.35467,-0.19482 l -0.37466,-0.3297 q -0.17484,-0.13987 -0.29473,-0.38964 -0.11489,-0.24977 -0.11489,-0.45957 v -1.92323 q 0,-0.16484 0.12488,-0.44459 0.12989,-0.27974 0.32471,-0.43459 l 0.34967,-0.27475 q 0.34468,-0.27974 0.7643,-0.27974 h 1.17891 q 0.44459,0 0.83922,0.36966 l 0.31471,0.29972 q 0.33969,0.30472 0.33969,0.90916 z m -3.37688,-0.0649 v 0.6494 h 2.54765 v -0.58446 q 0,-0.23478 -0.14487,-0.35967 l -0.24478,-0.2148 q -0.18982,-0.15486 -0.33968,-0.15486 h -1.05403 q -0.19482,0 -0.35467,0.13488 l -0.24478,0.20481 q -0.16484,0.12488 -0.16484,0.3247 z"
         style="font-style:normal;font-variant:normal;font-weight:normal;font-stretch:normal;font-size:10.23055553px;font-family:'OCR A Extended';-inkscape-font-specification:'OCR A Extended, Normal';font-variant-ligatures:normal;font-variant-caps:normal;font-variant-numeric:normal;font-feature-settings:normal;text-align:start;writing-mode:lr-tb;text-anchor:start;stroke-width:0.2989369"
         id="path855" />
      <path
         d="m 113.06417,136.80376 -2.26292,5.11528 q -0.11489,0.27475 -0.39963,0.27475 h -1.16392 q -0.17484,0 -0.29972,-0.11989 -0.11989,-0.11989 -0.11989,-0.29973 0,-0.17483 0.11989,-0.29472 0.12488,-0.11989 0.29972,-0.11989 h 0.89917 l 0.57447,-1.33377 h -0.20481 q -0.28474,0 -0.40962,-0.29473 l -1.25884,-2.9273 v -0.80925 q 0,-0.17484 0.11989,-0.29473 0.11989,-0.12488 0.28973,-0.12488 0.17484,0 0.29972,0.12488 0.12988,0.11989 0.12988,0.29473 v 0.62442 l 1.10398,2.55764 h 0.29473 l 1.13895,-2.54765 v -0.6444 q 0,-0.16485 0.12488,-0.28973 0.12988,-0.12988 0.30472,-0.12988 0.16985,0 0.29473,0.12488 0.12489,0.12489 0.12489,0.29473 z"
         style="font-style:normal;font-variant:normal;font-weight:normal;font-stretch:normal;font-size:10.23055553px;font-family:'OCR A Extended';-inkscape-font-specification:'OCR A Extended, Normal';font-variant-ligatures:normal;font-variant-caps:normal;font-variant-numeric:normal;font-feature-settings:normal;text-align:start;writing-mode:lr-tb;text-anchor:start;stroke-width:0.2989369"
         id="path857" />
      <path
         d="m 115.86658,134.17619 v 1.97318 l 0.36966,-0.29473 q 0.34968,-0.28973 0.72433,-0.28973 h 0.76929 q 0.42461,0 0.7543,0.28973 l 0.39963,0.34468 q 0.16485,0.14487 0.26976,0.41462 0.10989,0.26975 0.10989,0.52951 v 1.69843 q 0,0.22979 -0.0999,0.48455 -0.0999,0.25477 -0.22979,0.37466 l -0.36466,0.34468 q -0.13988,0.13488 -0.39964,0.24477 -0.25976,0.10491 -0.43959,0.10491 h -0.71934 q -0.52451,0 -1.14394,-0.58446 v 0.16484 q 0,0.17484 -0.12488,0.29973 -0.11989,0.11989 -0.29473,0.11989 -0.17484,0 -0.29973,-0.11989 -0.11989,-0.12489 -0.11989,-0.29973 v -5.79964 q 0,-0.17484 0.12489,-0.29473 0.12488,-0.12488 0.29473,-0.12488 0.17484,0 0.29473,0.12488 0.12488,0.11989 0.12488,0.29473 z m 1.79834,2.23793 h -0.57947 q -0.2098,0 -0.3197,0.0949 l -0.7543,0.64441 q -0.14487,0.12988 -0.14487,0.38964 v 0.94912 q 0,0.20981 0.16485,0.34968 l 0.67438,0.56948 q 0.14486,0.13487 0.30471,0.13487 h 0.68437 q 0.14487,0 0.24977,-0.0899 l 0.33469,-0.29972 q 0.13488,-0.0999 0.13488,-0.28474 v -1.76836 q 0,-0.20981 -0.13488,-0.31971 l -0.30472,-0.25476 q -0.13987,-0.1149 -0.30971,-0.1149 z"
         style="font-style:normal;font-variant:normal;font-weight:normal;font-stretch:normal;font-size:10.23055553px;font-family:'OCR A Extended';-inkscape-font-specification:'OCR A Extended, Normal';font-variant-ligatures:normal;font-variant-caps:normal;font-variant-numeric:normal;font-feature-settings:normal;text-align:start;writing-mode:lr-tb;text-anchor:start;stroke-width:0.2989369"
         id="path859" />
      <path
         d="m 125.41277,137.0885 v 1.77336 q 0,0.56448 -0.53451,1.04404 -0.52951,0.47956 -1.09399,0.47956 h -0.98409 q -0.57447,0 -1.09899,-0.48456 -0.52451,-0.48954 -0.52451,-1.03904 v -1.77336 q 0,-0.54949 0.50953,-1.03405 0.51452,-0.48954 1.11397,-0.48954 h 0.98409 q 0.56448,-0.01 1.09399,0.46956 0.53451,0.47956 0.53451,1.05403 z m -3.38688,0.035 v 1.69843 q 0,0.22979 0.16485,0.36466 l 0.31471,0.26975 q 0.1049,0.0899 0.29473,0.0899 h 0.9741 q 0.2148,0 0.38964,-0.15486 l 0.25476,-0.22479 q 0.15486,-0.11989 0.15486,-0.33469 v -1.69843 q 0,-0.24977 -0.15486,-0.36966 l -0.29472,-0.23478 q -0.14987,-0.12489 -0.34968,-0.12489 h -0.8692 q -0.28474,0 -0.43959,0.13488 l -0.28474,0.24477 q -0.15486,0.12988 -0.15486,0.33969 z"
         style="font-style:normal;font-variant:normal;font-weight:normal;font-stretch:normal;font-size:10.23055553px;font-family:'OCR A Extended';-inkscape-font-specification:'OCR A Extended, Normal';font-variant-ligatures:normal;font-variant-caps:normal;font-variant-numeric:normal;font-feature-settings:normal;text-align:start;writing-mode:lr-tb;text-anchor:start;stroke-width:0.2989369"
         id="path861" />
      <path
         d="m 129.55394,138.58712 -1.37373,1.63349 q -0.13487,0.17484 -0.33469,0.17484 -0.17983,0 -0.29972,-0.12489 -0.11989,-0.12488 -0.11989,-0.30472 0,-0.15985 0.0799,-0.25476 l 1.50362,-1.80334 -1.38872,-1.65347 q -0.0949,-0.1099 -0.0949,-0.24977 0,-0.16485 0.1149,-0.29473 0.11989,-0.13487 0.30472,-0.13487 0.2098,0 0.33968,0.15485 l 1.26883,1.5236 1.2988,-1.53359 q 0.11989,-0.14486 0.29973,-0.14486 0.15985,0 0.28973,0.11489 0.12988,0.1099 0.12988,0.28474 0,0.16984 -0.0549,0.23478 l -1.41369,1.70842 1.48363,1.79335 q 0.0849,0.0949 0.0849,0.23478 0,0.18983 -0.12988,0.31971 -0.12489,0.12488 -0.28974,0.12488 -0.19482,0 -0.33968,-0.16984 z"
         style="font-style:normal;font-variant:normal;font-weight:normal;font-stretch:normal;font-size:10.23055553px;font-family:'OCR A Extended';-inkscape-font-specification:'OCR A Extended, Normal';font-variant-ligatures:normal;font-variant-caps:normal;font-variant-numeric:normal;font-feature-settings:normal;text-align:start;writing-mode:lr-tb;text-anchor:start;stroke-width:0.2989369"
         id="path863" />
    </g>
    <g
       id="g3776"
       transform="matrix(0.06703231,0,0,0.04992158,87.081454,154.86471)" />
    <g
       id="g3778"
       transform="matrix(0.06703231,0,0,0.04992158,87.081454,154.86471)" />
    <g
       id="g3780"
       transform="matrix(0.06703231,0,0,0.04992158,87.081454,154.86471)" />
    <g
       id="g3782"
       transform="matrix(0.06703231,0,0,0.04992158,87.081454,154.86471)" />
    <g
       id="g3784"
       transform="matrix(0.06703231,0,0,0.04992158,87.081454,154.86471)" />
    <g
       id="g3786"
       transform="matrix(0.06703231,0,0,0.04992158,87.081454,154.86471)" />
    <g
       id="g3788"
       transform="matrix(0.06703231,0,0,0.04992158,87.081454,154.86471)" />
    <g
       id="g3790"
       transform="matrix(0.06703231,0,0,0.04992158,87.081454,154.86471)" />
    <g
       id="g3792"
       transform="matrix(0.06703231,0,0,0.04992158,87.081454,154.86471)" />
    <g
       id="g3794"
       transform="matrix(0.06703231,0,0,0.04992158,87.081454,154.86471)" />
    <g
       id="g3796"
       transform="matrix(0.06703231,0,0,0.04992158,87.081454,154.86471)" />
    <g
       id="g3798"
       transform="matrix(0.06703231,0,0,0.04992158,87.081454,154.86471)" />
    <g
       id="g3800"
       transform="matrix(0.06703231,0,0,0.04992158,87.081454,154.86471)" />
    <g
       id="g3802"
       transform="matrix(0.06703231,0,0,0.04992158,87.081454,154.86471)" />
    <g
       id="g3804"
       transform="matrix(0.06703231,0,0,0.04992158,87.081454,154.86471)" />
    <path
       style="opacity:0.93999999;fill:none;stroke:#000000;stroke-width:1;stroke-linecap:round;stroke-linejoin:round;stroke-miterlimit:4;stroke-dasharray:none;stroke-opacity:1"
       d="m 94.62345,139.38589 0.721613,0.0333 20.042337,0.003"
       id="path869"
       inkscape:connector-curvature="0"
       sodipodi:nodetypes="ccc" />
    <path
       style="opacity:0.93999999;fill:none;stroke:#000000;stroke-width:1;stroke-linecap:round;stroke-linejoin:round;stroke-miterlimit:4;stroke-dasharray:none;stroke-opacity:1"
       d="m 120.94846,139.5753 c 0,0 0.77891,0.31668 1.03299,0.44064 0.31329,0.15285 2.234,1.41177 2.234,3.907 v 24.17463 c 0,2.49523 -2.00879,4.50402 -4.50402,4.50402 H 90.288191 c -2.495226,0 -4.504019,-2.00879 -4.504019,-4.50402 v -24.17463 c 0,-2.03958 1.342132,-3.75415 3.195001,-4.31233 l 0.08632,-0.0178"
       id="rect4673"
       inkscape:connector-curvature="0"
       sodipodi:nodetypes="cssssssscc" />
    <g
       id="g4885"
       transform="matrix(-4.788013e-4,-0.03661862,0.03661862,-4.788013e-4,95.901669,172.00703)">
      <g
         id="g4828">
        <g
           id="g4826">
          <path
             id="path4824"
             d="m 382.616,133.644 h -61.908 c -2.148,0 -4.156,-0.436 -4.156,1.7 v 61.904 c 0,2.14 2.008,3.28 4.156,3.28 h 15.516 v 49.764 l -70.82,69.436 V 113.972 h 27.86 c 0.024,0 0.056,0 0.056,0 2.164,0 3.892,-2.744 3.892,-4.88 0,-0.78 -0.228,-2.016 -0.624,-2.628 L 254.616,2.544 C 254.024,1.088 252.6,0 251.032,0 c -1.58,0 -3,0.892 -3.584,2.352 l -42.24,104.304 c -0.484,1.196 -0.344,3.552 0.376,4.616 0.72,1.068 1.92,2.704 3.208,2.704 h 25.136 v 279.308 l -66.884,-69.672 v -71.948 c 11.804,-5.852 18.888,-17.824 18.888,-31.188 0,-19.208 -15.856,-34.832 -35.06,-34.832 -19.212,0 -34.744,15.62 -34.744,34.832 0,13.364 7.64,25.336 19.444,31.188 v 78.356 c 0,0.992 -0.116,2.008 0.084,3.056 0.084,0.388 0.1,0.756 0.22,1.124 l 0.084,0.436 c 0.116,0.432 0.22,0.868 0.392,1.3 0.196,0.452 0.408,0.88 0.648,1.308 l 0.22,0.392 c 0.164,0.332 0.328,0.664 0.544,0.976 0.584,0.88 1.24,1.676 1.932,2.364 l 85.872,85.868 c -10.568,8.008 -16.964,20.632 -16.964,33.992 0,23.52 19.132,42.652 42.656,42.652 23.516,0 41.976,-19.132 41.976,-42.652 0,-17.776 -12.1,-33.412 -27.836,-39.752 v -57.576 l 96.5,-95.836 c 0.704,-0.7 1.712,-1.504 2.288,-2.38 0.22,-0.308 0.556,-0.64 0.728,-0.976 l 0.296,-0.396 c 0.244,-0.432 0.524,-0.872 0.704,-1.312 0.172,-0.42 0.32,-0.856 0.444,-1.292 l 0.132,-0.432 c 0.124,-0.372 0.532,-0.74 0.616,-1.164 0.196,-1.008 0.58,-2.028 0.58,-3.016 v -56.176 h 14.92 c 2.14,0 4.752,-1.14 4.752,-3.28 v -61.904 c 0.004,-2.136 -2.604,-1.7 -4.744,-1.7 z"
             inkscape:connector-curvature="0" />
        </g>
      </g>
      <g
         id="g4830" />
      <g
         id="g4832" />
      <g
         id="g4834" />
      <g
         id="g4836" />
      <g
         id="g4838" />
      <g
         id="g4840" />
      <g
         id="g4842" />
      <g
         id="g4844" />
      <g
         id="g4846" />
      <g
         id="g4848" />
      <g
         id="g4850" />
      <g
         id="g4852" />
      <g
         id="g4854" />
      <g
         id="g4856" />
      <g
         id="g4858" />
    </g>
  </g>
  <g
     inkscape:groupmode="layer"
     id="layer2"
     inkscape:label="rond"
     style="display:inline">
    <path
       style="opacity:0.93999999;fill:none;stroke:#000000;stroke-width:1;stroke-linecap:round;stroke-linejoin:round;stroke-miterlimit:4;stroke-dasharray:none;stroke-opacity:1"
       id="path4764"
       sodipodi:type="arc"
       sodipodi:cx="105.00723"
       sodipodi:cy="140.12614"
       sodipodi:rx="15.949309"
       sodipodi:ry="17.305702"
       sodipodi:start="3.1724016"
       sodipodi:end="6.2513499"
       sodipodi:open="true"
       d="m 89.065492,139.59306 a 15.949309,17.305702 0 0 1 15.933558,-16.77262 15.949309,17.305702 0 0 1 15.94941,16.75486" />
    <path
       style="opacity:0.93999999;fill:none;stroke:#000000;stroke-width:1;stroke-linecap:round;stroke-linejoin:round;stroke-miterlimit:4;stroke-dasharray:none;stroke-opacity:1"
       id="path4764-6"
       sodipodi:type="arc"
       sodipodi:cx="105.00478"
       sodipodi:cy="139.8382"
       sodipodi:rx="10.389699"
       sodipodi:ry="11.273279"
       sodipodi:start="3.181725"
       sodipodi:end="6.2462473"
       sodipodi:open="true"
       d="m 94.62345,139.38589 a 10.389699,11.273279 0 0 1 10.39793,-10.82096 10.389699,11.273279 0 0 1 10.36602,10.85695" />
  </g>
</svg>
