G04 #@! TF.GenerationSoftware,KiCad,Pcbnew,5.1.5*
G04 #@! TF.CreationDate,2019-12-05T21:45:56+01:00*
G04 #@! TF.ProjectId,anavi-play-phat,616e6176-692d-4706-9c61-792d70686174,rev?*
G04 #@! TF.SameCoordinates,Original*
G04 #@! TF.FileFunction,Copper,L2,Bot*
G04 #@! TF.FilePolarity,Positive*
%FSLAX46Y46*%
G04 Gerber Fmt 4.6, Leading zero omitted, Abs format (unit mm)*
G04 Created by KiCad (PCBNEW 5.1.5) date 2019-12-05 21:45:56*
%MOMM*%
%LPD*%
G04 APERTURE LIST*
%ADD10C,2.000000*%
%ADD11R,7.500000X2.000000*%
%ADD12R,8.000000X1.900000*%
%ADD13C,1.800000*%
%ADD14R,1.727200X1.727200*%
%ADD15O,1.727200X1.727200*%
%ADD16C,4.700000*%
%ADD17C,1.000000*%
%ADD18C,0.500000*%
%ADD19C,0.254000*%
G04 APERTURE END LIST*
D10*
X207772000Y-85344000D03*
X207772000Y-87884000D03*
X207772000Y-90424000D03*
X207772000Y-92964000D03*
D11*
X218948000Y-92008000D03*
X218948000Y-89408000D03*
D12*
X219198000Y-86898000D03*
X219198000Y-94518000D03*
D13*
X193582800Y-102109600D03*
X186502800Y-97229600D03*
X186502800Y-102109600D03*
X193582800Y-97229600D03*
X162460000Y-93996000D03*
X157580000Y-101076000D03*
X162460000Y-101076000D03*
X157580000Y-93996000D03*
X164692000Y-95488000D03*
X169572000Y-88408000D03*
X164692000Y-88408000D03*
X169572000Y-95488000D03*
X179816000Y-102008000D03*
X172736000Y-97128000D03*
X172736000Y-102008000D03*
X179816000Y-97128000D03*
X150468000Y-94980000D03*
X155348000Y-87900000D03*
X150468000Y-87900000D03*
X155348000Y-94980000D03*
X162460000Y-83328000D03*
X157580000Y-90408000D03*
X162460000Y-90408000D03*
X157580000Y-83328000D03*
D14*
X156850000Y-79800000D03*
D15*
X156850000Y-77260000D03*
X159390000Y-79800000D03*
X159390000Y-77260000D03*
X161930000Y-79800000D03*
X161930000Y-77260000D03*
X164470000Y-79800000D03*
X164470000Y-77260000D03*
X167010000Y-79800000D03*
X167010000Y-77260000D03*
X169550000Y-79800000D03*
X169550000Y-77260000D03*
X172090000Y-79800000D03*
X172090000Y-77260000D03*
X174630000Y-79800000D03*
X174630000Y-77260000D03*
X177170000Y-79800000D03*
X177170000Y-77260000D03*
X179710000Y-79800000D03*
X179710000Y-77260000D03*
X182250000Y-79800000D03*
X182250000Y-77260000D03*
X184790000Y-79800000D03*
X184790000Y-77260000D03*
X187330000Y-79800000D03*
X187330000Y-77260000D03*
X189870000Y-79800000D03*
X189870000Y-77260000D03*
X192410000Y-79800000D03*
X192410000Y-77260000D03*
X194950000Y-79800000D03*
X194950000Y-77260000D03*
X197490000Y-79800000D03*
X197490000Y-77260000D03*
X200030000Y-79800000D03*
X200030000Y-77260000D03*
X202570000Y-79800000D03*
X202570000Y-77260000D03*
X205110000Y-79800000D03*
X205110000Y-77260000D03*
D16*
X152000000Y-78500000D03*
X210000000Y-78500000D03*
X210000000Y-101500000D03*
X152000000Y-101500000D03*
D13*
X201523600Y-100025200D03*
X190906400Y-101396800D03*
X188925200Y-101346000D03*
X211531200Y-86969600D03*
X201574400Y-102108000D03*
D17*
X214198000Y-89408000D02*
X208254400Y-95351600D01*
X191387599Y-98883601D02*
X188925200Y-101346000D01*
X194376721Y-98883601D02*
X191387599Y-98883601D01*
X218948000Y-89408000D02*
X214198000Y-89408000D01*
X208254400Y-95351600D02*
X197908722Y-95351600D01*
X197908722Y-95351600D02*
X194376721Y-98883601D01*
X192828798Y-100496801D02*
X192995599Y-100330000D01*
X190906400Y-101396800D02*
X191806399Y-100496801D01*
X191806399Y-100496801D02*
X192828798Y-100496801D01*
X192995599Y-100330000D02*
X195580000Y-100330000D01*
X195580000Y-100330000D02*
X198729600Y-97180400D01*
X198729600Y-97180400D02*
X209143600Y-97180400D01*
X214198000Y-92008000D02*
X218948000Y-92008000D01*
X209143600Y-97062400D02*
X214198000Y-92008000D01*
X209143600Y-97180400D02*
X209143600Y-97062400D01*
X219126400Y-86969600D02*
X219198000Y-86898000D01*
X211531200Y-86969600D02*
X219126400Y-86969600D01*
X219198000Y-94518000D02*
X214198000Y-94518000D01*
D18*
X213482400Y-94518000D02*
X214198000Y-94518000D01*
X213004400Y-94996000D02*
X213482400Y-94518000D01*
X213309200Y-95351600D02*
X213364400Y-95351600D01*
X213156800Y-95250000D02*
X213664800Y-94742000D01*
X212953600Y-95250000D02*
X213156800Y-95250000D01*
X213364400Y-95351600D02*
X213664800Y-94742000D01*
X213664800Y-94742000D02*
X214198000Y-94518000D01*
X213364400Y-95351600D02*
X214198000Y-94518000D01*
X156845000Y-80137000D02*
X156845000Y-79756000D01*
X156845000Y-79756000D02*
X156850000Y-79800000D01*
D17*
X206357787Y-90424000D02*
X207772000Y-90424000D01*
X187794000Y-90424000D02*
X206357787Y-90424000D01*
X177170000Y-79800000D02*
X187794000Y-90424000D01*
X163482000Y-83328000D02*
X162460000Y-83328000D01*
X167010000Y-79800000D02*
X163482000Y-83328000D01*
D18*
X156850000Y-77260000D02*
X156547000Y-77260000D01*
X156850000Y-77260000D02*
X156737500Y-77260000D01*
D17*
X159234001Y-84982001D02*
X164367999Y-84982001D01*
X168686401Y-80663599D02*
X169550000Y-79800000D01*
X164367999Y-84982001D02*
X168686401Y-80663599D01*
X157580000Y-83328000D02*
X159234001Y-84982001D01*
D18*
X189870000Y-77260000D02*
X189870000Y-76639500D01*
X189870000Y-77260000D02*
X189865000Y-77216000D01*
X161925000Y-79756000D02*
X161930000Y-79800000D01*
D19*
X175493599Y-78123599D02*
X174630000Y-77260000D01*
X175874601Y-80370601D02*
X175874601Y-78504601D01*
X176276000Y-80772000D02*
X175874601Y-80370601D01*
X175874601Y-78504601D02*
X175493599Y-78123599D01*
X176276000Y-82296000D02*
X176276000Y-80772000D01*
D17*
X186553600Y-100498400D02*
X186502800Y-100549200D01*
X186502800Y-100549200D02*
X186502800Y-102109600D01*
X176276000Y-82296000D02*
X176276000Y-90220800D01*
X176276000Y-90220800D02*
X186553600Y-100498400D01*
D18*
X169550000Y-77260000D02*
X169545000Y-77216000D01*
X169550000Y-77260000D02*
X169500000Y-77250000D01*
D17*
X157580000Y-93996000D02*
X160651989Y-90924011D01*
X161667989Y-86236011D02*
X166239989Y-86236011D01*
X160651989Y-87252011D02*
X161667989Y-86236011D01*
X160651989Y-90924011D02*
X160651989Y-87252011D01*
X166239989Y-86236011D02*
X170688000Y-81788000D01*
D19*
X170413599Y-78123599D02*
X169550000Y-77260000D01*
X170794601Y-78504601D02*
X170413599Y-78123599D01*
X170794601Y-81681399D02*
X170794601Y-78504601D01*
X170688000Y-81788000D02*
X170794601Y-81681399D01*
D17*
X172090000Y-92970000D02*
X172090000Y-79800000D01*
X169572000Y-95488000D02*
X172090000Y-92970000D01*
X174630000Y-91942000D02*
X174630000Y-79800000D01*
X179816000Y-97128000D02*
X174630000Y-91942000D01*
X162852399Y-81417601D02*
X164470000Y-79800000D01*
X150468000Y-87900000D02*
X156950399Y-81417601D01*
X156950399Y-81417601D02*
X162852399Y-81417601D01*
D19*
G36*
X173465961Y-80755302D02*
G01*
X173495001Y-80784342D01*
X173495000Y-91886248D01*
X173489509Y-91942000D01*
X173496028Y-92008192D01*
X173511423Y-92164498D01*
X173576324Y-92378446D01*
X173681716Y-92575623D01*
X173823551Y-92748449D01*
X173866865Y-92783996D01*
X178281000Y-97198133D01*
X178281000Y-97279184D01*
X178339989Y-97575743D01*
X178455701Y-97855095D01*
X178623688Y-98106505D01*
X178837495Y-98320312D01*
X179088905Y-98488299D01*
X179368257Y-98604011D01*
X179664816Y-98663000D01*
X179967184Y-98663000D01*
X180263743Y-98604011D01*
X180543095Y-98488299D01*
X180794505Y-98320312D01*
X181008312Y-98106505D01*
X181176299Y-97855095D01*
X181292011Y-97575743D01*
X181351000Y-97279184D01*
X181351000Y-96976816D01*
X181332158Y-96882089D01*
X185367800Y-100917732D01*
X185367800Y-101073783D01*
X185310488Y-101131095D01*
X185142501Y-101382505D01*
X185026789Y-101661857D01*
X184967800Y-101958416D01*
X184967800Y-102260784D01*
X185026789Y-102557343D01*
X185142501Y-102836695D01*
X185310488Y-103088105D01*
X185524295Y-103301912D01*
X185775705Y-103469899D01*
X186055057Y-103585611D01*
X186351616Y-103644600D01*
X186653984Y-103644600D01*
X186950543Y-103585611D01*
X187229895Y-103469899D01*
X187481305Y-103301912D01*
X187609537Y-103173680D01*
X192698325Y-103173680D01*
X192782008Y-103427861D01*
X193054575Y-103558758D01*
X193347442Y-103633965D01*
X193649353Y-103650591D01*
X193948707Y-103607997D01*
X194233999Y-103507822D01*
X194383592Y-103427861D01*
X194467275Y-103173680D01*
X193582800Y-102289205D01*
X192698325Y-103173680D01*
X187609537Y-103173680D01*
X187695112Y-103088105D01*
X187863099Y-102836695D01*
X187978023Y-102559245D01*
X188198105Y-102706299D01*
X188477457Y-102822011D01*
X188774016Y-102881000D01*
X189076384Y-102881000D01*
X189372943Y-102822011D01*
X189652295Y-102706299D01*
X189887753Y-102548970D01*
X189927895Y-102589112D01*
X190179305Y-102757099D01*
X190458657Y-102872811D01*
X190755216Y-102931800D01*
X191057584Y-102931800D01*
X191354143Y-102872811D01*
X191633495Y-102757099D01*
X191884905Y-102589112D01*
X192073704Y-102400313D01*
X192084403Y-102475507D01*
X192184578Y-102760799D01*
X192264539Y-102910392D01*
X192518720Y-102994075D01*
X193403195Y-102109600D01*
X193389053Y-102095458D01*
X193568658Y-101915853D01*
X193582800Y-101929995D01*
X193596943Y-101915853D01*
X193776548Y-102095458D01*
X193762405Y-102109600D01*
X194646880Y-102994075D01*
X194901061Y-102910392D01*
X195031958Y-102637825D01*
X195107165Y-102344958D01*
X195123791Y-102043047D01*
X195081197Y-101743693D01*
X194983339Y-101465000D01*
X195524249Y-101465000D01*
X195580000Y-101470491D01*
X195635751Y-101465000D01*
X195635752Y-101465000D01*
X195802499Y-101448577D01*
X196016447Y-101383676D01*
X196213623Y-101278284D01*
X196386449Y-101136449D01*
X196421996Y-101093135D01*
X197641115Y-99874016D01*
X199988600Y-99874016D01*
X199988600Y-100176384D01*
X200047589Y-100472943D01*
X200163301Y-100752295D01*
X200331288Y-101003705D01*
X200545095Y-101217512D01*
X200796505Y-101385499D01*
X201075857Y-101501211D01*
X201372416Y-101560200D01*
X201674784Y-101560200D01*
X201971343Y-101501211D01*
X202250695Y-101385499D01*
X202502105Y-101217512D01*
X202715912Y-101003705D01*
X202883899Y-100752295D01*
X202999611Y-100472943D01*
X203058600Y-100176384D01*
X203058600Y-99874016D01*
X202999611Y-99577457D01*
X202883899Y-99298105D01*
X202715912Y-99046695D01*
X202502105Y-98832888D01*
X202250695Y-98664901D01*
X201971343Y-98549189D01*
X201674784Y-98490200D01*
X201372416Y-98490200D01*
X201075857Y-98549189D01*
X200796505Y-98664901D01*
X200545095Y-98832888D01*
X200331288Y-99046695D01*
X200163301Y-99298105D01*
X200047589Y-99577457D01*
X199988600Y-99874016D01*
X197641115Y-99874016D01*
X199199732Y-98315400D01*
X209087848Y-98315400D01*
X209143600Y-98320891D01*
X209199351Y-98315400D01*
X209199352Y-98315400D01*
X209366099Y-98298977D01*
X209580047Y-98234076D01*
X209777223Y-98128684D01*
X209950049Y-97986849D01*
X210091884Y-97814023D01*
X210197276Y-97616847D01*
X210198579Y-97612552D01*
X212162945Y-95648187D01*
X212214189Y-95744059D01*
X212324783Y-95878817D01*
X212459541Y-95989411D01*
X212613287Y-96071589D01*
X212780110Y-96122195D01*
X212894575Y-96133469D01*
X212922900Y-96148609D01*
X212865181Y-96256594D01*
X212826012Y-96385717D01*
X212812786Y-96520000D01*
X212816101Y-96553657D01*
X212816100Y-98010353D01*
X212816100Y-98010354D01*
X212816101Y-100498488D01*
X212645273Y-100086072D01*
X212318601Y-99597174D01*
X211902826Y-99181399D01*
X211413928Y-98854727D01*
X210870692Y-98629712D01*
X210293997Y-98515000D01*
X209706003Y-98515000D01*
X209129308Y-98629712D01*
X208586072Y-98854727D01*
X208097174Y-99181399D01*
X207681399Y-99597174D01*
X207354727Y-100086072D01*
X207129712Y-100629308D01*
X207015000Y-101206003D01*
X207015000Y-101793997D01*
X207129712Y-102370692D01*
X207354727Y-102913928D01*
X207681399Y-103402826D01*
X208097174Y-103818601D01*
X208586072Y-104145273D01*
X209004522Y-104318600D01*
X152995478Y-104318600D01*
X153413928Y-104145273D01*
X153902826Y-103818601D01*
X154318601Y-103402826D01*
X154645273Y-102913928D01*
X154870288Y-102370692D01*
X154916159Y-102140080D01*
X156695525Y-102140080D01*
X156779208Y-102394261D01*
X157051775Y-102525158D01*
X157344642Y-102600365D01*
X157646553Y-102616991D01*
X157945907Y-102574397D01*
X158231199Y-102474222D01*
X158380792Y-102394261D01*
X158464475Y-102140080D01*
X157580000Y-101255605D01*
X156695525Y-102140080D01*
X154916159Y-102140080D01*
X154985000Y-101793997D01*
X154985000Y-101206003D01*
X154972379Y-101142553D01*
X156039009Y-101142553D01*
X156081603Y-101441907D01*
X156181778Y-101727199D01*
X156261739Y-101876792D01*
X156515920Y-101960475D01*
X157400395Y-101076000D01*
X157759605Y-101076000D01*
X158644080Y-101960475D01*
X158898261Y-101876792D01*
X159029158Y-101604225D01*
X159104365Y-101311358D01*
X159120991Y-101009447D01*
X159108950Y-100924816D01*
X160925000Y-100924816D01*
X160925000Y-101227184D01*
X160983989Y-101523743D01*
X161099701Y-101803095D01*
X161267688Y-102054505D01*
X161481495Y-102268312D01*
X161732905Y-102436299D01*
X162012257Y-102552011D01*
X162308816Y-102611000D01*
X162611184Y-102611000D01*
X162907743Y-102552011D01*
X163187095Y-102436299D01*
X163438505Y-102268312D01*
X163652312Y-102054505D01*
X163784403Y-101856816D01*
X171201000Y-101856816D01*
X171201000Y-102159184D01*
X171259989Y-102455743D01*
X171375701Y-102735095D01*
X171543688Y-102986505D01*
X171757495Y-103200312D01*
X172008905Y-103368299D01*
X172288257Y-103484011D01*
X172584816Y-103543000D01*
X172887184Y-103543000D01*
X173183743Y-103484011D01*
X173463095Y-103368299D01*
X173714505Y-103200312D01*
X173842737Y-103072080D01*
X178931525Y-103072080D01*
X179015208Y-103326261D01*
X179287775Y-103457158D01*
X179580642Y-103532365D01*
X179882553Y-103548991D01*
X180181907Y-103506397D01*
X180467199Y-103406222D01*
X180616792Y-103326261D01*
X180700475Y-103072080D01*
X179816000Y-102187605D01*
X178931525Y-103072080D01*
X173842737Y-103072080D01*
X173928312Y-102986505D01*
X174096299Y-102735095D01*
X174212011Y-102455743D01*
X174271000Y-102159184D01*
X174271000Y-102074553D01*
X178275009Y-102074553D01*
X178317603Y-102373907D01*
X178417778Y-102659199D01*
X178497739Y-102808792D01*
X178751920Y-102892475D01*
X179636395Y-102008000D01*
X179995605Y-102008000D01*
X180880080Y-102892475D01*
X181134261Y-102808792D01*
X181265158Y-102536225D01*
X181340365Y-102243358D01*
X181356991Y-101941447D01*
X181314397Y-101642093D01*
X181214222Y-101356801D01*
X181134261Y-101207208D01*
X180880080Y-101123525D01*
X179995605Y-102008000D01*
X179636395Y-102008000D01*
X178751920Y-101123525D01*
X178497739Y-101207208D01*
X178366842Y-101479775D01*
X178291635Y-101772642D01*
X178275009Y-102074553D01*
X174271000Y-102074553D01*
X174271000Y-101856816D01*
X174212011Y-101560257D01*
X174096299Y-101280905D01*
X173928312Y-101029495D01*
X173842737Y-100943920D01*
X178931525Y-100943920D01*
X179816000Y-101828395D01*
X180700475Y-100943920D01*
X180616792Y-100689739D01*
X180344225Y-100558842D01*
X180051358Y-100483635D01*
X179749447Y-100467009D01*
X179450093Y-100509603D01*
X179164801Y-100609778D01*
X179015208Y-100689739D01*
X178931525Y-100943920D01*
X173842737Y-100943920D01*
X173714505Y-100815688D01*
X173463095Y-100647701D01*
X173183743Y-100531989D01*
X172887184Y-100473000D01*
X172584816Y-100473000D01*
X172288257Y-100531989D01*
X172008905Y-100647701D01*
X171757495Y-100815688D01*
X171543688Y-101029495D01*
X171375701Y-101280905D01*
X171259989Y-101560257D01*
X171201000Y-101856816D01*
X163784403Y-101856816D01*
X163820299Y-101803095D01*
X163936011Y-101523743D01*
X163995000Y-101227184D01*
X163995000Y-100924816D01*
X163936011Y-100628257D01*
X163820299Y-100348905D01*
X163652312Y-100097495D01*
X163438505Y-99883688D01*
X163187095Y-99715701D01*
X162907743Y-99599989D01*
X162611184Y-99541000D01*
X162308816Y-99541000D01*
X162012257Y-99599989D01*
X161732905Y-99715701D01*
X161481495Y-99883688D01*
X161267688Y-100097495D01*
X161099701Y-100348905D01*
X160983989Y-100628257D01*
X160925000Y-100924816D01*
X159108950Y-100924816D01*
X159078397Y-100710093D01*
X158978222Y-100424801D01*
X158898261Y-100275208D01*
X158644080Y-100191525D01*
X157759605Y-101076000D01*
X157400395Y-101076000D01*
X156515920Y-100191525D01*
X156261739Y-100275208D01*
X156130842Y-100547775D01*
X156055635Y-100840642D01*
X156039009Y-101142553D01*
X154972379Y-101142553D01*
X154870288Y-100629308D01*
X154645273Y-100086072D01*
X154595727Y-100011920D01*
X156695525Y-100011920D01*
X157580000Y-100896395D01*
X158464475Y-100011920D01*
X158380792Y-99757739D01*
X158108225Y-99626842D01*
X157815358Y-99551635D01*
X157513447Y-99535009D01*
X157214093Y-99577603D01*
X156928801Y-99677778D01*
X156779208Y-99757739D01*
X156695525Y-100011920D01*
X154595727Y-100011920D01*
X154318601Y-99597174D01*
X153902826Y-99181399D01*
X153413928Y-98854727D01*
X152870692Y-98629712D01*
X152293997Y-98515000D01*
X151706003Y-98515000D01*
X151129308Y-98629712D01*
X150586072Y-98854727D01*
X150097174Y-99181399D01*
X149681399Y-99597174D01*
X149354727Y-100086072D01*
X149205647Y-100445985D01*
X149233852Y-98192080D01*
X171851525Y-98192080D01*
X171935208Y-98446261D01*
X172207775Y-98577158D01*
X172500642Y-98652365D01*
X172802553Y-98668991D01*
X173101907Y-98626397D01*
X173387199Y-98526222D01*
X173536792Y-98446261D01*
X173620475Y-98192080D01*
X172736000Y-97307605D01*
X171851525Y-98192080D01*
X149233852Y-98192080D01*
X149246336Y-97194553D01*
X171195009Y-97194553D01*
X171237603Y-97493907D01*
X171337778Y-97779199D01*
X171417739Y-97928792D01*
X171671920Y-98012475D01*
X172556395Y-97128000D01*
X172915605Y-97128000D01*
X173800080Y-98012475D01*
X174054261Y-97928792D01*
X174185158Y-97656225D01*
X174260365Y-97363358D01*
X174276991Y-97061447D01*
X174234397Y-96762093D01*
X174134222Y-96476801D01*
X174054261Y-96327208D01*
X173800080Y-96243525D01*
X172915605Y-97128000D01*
X172556395Y-97128000D01*
X171671920Y-96243525D01*
X171417739Y-96327208D01*
X171286842Y-96599775D01*
X171211635Y-96892642D01*
X171195009Y-97194553D01*
X149246336Y-97194553D01*
X149254377Y-96552080D01*
X163807525Y-96552080D01*
X163891208Y-96806261D01*
X164163775Y-96937158D01*
X164456642Y-97012365D01*
X164758553Y-97028991D01*
X165057907Y-96986397D01*
X165343199Y-96886222D01*
X165492792Y-96806261D01*
X165576475Y-96552080D01*
X164692000Y-95667605D01*
X163807525Y-96552080D01*
X149254377Y-96552080D01*
X149260735Y-96044080D01*
X149583525Y-96044080D01*
X149667208Y-96298261D01*
X149939775Y-96429158D01*
X150232642Y-96504365D01*
X150534553Y-96520991D01*
X150833907Y-96478397D01*
X151119199Y-96378222D01*
X151268792Y-96298261D01*
X151352475Y-96044080D01*
X150468000Y-95159605D01*
X149583525Y-96044080D01*
X149260735Y-96044080D01*
X149263561Y-95818265D01*
X149403920Y-95864475D01*
X150288395Y-94980000D01*
X150647605Y-94980000D01*
X151532080Y-95864475D01*
X151786261Y-95780792D01*
X151917158Y-95508225D01*
X151992365Y-95215358D01*
X152008991Y-94913447D01*
X151966397Y-94614093D01*
X151866222Y-94328801D01*
X151786261Y-94179208D01*
X151532080Y-94095525D01*
X150647605Y-94980000D01*
X150288395Y-94980000D01*
X149403920Y-94095525D01*
X149271006Y-94139284D01*
X149269831Y-93915920D01*
X149583525Y-93915920D01*
X150468000Y-94800395D01*
X151352475Y-93915920D01*
X151268792Y-93661739D01*
X150996225Y-93530842D01*
X150703358Y-93455635D01*
X150401447Y-93439009D01*
X150102093Y-93481603D01*
X149816801Y-93581778D01*
X149667208Y-93661739D01*
X149583525Y-93915920D01*
X149269831Y-93915920D01*
X149251725Y-90474553D01*
X156039009Y-90474553D01*
X156081603Y-90773907D01*
X156181778Y-91059199D01*
X156261739Y-91208792D01*
X156515920Y-91292475D01*
X157400395Y-90408000D01*
X156515920Y-89523525D01*
X156261739Y-89607208D01*
X156130842Y-89879775D01*
X156055635Y-90172642D01*
X156039009Y-90474553D01*
X149251725Y-90474553D01*
X149243070Y-88829689D01*
X149275688Y-88878505D01*
X149489495Y-89092312D01*
X149740905Y-89260299D01*
X150020257Y-89376011D01*
X150316816Y-89435000D01*
X150619184Y-89435000D01*
X150915743Y-89376011D01*
X151195095Y-89260299D01*
X151446505Y-89092312D01*
X151574737Y-88964080D01*
X154463525Y-88964080D01*
X154547208Y-89218261D01*
X154819775Y-89349158D01*
X155112642Y-89424365D01*
X155414553Y-89440991D01*
X155713907Y-89398397D01*
X155869054Y-89343920D01*
X156695525Y-89343920D01*
X157580000Y-90228395D01*
X158464475Y-89343920D01*
X158380792Y-89089739D01*
X158108225Y-88958842D01*
X157815358Y-88883635D01*
X157513447Y-88867009D01*
X157214093Y-88909603D01*
X156928801Y-89009778D01*
X156779208Y-89089739D01*
X156695525Y-89343920D01*
X155869054Y-89343920D01*
X155999199Y-89298222D01*
X156148792Y-89218261D01*
X156232475Y-88964080D01*
X155348000Y-88079605D01*
X154463525Y-88964080D01*
X151574737Y-88964080D01*
X151660312Y-88878505D01*
X151828299Y-88627095D01*
X151944011Y-88347743D01*
X152003000Y-88051184D01*
X152003000Y-87970131D01*
X152006578Y-87966553D01*
X153807009Y-87966553D01*
X153849603Y-88265907D01*
X153949778Y-88551199D01*
X154029739Y-88700792D01*
X154283920Y-88784475D01*
X155168395Y-87900000D01*
X155527605Y-87900000D01*
X156412080Y-88784475D01*
X156666261Y-88700792D01*
X156797158Y-88428225D01*
X156872365Y-88135358D01*
X156888991Y-87833447D01*
X156846397Y-87534093D01*
X156746222Y-87248801D01*
X156666261Y-87099208D01*
X156412080Y-87015525D01*
X155527605Y-87900000D01*
X155168395Y-87900000D01*
X154283920Y-87015525D01*
X154029739Y-87099208D01*
X153898842Y-87371775D01*
X153823635Y-87664642D01*
X153807009Y-87966553D01*
X152006578Y-87966553D01*
X153137211Y-86835920D01*
X154463525Y-86835920D01*
X155348000Y-87720395D01*
X156232475Y-86835920D01*
X156148792Y-86581739D01*
X155876225Y-86450842D01*
X155583358Y-86375635D01*
X155281447Y-86359009D01*
X154982093Y-86401603D01*
X154696801Y-86501778D01*
X154547208Y-86581739D01*
X154463525Y-86835920D01*
X153137211Y-86835920D01*
X156131345Y-83841787D01*
X156219701Y-84055095D01*
X156387688Y-84306505D01*
X156601495Y-84520312D01*
X156852905Y-84688299D01*
X157132257Y-84804011D01*
X157428816Y-84863000D01*
X157509868Y-84863000D01*
X158392014Y-85745147D01*
X158427552Y-85788450D01*
X158470855Y-85823988D01*
X158470857Y-85823990D01*
X158600378Y-85930285D01*
X158797554Y-86035677D01*
X159011502Y-86100578D01*
X159234001Y-86122492D01*
X159289753Y-86117001D01*
X160181868Y-86117001D01*
X159888849Y-86410020D01*
X159845541Y-86445562D01*
X159703706Y-86618388D01*
X159674806Y-86672457D01*
X159598313Y-86815565D01*
X159533412Y-87029513D01*
X159511498Y-87252011D01*
X159516990Y-87307772D01*
X159516989Y-90453878D01*
X159024091Y-90946777D01*
X159029158Y-90936225D01*
X159104365Y-90643358D01*
X159120991Y-90341447D01*
X159078397Y-90042093D01*
X158978222Y-89756801D01*
X158898261Y-89607208D01*
X158644080Y-89523525D01*
X157759605Y-90408000D01*
X157773748Y-90422143D01*
X157594143Y-90601748D01*
X157580000Y-90587605D01*
X156695525Y-91472080D01*
X156779208Y-91726261D01*
X157051775Y-91857158D01*
X157344642Y-91932365D01*
X157646553Y-91948991D01*
X157945907Y-91906397D01*
X158128631Y-91842237D01*
X157509869Y-92461000D01*
X157428816Y-92461000D01*
X157132257Y-92519989D01*
X156852905Y-92635701D01*
X156601495Y-92803688D01*
X156387688Y-93017495D01*
X156219701Y-93268905D01*
X156103989Y-93548257D01*
X156088055Y-93628361D01*
X156075095Y-93619701D01*
X155795743Y-93503989D01*
X155499184Y-93445000D01*
X155196816Y-93445000D01*
X154900257Y-93503989D01*
X154620905Y-93619701D01*
X154369495Y-93787688D01*
X154155688Y-94001495D01*
X153987701Y-94252905D01*
X153871989Y-94532257D01*
X153813000Y-94828816D01*
X153813000Y-95131184D01*
X153871989Y-95427743D01*
X153987701Y-95707095D01*
X154155688Y-95958505D01*
X154369495Y-96172312D01*
X154620905Y-96340299D01*
X154900257Y-96456011D01*
X155196816Y-96515000D01*
X155499184Y-96515000D01*
X155795743Y-96456011D01*
X156075095Y-96340299D01*
X156326505Y-96172312D01*
X156540312Y-95958505D01*
X156708299Y-95707095D01*
X156824011Y-95427743D01*
X156839945Y-95347639D01*
X156852905Y-95356299D01*
X157132257Y-95472011D01*
X157428816Y-95531000D01*
X157731184Y-95531000D01*
X158027743Y-95472011D01*
X158307095Y-95356299D01*
X158558505Y-95188312D01*
X158686737Y-95060080D01*
X161575525Y-95060080D01*
X161659208Y-95314261D01*
X161931775Y-95445158D01*
X162224642Y-95520365D01*
X162526553Y-95536991D01*
X162825907Y-95494397D01*
X163111199Y-95394222D01*
X163161313Y-95367435D01*
X163151009Y-95554553D01*
X163193603Y-95853907D01*
X163293778Y-96139199D01*
X163373739Y-96288792D01*
X163627920Y-96372475D01*
X164512395Y-95488000D01*
X164871605Y-95488000D01*
X165756080Y-96372475D01*
X166010261Y-96288792D01*
X166141158Y-96016225D01*
X166216365Y-95723358D01*
X166232991Y-95421447D01*
X166190397Y-95122093D01*
X166090222Y-94836801D01*
X166010261Y-94687208D01*
X165756080Y-94603525D01*
X164871605Y-95488000D01*
X164512395Y-95488000D01*
X164498253Y-95473858D01*
X164677858Y-95294253D01*
X164692000Y-95308395D01*
X165576475Y-94423920D01*
X165492792Y-94169739D01*
X165220225Y-94038842D01*
X164927358Y-93963635D01*
X164625447Y-93947009D01*
X164326093Y-93989603D01*
X164040801Y-94089778D01*
X163990687Y-94116565D01*
X164000991Y-93929447D01*
X163958397Y-93630093D01*
X163858222Y-93344801D01*
X163778261Y-93195208D01*
X163524080Y-93111525D01*
X162639605Y-93996000D01*
X162653748Y-94010143D01*
X162474143Y-94189748D01*
X162460000Y-94175605D01*
X161575525Y-95060080D01*
X158686737Y-95060080D01*
X158772312Y-94974505D01*
X158940299Y-94723095D01*
X159056011Y-94443743D01*
X159115000Y-94147184D01*
X159115000Y-94066131D01*
X159118578Y-94062553D01*
X160919009Y-94062553D01*
X160961603Y-94361907D01*
X161061778Y-94647199D01*
X161141739Y-94796792D01*
X161395920Y-94880475D01*
X162280395Y-93996000D01*
X161395920Y-93111525D01*
X161141739Y-93195208D01*
X161010842Y-93467775D01*
X160935635Y-93760642D01*
X160919009Y-94062553D01*
X159118578Y-94062553D01*
X160249211Y-92931920D01*
X161575525Y-92931920D01*
X162460000Y-93816395D01*
X163344475Y-92931920D01*
X163260792Y-92677739D01*
X162988225Y-92546842D01*
X162695358Y-92471635D01*
X162393447Y-92455009D01*
X162094093Y-92497603D01*
X161808801Y-92597778D01*
X161659208Y-92677739D01*
X161575525Y-92931920D01*
X160249211Y-92931920D01*
X161415135Y-91765998D01*
X161458438Y-91730460D01*
X161535586Y-91636455D01*
X161732905Y-91768299D01*
X162012257Y-91884011D01*
X162308816Y-91943000D01*
X162611184Y-91943000D01*
X162907743Y-91884011D01*
X163187095Y-91768299D01*
X163438505Y-91600312D01*
X163652312Y-91386505D01*
X163820299Y-91135095D01*
X163936011Y-90855743D01*
X163995000Y-90559184D01*
X163995000Y-90256816D01*
X163936011Y-89960257D01*
X163820299Y-89680905D01*
X163809159Y-89664233D01*
X163964905Y-89768299D01*
X164244257Y-89884011D01*
X164540816Y-89943000D01*
X164843184Y-89943000D01*
X165139743Y-89884011D01*
X165419095Y-89768299D01*
X165670505Y-89600312D01*
X165798737Y-89472080D01*
X168687525Y-89472080D01*
X168771208Y-89726261D01*
X169043775Y-89857158D01*
X169336642Y-89932365D01*
X169638553Y-89948991D01*
X169937907Y-89906397D01*
X170223199Y-89806222D01*
X170372792Y-89726261D01*
X170456475Y-89472080D01*
X169572000Y-88587605D01*
X168687525Y-89472080D01*
X165798737Y-89472080D01*
X165884312Y-89386505D01*
X166052299Y-89135095D01*
X166168011Y-88855743D01*
X166227000Y-88559184D01*
X166227000Y-88474553D01*
X168031009Y-88474553D01*
X168073603Y-88773907D01*
X168173778Y-89059199D01*
X168253739Y-89208792D01*
X168507920Y-89292475D01*
X169392395Y-88408000D01*
X168507920Y-87523525D01*
X168253739Y-87607208D01*
X168122842Y-87879775D01*
X168047635Y-88172642D01*
X168031009Y-88474553D01*
X166227000Y-88474553D01*
X166227000Y-88256816D01*
X166168011Y-87960257D01*
X166052299Y-87680905D01*
X165884312Y-87429495D01*
X165825828Y-87371011D01*
X166184238Y-87371011D01*
X166239989Y-87376502D01*
X166295740Y-87371011D01*
X166295741Y-87371011D01*
X166462488Y-87354588D01*
X166497655Y-87343920D01*
X168687525Y-87343920D01*
X169572000Y-88228395D01*
X170456475Y-87343920D01*
X170372792Y-87089739D01*
X170100225Y-86958842D01*
X169807358Y-86883635D01*
X169505447Y-86867009D01*
X169206093Y-86909603D01*
X168920801Y-87009778D01*
X168771208Y-87089739D01*
X168687525Y-87343920D01*
X166497655Y-87343920D01*
X166676436Y-87289687D01*
X166873612Y-87184295D01*
X167046438Y-87042460D01*
X167081985Y-86999146D01*
X170955001Y-83126131D01*
X170955000Y-87728324D01*
X170890261Y-87607208D01*
X170636080Y-87523525D01*
X169751605Y-88408000D01*
X170636080Y-89292475D01*
X170890261Y-89208792D01*
X170955000Y-89073985D01*
X170955000Y-92499868D01*
X169501869Y-93953000D01*
X169420816Y-93953000D01*
X169124257Y-94011989D01*
X168844905Y-94127701D01*
X168593495Y-94295688D01*
X168379688Y-94509495D01*
X168211701Y-94760905D01*
X168095989Y-95040257D01*
X168037000Y-95336816D01*
X168037000Y-95639184D01*
X168095989Y-95935743D01*
X168211701Y-96215095D01*
X168379688Y-96466505D01*
X168593495Y-96680312D01*
X168844905Y-96848299D01*
X169124257Y-96964011D01*
X169420816Y-97023000D01*
X169723184Y-97023000D01*
X170019743Y-96964011D01*
X170299095Y-96848299D01*
X170550505Y-96680312D01*
X170764312Y-96466505D01*
X170932299Y-96215095D01*
X170994918Y-96063920D01*
X171851525Y-96063920D01*
X172736000Y-96948395D01*
X173620475Y-96063920D01*
X173536792Y-95809739D01*
X173264225Y-95678842D01*
X172971358Y-95603635D01*
X172669447Y-95587009D01*
X172370093Y-95629603D01*
X172084801Y-95729778D01*
X171935208Y-95809739D01*
X171851525Y-96063920D01*
X170994918Y-96063920D01*
X171048011Y-95935743D01*
X171107000Y-95639184D01*
X171107000Y-95558131D01*
X172853141Y-93811991D01*
X172896449Y-93776449D01*
X173038284Y-93603623D01*
X173143676Y-93406447D01*
X173208577Y-93192499D01*
X173225000Y-93025752D01*
X173225000Y-93025751D01*
X173230491Y-92970000D01*
X173225000Y-92914248D01*
X173225000Y-80784341D01*
X173254039Y-80755302D01*
X173360000Y-80596719D01*
X173465961Y-80755302D01*
G37*
X173465961Y-80755302D02*
X173495001Y-80784342D01*
X173495000Y-91886248D01*
X173489509Y-91942000D01*
X173496028Y-92008192D01*
X173511423Y-92164498D01*
X173576324Y-92378446D01*
X173681716Y-92575623D01*
X173823551Y-92748449D01*
X173866865Y-92783996D01*
X178281000Y-97198133D01*
X178281000Y-97279184D01*
X178339989Y-97575743D01*
X178455701Y-97855095D01*
X178623688Y-98106505D01*
X178837495Y-98320312D01*
X179088905Y-98488299D01*
X179368257Y-98604011D01*
X179664816Y-98663000D01*
X179967184Y-98663000D01*
X180263743Y-98604011D01*
X180543095Y-98488299D01*
X180794505Y-98320312D01*
X181008312Y-98106505D01*
X181176299Y-97855095D01*
X181292011Y-97575743D01*
X181351000Y-97279184D01*
X181351000Y-96976816D01*
X181332158Y-96882089D01*
X185367800Y-100917732D01*
X185367800Y-101073783D01*
X185310488Y-101131095D01*
X185142501Y-101382505D01*
X185026789Y-101661857D01*
X184967800Y-101958416D01*
X184967800Y-102260784D01*
X185026789Y-102557343D01*
X185142501Y-102836695D01*
X185310488Y-103088105D01*
X185524295Y-103301912D01*
X185775705Y-103469899D01*
X186055057Y-103585611D01*
X186351616Y-103644600D01*
X186653984Y-103644600D01*
X186950543Y-103585611D01*
X187229895Y-103469899D01*
X187481305Y-103301912D01*
X187609537Y-103173680D01*
X192698325Y-103173680D01*
X192782008Y-103427861D01*
X193054575Y-103558758D01*
X193347442Y-103633965D01*
X193649353Y-103650591D01*
X193948707Y-103607997D01*
X194233999Y-103507822D01*
X194383592Y-103427861D01*
X194467275Y-103173680D01*
X193582800Y-102289205D01*
X192698325Y-103173680D01*
X187609537Y-103173680D01*
X187695112Y-103088105D01*
X187863099Y-102836695D01*
X187978023Y-102559245D01*
X188198105Y-102706299D01*
X188477457Y-102822011D01*
X188774016Y-102881000D01*
X189076384Y-102881000D01*
X189372943Y-102822011D01*
X189652295Y-102706299D01*
X189887753Y-102548970D01*
X189927895Y-102589112D01*
X190179305Y-102757099D01*
X190458657Y-102872811D01*
X190755216Y-102931800D01*
X191057584Y-102931800D01*
X191354143Y-102872811D01*
X191633495Y-102757099D01*
X191884905Y-102589112D01*
X192073704Y-102400313D01*
X192084403Y-102475507D01*
X192184578Y-102760799D01*
X192264539Y-102910392D01*
X192518720Y-102994075D01*
X193403195Y-102109600D01*
X193389053Y-102095458D01*
X193568658Y-101915853D01*
X193582800Y-101929995D01*
X193596943Y-101915853D01*
X193776548Y-102095458D01*
X193762405Y-102109600D01*
X194646880Y-102994075D01*
X194901061Y-102910392D01*
X195031958Y-102637825D01*
X195107165Y-102344958D01*
X195123791Y-102043047D01*
X195081197Y-101743693D01*
X194983339Y-101465000D01*
X195524249Y-101465000D01*
X195580000Y-101470491D01*
X195635751Y-101465000D01*
X195635752Y-101465000D01*
X195802499Y-101448577D01*
X196016447Y-101383676D01*
X196213623Y-101278284D01*
X196386449Y-101136449D01*
X196421996Y-101093135D01*
X197641115Y-99874016D01*
X199988600Y-99874016D01*
X199988600Y-100176384D01*
X200047589Y-100472943D01*
X200163301Y-100752295D01*
X200331288Y-101003705D01*
X200545095Y-101217512D01*
X200796505Y-101385499D01*
X201075857Y-101501211D01*
X201372416Y-101560200D01*
X201674784Y-101560200D01*
X201971343Y-101501211D01*
X202250695Y-101385499D01*
X202502105Y-101217512D01*
X202715912Y-101003705D01*
X202883899Y-100752295D01*
X202999611Y-100472943D01*
X203058600Y-100176384D01*
X203058600Y-99874016D01*
X202999611Y-99577457D01*
X202883899Y-99298105D01*
X202715912Y-99046695D01*
X202502105Y-98832888D01*
X202250695Y-98664901D01*
X201971343Y-98549189D01*
X201674784Y-98490200D01*
X201372416Y-98490200D01*
X201075857Y-98549189D01*
X200796505Y-98664901D01*
X200545095Y-98832888D01*
X200331288Y-99046695D01*
X200163301Y-99298105D01*
X200047589Y-99577457D01*
X199988600Y-99874016D01*
X197641115Y-99874016D01*
X199199732Y-98315400D01*
X209087848Y-98315400D01*
X209143600Y-98320891D01*
X209199351Y-98315400D01*
X209199352Y-98315400D01*
X209366099Y-98298977D01*
X209580047Y-98234076D01*
X209777223Y-98128684D01*
X209950049Y-97986849D01*
X210091884Y-97814023D01*
X210197276Y-97616847D01*
X210198579Y-97612552D01*
X212162945Y-95648187D01*
X212214189Y-95744059D01*
X212324783Y-95878817D01*
X212459541Y-95989411D01*
X212613287Y-96071589D01*
X212780110Y-96122195D01*
X212894575Y-96133469D01*
X212922900Y-96148609D01*
X212865181Y-96256594D01*
X212826012Y-96385717D01*
X212812786Y-96520000D01*
X212816101Y-96553657D01*
X212816100Y-98010353D01*
X212816100Y-98010354D01*
X212816101Y-100498488D01*
X212645273Y-100086072D01*
X212318601Y-99597174D01*
X211902826Y-99181399D01*
X211413928Y-98854727D01*
X210870692Y-98629712D01*
X210293997Y-98515000D01*
X209706003Y-98515000D01*
X209129308Y-98629712D01*
X208586072Y-98854727D01*
X208097174Y-99181399D01*
X207681399Y-99597174D01*
X207354727Y-100086072D01*
X207129712Y-100629308D01*
X207015000Y-101206003D01*
X207015000Y-101793997D01*
X207129712Y-102370692D01*
X207354727Y-102913928D01*
X207681399Y-103402826D01*
X208097174Y-103818601D01*
X208586072Y-104145273D01*
X209004522Y-104318600D01*
X152995478Y-104318600D01*
X153413928Y-104145273D01*
X153902826Y-103818601D01*
X154318601Y-103402826D01*
X154645273Y-102913928D01*
X154870288Y-102370692D01*
X154916159Y-102140080D01*
X156695525Y-102140080D01*
X156779208Y-102394261D01*
X157051775Y-102525158D01*
X157344642Y-102600365D01*
X157646553Y-102616991D01*
X157945907Y-102574397D01*
X158231199Y-102474222D01*
X158380792Y-102394261D01*
X158464475Y-102140080D01*
X157580000Y-101255605D01*
X156695525Y-102140080D01*
X154916159Y-102140080D01*
X154985000Y-101793997D01*
X154985000Y-101206003D01*
X154972379Y-101142553D01*
X156039009Y-101142553D01*
X156081603Y-101441907D01*
X156181778Y-101727199D01*
X156261739Y-101876792D01*
X156515920Y-101960475D01*
X157400395Y-101076000D01*
X157759605Y-101076000D01*
X158644080Y-101960475D01*
X158898261Y-101876792D01*
X159029158Y-101604225D01*
X159104365Y-101311358D01*
X159120991Y-101009447D01*
X159108950Y-100924816D01*
X160925000Y-100924816D01*
X160925000Y-101227184D01*
X160983989Y-101523743D01*
X161099701Y-101803095D01*
X161267688Y-102054505D01*
X161481495Y-102268312D01*
X161732905Y-102436299D01*
X162012257Y-102552011D01*
X162308816Y-102611000D01*
X162611184Y-102611000D01*
X162907743Y-102552011D01*
X163187095Y-102436299D01*
X163438505Y-102268312D01*
X163652312Y-102054505D01*
X163784403Y-101856816D01*
X171201000Y-101856816D01*
X171201000Y-102159184D01*
X171259989Y-102455743D01*
X171375701Y-102735095D01*
X171543688Y-102986505D01*
X171757495Y-103200312D01*
X172008905Y-103368299D01*
X172288257Y-103484011D01*
X172584816Y-103543000D01*
X172887184Y-103543000D01*
X173183743Y-103484011D01*
X173463095Y-103368299D01*
X173714505Y-103200312D01*
X173842737Y-103072080D01*
X178931525Y-103072080D01*
X179015208Y-103326261D01*
X179287775Y-103457158D01*
X179580642Y-103532365D01*
X179882553Y-103548991D01*
X180181907Y-103506397D01*
X180467199Y-103406222D01*
X180616792Y-103326261D01*
X180700475Y-103072080D01*
X179816000Y-102187605D01*
X178931525Y-103072080D01*
X173842737Y-103072080D01*
X173928312Y-102986505D01*
X174096299Y-102735095D01*
X174212011Y-102455743D01*
X174271000Y-102159184D01*
X174271000Y-102074553D01*
X178275009Y-102074553D01*
X178317603Y-102373907D01*
X178417778Y-102659199D01*
X178497739Y-102808792D01*
X178751920Y-102892475D01*
X179636395Y-102008000D01*
X179995605Y-102008000D01*
X180880080Y-102892475D01*
X181134261Y-102808792D01*
X181265158Y-102536225D01*
X181340365Y-102243358D01*
X181356991Y-101941447D01*
X181314397Y-101642093D01*
X181214222Y-101356801D01*
X181134261Y-101207208D01*
X180880080Y-101123525D01*
X179995605Y-102008000D01*
X179636395Y-102008000D01*
X178751920Y-101123525D01*
X178497739Y-101207208D01*
X178366842Y-101479775D01*
X178291635Y-101772642D01*
X178275009Y-102074553D01*
X174271000Y-102074553D01*
X174271000Y-101856816D01*
X174212011Y-101560257D01*
X174096299Y-101280905D01*
X173928312Y-101029495D01*
X173842737Y-100943920D01*
X178931525Y-100943920D01*
X179816000Y-101828395D01*
X180700475Y-100943920D01*
X180616792Y-100689739D01*
X180344225Y-100558842D01*
X180051358Y-100483635D01*
X179749447Y-100467009D01*
X179450093Y-100509603D01*
X179164801Y-100609778D01*
X179015208Y-100689739D01*
X178931525Y-100943920D01*
X173842737Y-100943920D01*
X173714505Y-100815688D01*
X173463095Y-100647701D01*
X173183743Y-100531989D01*
X172887184Y-100473000D01*
X172584816Y-100473000D01*
X172288257Y-100531989D01*
X172008905Y-100647701D01*
X171757495Y-100815688D01*
X171543688Y-101029495D01*
X171375701Y-101280905D01*
X171259989Y-101560257D01*
X171201000Y-101856816D01*
X163784403Y-101856816D01*
X163820299Y-101803095D01*
X163936011Y-101523743D01*
X163995000Y-101227184D01*
X163995000Y-100924816D01*
X163936011Y-100628257D01*
X163820299Y-100348905D01*
X163652312Y-100097495D01*
X163438505Y-99883688D01*
X163187095Y-99715701D01*
X162907743Y-99599989D01*
X162611184Y-99541000D01*
X162308816Y-99541000D01*
X162012257Y-99599989D01*
X161732905Y-99715701D01*
X161481495Y-99883688D01*
X161267688Y-100097495D01*
X161099701Y-100348905D01*
X160983989Y-100628257D01*
X160925000Y-100924816D01*
X159108950Y-100924816D01*
X159078397Y-100710093D01*
X158978222Y-100424801D01*
X158898261Y-100275208D01*
X158644080Y-100191525D01*
X157759605Y-101076000D01*
X157400395Y-101076000D01*
X156515920Y-100191525D01*
X156261739Y-100275208D01*
X156130842Y-100547775D01*
X156055635Y-100840642D01*
X156039009Y-101142553D01*
X154972379Y-101142553D01*
X154870288Y-100629308D01*
X154645273Y-100086072D01*
X154595727Y-100011920D01*
X156695525Y-100011920D01*
X157580000Y-100896395D01*
X158464475Y-100011920D01*
X158380792Y-99757739D01*
X158108225Y-99626842D01*
X157815358Y-99551635D01*
X157513447Y-99535009D01*
X157214093Y-99577603D01*
X156928801Y-99677778D01*
X156779208Y-99757739D01*
X156695525Y-100011920D01*
X154595727Y-100011920D01*
X154318601Y-99597174D01*
X153902826Y-99181399D01*
X153413928Y-98854727D01*
X152870692Y-98629712D01*
X152293997Y-98515000D01*
X151706003Y-98515000D01*
X151129308Y-98629712D01*
X150586072Y-98854727D01*
X150097174Y-99181399D01*
X149681399Y-99597174D01*
X149354727Y-100086072D01*
X149205647Y-100445985D01*
X149233852Y-98192080D01*
X171851525Y-98192080D01*
X171935208Y-98446261D01*
X172207775Y-98577158D01*
X172500642Y-98652365D01*
X172802553Y-98668991D01*
X173101907Y-98626397D01*
X173387199Y-98526222D01*
X173536792Y-98446261D01*
X173620475Y-98192080D01*
X172736000Y-97307605D01*
X171851525Y-98192080D01*
X149233852Y-98192080D01*
X149246336Y-97194553D01*
X171195009Y-97194553D01*
X171237603Y-97493907D01*
X171337778Y-97779199D01*
X171417739Y-97928792D01*
X171671920Y-98012475D01*
X172556395Y-97128000D01*
X172915605Y-97128000D01*
X173800080Y-98012475D01*
X174054261Y-97928792D01*
X174185158Y-97656225D01*
X174260365Y-97363358D01*
X174276991Y-97061447D01*
X174234397Y-96762093D01*
X174134222Y-96476801D01*
X174054261Y-96327208D01*
X173800080Y-96243525D01*
X172915605Y-97128000D01*
X172556395Y-97128000D01*
X171671920Y-96243525D01*
X171417739Y-96327208D01*
X171286842Y-96599775D01*
X171211635Y-96892642D01*
X171195009Y-97194553D01*
X149246336Y-97194553D01*
X149254377Y-96552080D01*
X163807525Y-96552080D01*
X163891208Y-96806261D01*
X164163775Y-96937158D01*
X164456642Y-97012365D01*
X164758553Y-97028991D01*
X165057907Y-96986397D01*
X165343199Y-96886222D01*
X165492792Y-96806261D01*
X165576475Y-96552080D01*
X164692000Y-95667605D01*
X163807525Y-96552080D01*
X149254377Y-96552080D01*
X149260735Y-96044080D01*
X149583525Y-96044080D01*
X149667208Y-96298261D01*
X149939775Y-96429158D01*
X150232642Y-96504365D01*
X150534553Y-96520991D01*
X150833907Y-96478397D01*
X151119199Y-96378222D01*
X151268792Y-96298261D01*
X151352475Y-96044080D01*
X150468000Y-95159605D01*
X149583525Y-96044080D01*
X149260735Y-96044080D01*
X149263561Y-95818265D01*
X149403920Y-95864475D01*
X150288395Y-94980000D01*
X150647605Y-94980000D01*
X151532080Y-95864475D01*
X151786261Y-95780792D01*
X151917158Y-95508225D01*
X151992365Y-95215358D01*
X152008991Y-94913447D01*
X151966397Y-94614093D01*
X151866222Y-94328801D01*
X151786261Y-94179208D01*
X151532080Y-94095525D01*
X150647605Y-94980000D01*
X150288395Y-94980000D01*
X149403920Y-94095525D01*
X149271006Y-94139284D01*
X149269831Y-93915920D01*
X149583525Y-93915920D01*
X150468000Y-94800395D01*
X151352475Y-93915920D01*
X151268792Y-93661739D01*
X150996225Y-93530842D01*
X150703358Y-93455635D01*
X150401447Y-93439009D01*
X150102093Y-93481603D01*
X149816801Y-93581778D01*
X149667208Y-93661739D01*
X149583525Y-93915920D01*
X149269831Y-93915920D01*
X149251725Y-90474553D01*
X156039009Y-90474553D01*
X156081603Y-90773907D01*
X156181778Y-91059199D01*
X156261739Y-91208792D01*
X156515920Y-91292475D01*
X157400395Y-90408000D01*
X156515920Y-89523525D01*
X156261739Y-89607208D01*
X156130842Y-89879775D01*
X156055635Y-90172642D01*
X156039009Y-90474553D01*
X149251725Y-90474553D01*
X149243070Y-88829689D01*
X149275688Y-88878505D01*
X149489495Y-89092312D01*
X149740905Y-89260299D01*
X150020257Y-89376011D01*
X150316816Y-89435000D01*
X150619184Y-89435000D01*
X150915743Y-89376011D01*
X151195095Y-89260299D01*
X151446505Y-89092312D01*
X151574737Y-88964080D01*
X154463525Y-88964080D01*
X154547208Y-89218261D01*
X154819775Y-89349158D01*
X155112642Y-89424365D01*
X155414553Y-89440991D01*
X155713907Y-89398397D01*
X155869054Y-89343920D01*
X156695525Y-89343920D01*
X157580000Y-90228395D01*
X158464475Y-89343920D01*
X158380792Y-89089739D01*
X158108225Y-88958842D01*
X157815358Y-88883635D01*
X157513447Y-88867009D01*
X157214093Y-88909603D01*
X156928801Y-89009778D01*
X156779208Y-89089739D01*
X156695525Y-89343920D01*
X155869054Y-89343920D01*
X155999199Y-89298222D01*
X156148792Y-89218261D01*
X156232475Y-88964080D01*
X155348000Y-88079605D01*
X154463525Y-88964080D01*
X151574737Y-88964080D01*
X151660312Y-88878505D01*
X151828299Y-88627095D01*
X151944011Y-88347743D01*
X152003000Y-88051184D01*
X152003000Y-87970131D01*
X152006578Y-87966553D01*
X153807009Y-87966553D01*
X153849603Y-88265907D01*
X153949778Y-88551199D01*
X154029739Y-88700792D01*
X154283920Y-88784475D01*
X155168395Y-87900000D01*
X155527605Y-87900000D01*
X156412080Y-88784475D01*
X156666261Y-88700792D01*
X156797158Y-88428225D01*
X156872365Y-88135358D01*
X156888991Y-87833447D01*
X156846397Y-87534093D01*
X156746222Y-87248801D01*
X156666261Y-87099208D01*
X156412080Y-87015525D01*
X155527605Y-87900000D01*
X155168395Y-87900000D01*
X154283920Y-87015525D01*
X154029739Y-87099208D01*
X153898842Y-87371775D01*
X153823635Y-87664642D01*
X153807009Y-87966553D01*
X152006578Y-87966553D01*
X153137211Y-86835920D01*
X154463525Y-86835920D01*
X155348000Y-87720395D01*
X156232475Y-86835920D01*
X156148792Y-86581739D01*
X155876225Y-86450842D01*
X155583358Y-86375635D01*
X155281447Y-86359009D01*
X154982093Y-86401603D01*
X154696801Y-86501778D01*
X154547208Y-86581739D01*
X154463525Y-86835920D01*
X153137211Y-86835920D01*
X156131345Y-83841787D01*
X156219701Y-84055095D01*
X156387688Y-84306505D01*
X156601495Y-84520312D01*
X156852905Y-84688299D01*
X157132257Y-84804011D01*
X157428816Y-84863000D01*
X157509868Y-84863000D01*
X158392014Y-85745147D01*
X158427552Y-85788450D01*
X158470855Y-85823988D01*
X158470857Y-85823990D01*
X158600378Y-85930285D01*
X158797554Y-86035677D01*
X159011502Y-86100578D01*
X159234001Y-86122492D01*
X159289753Y-86117001D01*
X160181868Y-86117001D01*
X159888849Y-86410020D01*
X159845541Y-86445562D01*
X159703706Y-86618388D01*
X159674806Y-86672457D01*
X159598313Y-86815565D01*
X159533412Y-87029513D01*
X159511498Y-87252011D01*
X159516990Y-87307772D01*
X159516989Y-90453878D01*
X159024091Y-90946777D01*
X159029158Y-90936225D01*
X159104365Y-90643358D01*
X159120991Y-90341447D01*
X159078397Y-90042093D01*
X158978222Y-89756801D01*
X158898261Y-89607208D01*
X158644080Y-89523525D01*
X157759605Y-90408000D01*
X157773748Y-90422143D01*
X157594143Y-90601748D01*
X157580000Y-90587605D01*
X156695525Y-91472080D01*
X156779208Y-91726261D01*
X157051775Y-91857158D01*
X157344642Y-91932365D01*
X157646553Y-91948991D01*
X157945907Y-91906397D01*
X158128631Y-91842237D01*
X157509869Y-92461000D01*
X157428816Y-92461000D01*
X157132257Y-92519989D01*
X156852905Y-92635701D01*
X156601495Y-92803688D01*
X156387688Y-93017495D01*
X156219701Y-93268905D01*
X156103989Y-93548257D01*
X156088055Y-93628361D01*
X156075095Y-93619701D01*
X155795743Y-93503989D01*
X155499184Y-93445000D01*
X155196816Y-93445000D01*
X154900257Y-93503989D01*
X154620905Y-93619701D01*
X154369495Y-93787688D01*
X154155688Y-94001495D01*
X153987701Y-94252905D01*
X153871989Y-94532257D01*
X153813000Y-94828816D01*
X153813000Y-95131184D01*
X153871989Y-95427743D01*
X153987701Y-95707095D01*
X154155688Y-95958505D01*
X154369495Y-96172312D01*
X154620905Y-96340299D01*
X154900257Y-96456011D01*
X155196816Y-96515000D01*
X155499184Y-96515000D01*
X155795743Y-96456011D01*
X156075095Y-96340299D01*
X156326505Y-96172312D01*
X156540312Y-95958505D01*
X156708299Y-95707095D01*
X156824011Y-95427743D01*
X156839945Y-95347639D01*
X156852905Y-95356299D01*
X157132257Y-95472011D01*
X157428816Y-95531000D01*
X157731184Y-95531000D01*
X158027743Y-95472011D01*
X158307095Y-95356299D01*
X158558505Y-95188312D01*
X158686737Y-95060080D01*
X161575525Y-95060080D01*
X161659208Y-95314261D01*
X161931775Y-95445158D01*
X162224642Y-95520365D01*
X162526553Y-95536991D01*
X162825907Y-95494397D01*
X163111199Y-95394222D01*
X163161313Y-95367435D01*
X163151009Y-95554553D01*
X163193603Y-95853907D01*
X163293778Y-96139199D01*
X163373739Y-96288792D01*
X163627920Y-96372475D01*
X164512395Y-95488000D01*
X164871605Y-95488000D01*
X165756080Y-96372475D01*
X166010261Y-96288792D01*
X166141158Y-96016225D01*
X166216365Y-95723358D01*
X166232991Y-95421447D01*
X166190397Y-95122093D01*
X166090222Y-94836801D01*
X166010261Y-94687208D01*
X165756080Y-94603525D01*
X164871605Y-95488000D01*
X164512395Y-95488000D01*
X164498253Y-95473858D01*
X164677858Y-95294253D01*
X164692000Y-95308395D01*
X165576475Y-94423920D01*
X165492792Y-94169739D01*
X165220225Y-94038842D01*
X164927358Y-93963635D01*
X164625447Y-93947009D01*
X164326093Y-93989603D01*
X164040801Y-94089778D01*
X163990687Y-94116565D01*
X164000991Y-93929447D01*
X163958397Y-93630093D01*
X163858222Y-93344801D01*
X163778261Y-93195208D01*
X163524080Y-93111525D01*
X162639605Y-93996000D01*
X162653748Y-94010143D01*
X162474143Y-94189748D01*
X162460000Y-94175605D01*
X161575525Y-95060080D01*
X158686737Y-95060080D01*
X158772312Y-94974505D01*
X158940299Y-94723095D01*
X159056011Y-94443743D01*
X159115000Y-94147184D01*
X159115000Y-94066131D01*
X159118578Y-94062553D01*
X160919009Y-94062553D01*
X160961603Y-94361907D01*
X161061778Y-94647199D01*
X161141739Y-94796792D01*
X161395920Y-94880475D01*
X162280395Y-93996000D01*
X161395920Y-93111525D01*
X161141739Y-93195208D01*
X161010842Y-93467775D01*
X160935635Y-93760642D01*
X160919009Y-94062553D01*
X159118578Y-94062553D01*
X160249211Y-92931920D01*
X161575525Y-92931920D01*
X162460000Y-93816395D01*
X163344475Y-92931920D01*
X163260792Y-92677739D01*
X162988225Y-92546842D01*
X162695358Y-92471635D01*
X162393447Y-92455009D01*
X162094093Y-92497603D01*
X161808801Y-92597778D01*
X161659208Y-92677739D01*
X161575525Y-92931920D01*
X160249211Y-92931920D01*
X161415135Y-91765998D01*
X161458438Y-91730460D01*
X161535586Y-91636455D01*
X161732905Y-91768299D01*
X162012257Y-91884011D01*
X162308816Y-91943000D01*
X162611184Y-91943000D01*
X162907743Y-91884011D01*
X163187095Y-91768299D01*
X163438505Y-91600312D01*
X163652312Y-91386505D01*
X163820299Y-91135095D01*
X163936011Y-90855743D01*
X163995000Y-90559184D01*
X163995000Y-90256816D01*
X163936011Y-89960257D01*
X163820299Y-89680905D01*
X163809159Y-89664233D01*
X163964905Y-89768299D01*
X164244257Y-89884011D01*
X164540816Y-89943000D01*
X164843184Y-89943000D01*
X165139743Y-89884011D01*
X165419095Y-89768299D01*
X165670505Y-89600312D01*
X165798737Y-89472080D01*
X168687525Y-89472080D01*
X168771208Y-89726261D01*
X169043775Y-89857158D01*
X169336642Y-89932365D01*
X169638553Y-89948991D01*
X169937907Y-89906397D01*
X170223199Y-89806222D01*
X170372792Y-89726261D01*
X170456475Y-89472080D01*
X169572000Y-88587605D01*
X168687525Y-89472080D01*
X165798737Y-89472080D01*
X165884312Y-89386505D01*
X166052299Y-89135095D01*
X166168011Y-88855743D01*
X166227000Y-88559184D01*
X166227000Y-88474553D01*
X168031009Y-88474553D01*
X168073603Y-88773907D01*
X168173778Y-89059199D01*
X168253739Y-89208792D01*
X168507920Y-89292475D01*
X169392395Y-88408000D01*
X168507920Y-87523525D01*
X168253739Y-87607208D01*
X168122842Y-87879775D01*
X168047635Y-88172642D01*
X168031009Y-88474553D01*
X166227000Y-88474553D01*
X166227000Y-88256816D01*
X166168011Y-87960257D01*
X166052299Y-87680905D01*
X165884312Y-87429495D01*
X165825828Y-87371011D01*
X166184238Y-87371011D01*
X166239989Y-87376502D01*
X166295740Y-87371011D01*
X166295741Y-87371011D01*
X166462488Y-87354588D01*
X166497655Y-87343920D01*
X168687525Y-87343920D01*
X169572000Y-88228395D01*
X170456475Y-87343920D01*
X170372792Y-87089739D01*
X170100225Y-86958842D01*
X169807358Y-86883635D01*
X169505447Y-86867009D01*
X169206093Y-86909603D01*
X168920801Y-87009778D01*
X168771208Y-87089739D01*
X168687525Y-87343920D01*
X166497655Y-87343920D01*
X166676436Y-87289687D01*
X166873612Y-87184295D01*
X167046438Y-87042460D01*
X167081985Y-86999146D01*
X170955001Y-83126131D01*
X170955000Y-87728324D01*
X170890261Y-87607208D01*
X170636080Y-87523525D01*
X169751605Y-88408000D01*
X170636080Y-89292475D01*
X170890261Y-89208792D01*
X170955000Y-89073985D01*
X170955000Y-92499868D01*
X169501869Y-93953000D01*
X169420816Y-93953000D01*
X169124257Y-94011989D01*
X168844905Y-94127701D01*
X168593495Y-94295688D01*
X168379688Y-94509495D01*
X168211701Y-94760905D01*
X168095989Y-95040257D01*
X168037000Y-95336816D01*
X168037000Y-95639184D01*
X168095989Y-95935743D01*
X168211701Y-96215095D01*
X168379688Y-96466505D01*
X168593495Y-96680312D01*
X168844905Y-96848299D01*
X169124257Y-96964011D01*
X169420816Y-97023000D01*
X169723184Y-97023000D01*
X170019743Y-96964011D01*
X170299095Y-96848299D01*
X170550505Y-96680312D01*
X170764312Y-96466505D01*
X170932299Y-96215095D01*
X170994918Y-96063920D01*
X171851525Y-96063920D01*
X172736000Y-96948395D01*
X173620475Y-96063920D01*
X173536792Y-95809739D01*
X173264225Y-95678842D01*
X172971358Y-95603635D01*
X172669447Y-95587009D01*
X172370093Y-95629603D01*
X172084801Y-95729778D01*
X171935208Y-95809739D01*
X171851525Y-96063920D01*
X170994918Y-96063920D01*
X171048011Y-95935743D01*
X171107000Y-95639184D01*
X171107000Y-95558131D01*
X172853141Y-93811991D01*
X172896449Y-93776449D01*
X173038284Y-93603623D01*
X173143676Y-93406447D01*
X173208577Y-93192499D01*
X173225000Y-93025752D01*
X173225000Y-93025751D01*
X173230491Y-92970000D01*
X173225000Y-92914248D01*
X173225000Y-80784341D01*
X173254039Y-80755302D01*
X173360000Y-80596719D01*
X173465961Y-80755302D01*
G36*
X208586072Y-75854727D02*
G01*
X208097174Y-76181399D01*
X207681399Y-76597174D01*
X207354727Y-77086072D01*
X207129712Y-77629308D01*
X207015000Y-78206003D01*
X207015000Y-78793997D01*
X207129712Y-79370692D01*
X207354727Y-79913928D01*
X207681399Y-80402826D01*
X208097174Y-80818601D01*
X208586072Y-81145273D01*
X209129308Y-81370288D01*
X209706003Y-81485000D01*
X210293997Y-81485000D01*
X210870692Y-81370288D01*
X211413928Y-81145273D01*
X211902826Y-80818601D01*
X212318601Y-80402826D01*
X212645273Y-79913928D01*
X212816100Y-79501513D01*
X212816101Y-81929544D01*
X212816100Y-81929554D01*
X212816101Y-84802343D01*
X212812786Y-84836000D01*
X212826012Y-84970283D01*
X212865181Y-85099406D01*
X212928788Y-85218407D01*
X213014389Y-85322711D01*
X213118693Y-85408312D01*
X213237694Y-85471919D01*
X213366817Y-85511088D01*
X213382865Y-85512669D01*
X213381447Y-85834600D01*
X212567017Y-85834600D01*
X212509705Y-85777288D01*
X212258295Y-85609301D01*
X211978943Y-85493589D01*
X211682384Y-85434600D01*
X211380016Y-85434600D01*
X211083457Y-85493589D01*
X210804105Y-85609301D01*
X210552695Y-85777288D01*
X210338888Y-85991095D01*
X210170901Y-86242505D01*
X210055189Y-86521857D01*
X209996200Y-86818416D01*
X209996200Y-87120784D01*
X210055189Y-87417343D01*
X210170901Y-87696695D01*
X210338888Y-87948105D01*
X210552695Y-88161912D01*
X210804105Y-88329899D01*
X211083457Y-88445611D01*
X211380016Y-88504600D01*
X211682384Y-88504600D01*
X211978943Y-88445611D01*
X212258295Y-88329899D01*
X212509705Y-88161912D01*
X212567017Y-88104600D01*
X213371447Y-88104600D01*
X213369137Y-88628862D01*
X213356013Y-88644854D01*
X209375820Y-92625048D01*
X209369961Y-92582325D01*
X209264795Y-92277912D01*
X209171814Y-92103956D01*
X208907413Y-92008192D01*
X207951605Y-92964000D01*
X207965748Y-92978143D01*
X207786143Y-93157748D01*
X207772000Y-93143605D01*
X206816192Y-94099413D01*
X206858636Y-94216600D01*
X197964474Y-94216600D01*
X197908722Y-94211109D01*
X197852970Y-94216600D01*
X197750970Y-94226646D01*
X197686223Y-94233023D01*
X197472275Y-94297924D01*
X197275099Y-94403316D01*
X197145578Y-94509611D01*
X197145576Y-94509613D01*
X197102273Y-94545151D01*
X197066735Y-94588454D01*
X195004486Y-96650705D01*
X194943099Y-96502505D01*
X194775112Y-96251095D01*
X194561305Y-96037288D01*
X194309895Y-95869301D01*
X194030543Y-95753589D01*
X193733984Y-95694600D01*
X193431616Y-95694600D01*
X193135057Y-95753589D01*
X192855705Y-95869301D01*
X192604295Y-96037288D01*
X192390488Y-96251095D01*
X192222501Y-96502505D01*
X192106789Y-96781857D01*
X192047800Y-97078416D01*
X192047800Y-97380784D01*
X192106789Y-97677343D01*
X192136305Y-97748601D01*
X191443350Y-97748601D01*
X191387598Y-97743110D01*
X191331847Y-97748601D01*
X191165100Y-97765024D01*
X190951152Y-97829925D01*
X190753976Y-97935317D01*
X190581150Y-98077152D01*
X190545610Y-98120458D01*
X188855069Y-99811000D01*
X188774016Y-99811000D01*
X188477457Y-99869989D01*
X188198105Y-99985701D01*
X187946695Y-100153688D01*
X187732888Y-100367495D01*
X187687838Y-100434916D01*
X187672177Y-100275902D01*
X187607276Y-100061954D01*
X187593671Y-100036501D01*
X187501883Y-99864776D01*
X187395588Y-99735256D01*
X187395581Y-99735249D01*
X187360048Y-99691952D01*
X187316751Y-99656419D01*
X186422855Y-98762523D01*
X186569353Y-98770591D01*
X186868707Y-98727997D01*
X187153999Y-98627822D01*
X187303592Y-98547861D01*
X187387275Y-98293680D01*
X186502800Y-97409205D01*
X186488658Y-97423348D01*
X186309053Y-97243743D01*
X186323195Y-97229600D01*
X186682405Y-97229600D01*
X187566880Y-98114075D01*
X187821061Y-98030392D01*
X187951958Y-97757825D01*
X188027165Y-97464958D01*
X188043791Y-97163047D01*
X188001197Y-96863693D01*
X187901022Y-96578401D01*
X187821061Y-96428808D01*
X187566880Y-96345125D01*
X186682405Y-97229600D01*
X186323195Y-97229600D01*
X185438720Y-96345125D01*
X185184539Y-96428808D01*
X185053642Y-96701375D01*
X184978435Y-96994242D01*
X184961809Y-97296153D01*
X184962692Y-97302360D01*
X183825852Y-96165520D01*
X185618325Y-96165520D01*
X186502800Y-97049995D01*
X187387275Y-96165520D01*
X187303592Y-95911339D01*
X187031025Y-95780442D01*
X186738158Y-95705235D01*
X186436247Y-95688609D01*
X186136893Y-95731203D01*
X185851601Y-95831378D01*
X185702008Y-95911339D01*
X185618325Y-96165520D01*
X183825852Y-96165520D01*
X180686927Y-93026595D01*
X206130282Y-93026595D01*
X206174039Y-93345675D01*
X206279205Y-93650088D01*
X206372186Y-93824044D01*
X206636587Y-93919808D01*
X207592395Y-92964000D01*
X206636587Y-92008192D01*
X206372186Y-92103956D01*
X206231296Y-92393571D01*
X206149616Y-92705108D01*
X206130282Y-93026595D01*
X180686927Y-93026595D01*
X177411000Y-89750669D01*
X177411000Y-82240248D01*
X177394577Y-82073501D01*
X177329676Y-81859553D01*
X177224284Y-81662377D01*
X177082449Y-81489551D01*
X177038000Y-81453073D01*
X177038000Y-81298600D01*
X177063469Y-81298600D01*
X186952009Y-91187141D01*
X186987551Y-91230449D01*
X187160377Y-91372284D01*
X187357553Y-91477676D01*
X187571501Y-91542577D01*
X187794000Y-91564491D01*
X187849752Y-91559000D01*
X206594761Y-91559000D01*
X206729748Y-91693987D01*
X206838600Y-91766720D01*
X206816192Y-91828587D01*
X207772000Y-92784395D01*
X208727808Y-91828587D01*
X208705400Y-91766720D01*
X208814252Y-91693987D01*
X209041987Y-91466252D01*
X209220918Y-91198463D01*
X209344168Y-90900912D01*
X209407000Y-90585033D01*
X209407000Y-90262967D01*
X209344168Y-89947088D01*
X209220918Y-89649537D01*
X209041987Y-89381748D01*
X208814252Y-89154013D01*
X208814233Y-89154000D01*
X208814252Y-89153987D01*
X209041987Y-88926252D01*
X209220918Y-88658463D01*
X209344168Y-88360912D01*
X209407000Y-88045033D01*
X209407000Y-87722967D01*
X209344168Y-87407088D01*
X209220918Y-87109537D01*
X209041987Y-86841748D01*
X208814252Y-86614013D01*
X208814233Y-86614000D01*
X208814252Y-86613987D01*
X209041987Y-86386252D01*
X209220918Y-86118463D01*
X209344168Y-85820912D01*
X209407000Y-85505033D01*
X209407000Y-85182967D01*
X209344168Y-84867088D01*
X209220918Y-84569537D01*
X209041987Y-84301748D01*
X208814252Y-84074013D01*
X208546463Y-83895082D01*
X208248912Y-83771832D01*
X207933033Y-83709000D01*
X207610967Y-83709000D01*
X207295088Y-83771832D01*
X206997537Y-83895082D01*
X206729748Y-84074013D01*
X206502013Y-84301748D01*
X206323082Y-84569537D01*
X206199832Y-84867088D01*
X206137000Y-85182967D01*
X206137000Y-85505033D01*
X206199832Y-85820912D01*
X206323082Y-86118463D01*
X206502013Y-86386252D01*
X206729748Y-86613987D01*
X206729767Y-86614000D01*
X206729748Y-86614013D01*
X206502013Y-86841748D01*
X206323082Y-87109537D01*
X206199832Y-87407088D01*
X206137000Y-87722967D01*
X206137000Y-88045033D01*
X206199832Y-88360912D01*
X206323082Y-88658463D01*
X206502013Y-88926252D01*
X206729748Y-89153987D01*
X206729767Y-89154000D01*
X206729748Y-89154013D01*
X206594761Y-89289000D01*
X188264132Y-89289000D01*
X180195927Y-81220796D01*
X180419853Y-81128042D01*
X180665302Y-80964039D01*
X180874039Y-80755302D01*
X180980000Y-80596719D01*
X181085961Y-80755302D01*
X181294698Y-80964039D01*
X181540147Y-81128042D01*
X181812875Y-81241010D01*
X182102401Y-81298600D01*
X182397599Y-81298600D01*
X182687125Y-81241010D01*
X182959853Y-81128042D01*
X183205302Y-80964039D01*
X183414039Y-80755302D01*
X183520000Y-80596719D01*
X183625961Y-80755302D01*
X183834698Y-80964039D01*
X184080147Y-81128042D01*
X184352875Y-81241010D01*
X184642401Y-81298600D01*
X184937599Y-81298600D01*
X185227125Y-81241010D01*
X185499853Y-81128042D01*
X185745302Y-80964039D01*
X185954039Y-80755302D01*
X186064559Y-80589897D01*
X186123183Y-80688488D01*
X186319707Y-80906854D01*
X186555056Y-81082684D01*
X186820186Y-81209222D01*
X186970974Y-81254958D01*
X187203000Y-81133817D01*
X187203000Y-79927000D01*
X187183000Y-79927000D01*
X187183000Y-79673000D01*
X187203000Y-79673000D01*
X187203000Y-79653000D01*
X187457000Y-79653000D01*
X187457000Y-79673000D01*
X187477000Y-79673000D01*
X187477000Y-79927000D01*
X187457000Y-79927000D01*
X187457000Y-81133817D01*
X187689026Y-81254958D01*
X187839814Y-81209222D01*
X188104944Y-81082684D01*
X188340293Y-80906854D01*
X188536817Y-80688488D01*
X188595441Y-80589897D01*
X188705961Y-80755302D01*
X188914698Y-80964039D01*
X189160147Y-81128042D01*
X189432875Y-81241010D01*
X189722401Y-81298600D01*
X190017599Y-81298600D01*
X190307125Y-81241010D01*
X190579853Y-81128042D01*
X190825302Y-80964039D01*
X191034039Y-80755302D01*
X191140000Y-80596719D01*
X191245961Y-80755302D01*
X191454698Y-80964039D01*
X191700147Y-81128042D01*
X191972875Y-81241010D01*
X192262401Y-81298600D01*
X192557599Y-81298600D01*
X192847125Y-81241010D01*
X193119853Y-81128042D01*
X193365302Y-80964039D01*
X193574039Y-80755302D01*
X193680000Y-80596719D01*
X193785961Y-80755302D01*
X193994698Y-80964039D01*
X194240147Y-81128042D01*
X194512875Y-81241010D01*
X194802401Y-81298600D01*
X195097599Y-81298600D01*
X195387125Y-81241010D01*
X195659853Y-81128042D01*
X195905302Y-80964039D01*
X196114039Y-80755302D01*
X196220000Y-80596719D01*
X196325961Y-80755302D01*
X196534698Y-80964039D01*
X196780147Y-81128042D01*
X197052875Y-81241010D01*
X197342401Y-81298600D01*
X197637599Y-81298600D01*
X197927125Y-81241010D01*
X198199853Y-81128042D01*
X198445302Y-80964039D01*
X198654039Y-80755302D01*
X198760000Y-80596719D01*
X198865961Y-80755302D01*
X199074698Y-80964039D01*
X199320147Y-81128042D01*
X199592875Y-81241010D01*
X199882401Y-81298600D01*
X200177599Y-81298600D01*
X200467125Y-81241010D01*
X200739853Y-81128042D01*
X200985302Y-80964039D01*
X201194039Y-80755302D01*
X201300000Y-80596719D01*
X201405961Y-80755302D01*
X201614698Y-80964039D01*
X201860147Y-81128042D01*
X202132875Y-81241010D01*
X202422401Y-81298600D01*
X202717599Y-81298600D01*
X203007125Y-81241010D01*
X203279853Y-81128042D01*
X203525302Y-80964039D01*
X203734039Y-80755302D01*
X203844559Y-80589897D01*
X203903183Y-80688488D01*
X204099707Y-80906854D01*
X204335056Y-81082684D01*
X204600186Y-81209222D01*
X204750974Y-81254958D01*
X204983000Y-81133817D01*
X204983000Y-79927000D01*
X205237000Y-79927000D01*
X205237000Y-81133817D01*
X205469026Y-81254958D01*
X205619814Y-81209222D01*
X205884944Y-81082684D01*
X206120293Y-80906854D01*
X206316817Y-80688488D01*
X206466964Y-80435978D01*
X206564963Y-80159027D01*
X206444464Y-79927000D01*
X205237000Y-79927000D01*
X204983000Y-79927000D01*
X204963000Y-79927000D01*
X204963000Y-79673000D01*
X204983000Y-79673000D01*
X204983000Y-79653000D01*
X205237000Y-79653000D01*
X205237000Y-79673000D01*
X206444464Y-79673000D01*
X206564963Y-79440973D01*
X206466964Y-79164022D01*
X206316817Y-78911512D01*
X206120293Y-78693146D01*
X205904187Y-78531692D01*
X206065302Y-78424039D01*
X206274039Y-78215302D01*
X206438042Y-77969853D01*
X206551010Y-77697125D01*
X206608600Y-77407599D01*
X206608600Y-77112401D01*
X206551010Y-76822875D01*
X206438042Y-76550147D01*
X206274039Y-76304698D01*
X206065302Y-76095961D01*
X205819853Y-75931958D01*
X205547125Y-75818990D01*
X205257599Y-75761400D01*
X204962401Y-75761400D01*
X204672875Y-75818990D01*
X204400147Y-75931958D01*
X204154698Y-76095961D01*
X203945961Y-76304698D01*
X203840000Y-76463281D01*
X203734039Y-76304698D01*
X203525302Y-76095961D01*
X203279853Y-75931958D01*
X203007125Y-75818990D01*
X202717599Y-75761400D01*
X202422401Y-75761400D01*
X202132875Y-75818990D01*
X201860147Y-75931958D01*
X201614698Y-76095961D01*
X201405961Y-76304698D01*
X201300000Y-76463281D01*
X201194039Y-76304698D01*
X200985302Y-76095961D01*
X200739853Y-75931958D01*
X200467125Y-75818990D01*
X200177599Y-75761400D01*
X199882401Y-75761400D01*
X199592875Y-75818990D01*
X199320147Y-75931958D01*
X199074698Y-76095961D01*
X198865961Y-76304698D01*
X198755441Y-76470103D01*
X198696817Y-76371512D01*
X198500293Y-76153146D01*
X198264944Y-75977316D01*
X197999814Y-75850778D01*
X197849026Y-75805042D01*
X197617000Y-75926183D01*
X197617000Y-77133000D01*
X197637000Y-77133000D01*
X197637000Y-77387000D01*
X197617000Y-77387000D01*
X197617000Y-77407000D01*
X197363000Y-77407000D01*
X197363000Y-77387000D01*
X197343000Y-77387000D01*
X197343000Y-77133000D01*
X197363000Y-77133000D01*
X197363000Y-75926183D01*
X197130974Y-75805042D01*
X196980186Y-75850778D01*
X196715056Y-75977316D01*
X196479707Y-76153146D01*
X196283183Y-76371512D01*
X196224559Y-76470103D01*
X196114039Y-76304698D01*
X195905302Y-76095961D01*
X195659853Y-75931958D01*
X195387125Y-75818990D01*
X195097599Y-75761400D01*
X194802401Y-75761400D01*
X194512875Y-75818990D01*
X194240147Y-75931958D01*
X193994698Y-76095961D01*
X193785961Y-76304698D01*
X193675441Y-76470103D01*
X193616817Y-76371512D01*
X193420293Y-76153146D01*
X193184944Y-75977316D01*
X192919814Y-75850778D01*
X192769026Y-75805042D01*
X192537000Y-75926183D01*
X192537000Y-77133000D01*
X192557000Y-77133000D01*
X192557000Y-77387000D01*
X192537000Y-77387000D01*
X192537000Y-77407000D01*
X192283000Y-77407000D01*
X192283000Y-77387000D01*
X192263000Y-77387000D01*
X192263000Y-77133000D01*
X192283000Y-77133000D01*
X192283000Y-75926183D01*
X192050974Y-75805042D01*
X191900186Y-75850778D01*
X191635056Y-75977316D01*
X191399707Y-76153146D01*
X191203183Y-76371512D01*
X191144559Y-76470103D01*
X191034039Y-76304698D01*
X190825302Y-76095961D01*
X190579853Y-75931958D01*
X190307125Y-75818990D01*
X190017599Y-75761400D01*
X189983535Y-75761400D01*
X189870000Y-75750218D01*
X189756466Y-75761400D01*
X189722401Y-75761400D01*
X189432875Y-75818990D01*
X189160147Y-75931958D01*
X188914698Y-76095961D01*
X188705961Y-76304698D01*
X188600000Y-76463281D01*
X188494039Y-76304698D01*
X188285302Y-76095961D01*
X188039853Y-75931958D01*
X187767125Y-75818990D01*
X187477599Y-75761400D01*
X187182401Y-75761400D01*
X186892875Y-75818990D01*
X186620147Y-75931958D01*
X186374698Y-76095961D01*
X186165961Y-76304698D01*
X186060000Y-76463281D01*
X185954039Y-76304698D01*
X185745302Y-76095961D01*
X185499853Y-75931958D01*
X185227125Y-75818990D01*
X184937599Y-75761400D01*
X184642401Y-75761400D01*
X184352875Y-75818990D01*
X184080147Y-75931958D01*
X183834698Y-76095961D01*
X183625961Y-76304698D01*
X183520000Y-76463281D01*
X183414039Y-76304698D01*
X183205302Y-76095961D01*
X182959853Y-75931958D01*
X182687125Y-75818990D01*
X182397599Y-75761400D01*
X182102401Y-75761400D01*
X181812875Y-75818990D01*
X181540147Y-75931958D01*
X181294698Y-76095961D01*
X181085961Y-76304698D01*
X180975441Y-76470103D01*
X180916817Y-76371512D01*
X180720293Y-76153146D01*
X180484944Y-75977316D01*
X180219814Y-75850778D01*
X180069026Y-75805042D01*
X179837000Y-75926183D01*
X179837000Y-77133000D01*
X179857000Y-77133000D01*
X179857000Y-77387000D01*
X179837000Y-77387000D01*
X179837000Y-77407000D01*
X179583000Y-77407000D01*
X179583000Y-77387000D01*
X179563000Y-77387000D01*
X179563000Y-77133000D01*
X179583000Y-77133000D01*
X179583000Y-75926183D01*
X179350974Y-75805042D01*
X179200186Y-75850778D01*
X178935056Y-75977316D01*
X178699707Y-76153146D01*
X178503183Y-76371512D01*
X178444559Y-76470103D01*
X178334039Y-76304698D01*
X178125302Y-76095961D01*
X177879853Y-75931958D01*
X177607125Y-75818990D01*
X177317599Y-75761400D01*
X177022401Y-75761400D01*
X176732875Y-75818990D01*
X176460147Y-75931958D01*
X176214698Y-76095961D01*
X176005961Y-76304698D01*
X175900000Y-76463281D01*
X175794039Y-76304698D01*
X175585302Y-76095961D01*
X175339853Y-75931958D01*
X175067125Y-75818990D01*
X174777599Y-75761400D01*
X174482401Y-75761400D01*
X174192875Y-75818990D01*
X173920147Y-75931958D01*
X173674698Y-76095961D01*
X173465961Y-76304698D01*
X173355441Y-76470103D01*
X173296817Y-76371512D01*
X173100293Y-76153146D01*
X172864944Y-75977316D01*
X172599814Y-75850778D01*
X172449026Y-75805042D01*
X172217000Y-75926183D01*
X172217000Y-77133000D01*
X172237000Y-77133000D01*
X172237000Y-77387000D01*
X172217000Y-77387000D01*
X172217000Y-77407000D01*
X171963000Y-77407000D01*
X171963000Y-77387000D01*
X171943000Y-77387000D01*
X171943000Y-77133000D01*
X171963000Y-77133000D01*
X171963000Y-75926183D01*
X171730974Y-75805042D01*
X171580186Y-75850778D01*
X171315056Y-75977316D01*
X171079707Y-76153146D01*
X170883183Y-76371512D01*
X170824559Y-76470103D01*
X170714039Y-76304698D01*
X170505302Y-76095961D01*
X170259853Y-75931958D01*
X169987125Y-75818990D01*
X169697599Y-75761400D01*
X169402401Y-75761400D01*
X169112875Y-75818990D01*
X168840147Y-75931958D01*
X168594698Y-76095961D01*
X168385961Y-76304698D01*
X168280000Y-76463281D01*
X168174039Y-76304698D01*
X167965302Y-76095961D01*
X167719853Y-75931958D01*
X167447125Y-75818990D01*
X167157599Y-75761400D01*
X166862401Y-75761400D01*
X166572875Y-75818990D01*
X166300147Y-75931958D01*
X166054698Y-76095961D01*
X165845961Y-76304698D01*
X165740000Y-76463281D01*
X165634039Y-76304698D01*
X165425302Y-76095961D01*
X165179853Y-75931958D01*
X164907125Y-75818990D01*
X164617599Y-75761400D01*
X164322401Y-75761400D01*
X164032875Y-75818990D01*
X163760147Y-75931958D01*
X163514698Y-76095961D01*
X163305961Y-76304698D01*
X163195441Y-76470103D01*
X163136817Y-76371512D01*
X162940293Y-76153146D01*
X162704944Y-75977316D01*
X162439814Y-75850778D01*
X162289026Y-75805042D01*
X162057000Y-75926183D01*
X162057000Y-77133000D01*
X162077000Y-77133000D01*
X162077000Y-77387000D01*
X162057000Y-77387000D01*
X162057000Y-77407000D01*
X161803000Y-77407000D01*
X161803000Y-77387000D01*
X161783000Y-77387000D01*
X161783000Y-77133000D01*
X161803000Y-77133000D01*
X161803000Y-75926183D01*
X161570974Y-75805042D01*
X161420186Y-75850778D01*
X161155056Y-75977316D01*
X160919707Y-76153146D01*
X160723183Y-76371512D01*
X160664559Y-76470103D01*
X160554039Y-76304698D01*
X160345302Y-76095961D01*
X160099853Y-75931958D01*
X159827125Y-75818990D01*
X159537599Y-75761400D01*
X159242401Y-75761400D01*
X158952875Y-75818990D01*
X158680147Y-75931958D01*
X158434698Y-76095961D01*
X158225961Y-76304698D01*
X158120000Y-76463281D01*
X158014039Y-76304698D01*
X157805302Y-76095961D01*
X157559853Y-75931958D01*
X157287125Y-75818990D01*
X156997599Y-75761400D01*
X156702401Y-75761400D01*
X156412875Y-75818990D01*
X156140147Y-75931958D01*
X155894698Y-76095961D01*
X155685961Y-76304698D01*
X155521958Y-76550147D01*
X155408990Y-76822875D01*
X155351400Y-77112401D01*
X155351400Y-77407599D01*
X155408990Y-77697125D01*
X155521958Y-77969853D01*
X155685961Y-78215302D01*
X155800023Y-78329364D01*
X155742220Y-78346898D01*
X155631906Y-78405863D01*
X155535215Y-78485215D01*
X155455863Y-78581906D01*
X155396898Y-78692220D01*
X155360588Y-78811918D01*
X155348328Y-78936400D01*
X155348328Y-80663600D01*
X155360588Y-80788082D01*
X155396898Y-80907780D01*
X155455863Y-81018094D01*
X155535215Y-81114785D01*
X155597207Y-81165660D01*
X150397869Y-86365000D01*
X150316816Y-86365000D01*
X150020257Y-86423989D01*
X149740905Y-86539701D01*
X149489495Y-86707688D01*
X149275688Y-86921495D01*
X149233364Y-86984838D01*
X149194120Y-79526187D01*
X149354727Y-79913928D01*
X149681399Y-80402826D01*
X150097174Y-80818601D01*
X150586072Y-81145273D01*
X151129308Y-81370288D01*
X151706003Y-81485000D01*
X152293997Y-81485000D01*
X152870692Y-81370288D01*
X153413928Y-81145273D01*
X153902826Y-80818601D01*
X154318601Y-80402826D01*
X154645273Y-79913928D01*
X154870288Y-79370692D01*
X154985000Y-78793997D01*
X154985000Y-78206003D01*
X154870288Y-77629308D01*
X154645273Y-77086072D01*
X154318601Y-76597174D01*
X153902826Y-76181399D01*
X153413928Y-75854727D01*
X153012861Y-75688600D01*
X208987139Y-75688600D01*
X208586072Y-75854727D01*
G37*
X208586072Y-75854727D02*
X208097174Y-76181399D01*
X207681399Y-76597174D01*
X207354727Y-77086072D01*
X207129712Y-77629308D01*
X207015000Y-78206003D01*
X207015000Y-78793997D01*
X207129712Y-79370692D01*
X207354727Y-79913928D01*
X207681399Y-80402826D01*
X208097174Y-80818601D01*
X208586072Y-81145273D01*
X209129308Y-81370288D01*
X209706003Y-81485000D01*
X210293997Y-81485000D01*
X210870692Y-81370288D01*
X211413928Y-81145273D01*
X211902826Y-80818601D01*
X212318601Y-80402826D01*
X212645273Y-79913928D01*
X212816100Y-79501513D01*
X212816101Y-81929544D01*
X212816100Y-81929554D01*
X212816101Y-84802343D01*
X212812786Y-84836000D01*
X212826012Y-84970283D01*
X212865181Y-85099406D01*
X212928788Y-85218407D01*
X213014389Y-85322711D01*
X213118693Y-85408312D01*
X213237694Y-85471919D01*
X213366817Y-85511088D01*
X213382865Y-85512669D01*
X213381447Y-85834600D01*
X212567017Y-85834600D01*
X212509705Y-85777288D01*
X212258295Y-85609301D01*
X211978943Y-85493589D01*
X211682384Y-85434600D01*
X211380016Y-85434600D01*
X211083457Y-85493589D01*
X210804105Y-85609301D01*
X210552695Y-85777288D01*
X210338888Y-85991095D01*
X210170901Y-86242505D01*
X210055189Y-86521857D01*
X209996200Y-86818416D01*
X209996200Y-87120784D01*
X210055189Y-87417343D01*
X210170901Y-87696695D01*
X210338888Y-87948105D01*
X210552695Y-88161912D01*
X210804105Y-88329899D01*
X211083457Y-88445611D01*
X211380016Y-88504600D01*
X211682384Y-88504600D01*
X211978943Y-88445611D01*
X212258295Y-88329899D01*
X212509705Y-88161912D01*
X212567017Y-88104600D01*
X213371447Y-88104600D01*
X213369137Y-88628862D01*
X213356013Y-88644854D01*
X209375820Y-92625048D01*
X209369961Y-92582325D01*
X209264795Y-92277912D01*
X209171814Y-92103956D01*
X208907413Y-92008192D01*
X207951605Y-92964000D01*
X207965748Y-92978143D01*
X207786143Y-93157748D01*
X207772000Y-93143605D01*
X206816192Y-94099413D01*
X206858636Y-94216600D01*
X197964474Y-94216600D01*
X197908722Y-94211109D01*
X197852970Y-94216600D01*
X197750970Y-94226646D01*
X197686223Y-94233023D01*
X197472275Y-94297924D01*
X197275099Y-94403316D01*
X197145578Y-94509611D01*
X197145576Y-94509613D01*
X197102273Y-94545151D01*
X197066735Y-94588454D01*
X195004486Y-96650705D01*
X194943099Y-96502505D01*
X194775112Y-96251095D01*
X194561305Y-96037288D01*
X194309895Y-95869301D01*
X194030543Y-95753589D01*
X193733984Y-95694600D01*
X193431616Y-95694600D01*
X193135057Y-95753589D01*
X192855705Y-95869301D01*
X192604295Y-96037288D01*
X192390488Y-96251095D01*
X192222501Y-96502505D01*
X192106789Y-96781857D01*
X192047800Y-97078416D01*
X192047800Y-97380784D01*
X192106789Y-97677343D01*
X192136305Y-97748601D01*
X191443350Y-97748601D01*
X191387598Y-97743110D01*
X191331847Y-97748601D01*
X191165100Y-97765024D01*
X190951152Y-97829925D01*
X190753976Y-97935317D01*
X190581150Y-98077152D01*
X190545610Y-98120458D01*
X188855069Y-99811000D01*
X188774016Y-99811000D01*
X188477457Y-99869989D01*
X188198105Y-99985701D01*
X187946695Y-100153688D01*
X187732888Y-100367495D01*
X187687838Y-100434916D01*
X187672177Y-100275902D01*
X187607276Y-100061954D01*
X187593671Y-100036501D01*
X187501883Y-99864776D01*
X187395588Y-99735256D01*
X187395581Y-99735249D01*
X187360048Y-99691952D01*
X187316751Y-99656419D01*
X186422855Y-98762523D01*
X186569353Y-98770591D01*
X186868707Y-98727997D01*
X187153999Y-98627822D01*
X187303592Y-98547861D01*
X187387275Y-98293680D01*
X186502800Y-97409205D01*
X186488658Y-97423348D01*
X186309053Y-97243743D01*
X186323195Y-97229600D01*
X186682405Y-97229600D01*
X187566880Y-98114075D01*
X187821061Y-98030392D01*
X187951958Y-97757825D01*
X188027165Y-97464958D01*
X188043791Y-97163047D01*
X188001197Y-96863693D01*
X187901022Y-96578401D01*
X187821061Y-96428808D01*
X187566880Y-96345125D01*
X186682405Y-97229600D01*
X186323195Y-97229600D01*
X185438720Y-96345125D01*
X185184539Y-96428808D01*
X185053642Y-96701375D01*
X184978435Y-96994242D01*
X184961809Y-97296153D01*
X184962692Y-97302360D01*
X183825852Y-96165520D01*
X185618325Y-96165520D01*
X186502800Y-97049995D01*
X187387275Y-96165520D01*
X187303592Y-95911339D01*
X187031025Y-95780442D01*
X186738158Y-95705235D01*
X186436247Y-95688609D01*
X186136893Y-95731203D01*
X185851601Y-95831378D01*
X185702008Y-95911339D01*
X185618325Y-96165520D01*
X183825852Y-96165520D01*
X180686927Y-93026595D01*
X206130282Y-93026595D01*
X206174039Y-93345675D01*
X206279205Y-93650088D01*
X206372186Y-93824044D01*
X206636587Y-93919808D01*
X207592395Y-92964000D01*
X206636587Y-92008192D01*
X206372186Y-92103956D01*
X206231296Y-92393571D01*
X206149616Y-92705108D01*
X206130282Y-93026595D01*
X180686927Y-93026595D01*
X177411000Y-89750669D01*
X177411000Y-82240248D01*
X177394577Y-82073501D01*
X177329676Y-81859553D01*
X177224284Y-81662377D01*
X177082449Y-81489551D01*
X177038000Y-81453073D01*
X177038000Y-81298600D01*
X177063469Y-81298600D01*
X186952009Y-91187141D01*
X186987551Y-91230449D01*
X187160377Y-91372284D01*
X187357553Y-91477676D01*
X187571501Y-91542577D01*
X187794000Y-91564491D01*
X187849752Y-91559000D01*
X206594761Y-91559000D01*
X206729748Y-91693987D01*
X206838600Y-91766720D01*
X206816192Y-91828587D01*
X207772000Y-92784395D01*
X208727808Y-91828587D01*
X208705400Y-91766720D01*
X208814252Y-91693987D01*
X209041987Y-91466252D01*
X209220918Y-91198463D01*
X209344168Y-90900912D01*
X209407000Y-90585033D01*
X209407000Y-90262967D01*
X209344168Y-89947088D01*
X209220918Y-89649537D01*
X209041987Y-89381748D01*
X208814252Y-89154013D01*
X208814233Y-89154000D01*
X208814252Y-89153987D01*
X209041987Y-88926252D01*
X209220918Y-88658463D01*
X209344168Y-88360912D01*
X209407000Y-88045033D01*
X209407000Y-87722967D01*
X209344168Y-87407088D01*
X209220918Y-87109537D01*
X209041987Y-86841748D01*
X208814252Y-86614013D01*
X208814233Y-86614000D01*
X208814252Y-86613987D01*
X209041987Y-86386252D01*
X209220918Y-86118463D01*
X209344168Y-85820912D01*
X209407000Y-85505033D01*
X209407000Y-85182967D01*
X209344168Y-84867088D01*
X209220918Y-84569537D01*
X209041987Y-84301748D01*
X208814252Y-84074013D01*
X208546463Y-83895082D01*
X208248912Y-83771832D01*
X207933033Y-83709000D01*
X207610967Y-83709000D01*
X207295088Y-83771832D01*
X206997537Y-83895082D01*
X206729748Y-84074013D01*
X206502013Y-84301748D01*
X206323082Y-84569537D01*
X206199832Y-84867088D01*
X206137000Y-85182967D01*
X206137000Y-85505033D01*
X206199832Y-85820912D01*
X206323082Y-86118463D01*
X206502013Y-86386252D01*
X206729748Y-86613987D01*
X206729767Y-86614000D01*
X206729748Y-86614013D01*
X206502013Y-86841748D01*
X206323082Y-87109537D01*
X206199832Y-87407088D01*
X206137000Y-87722967D01*
X206137000Y-88045033D01*
X206199832Y-88360912D01*
X206323082Y-88658463D01*
X206502013Y-88926252D01*
X206729748Y-89153987D01*
X206729767Y-89154000D01*
X206729748Y-89154013D01*
X206594761Y-89289000D01*
X188264132Y-89289000D01*
X180195927Y-81220796D01*
X180419853Y-81128042D01*
X180665302Y-80964039D01*
X180874039Y-80755302D01*
X180980000Y-80596719D01*
X181085961Y-80755302D01*
X181294698Y-80964039D01*
X181540147Y-81128042D01*
X181812875Y-81241010D01*
X182102401Y-81298600D01*
X182397599Y-81298600D01*
X182687125Y-81241010D01*
X182959853Y-81128042D01*
X183205302Y-80964039D01*
X183414039Y-80755302D01*
X183520000Y-80596719D01*
X183625961Y-80755302D01*
X183834698Y-80964039D01*
X184080147Y-81128042D01*
X184352875Y-81241010D01*
X184642401Y-81298600D01*
X184937599Y-81298600D01*
X185227125Y-81241010D01*
X185499853Y-81128042D01*
X185745302Y-80964039D01*
X185954039Y-80755302D01*
X186064559Y-80589897D01*
X186123183Y-80688488D01*
X186319707Y-80906854D01*
X186555056Y-81082684D01*
X186820186Y-81209222D01*
X186970974Y-81254958D01*
X187203000Y-81133817D01*
X187203000Y-79927000D01*
X187183000Y-79927000D01*
X187183000Y-79673000D01*
X187203000Y-79673000D01*
X187203000Y-79653000D01*
X187457000Y-79653000D01*
X187457000Y-79673000D01*
X187477000Y-79673000D01*
X187477000Y-79927000D01*
X187457000Y-79927000D01*
X187457000Y-81133817D01*
X187689026Y-81254958D01*
X187839814Y-81209222D01*
X188104944Y-81082684D01*
X188340293Y-80906854D01*
X188536817Y-80688488D01*
X188595441Y-80589897D01*
X188705961Y-80755302D01*
X188914698Y-80964039D01*
X189160147Y-81128042D01*
X189432875Y-81241010D01*
X189722401Y-81298600D01*
X190017599Y-81298600D01*
X190307125Y-81241010D01*
X190579853Y-81128042D01*
X190825302Y-80964039D01*
X191034039Y-80755302D01*
X191140000Y-80596719D01*
X191245961Y-80755302D01*
X191454698Y-80964039D01*
X191700147Y-81128042D01*
X191972875Y-81241010D01*
X192262401Y-81298600D01*
X192557599Y-81298600D01*
X192847125Y-81241010D01*
X193119853Y-81128042D01*
X193365302Y-80964039D01*
X193574039Y-80755302D01*
X193680000Y-80596719D01*
X193785961Y-80755302D01*
X193994698Y-80964039D01*
X194240147Y-81128042D01*
X194512875Y-81241010D01*
X194802401Y-81298600D01*
X195097599Y-81298600D01*
X195387125Y-81241010D01*
X195659853Y-81128042D01*
X195905302Y-80964039D01*
X196114039Y-80755302D01*
X196220000Y-80596719D01*
X196325961Y-80755302D01*
X196534698Y-80964039D01*
X196780147Y-81128042D01*
X197052875Y-81241010D01*
X197342401Y-81298600D01*
X197637599Y-81298600D01*
X197927125Y-81241010D01*
X198199853Y-81128042D01*
X198445302Y-80964039D01*
X198654039Y-80755302D01*
X198760000Y-80596719D01*
X198865961Y-80755302D01*
X199074698Y-80964039D01*
X199320147Y-81128042D01*
X199592875Y-81241010D01*
X199882401Y-81298600D01*
X200177599Y-81298600D01*
X200467125Y-81241010D01*
X200739853Y-81128042D01*
X200985302Y-80964039D01*
X201194039Y-80755302D01*
X201300000Y-80596719D01*
X201405961Y-80755302D01*
X201614698Y-80964039D01*
X201860147Y-81128042D01*
X202132875Y-81241010D01*
X202422401Y-81298600D01*
X202717599Y-81298600D01*
X203007125Y-81241010D01*
X203279853Y-81128042D01*
X203525302Y-80964039D01*
X203734039Y-80755302D01*
X203844559Y-80589897D01*
X203903183Y-80688488D01*
X204099707Y-80906854D01*
X204335056Y-81082684D01*
X204600186Y-81209222D01*
X204750974Y-81254958D01*
X204983000Y-81133817D01*
X204983000Y-79927000D01*
X205237000Y-79927000D01*
X205237000Y-81133817D01*
X205469026Y-81254958D01*
X205619814Y-81209222D01*
X205884944Y-81082684D01*
X206120293Y-80906854D01*
X206316817Y-80688488D01*
X206466964Y-80435978D01*
X206564963Y-80159027D01*
X206444464Y-79927000D01*
X205237000Y-79927000D01*
X204983000Y-79927000D01*
X204963000Y-79927000D01*
X204963000Y-79673000D01*
X204983000Y-79673000D01*
X204983000Y-79653000D01*
X205237000Y-79653000D01*
X205237000Y-79673000D01*
X206444464Y-79673000D01*
X206564963Y-79440973D01*
X206466964Y-79164022D01*
X206316817Y-78911512D01*
X206120293Y-78693146D01*
X205904187Y-78531692D01*
X206065302Y-78424039D01*
X206274039Y-78215302D01*
X206438042Y-77969853D01*
X206551010Y-77697125D01*
X206608600Y-77407599D01*
X206608600Y-77112401D01*
X206551010Y-76822875D01*
X206438042Y-76550147D01*
X206274039Y-76304698D01*
X206065302Y-76095961D01*
X205819853Y-75931958D01*
X205547125Y-75818990D01*
X205257599Y-75761400D01*
X204962401Y-75761400D01*
X204672875Y-75818990D01*
X204400147Y-75931958D01*
X204154698Y-76095961D01*
X203945961Y-76304698D01*
X203840000Y-76463281D01*
X203734039Y-76304698D01*
X203525302Y-76095961D01*
X203279853Y-75931958D01*
X203007125Y-75818990D01*
X202717599Y-75761400D01*
X202422401Y-75761400D01*
X202132875Y-75818990D01*
X201860147Y-75931958D01*
X201614698Y-76095961D01*
X201405961Y-76304698D01*
X201300000Y-76463281D01*
X201194039Y-76304698D01*
X200985302Y-76095961D01*
X200739853Y-75931958D01*
X200467125Y-75818990D01*
X200177599Y-75761400D01*
X199882401Y-75761400D01*
X199592875Y-75818990D01*
X199320147Y-75931958D01*
X199074698Y-76095961D01*
X198865961Y-76304698D01*
X198755441Y-76470103D01*
X198696817Y-76371512D01*
X198500293Y-76153146D01*
X198264944Y-75977316D01*
X197999814Y-75850778D01*
X197849026Y-75805042D01*
X197617000Y-75926183D01*
X197617000Y-77133000D01*
X197637000Y-77133000D01*
X197637000Y-77387000D01*
X197617000Y-77387000D01*
X197617000Y-77407000D01*
X197363000Y-77407000D01*
X197363000Y-77387000D01*
X197343000Y-77387000D01*
X197343000Y-77133000D01*
X197363000Y-77133000D01*
X197363000Y-75926183D01*
X197130974Y-75805042D01*
X196980186Y-75850778D01*
X196715056Y-75977316D01*
X196479707Y-76153146D01*
X196283183Y-76371512D01*
X196224559Y-76470103D01*
X196114039Y-76304698D01*
X195905302Y-76095961D01*
X195659853Y-75931958D01*
X195387125Y-75818990D01*
X195097599Y-75761400D01*
X194802401Y-75761400D01*
X194512875Y-75818990D01*
X194240147Y-75931958D01*
X193994698Y-76095961D01*
X193785961Y-76304698D01*
X193675441Y-76470103D01*
X193616817Y-76371512D01*
X193420293Y-76153146D01*
X193184944Y-75977316D01*
X192919814Y-75850778D01*
X192769026Y-75805042D01*
X192537000Y-75926183D01*
X192537000Y-77133000D01*
X192557000Y-77133000D01*
X192557000Y-77387000D01*
X192537000Y-77387000D01*
X192537000Y-77407000D01*
X192283000Y-77407000D01*
X192283000Y-77387000D01*
X192263000Y-77387000D01*
X192263000Y-77133000D01*
X192283000Y-77133000D01*
X192283000Y-75926183D01*
X192050974Y-75805042D01*
X191900186Y-75850778D01*
X191635056Y-75977316D01*
X191399707Y-76153146D01*
X191203183Y-76371512D01*
X191144559Y-76470103D01*
X191034039Y-76304698D01*
X190825302Y-76095961D01*
X190579853Y-75931958D01*
X190307125Y-75818990D01*
X190017599Y-75761400D01*
X189983535Y-75761400D01*
X189870000Y-75750218D01*
X189756466Y-75761400D01*
X189722401Y-75761400D01*
X189432875Y-75818990D01*
X189160147Y-75931958D01*
X188914698Y-76095961D01*
X188705961Y-76304698D01*
X188600000Y-76463281D01*
X188494039Y-76304698D01*
X188285302Y-76095961D01*
X188039853Y-75931958D01*
X187767125Y-75818990D01*
X187477599Y-75761400D01*
X187182401Y-75761400D01*
X186892875Y-75818990D01*
X186620147Y-75931958D01*
X186374698Y-76095961D01*
X186165961Y-76304698D01*
X186060000Y-76463281D01*
X185954039Y-76304698D01*
X185745302Y-76095961D01*
X185499853Y-75931958D01*
X185227125Y-75818990D01*
X184937599Y-75761400D01*
X184642401Y-75761400D01*
X184352875Y-75818990D01*
X184080147Y-75931958D01*
X183834698Y-76095961D01*
X183625961Y-76304698D01*
X183520000Y-76463281D01*
X183414039Y-76304698D01*
X183205302Y-76095961D01*
X182959853Y-75931958D01*
X182687125Y-75818990D01*
X182397599Y-75761400D01*
X182102401Y-75761400D01*
X181812875Y-75818990D01*
X181540147Y-75931958D01*
X181294698Y-76095961D01*
X181085961Y-76304698D01*
X180975441Y-76470103D01*
X180916817Y-76371512D01*
X180720293Y-76153146D01*
X180484944Y-75977316D01*
X180219814Y-75850778D01*
X180069026Y-75805042D01*
X179837000Y-75926183D01*
X179837000Y-77133000D01*
X179857000Y-77133000D01*
X179857000Y-77387000D01*
X179837000Y-77387000D01*
X179837000Y-77407000D01*
X179583000Y-77407000D01*
X179583000Y-77387000D01*
X179563000Y-77387000D01*
X179563000Y-77133000D01*
X179583000Y-77133000D01*
X179583000Y-75926183D01*
X179350974Y-75805042D01*
X179200186Y-75850778D01*
X178935056Y-75977316D01*
X178699707Y-76153146D01*
X178503183Y-76371512D01*
X178444559Y-76470103D01*
X178334039Y-76304698D01*
X178125302Y-76095961D01*
X177879853Y-75931958D01*
X177607125Y-75818990D01*
X177317599Y-75761400D01*
X177022401Y-75761400D01*
X176732875Y-75818990D01*
X176460147Y-75931958D01*
X176214698Y-76095961D01*
X176005961Y-76304698D01*
X175900000Y-76463281D01*
X175794039Y-76304698D01*
X175585302Y-76095961D01*
X175339853Y-75931958D01*
X175067125Y-75818990D01*
X174777599Y-75761400D01*
X174482401Y-75761400D01*
X174192875Y-75818990D01*
X173920147Y-75931958D01*
X173674698Y-76095961D01*
X173465961Y-76304698D01*
X173355441Y-76470103D01*
X173296817Y-76371512D01*
X173100293Y-76153146D01*
X172864944Y-75977316D01*
X172599814Y-75850778D01*
X172449026Y-75805042D01*
X172217000Y-75926183D01*
X172217000Y-77133000D01*
X172237000Y-77133000D01*
X172237000Y-77387000D01*
X172217000Y-77387000D01*
X172217000Y-77407000D01*
X171963000Y-77407000D01*
X171963000Y-77387000D01*
X171943000Y-77387000D01*
X171943000Y-77133000D01*
X171963000Y-77133000D01*
X171963000Y-75926183D01*
X171730974Y-75805042D01*
X171580186Y-75850778D01*
X171315056Y-75977316D01*
X171079707Y-76153146D01*
X170883183Y-76371512D01*
X170824559Y-76470103D01*
X170714039Y-76304698D01*
X170505302Y-76095961D01*
X170259853Y-75931958D01*
X169987125Y-75818990D01*
X169697599Y-75761400D01*
X169402401Y-75761400D01*
X169112875Y-75818990D01*
X168840147Y-75931958D01*
X168594698Y-76095961D01*
X168385961Y-76304698D01*
X168280000Y-76463281D01*
X168174039Y-76304698D01*
X167965302Y-76095961D01*
X167719853Y-75931958D01*
X167447125Y-75818990D01*
X167157599Y-75761400D01*
X166862401Y-75761400D01*
X166572875Y-75818990D01*
X166300147Y-75931958D01*
X166054698Y-76095961D01*
X165845961Y-76304698D01*
X165740000Y-76463281D01*
X165634039Y-76304698D01*
X165425302Y-76095961D01*
X165179853Y-75931958D01*
X164907125Y-75818990D01*
X164617599Y-75761400D01*
X164322401Y-75761400D01*
X164032875Y-75818990D01*
X163760147Y-75931958D01*
X163514698Y-76095961D01*
X163305961Y-76304698D01*
X163195441Y-76470103D01*
X163136817Y-76371512D01*
X162940293Y-76153146D01*
X162704944Y-75977316D01*
X162439814Y-75850778D01*
X162289026Y-75805042D01*
X162057000Y-75926183D01*
X162057000Y-77133000D01*
X162077000Y-77133000D01*
X162077000Y-77387000D01*
X162057000Y-77387000D01*
X162057000Y-77407000D01*
X161803000Y-77407000D01*
X161803000Y-77387000D01*
X161783000Y-77387000D01*
X161783000Y-77133000D01*
X161803000Y-77133000D01*
X161803000Y-75926183D01*
X161570974Y-75805042D01*
X161420186Y-75850778D01*
X161155056Y-75977316D01*
X160919707Y-76153146D01*
X160723183Y-76371512D01*
X160664559Y-76470103D01*
X160554039Y-76304698D01*
X160345302Y-76095961D01*
X160099853Y-75931958D01*
X159827125Y-75818990D01*
X159537599Y-75761400D01*
X159242401Y-75761400D01*
X158952875Y-75818990D01*
X158680147Y-75931958D01*
X158434698Y-76095961D01*
X158225961Y-76304698D01*
X158120000Y-76463281D01*
X158014039Y-76304698D01*
X157805302Y-76095961D01*
X157559853Y-75931958D01*
X157287125Y-75818990D01*
X156997599Y-75761400D01*
X156702401Y-75761400D01*
X156412875Y-75818990D01*
X156140147Y-75931958D01*
X155894698Y-76095961D01*
X155685961Y-76304698D01*
X155521958Y-76550147D01*
X155408990Y-76822875D01*
X155351400Y-77112401D01*
X155351400Y-77407599D01*
X155408990Y-77697125D01*
X155521958Y-77969853D01*
X155685961Y-78215302D01*
X155800023Y-78329364D01*
X155742220Y-78346898D01*
X155631906Y-78405863D01*
X155535215Y-78485215D01*
X155455863Y-78581906D01*
X155396898Y-78692220D01*
X155360588Y-78811918D01*
X155348328Y-78936400D01*
X155348328Y-80663600D01*
X155360588Y-80788082D01*
X155396898Y-80907780D01*
X155455863Y-81018094D01*
X155535215Y-81114785D01*
X155597207Y-81165660D01*
X150397869Y-86365000D01*
X150316816Y-86365000D01*
X150020257Y-86423989D01*
X149740905Y-86539701D01*
X149489495Y-86707688D01*
X149275688Y-86921495D01*
X149233364Y-86984838D01*
X149194120Y-79526187D01*
X149354727Y-79913928D01*
X149681399Y-80402826D01*
X150097174Y-80818601D01*
X150586072Y-81145273D01*
X151129308Y-81370288D01*
X151706003Y-81485000D01*
X152293997Y-81485000D01*
X152870692Y-81370288D01*
X153413928Y-81145273D01*
X153902826Y-80818601D01*
X154318601Y-80402826D01*
X154645273Y-79913928D01*
X154870288Y-79370692D01*
X154985000Y-78793997D01*
X154985000Y-78206003D01*
X154870288Y-77629308D01*
X154645273Y-77086072D01*
X154318601Y-76597174D01*
X153902826Y-76181399D01*
X153413928Y-75854727D01*
X153012861Y-75688600D01*
X208987139Y-75688600D01*
X208586072Y-75854727D01*
G36*
X162653748Y-83313858D02*
G01*
X162639605Y-83328000D01*
X162653748Y-83342143D01*
X162474143Y-83521748D01*
X162460000Y-83507605D01*
X162445858Y-83521748D01*
X162266253Y-83342143D01*
X162280395Y-83328000D01*
X162266253Y-83313858D01*
X162445858Y-83134253D01*
X162460000Y-83148395D01*
X162474143Y-83134253D01*
X162653748Y-83313858D01*
G37*
X162653748Y-83313858D02*
X162639605Y-83328000D01*
X162653748Y-83342143D01*
X162474143Y-83521748D01*
X162460000Y-83507605D01*
X162445858Y-83521748D01*
X162266253Y-83342143D01*
X162280395Y-83328000D01*
X162266253Y-83313858D01*
X162445858Y-83134253D01*
X162460000Y-83148395D01*
X162474143Y-83134253D01*
X162653748Y-83313858D01*
G36*
X167137000Y-79673000D02*
G01*
X167157000Y-79673000D01*
X167157000Y-79927000D01*
X167137000Y-79927000D01*
X167137000Y-79947000D01*
X166883000Y-79947000D01*
X166883000Y-79927000D01*
X166863000Y-79927000D01*
X166863000Y-79673000D01*
X166883000Y-79673000D01*
X166883000Y-79653000D01*
X167137000Y-79653000D01*
X167137000Y-79673000D01*
G37*
X167137000Y-79673000D02*
X167157000Y-79673000D01*
X167157000Y-79927000D01*
X167137000Y-79927000D01*
X167137000Y-79947000D01*
X166883000Y-79947000D01*
X166883000Y-79927000D01*
X166863000Y-79927000D01*
X166863000Y-79673000D01*
X166883000Y-79673000D01*
X166883000Y-79653000D01*
X167137000Y-79653000D01*
X167137000Y-79673000D01*
M02*
