G04 #@! TF.GenerationSoftware,KiCad,Pcbnew,5.1.4*
G04 #@! TF.CreationDate,2019-11-16T22:13:57+01:00*
G04 #@! TF.ProjectId,anavi-play-phat,616e6176-692d-4706-9c61-792d70686174,rev?*
G04 #@! TF.SameCoordinates,Original*
G04 #@! TF.FileFunction,Copper,L1,Top*
G04 #@! TF.FilePolarity,Positive*
%FSLAX46Y46*%
G04 Gerber Fmt 4.6, Leading zero omitted, Abs format (unit mm)*
G04 Created by KiCad (PCBNEW 5.1.4) date 2019-11-16 22:13:57*
%MOMM*%
%LPD*%
G04 APERTURE LIST*
%ADD10C,1.524000*%
%ADD11R,7.500000X2.000000*%
%ADD12R,8.000000X1.900000*%
%ADD13R,1.727200X1.727200*%
%ADD14O,1.727200X1.727200*%
%ADD15C,4.700000*%
%ADD16C,1.100000*%
%ADD17C,2.000000*%
%ADD18C,1.000000*%
%ADD19C,0.500000*%
%ADD20C,0.254000*%
G04 APERTURE END LIST*
D10*
X200660000Y-97790000D03*
X205740000Y-97790000D03*
X205740000Y-102870000D03*
X200660000Y-102870000D03*
X212090000Y-95250000D03*
X207010000Y-95250000D03*
X207010000Y-90170000D03*
X212090000Y-90170000D03*
X185420000Y-87630000D03*
X185420000Y-82550000D03*
X190500000Y-82550000D03*
X190500000Y-87630000D03*
X199390000Y-90170000D03*
X199390000Y-95250000D03*
X194310000Y-95250000D03*
X194310000Y-90170000D03*
X205740000Y-82550000D03*
X205740000Y-87630000D03*
X200660000Y-87630000D03*
X200660000Y-82550000D03*
X176530000Y-82550000D03*
X176530000Y-87630000D03*
X171450000Y-87630000D03*
X171450000Y-82550000D03*
X156210000Y-99060000D03*
X156210000Y-96520000D03*
X156210000Y-93980000D03*
X156210000Y-91440000D03*
D11*
X140970000Y-90170000D03*
X140970000Y-87570000D03*
D12*
X140720000Y-85060000D03*
X140720000Y-92680000D03*
D13*
X156850000Y-79800000D03*
D14*
X156850000Y-77260000D03*
X159390000Y-79800000D03*
X159390000Y-77260000D03*
X161930000Y-79800000D03*
X161930000Y-77260000D03*
X164470000Y-79800000D03*
X164470000Y-77260000D03*
X167010000Y-79800000D03*
X167010000Y-77260000D03*
X169550000Y-79800000D03*
X169550000Y-77260000D03*
X172090000Y-79800000D03*
X172090000Y-77260000D03*
X174630000Y-79800000D03*
X174630000Y-77260000D03*
X177170000Y-79800000D03*
X177170000Y-77260000D03*
X179710000Y-79800000D03*
X179710000Y-77260000D03*
X182250000Y-79800000D03*
X182250000Y-77260000D03*
X184790000Y-79800000D03*
X184790000Y-77260000D03*
X187330000Y-79800000D03*
X187330000Y-77260000D03*
X189870000Y-79800000D03*
X189870000Y-77260000D03*
X192410000Y-79800000D03*
X192410000Y-77260000D03*
X194950000Y-79800000D03*
X194950000Y-77260000D03*
X197490000Y-79800000D03*
X197490000Y-77260000D03*
X200030000Y-79800000D03*
X200030000Y-77260000D03*
X202570000Y-79800000D03*
X202570000Y-77260000D03*
X205110000Y-79800000D03*
X205110000Y-77260000D03*
D15*
X152000000Y-78500000D03*
X210000000Y-78500000D03*
X210000000Y-101500000D03*
X152000000Y-101500000D03*
D16*
X158450000Y-102870000D03*
X171150000Y-102870000D03*
X173160000Y-102870000D03*
X158450000Y-101100000D03*
D17*
X162560000Y-100330000D03*
D18*
X156937681Y-89923999D02*
X168910000Y-101896318D01*
X145966001Y-89923999D02*
X156937681Y-89923999D01*
X140970000Y-90170000D02*
X145720000Y-90170000D01*
X145720000Y-90170000D02*
X145966001Y-89923999D01*
X168910000Y-101896318D02*
X168910000Y-104140000D01*
X171890000Y-104140000D02*
X173160000Y-102870000D01*
X168910000Y-104140000D02*
X171890000Y-104140000D01*
X171150000Y-102870000D02*
X171150000Y-101300000D01*
X157420000Y-87570000D02*
X140970000Y-87570000D01*
X171150000Y-101300000D02*
X157420000Y-87570000D01*
X157672183Y-101100000D02*
X158450000Y-101100000D01*
X156006318Y-101100000D02*
X157672183Y-101100000D01*
X147586318Y-92680000D02*
X156006318Y-101100000D01*
X140720000Y-92680000D02*
X147586318Y-92680000D01*
D19*
X160020000Y-100330000D02*
X162560000Y-100330000D01*
X162560000Y-101600000D02*
X162560000Y-100330000D01*
X162560000Y-100330000D02*
X163830000Y-100330000D01*
X163830000Y-100330000D02*
X165100000Y-100330000D01*
X162560000Y-102870000D02*
X162560000Y-100330000D01*
X162560000Y-100330000D02*
X162560000Y-99060000D01*
X162560000Y-99060000D02*
X162560000Y-97790000D01*
X162560000Y-100330000D02*
X161290000Y-99060000D01*
X161290000Y-101600000D02*
X162560000Y-100330000D01*
X162560000Y-100330000D02*
X163830000Y-99060000D01*
X162560000Y-100330000D02*
X163830000Y-101600000D01*
D18*
X145720000Y-85060000D02*
X145750000Y-85090000D01*
X140720000Y-85060000D02*
X145720000Y-85060000D01*
X145750000Y-85090000D02*
X151130000Y-85090000D01*
D19*
X177165000Y-79756000D02*
X177170000Y-79800000D01*
X158450000Y-102870000D02*
X161290000Y-102870000D01*
X157480000Y-102870000D02*
X158450000Y-102870000D01*
X158450000Y-102870000D02*
X158450000Y-103840000D01*
X159720000Y-101600000D02*
X158450000Y-102870000D01*
X157480000Y-103840000D02*
X158450000Y-102870000D01*
X158450000Y-102870000D02*
X159720000Y-104140000D01*
X156850000Y-77260000D02*
X156845000Y-77216000D01*
X169545000Y-79756000D02*
X169550000Y-79800000D01*
X202140000Y-79800000D02*
X202570000Y-79800000D01*
D20*
X164470000Y-77260000D02*
X164470000Y-77274500D01*
X164470000Y-77260000D02*
X164760000Y-77260000D01*
X167010000Y-77260000D02*
X167010000Y-77528500D01*
X167010000Y-77260000D02*
X167310000Y-77260000D01*
D19*
X189870000Y-79800000D02*
X189909000Y-79800000D01*
X189865000Y-80137000D02*
X189865000Y-79756000D01*
X189865000Y-79756000D02*
X189870000Y-79800000D01*
X189870000Y-77260000D02*
X189870000Y-76830000D01*
X159390000Y-79800000D02*
X159390000Y-80386000D01*
X159385000Y-79756000D02*
X159390000Y-79800000D01*
D20*
G36*
X208586072Y-75854727D02*
G01*
X208097174Y-76181399D01*
X207681399Y-76597174D01*
X207354727Y-77086072D01*
X207129712Y-77629308D01*
X207015000Y-78206003D01*
X207015000Y-78793997D01*
X207129712Y-79370692D01*
X207354727Y-79913928D01*
X207681399Y-80402826D01*
X208097174Y-80818601D01*
X208586072Y-81145273D01*
X209129308Y-81370288D01*
X209706003Y-81485000D01*
X210293997Y-81485000D01*
X210870692Y-81370288D01*
X211413928Y-81145273D01*
X211902826Y-80818601D01*
X212318601Y-80402826D01*
X212645273Y-79913928D01*
X212816100Y-79501514D01*
X212816100Y-88975008D01*
X212751727Y-88931995D01*
X212497490Y-88826686D01*
X212227592Y-88773000D01*
X211952408Y-88773000D01*
X211682510Y-88826686D01*
X211428273Y-88931995D01*
X211199465Y-89084880D01*
X211004880Y-89279465D01*
X210851995Y-89508273D01*
X210746686Y-89762510D01*
X210693000Y-90032408D01*
X210693000Y-90307592D01*
X210746686Y-90577490D01*
X210851995Y-90831727D01*
X211004880Y-91060535D01*
X211199465Y-91255120D01*
X211428273Y-91408005D01*
X211682510Y-91513314D01*
X211952408Y-91567000D01*
X212227592Y-91567000D01*
X212497490Y-91513314D01*
X212751727Y-91408005D01*
X212816101Y-91364992D01*
X212816101Y-94055008D01*
X212751727Y-94011995D01*
X212497490Y-93906686D01*
X212227592Y-93853000D01*
X211952408Y-93853000D01*
X211682510Y-93906686D01*
X211428273Y-94011995D01*
X211199465Y-94164880D01*
X211004880Y-94359465D01*
X210851995Y-94588273D01*
X210746686Y-94842510D01*
X210693000Y-95112408D01*
X210693000Y-95387592D01*
X210746686Y-95657490D01*
X210851995Y-95911727D01*
X211004880Y-96140535D01*
X211199465Y-96335120D01*
X211428273Y-96488005D01*
X211682510Y-96593314D01*
X211952408Y-96647000D01*
X212227592Y-96647000D01*
X212497490Y-96593314D01*
X212751727Y-96488005D01*
X212816101Y-96444992D01*
X212816101Y-100498488D01*
X212645273Y-100086072D01*
X212318601Y-99597174D01*
X211902826Y-99181399D01*
X211413928Y-98854727D01*
X210870692Y-98629712D01*
X210293997Y-98515000D01*
X209706003Y-98515000D01*
X209129308Y-98629712D01*
X208586072Y-98854727D01*
X208097174Y-99181399D01*
X207681399Y-99597174D01*
X207354727Y-100086072D01*
X207129712Y-100629308D01*
X207015000Y-101206003D01*
X207015000Y-101793997D01*
X207129712Y-102370692D01*
X207354727Y-102913928D01*
X207681399Y-103402826D01*
X208097174Y-103818601D01*
X208586072Y-104145273D01*
X209004522Y-104318600D01*
X173316531Y-104318600D01*
X173710536Y-103924596D01*
X173721308Y-103920134D01*
X173915394Y-103790450D01*
X174080450Y-103625394D01*
X174210134Y-103431308D01*
X174299461Y-103215652D01*
X174345000Y-102986712D01*
X174345000Y-102753288D01*
X174340847Y-102732408D01*
X199263000Y-102732408D01*
X199263000Y-103007592D01*
X199316686Y-103277490D01*
X199421995Y-103531727D01*
X199574880Y-103760535D01*
X199769465Y-103955120D01*
X199998273Y-104108005D01*
X200252510Y-104213314D01*
X200522408Y-104267000D01*
X200797592Y-104267000D01*
X201067490Y-104213314D01*
X201321727Y-104108005D01*
X201550535Y-103955120D01*
X201745120Y-103760535D01*
X201898005Y-103531727D01*
X202003314Y-103277490D01*
X202057000Y-103007592D01*
X202057000Y-102732408D01*
X204343000Y-102732408D01*
X204343000Y-103007592D01*
X204396686Y-103277490D01*
X204501995Y-103531727D01*
X204654880Y-103760535D01*
X204849465Y-103955120D01*
X205078273Y-104108005D01*
X205332510Y-104213314D01*
X205602408Y-104267000D01*
X205877592Y-104267000D01*
X206147490Y-104213314D01*
X206401727Y-104108005D01*
X206630535Y-103955120D01*
X206825120Y-103760535D01*
X206978005Y-103531727D01*
X207083314Y-103277490D01*
X207137000Y-103007592D01*
X207137000Y-102732408D01*
X207083314Y-102462510D01*
X206978005Y-102208273D01*
X206825120Y-101979465D01*
X206630535Y-101784880D01*
X206401727Y-101631995D01*
X206147490Y-101526686D01*
X205877592Y-101473000D01*
X205602408Y-101473000D01*
X205332510Y-101526686D01*
X205078273Y-101631995D01*
X204849465Y-101784880D01*
X204654880Y-101979465D01*
X204501995Y-102208273D01*
X204396686Y-102462510D01*
X204343000Y-102732408D01*
X202057000Y-102732408D01*
X202003314Y-102462510D01*
X201898005Y-102208273D01*
X201745120Y-101979465D01*
X201550535Y-101784880D01*
X201321727Y-101631995D01*
X201067490Y-101526686D01*
X200797592Y-101473000D01*
X200522408Y-101473000D01*
X200252510Y-101526686D01*
X199998273Y-101631995D01*
X199769465Y-101784880D01*
X199574880Y-101979465D01*
X199421995Y-102208273D01*
X199316686Y-102462510D01*
X199263000Y-102732408D01*
X174340847Y-102732408D01*
X174299461Y-102524348D01*
X174210134Y-102308692D01*
X174080450Y-102114606D01*
X173915394Y-101949550D01*
X173721308Y-101819866D01*
X173505652Y-101730539D01*
X173276712Y-101685000D01*
X173043288Y-101685000D01*
X172814348Y-101730539D01*
X172598692Y-101819866D01*
X172404606Y-101949550D01*
X172285000Y-102069156D01*
X172285000Y-101355743D01*
X172290490Y-101299999D01*
X172285000Y-101244255D01*
X172285000Y-101244248D01*
X172268577Y-101077501D01*
X172203676Y-100863553D01*
X172098284Y-100666377D01*
X171956449Y-100493551D01*
X171913141Y-100458009D01*
X169107540Y-97652408D01*
X199263000Y-97652408D01*
X199263000Y-97927592D01*
X199316686Y-98197490D01*
X199421995Y-98451727D01*
X199574880Y-98680535D01*
X199769465Y-98875120D01*
X199998273Y-99028005D01*
X200252510Y-99133314D01*
X200522408Y-99187000D01*
X200797592Y-99187000D01*
X201067490Y-99133314D01*
X201321727Y-99028005D01*
X201550535Y-98875120D01*
X201670090Y-98755565D01*
X204954040Y-98755565D01*
X205021020Y-98995656D01*
X205270048Y-99112756D01*
X205537135Y-99179023D01*
X205812017Y-99191910D01*
X206084133Y-99150922D01*
X206343023Y-99057636D01*
X206458980Y-98995656D01*
X206525960Y-98755565D01*
X205740000Y-97969605D01*
X204954040Y-98755565D01*
X201670090Y-98755565D01*
X201745120Y-98680535D01*
X201898005Y-98451727D01*
X202003314Y-98197490D01*
X202057000Y-97927592D01*
X202057000Y-97862017D01*
X204338090Y-97862017D01*
X204379078Y-98134133D01*
X204472364Y-98393023D01*
X204534344Y-98508980D01*
X204774435Y-98575960D01*
X205560395Y-97790000D01*
X205919605Y-97790000D01*
X206705565Y-98575960D01*
X206945656Y-98508980D01*
X207062756Y-98259952D01*
X207129023Y-97992865D01*
X207141910Y-97717983D01*
X207100922Y-97445867D01*
X207007636Y-97186977D01*
X206945656Y-97071020D01*
X206705565Y-97004040D01*
X205919605Y-97790000D01*
X205560395Y-97790000D01*
X204774435Y-97004040D01*
X204534344Y-97071020D01*
X204417244Y-97320048D01*
X204350977Y-97587135D01*
X204338090Y-97862017D01*
X202057000Y-97862017D01*
X202057000Y-97652408D01*
X202003314Y-97382510D01*
X201898005Y-97128273D01*
X201745120Y-96899465D01*
X201670090Y-96824435D01*
X204954040Y-96824435D01*
X205740000Y-97610395D01*
X206525960Y-96824435D01*
X206458980Y-96584344D01*
X206209952Y-96467244D01*
X205942865Y-96400977D01*
X205667983Y-96388090D01*
X205395867Y-96429078D01*
X205136977Y-96522364D01*
X205021020Y-96584344D01*
X204954040Y-96824435D01*
X201670090Y-96824435D01*
X201550535Y-96704880D01*
X201321727Y-96551995D01*
X201067490Y-96446686D01*
X200797592Y-96393000D01*
X200522408Y-96393000D01*
X200252510Y-96446686D01*
X199998273Y-96551995D01*
X199769465Y-96704880D01*
X199574880Y-96899465D01*
X199421995Y-97128273D01*
X199316686Y-97382510D01*
X199263000Y-97652408D01*
X169107540Y-97652408D01*
X166567540Y-95112408D01*
X192913000Y-95112408D01*
X192913000Y-95387592D01*
X192966686Y-95657490D01*
X193071995Y-95911727D01*
X193224880Y-96140535D01*
X193419465Y-96335120D01*
X193648273Y-96488005D01*
X193902510Y-96593314D01*
X194172408Y-96647000D01*
X194447592Y-96647000D01*
X194717490Y-96593314D01*
X194971727Y-96488005D01*
X195200535Y-96335120D01*
X195320090Y-96215565D01*
X198604040Y-96215565D01*
X198671020Y-96455656D01*
X198920048Y-96572756D01*
X199187135Y-96639023D01*
X199462017Y-96651910D01*
X199734133Y-96610922D01*
X199993023Y-96517636D01*
X200108980Y-96455656D01*
X200175960Y-96215565D01*
X206224040Y-96215565D01*
X206291020Y-96455656D01*
X206540048Y-96572756D01*
X206807135Y-96639023D01*
X207082017Y-96651910D01*
X207354133Y-96610922D01*
X207613023Y-96517636D01*
X207728980Y-96455656D01*
X207795960Y-96215565D01*
X207010000Y-95429605D01*
X206224040Y-96215565D01*
X200175960Y-96215565D01*
X199390000Y-95429605D01*
X198604040Y-96215565D01*
X195320090Y-96215565D01*
X195395120Y-96140535D01*
X195548005Y-95911727D01*
X195653314Y-95657490D01*
X195707000Y-95387592D01*
X195707000Y-95322017D01*
X197988090Y-95322017D01*
X198029078Y-95594133D01*
X198122364Y-95853023D01*
X198184344Y-95968980D01*
X198424435Y-96035960D01*
X199210395Y-95250000D01*
X199569605Y-95250000D01*
X200355565Y-96035960D01*
X200595656Y-95968980D01*
X200712756Y-95719952D01*
X200779023Y-95452865D01*
X200785157Y-95322017D01*
X205608090Y-95322017D01*
X205649078Y-95594133D01*
X205742364Y-95853023D01*
X205804344Y-95968980D01*
X206044435Y-96035960D01*
X206830395Y-95250000D01*
X207189605Y-95250000D01*
X207975565Y-96035960D01*
X208215656Y-95968980D01*
X208332756Y-95719952D01*
X208399023Y-95452865D01*
X208411910Y-95177983D01*
X208370922Y-94905867D01*
X208277636Y-94646977D01*
X208215656Y-94531020D01*
X207975565Y-94464040D01*
X207189605Y-95250000D01*
X206830395Y-95250000D01*
X206044435Y-94464040D01*
X205804344Y-94531020D01*
X205687244Y-94780048D01*
X205620977Y-95047135D01*
X205608090Y-95322017D01*
X200785157Y-95322017D01*
X200791910Y-95177983D01*
X200750922Y-94905867D01*
X200657636Y-94646977D01*
X200595656Y-94531020D01*
X200355565Y-94464040D01*
X199569605Y-95250000D01*
X199210395Y-95250000D01*
X198424435Y-94464040D01*
X198184344Y-94531020D01*
X198067244Y-94780048D01*
X198000977Y-95047135D01*
X197988090Y-95322017D01*
X195707000Y-95322017D01*
X195707000Y-95112408D01*
X195653314Y-94842510D01*
X195548005Y-94588273D01*
X195395120Y-94359465D01*
X195320090Y-94284435D01*
X198604040Y-94284435D01*
X199390000Y-95070395D01*
X200175960Y-94284435D01*
X206224040Y-94284435D01*
X207010000Y-95070395D01*
X207795960Y-94284435D01*
X207728980Y-94044344D01*
X207479952Y-93927244D01*
X207212865Y-93860977D01*
X206937983Y-93848090D01*
X206665867Y-93889078D01*
X206406977Y-93982364D01*
X206291020Y-94044344D01*
X206224040Y-94284435D01*
X200175960Y-94284435D01*
X200108980Y-94044344D01*
X199859952Y-93927244D01*
X199592865Y-93860977D01*
X199317983Y-93848090D01*
X199045867Y-93889078D01*
X198786977Y-93982364D01*
X198671020Y-94044344D01*
X198604040Y-94284435D01*
X195320090Y-94284435D01*
X195200535Y-94164880D01*
X194971727Y-94011995D01*
X194717490Y-93906686D01*
X194447592Y-93853000D01*
X194172408Y-93853000D01*
X193902510Y-93906686D01*
X193648273Y-94011995D01*
X193419465Y-94164880D01*
X193224880Y-94359465D01*
X193071995Y-94588273D01*
X192966686Y-94842510D01*
X192913000Y-95112408D01*
X166567540Y-95112408D01*
X161487540Y-90032408D01*
X192913000Y-90032408D01*
X192913000Y-90307592D01*
X192966686Y-90577490D01*
X193071995Y-90831727D01*
X193224880Y-91060535D01*
X193419465Y-91255120D01*
X193648273Y-91408005D01*
X193902510Y-91513314D01*
X194172408Y-91567000D01*
X194447592Y-91567000D01*
X194717490Y-91513314D01*
X194971727Y-91408005D01*
X195200535Y-91255120D01*
X195395120Y-91060535D01*
X195548005Y-90831727D01*
X195653314Y-90577490D01*
X195707000Y-90307592D01*
X195707000Y-90032408D01*
X197993000Y-90032408D01*
X197993000Y-90307592D01*
X198046686Y-90577490D01*
X198151995Y-90831727D01*
X198304880Y-91060535D01*
X198499465Y-91255120D01*
X198728273Y-91408005D01*
X198982510Y-91513314D01*
X199252408Y-91567000D01*
X199527592Y-91567000D01*
X199797490Y-91513314D01*
X200051727Y-91408005D01*
X200280535Y-91255120D01*
X200475120Y-91060535D01*
X200628005Y-90831727D01*
X200733314Y-90577490D01*
X200787000Y-90307592D01*
X200787000Y-90032408D01*
X205613000Y-90032408D01*
X205613000Y-90307592D01*
X205666686Y-90577490D01*
X205771995Y-90831727D01*
X205924880Y-91060535D01*
X206119465Y-91255120D01*
X206348273Y-91408005D01*
X206602510Y-91513314D01*
X206872408Y-91567000D01*
X207147592Y-91567000D01*
X207417490Y-91513314D01*
X207671727Y-91408005D01*
X207900535Y-91255120D01*
X208095120Y-91060535D01*
X208248005Y-90831727D01*
X208353314Y-90577490D01*
X208407000Y-90307592D01*
X208407000Y-90032408D01*
X208353314Y-89762510D01*
X208248005Y-89508273D01*
X208095120Y-89279465D01*
X207900535Y-89084880D01*
X207671727Y-88931995D01*
X207417490Y-88826686D01*
X207147592Y-88773000D01*
X206872408Y-88773000D01*
X206602510Y-88826686D01*
X206348273Y-88931995D01*
X206119465Y-89084880D01*
X205924880Y-89279465D01*
X205771995Y-89508273D01*
X205666686Y-89762510D01*
X205613000Y-90032408D01*
X200787000Y-90032408D01*
X200733314Y-89762510D01*
X200628005Y-89508273D01*
X200475120Y-89279465D01*
X200280535Y-89084880D01*
X200051727Y-88931995D01*
X199797490Y-88826686D01*
X199527592Y-88773000D01*
X199252408Y-88773000D01*
X198982510Y-88826686D01*
X198728273Y-88931995D01*
X198499465Y-89084880D01*
X198304880Y-89279465D01*
X198151995Y-89508273D01*
X198046686Y-89762510D01*
X197993000Y-90032408D01*
X195707000Y-90032408D01*
X195653314Y-89762510D01*
X195548005Y-89508273D01*
X195395120Y-89279465D01*
X195200535Y-89084880D01*
X194971727Y-88931995D01*
X194717490Y-88826686D01*
X194447592Y-88773000D01*
X194172408Y-88773000D01*
X193902510Y-88826686D01*
X193648273Y-88931995D01*
X193419465Y-89084880D01*
X193224880Y-89279465D01*
X193071995Y-89508273D01*
X192966686Y-89762510D01*
X192913000Y-90032408D01*
X161487540Y-90032408D01*
X158947540Y-87492408D01*
X170053000Y-87492408D01*
X170053000Y-87767592D01*
X170106686Y-88037490D01*
X170211995Y-88291727D01*
X170364880Y-88520535D01*
X170559465Y-88715120D01*
X170788273Y-88868005D01*
X171042510Y-88973314D01*
X171312408Y-89027000D01*
X171587592Y-89027000D01*
X171857490Y-88973314D01*
X172111727Y-88868005D01*
X172340535Y-88715120D01*
X172460090Y-88595565D01*
X175744040Y-88595565D01*
X175811020Y-88835656D01*
X176060048Y-88952756D01*
X176327135Y-89019023D01*
X176602017Y-89031910D01*
X176874133Y-88990922D01*
X177133023Y-88897636D01*
X177248980Y-88835656D01*
X177315960Y-88595565D01*
X176530000Y-87809605D01*
X175744040Y-88595565D01*
X172460090Y-88595565D01*
X172535120Y-88520535D01*
X172688005Y-88291727D01*
X172793314Y-88037490D01*
X172847000Y-87767592D01*
X172847000Y-87702017D01*
X175128090Y-87702017D01*
X175169078Y-87974133D01*
X175262364Y-88233023D01*
X175324344Y-88348980D01*
X175564435Y-88415960D01*
X176350395Y-87630000D01*
X176709605Y-87630000D01*
X177495565Y-88415960D01*
X177735656Y-88348980D01*
X177852756Y-88099952D01*
X177919023Y-87832865D01*
X177931910Y-87557983D01*
X177922033Y-87492408D01*
X184023000Y-87492408D01*
X184023000Y-87767592D01*
X184076686Y-88037490D01*
X184181995Y-88291727D01*
X184334880Y-88520535D01*
X184529465Y-88715120D01*
X184758273Y-88868005D01*
X185012510Y-88973314D01*
X185282408Y-89027000D01*
X185557592Y-89027000D01*
X185827490Y-88973314D01*
X186081727Y-88868005D01*
X186310535Y-88715120D01*
X186505120Y-88520535D01*
X186658005Y-88291727D01*
X186763314Y-88037490D01*
X186817000Y-87767592D01*
X186817000Y-87492408D01*
X189103000Y-87492408D01*
X189103000Y-87767592D01*
X189156686Y-88037490D01*
X189261995Y-88291727D01*
X189414880Y-88520535D01*
X189609465Y-88715120D01*
X189838273Y-88868005D01*
X190092510Y-88973314D01*
X190362408Y-89027000D01*
X190637592Y-89027000D01*
X190907490Y-88973314D01*
X191161727Y-88868005D01*
X191390535Y-88715120D01*
X191585120Y-88520535D01*
X191738005Y-88291727D01*
X191843314Y-88037490D01*
X191897000Y-87767592D01*
X191897000Y-87492408D01*
X199263000Y-87492408D01*
X199263000Y-87767592D01*
X199316686Y-88037490D01*
X199421995Y-88291727D01*
X199574880Y-88520535D01*
X199769465Y-88715120D01*
X199998273Y-88868005D01*
X200252510Y-88973314D01*
X200522408Y-89027000D01*
X200797592Y-89027000D01*
X201067490Y-88973314D01*
X201321727Y-88868005D01*
X201550535Y-88715120D01*
X201670090Y-88595565D01*
X204954040Y-88595565D01*
X205021020Y-88835656D01*
X205270048Y-88952756D01*
X205537135Y-89019023D01*
X205812017Y-89031910D01*
X206084133Y-88990922D01*
X206343023Y-88897636D01*
X206458980Y-88835656D01*
X206525960Y-88595565D01*
X205740000Y-87809605D01*
X204954040Y-88595565D01*
X201670090Y-88595565D01*
X201745120Y-88520535D01*
X201898005Y-88291727D01*
X202003314Y-88037490D01*
X202057000Y-87767592D01*
X202057000Y-87702017D01*
X204338090Y-87702017D01*
X204379078Y-87974133D01*
X204472364Y-88233023D01*
X204534344Y-88348980D01*
X204774435Y-88415960D01*
X205560395Y-87630000D01*
X205919605Y-87630000D01*
X206705565Y-88415960D01*
X206945656Y-88348980D01*
X207062756Y-88099952D01*
X207129023Y-87832865D01*
X207141910Y-87557983D01*
X207100922Y-87285867D01*
X207007636Y-87026977D01*
X206945656Y-86911020D01*
X206705565Y-86844040D01*
X205919605Y-87630000D01*
X205560395Y-87630000D01*
X204774435Y-86844040D01*
X204534344Y-86911020D01*
X204417244Y-87160048D01*
X204350977Y-87427135D01*
X204338090Y-87702017D01*
X202057000Y-87702017D01*
X202057000Y-87492408D01*
X202003314Y-87222510D01*
X201898005Y-86968273D01*
X201745120Y-86739465D01*
X201670090Y-86664435D01*
X204954040Y-86664435D01*
X205740000Y-87450395D01*
X206525960Y-86664435D01*
X206458980Y-86424344D01*
X206209952Y-86307244D01*
X205942865Y-86240977D01*
X205667983Y-86228090D01*
X205395867Y-86269078D01*
X205136977Y-86362364D01*
X205021020Y-86424344D01*
X204954040Y-86664435D01*
X201670090Y-86664435D01*
X201550535Y-86544880D01*
X201321727Y-86391995D01*
X201067490Y-86286686D01*
X200797592Y-86233000D01*
X200522408Y-86233000D01*
X200252510Y-86286686D01*
X199998273Y-86391995D01*
X199769465Y-86544880D01*
X199574880Y-86739465D01*
X199421995Y-86968273D01*
X199316686Y-87222510D01*
X199263000Y-87492408D01*
X191897000Y-87492408D01*
X191843314Y-87222510D01*
X191738005Y-86968273D01*
X191585120Y-86739465D01*
X191390535Y-86544880D01*
X191161727Y-86391995D01*
X190907490Y-86286686D01*
X190637592Y-86233000D01*
X190362408Y-86233000D01*
X190092510Y-86286686D01*
X189838273Y-86391995D01*
X189609465Y-86544880D01*
X189414880Y-86739465D01*
X189261995Y-86968273D01*
X189156686Y-87222510D01*
X189103000Y-87492408D01*
X186817000Y-87492408D01*
X186763314Y-87222510D01*
X186658005Y-86968273D01*
X186505120Y-86739465D01*
X186310535Y-86544880D01*
X186081727Y-86391995D01*
X185827490Y-86286686D01*
X185557592Y-86233000D01*
X185282408Y-86233000D01*
X185012510Y-86286686D01*
X184758273Y-86391995D01*
X184529465Y-86544880D01*
X184334880Y-86739465D01*
X184181995Y-86968273D01*
X184076686Y-87222510D01*
X184023000Y-87492408D01*
X177922033Y-87492408D01*
X177890922Y-87285867D01*
X177797636Y-87026977D01*
X177735656Y-86911020D01*
X177495565Y-86844040D01*
X176709605Y-87630000D01*
X176350395Y-87630000D01*
X175564435Y-86844040D01*
X175324344Y-86911020D01*
X175207244Y-87160048D01*
X175140977Y-87427135D01*
X175128090Y-87702017D01*
X172847000Y-87702017D01*
X172847000Y-87492408D01*
X172793314Y-87222510D01*
X172688005Y-86968273D01*
X172535120Y-86739465D01*
X172460090Y-86664435D01*
X175744040Y-86664435D01*
X176530000Y-87450395D01*
X177315960Y-86664435D01*
X177248980Y-86424344D01*
X176999952Y-86307244D01*
X176732865Y-86240977D01*
X176457983Y-86228090D01*
X176185867Y-86269078D01*
X175926977Y-86362364D01*
X175811020Y-86424344D01*
X175744040Y-86664435D01*
X172460090Y-86664435D01*
X172340535Y-86544880D01*
X172111727Y-86391995D01*
X171857490Y-86286686D01*
X171587592Y-86233000D01*
X171312408Y-86233000D01*
X171042510Y-86286686D01*
X170788273Y-86391995D01*
X170559465Y-86544880D01*
X170364880Y-86739465D01*
X170211995Y-86968273D01*
X170106686Y-87222510D01*
X170053000Y-87492408D01*
X158947540Y-87492408D01*
X158261996Y-86806865D01*
X158226449Y-86763551D01*
X158053623Y-86621716D01*
X157856447Y-86516324D01*
X157642499Y-86451423D01*
X157475752Y-86435000D01*
X157475751Y-86435000D01*
X157420000Y-86429509D01*
X157364249Y-86435000D01*
X148717000Y-86435000D01*
X148717000Y-83225805D01*
X148724283Y-83225088D01*
X148730751Y-83223126D01*
X148737455Y-83222333D01*
X148795207Y-83203574D01*
X148853406Y-83185919D01*
X148859369Y-83182732D01*
X148865787Y-83180647D01*
X148918765Y-83150984D01*
X148972407Y-83122312D01*
X148977632Y-83118024D01*
X148983522Y-83114726D01*
X149029708Y-83075286D01*
X149076711Y-83036711D01*
X149080999Y-83031486D01*
X149086133Y-83027102D01*
X149123737Y-82979411D01*
X149162312Y-82932407D01*
X149165498Y-82926446D01*
X149169678Y-82921145D01*
X149197261Y-82867022D01*
X149225919Y-82813406D01*
X149227880Y-82806941D01*
X149230947Y-82800923D01*
X149247444Y-82742448D01*
X149265088Y-82684283D01*
X149265750Y-82677559D01*
X149267584Y-82671059D01*
X149272354Y-82610512D01*
X149278314Y-82550000D01*
X149274341Y-82509666D01*
X149217087Y-79581635D01*
X149354727Y-79913928D01*
X149681399Y-80402826D01*
X150097174Y-80818601D01*
X150586072Y-81145273D01*
X151129308Y-81370288D01*
X151706003Y-81485000D01*
X152293997Y-81485000D01*
X152870692Y-81370288D01*
X153413928Y-81145273D01*
X153902826Y-80818601D01*
X154318601Y-80402826D01*
X154645273Y-79913928D01*
X154870288Y-79370692D01*
X154985000Y-78793997D01*
X154985000Y-78206003D01*
X154870288Y-77629308D01*
X154717317Y-77260000D01*
X155344149Y-77260000D01*
X155373084Y-77553777D01*
X155458775Y-77836264D01*
X155597931Y-78096606D01*
X155785203Y-78324797D01*
X155793265Y-78331414D01*
X155742220Y-78346898D01*
X155631906Y-78405863D01*
X155535215Y-78485215D01*
X155455863Y-78581906D01*
X155396898Y-78692220D01*
X155360588Y-78811918D01*
X155348328Y-78936400D01*
X155348328Y-80663600D01*
X155360588Y-80788082D01*
X155396898Y-80907780D01*
X155455863Y-81018094D01*
X155535215Y-81114785D01*
X155631906Y-81194137D01*
X155742220Y-81253102D01*
X155861918Y-81289412D01*
X155986400Y-81301672D01*
X157713600Y-81301672D01*
X157838082Y-81289412D01*
X157957780Y-81253102D01*
X158068094Y-81194137D01*
X158164785Y-81114785D01*
X158244137Y-81018094D01*
X158303102Y-80907780D01*
X158318586Y-80856735D01*
X158325203Y-80864797D01*
X158553394Y-81052069D01*
X158813736Y-81191225D01*
X159096223Y-81276916D01*
X159316381Y-81298600D01*
X159463619Y-81298600D01*
X159683777Y-81276916D01*
X159966264Y-81191225D01*
X160226606Y-81052069D01*
X160454797Y-80864797D01*
X160642069Y-80636606D01*
X160660000Y-80603060D01*
X160677931Y-80636606D01*
X160865203Y-80864797D01*
X161093394Y-81052069D01*
X161353736Y-81191225D01*
X161636223Y-81276916D01*
X161856381Y-81298600D01*
X162003619Y-81298600D01*
X162223777Y-81276916D01*
X162506264Y-81191225D01*
X162766606Y-81052069D01*
X162994797Y-80864797D01*
X163182069Y-80636606D01*
X163200000Y-80603060D01*
X163217931Y-80636606D01*
X163405203Y-80864797D01*
X163633394Y-81052069D01*
X163893736Y-81191225D01*
X164176223Y-81276916D01*
X164396381Y-81298600D01*
X164543619Y-81298600D01*
X164763777Y-81276916D01*
X165046264Y-81191225D01*
X165306606Y-81052069D01*
X165534797Y-80864797D01*
X165722069Y-80636606D01*
X165745863Y-80592090D01*
X165803183Y-80688488D01*
X165999707Y-80906854D01*
X166235056Y-81082684D01*
X166500186Y-81209222D01*
X166650974Y-81254958D01*
X166883000Y-81133817D01*
X166883000Y-79927000D01*
X166863000Y-79927000D01*
X166863000Y-79673000D01*
X166883000Y-79673000D01*
X166883000Y-79653000D01*
X167137000Y-79653000D01*
X167137000Y-79673000D01*
X167157000Y-79673000D01*
X167157000Y-79927000D01*
X167137000Y-79927000D01*
X167137000Y-81133817D01*
X167369026Y-81254958D01*
X167519814Y-81209222D01*
X167784944Y-81082684D01*
X168020293Y-80906854D01*
X168216817Y-80688488D01*
X168274137Y-80592090D01*
X168297931Y-80636606D01*
X168485203Y-80864797D01*
X168713394Y-81052069D01*
X168973736Y-81191225D01*
X169256223Y-81276916D01*
X169476381Y-81298600D01*
X169623619Y-81298600D01*
X169843777Y-81276916D01*
X170126264Y-81191225D01*
X170386606Y-81052069D01*
X170614797Y-80864797D01*
X170802069Y-80636606D01*
X170820000Y-80603060D01*
X170837931Y-80636606D01*
X171025203Y-80864797D01*
X171253394Y-81052069D01*
X171442222Y-81153000D01*
X171312408Y-81153000D01*
X171042510Y-81206686D01*
X170788273Y-81311995D01*
X170559465Y-81464880D01*
X170364880Y-81659465D01*
X170211995Y-81888273D01*
X170106686Y-82142510D01*
X170053000Y-82412408D01*
X170053000Y-82687592D01*
X170106686Y-82957490D01*
X170211995Y-83211727D01*
X170364880Y-83440535D01*
X170559465Y-83635120D01*
X170788273Y-83788005D01*
X171042510Y-83893314D01*
X171312408Y-83947000D01*
X171587592Y-83947000D01*
X171857490Y-83893314D01*
X172111727Y-83788005D01*
X172340535Y-83635120D01*
X172535120Y-83440535D01*
X172688005Y-83211727D01*
X172793314Y-82957490D01*
X172847000Y-82687592D01*
X172847000Y-82412408D01*
X172793314Y-82142510D01*
X172688005Y-81888273D01*
X172535120Y-81659465D01*
X172340535Y-81464880D01*
X172111727Y-81311995D01*
X172079389Y-81298600D01*
X172163619Y-81298600D01*
X172383777Y-81276916D01*
X172666264Y-81191225D01*
X172926606Y-81052069D01*
X173154797Y-80864797D01*
X173342069Y-80636606D01*
X173360000Y-80603060D01*
X173377931Y-80636606D01*
X173565203Y-80864797D01*
X173793394Y-81052069D01*
X174053736Y-81191225D01*
X174336223Y-81276916D01*
X174556381Y-81298600D01*
X174703619Y-81298600D01*
X174923777Y-81276916D01*
X175206264Y-81191225D01*
X175466606Y-81052069D01*
X175694797Y-80864797D01*
X175882069Y-80636606D01*
X175900000Y-80603060D01*
X175917931Y-80636606D01*
X176105203Y-80864797D01*
X176333394Y-81052069D01*
X176522222Y-81153000D01*
X176392408Y-81153000D01*
X176122510Y-81206686D01*
X175868273Y-81311995D01*
X175639465Y-81464880D01*
X175444880Y-81659465D01*
X175291995Y-81888273D01*
X175186686Y-82142510D01*
X175133000Y-82412408D01*
X175133000Y-82687592D01*
X175186686Y-82957490D01*
X175291995Y-83211727D01*
X175444880Y-83440535D01*
X175639465Y-83635120D01*
X175868273Y-83788005D01*
X176122510Y-83893314D01*
X176392408Y-83947000D01*
X176667592Y-83947000D01*
X176937490Y-83893314D01*
X177191727Y-83788005D01*
X177420535Y-83635120D01*
X177540090Y-83515565D01*
X184634040Y-83515565D01*
X184701020Y-83755656D01*
X184950048Y-83872756D01*
X185217135Y-83939023D01*
X185492017Y-83951910D01*
X185764133Y-83910922D01*
X186023023Y-83817636D01*
X186138980Y-83755656D01*
X186205960Y-83515565D01*
X185420000Y-82729605D01*
X184634040Y-83515565D01*
X177540090Y-83515565D01*
X177615120Y-83440535D01*
X177768005Y-83211727D01*
X177873314Y-82957490D01*
X177927000Y-82687592D01*
X177927000Y-82622017D01*
X184018090Y-82622017D01*
X184059078Y-82894133D01*
X184152364Y-83153023D01*
X184214344Y-83268980D01*
X184454435Y-83335960D01*
X185240395Y-82550000D01*
X185599605Y-82550000D01*
X186385565Y-83335960D01*
X186625656Y-83268980D01*
X186742756Y-83019952D01*
X186809023Y-82752865D01*
X186821910Y-82477983D01*
X186780922Y-82205867D01*
X186687636Y-81946977D01*
X186625656Y-81831020D01*
X186385565Y-81764040D01*
X185599605Y-82550000D01*
X185240395Y-82550000D01*
X184454435Y-81764040D01*
X184214344Y-81831020D01*
X184097244Y-82080048D01*
X184030977Y-82347135D01*
X184018090Y-82622017D01*
X177927000Y-82622017D01*
X177927000Y-82412408D01*
X177873314Y-82142510D01*
X177768005Y-81888273D01*
X177615120Y-81659465D01*
X177420535Y-81464880D01*
X177191727Y-81311995D01*
X177159389Y-81298600D01*
X177243619Y-81298600D01*
X177463777Y-81276916D01*
X177746264Y-81191225D01*
X178006606Y-81052069D01*
X178234797Y-80864797D01*
X178422069Y-80636606D01*
X178440000Y-80603060D01*
X178457931Y-80636606D01*
X178645203Y-80864797D01*
X178873394Y-81052069D01*
X179133736Y-81191225D01*
X179416223Y-81276916D01*
X179636381Y-81298600D01*
X179783619Y-81298600D01*
X180003777Y-81276916D01*
X180286264Y-81191225D01*
X180546606Y-81052069D01*
X180774797Y-80864797D01*
X180962069Y-80636606D01*
X180980000Y-80603060D01*
X180997931Y-80636606D01*
X181185203Y-80864797D01*
X181413394Y-81052069D01*
X181673736Y-81191225D01*
X181956223Y-81276916D01*
X182176381Y-81298600D01*
X182323619Y-81298600D01*
X182543777Y-81276916D01*
X182826264Y-81191225D01*
X183086606Y-81052069D01*
X183314797Y-80864797D01*
X183502069Y-80636606D01*
X183520000Y-80603060D01*
X183537931Y-80636606D01*
X183725203Y-80864797D01*
X183953394Y-81052069D01*
X184213736Y-81191225D01*
X184496223Y-81276916D01*
X184716381Y-81298600D01*
X184786601Y-81298600D01*
X184701020Y-81344344D01*
X184634040Y-81584435D01*
X185420000Y-82370395D01*
X186205960Y-81584435D01*
X186138980Y-81344344D01*
X185889952Y-81227244D01*
X185622865Y-81160977D01*
X185438982Y-81152356D01*
X185626606Y-81052069D01*
X185854797Y-80864797D01*
X186042069Y-80636606D01*
X186065863Y-80592090D01*
X186123183Y-80688488D01*
X186319707Y-80906854D01*
X186555056Y-81082684D01*
X186820186Y-81209222D01*
X186970974Y-81254958D01*
X187203000Y-81133817D01*
X187203000Y-79927000D01*
X187183000Y-79927000D01*
X187183000Y-79673000D01*
X187203000Y-79673000D01*
X187203000Y-79653000D01*
X187457000Y-79653000D01*
X187457000Y-79673000D01*
X187477000Y-79673000D01*
X187477000Y-79927000D01*
X187457000Y-79927000D01*
X187457000Y-81133817D01*
X187689026Y-81254958D01*
X187839814Y-81209222D01*
X188104944Y-81082684D01*
X188340293Y-80906854D01*
X188536817Y-80688488D01*
X188594137Y-80592090D01*
X188617931Y-80636606D01*
X188805203Y-80864797D01*
X189033394Y-81052069D01*
X189293736Y-81191225D01*
X189576223Y-81276916D01*
X189796381Y-81298600D01*
X189870611Y-81298600D01*
X189838273Y-81311995D01*
X189609465Y-81464880D01*
X189414880Y-81659465D01*
X189261995Y-81888273D01*
X189156686Y-82142510D01*
X189103000Y-82412408D01*
X189103000Y-82687592D01*
X189156686Y-82957490D01*
X189261995Y-83211727D01*
X189414880Y-83440535D01*
X189609465Y-83635120D01*
X189838273Y-83788005D01*
X190092510Y-83893314D01*
X190362408Y-83947000D01*
X190637592Y-83947000D01*
X190907490Y-83893314D01*
X191161727Y-83788005D01*
X191390535Y-83635120D01*
X191585120Y-83440535D01*
X191738005Y-83211727D01*
X191843314Y-82957490D01*
X191897000Y-82687592D01*
X191897000Y-82412408D01*
X191843314Y-82142510D01*
X191738005Y-81888273D01*
X191585120Y-81659465D01*
X191390535Y-81464880D01*
X191161727Y-81311995D01*
X190907490Y-81206686D01*
X190637592Y-81153000D01*
X190517778Y-81153000D01*
X190706606Y-81052069D01*
X190934797Y-80864797D01*
X191122069Y-80636606D01*
X191140000Y-80603060D01*
X191157931Y-80636606D01*
X191345203Y-80864797D01*
X191573394Y-81052069D01*
X191833736Y-81191225D01*
X192116223Y-81276916D01*
X192336381Y-81298600D01*
X192483619Y-81298600D01*
X192703777Y-81276916D01*
X192986264Y-81191225D01*
X193246606Y-81052069D01*
X193474797Y-80864797D01*
X193662069Y-80636606D01*
X193680000Y-80603060D01*
X193697931Y-80636606D01*
X193885203Y-80864797D01*
X194113394Y-81052069D01*
X194373736Y-81191225D01*
X194656223Y-81276916D01*
X194876381Y-81298600D01*
X195023619Y-81298600D01*
X195243777Y-81276916D01*
X195526264Y-81191225D01*
X195786606Y-81052069D01*
X196014797Y-80864797D01*
X196202069Y-80636606D01*
X196220000Y-80603060D01*
X196237931Y-80636606D01*
X196425203Y-80864797D01*
X196653394Y-81052069D01*
X196913736Y-81191225D01*
X197196223Y-81276916D01*
X197416381Y-81298600D01*
X197563619Y-81298600D01*
X197783777Y-81276916D01*
X198066264Y-81191225D01*
X198326606Y-81052069D01*
X198554797Y-80864797D01*
X198742069Y-80636606D01*
X198760000Y-80603060D01*
X198777931Y-80636606D01*
X198965203Y-80864797D01*
X199193394Y-81052069D01*
X199453736Y-81191225D01*
X199736223Y-81276916D01*
X199956381Y-81298600D01*
X200030611Y-81298600D01*
X199998273Y-81311995D01*
X199769465Y-81464880D01*
X199574880Y-81659465D01*
X199421995Y-81888273D01*
X199316686Y-82142510D01*
X199263000Y-82412408D01*
X199263000Y-82687592D01*
X199316686Y-82957490D01*
X199421995Y-83211727D01*
X199574880Y-83440535D01*
X199769465Y-83635120D01*
X199998273Y-83788005D01*
X200252510Y-83893314D01*
X200522408Y-83947000D01*
X200797592Y-83947000D01*
X201067490Y-83893314D01*
X201321727Y-83788005D01*
X201550535Y-83635120D01*
X201745120Y-83440535D01*
X201898005Y-83211727D01*
X202003314Y-82957490D01*
X202057000Y-82687592D01*
X202057000Y-82412408D01*
X204343000Y-82412408D01*
X204343000Y-82687592D01*
X204396686Y-82957490D01*
X204501995Y-83211727D01*
X204654880Y-83440535D01*
X204849465Y-83635120D01*
X205078273Y-83788005D01*
X205332510Y-83893314D01*
X205602408Y-83947000D01*
X205877592Y-83947000D01*
X206147490Y-83893314D01*
X206401727Y-83788005D01*
X206630535Y-83635120D01*
X206825120Y-83440535D01*
X206978005Y-83211727D01*
X207083314Y-82957490D01*
X207137000Y-82687592D01*
X207137000Y-82412408D01*
X207083314Y-82142510D01*
X206978005Y-81888273D01*
X206825120Y-81659465D01*
X206630535Y-81464880D01*
X206401727Y-81311995D01*
X206147490Y-81206686D01*
X205877592Y-81153000D01*
X205737614Y-81153000D01*
X205884944Y-81082684D01*
X206120293Y-80906854D01*
X206316817Y-80688488D01*
X206466964Y-80435978D01*
X206564963Y-80159027D01*
X206444464Y-79927000D01*
X205237000Y-79927000D01*
X205237000Y-81133817D01*
X205364414Y-81200340D01*
X205332510Y-81206686D01*
X205078273Y-81311995D01*
X204849465Y-81464880D01*
X204654880Y-81659465D01*
X204501995Y-81888273D01*
X204396686Y-82142510D01*
X204343000Y-82412408D01*
X202057000Y-82412408D01*
X202003314Y-82142510D01*
X201898005Y-81888273D01*
X201745120Y-81659465D01*
X201550535Y-81464880D01*
X201321727Y-81311995D01*
X201067490Y-81206686D01*
X200797592Y-81153000D01*
X200677778Y-81153000D01*
X200866606Y-81052069D01*
X201094797Y-80864797D01*
X201282069Y-80636606D01*
X201300000Y-80603060D01*
X201317931Y-80636606D01*
X201505203Y-80864797D01*
X201733394Y-81052069D01*
X201993736Y-81191225D01*
X202276223Y-81276916D01*
X202496381Y-81298600D01*
X202643619Y-81298600D01*
X202863777Y-81276916D01*
X203146264Y-81191225D01*
X203406606Y-81052069D01*
X203634797Y-80864797D01*
X203822069Y-80636606D01*
X203845863Y-80592090D01*
X203903183Y-80688488D01*
X204099707Y-80906854D01*
X204335056Y-81082684D01*
X204600186Y-81209222D01*
X204750974Y-81254958D01*
X204983000Y-81133817D01*
X204983000Y-79927000D01*
X204963000Y-79927000D01*
X204963000Y-79673000D01*
X204983000Y-79673000D01*
X204983000Y-79653000D01*
X205237000Y-79653000D01*
X205237000Y-79673000D01*
X206444464Y-79673000D01*
X206564963Y-79440973D01*
X206466964Y-79164022D01*
X206316817Y-78911512D01*
X206120293Y-78693146D01*
X205906567Y-78533470D01*
X205946606Y-78512069D01*
X206174797Y-78324797D01*
X206362069Y-78096606D01*
X206501225Y-77836264D01*
X206586916Y-77553777D01*
X206615851Y-77260000D01*
X206586916Y-76966223D01*
X206501225Y-76683736D01*
X206362069Y-76423394D01*
X206174797Y-76195203D01*
X205946606Y-76007931D01*
X205686264Y-75868775D01*
X205403777Y-75783084D01*
X205183619Y-75761400D01*
X205036381Y-75761400D01*
X204816223Y-75783084D01*
X204533736Y-75868775D01*
X204273394Y-76007931D01*
X204045203Y-76195203D01*
X203857931Y-76423394D01*
X203840000Y-76456940D01*
X203822069Y-76423394D01*
X203634797Y-76195203D01*
X203406606Y-76007931D01*
X203146264Y-75868775D01*
X202863777Y-75783084D01*
X202643619Y-75761400D01*
X202496381Y-75761400D01*
X202276223Y-75783084D01*
X201993736Y-75868775D01*
X201733394Y-76007931D01*
X201505203Y-76195203D01*
X201317931Y-76423394D01*
X201300000Y-76456940D01*
X201282069Y-76423394D01*
X201094797Y-76195203D01*
X200866606Y-76007931D01*
X200606264Y-75868775D01*
X200323777Y-75783084D01*
X200103619Y-75761400D01*
X199956381Y-75761400D01*
X199736223Y-75783084D01*
X199453736Y-75868775D01*
X199193394Y-76007931D01*
X198965203Y-76195203D01*
X198777931Y-76423394D01*
X198754137Y-76467910D01*
X198696817Y-76371512D01*
X198500293Y-76153146D01*
X198264944Y-75977316D01*
X197999814Y-75850778D01*
X197849026Y-75805042D01*
X197617000Y-75926183D01*
X197617000Y-77133000D01*
X197637000Y-77133000D01*
X197637000Y-77387000D01*
X197617000Y-77387000D01*
X197617000Y-77407000D01*
X197363000Y-77407000D01*
X197363000Y-77387000D01*
X197343000Y-77387000D01*
X197343000Y-77133000D01*
X197363000Y-77133000D01*
X197363000Y-75926183D01*
X197130974Y-75805042D01*
X196980186Y-75850778D01*
X196715056Y-75977316D01*
X196479707Y-76153146D01*
X196283183Y-76371512D01*
X196225863Y-76467910D01*
X196202069Y-76423394D01*
X196014797Y-76195203D01*
X195786606Y-76007931D01*
X195526264Y-75868775D01*
X195243777Y-75783084D01*
X195023619Y-75761400D01*
X194876381Y-75761400D01*
X194656223Y-75783084D01*
X194373736Y-75868775D01*
X194113394Y-76007931D01*
X193885203Y-76195203D01*
X193697931Y-76423394D01*
X193674137Y-76467910D01*
X193616817Y-76371512D01*
X193420293Y-76153146D01*
X193184944Y-75977316D01*
X192919814Y-75850778D01*
X192769026Y-75805042D01*
X192537000Y-75926183D01*
X192537000Y-77133000D01*
X192557000Y-77133000D01*
X192557000Y-77387000D01*
X192537000Y-77387000D01*
X192537000Y-77407000D01*
X192283000Y-77407000D01*
X192283000Y-77387000D01*
X192263000Y-77387000D01*
X192263000Y-77133000D01*
X192283000Y-77133000D01*
X192283000Y-75926183D01*
X192050974Y-75805042D01*
X191900186Y-75850778D01*
X191635056Y-75977316D01*
X191399707Y-76153146D01*
X191203183Y-76371512D01*
X191145863Y-76467910D01*
X191122069Y-76423394D01*
X190934797Y-76195203D01*
X190706606Y-76007931D01*
X190446264Y-75868775D01*
X190163777Y-75783084D01*
X189943619Y-75761400D01*
X189796381Y-75761400D01*
X189576223Y-75783084D01*
X189293736Y-75868775D01*
X189033394Y-76007931D01*
X188805203Y-76195203D01*
X188617931Y-76423394D01*
X188600000Y-76456940D01*
X188582069Y-76423394D01*
X188394797Y-76195203D01*
X188166606Y-76007931D01*
X187906264Y-75868775D01*
X187623777Y-75783084D01*
X187403619Y-75761400D01*
X187256381Y-75761400D01*
X187036223Y-75783084D01*
X186753736Y-75868775D01*
X186493394Y-76007931D01*
X186265203Y-76195203D01*
X186077931Y-76423394D01*
X186060000Y-76456940D01*
X186042069Y-76423394D01*
X185854797Y-76195203D01*
X185626606Y-76007931D01*
X185366264Y-75868775D01*
X185083777Y-75783084D01*
X184863619Y-75761400D01*
X184716381Y-75761400D01*
X184496223Y-75783084D01*
X184213736Y-75868775D01*
X183953394Y-76007931D01*
X183725203Y-76195203D01*
X183537931Y-76423394D01*
X183520000Y-76456940D01*
X183502069Y-76423394D01*
X183314797Y-76195203D01*
X183086606Y-76007931D01*
X182826264Y-75868775D01*
X182543777Y-75783084D01*
X182323619Y-75761400D01*
X182176381Y-75761400D01*
X181956223Y-75783084D01*
X181673736Y-75868775D01*
X181413394Y-76007931D01*
X181185203Y-76195203D01*
X180997931Y-76423394D01*
X180974137Y-76467910D01*
X180916817Y-76371512D01*
X180720293Y-76153146D01*
X180484944Y-75977316D01*
X180219814Y-75850778D01*
X180069026Y-75805042D01*
X179837000Y-75926183D01*
X179837000Y-77133000D01*
X179857000Y-77133000D01*
X179857000Y-77387000D01*
X179837000Y-77387000D01*
X179837000Y-77407000D01*
X179583000Y-77407000D01*
X179583000Y-77387000D01*
X179563000Y-77387000D01*
X179563000Y-77133000D01*
X179583000Y-77133000D01*
X179583000Y-75926183D01*
X179350974Y-75805042D01*
X179200186Y-75850778D01*
X178935056Y-75977316D01*
X178699707Y-76153146D01*
X178503183Y-76371512D01*
X178445863Y-76467910D01*
X178422069Y-76423394D01*
X178234797Y-76195203D01*
X178006606Y-76007931D01*
X177746264Y-75868775D01*
X177463777Y-75783084D01*
X177243619Y-75761400D01*
X177096381Y-75761400D01*
X176876223Y-75783084D01*
X176593736Y-75868775D01*
X176333394Y-76007931D01*
X176105203Y-76195203D01*
X175917931Y-76423394D01*
X175900000Y-76456940D01*
X175882069Y-76423394D01*
X175694797Y-76195203D01*
X175466606Y-76007931D01*
X175206264Y-75868775D01*
X174923777Y-75783084D01*
X174703619Y-75761400D01*
X174556381Y-75761400D01*
X174336223Y-75783084D01*
X174053736Y-75868775D01*
X173793394Y-76007931D01*
X173565203Y-76195203D01*
X173377931Y-76423394D01*
X173354137Y-76467910D01*
X173296817Y-76371512D01*
X173100293Y-76153146D01*
X172864944Y-75977316D01*
X172599814Y-75850778D01*
X172449026Y-75805042D01*
X172217000Y-75926183D01*
X172217000Y-77133000D01*
X172237000Y-77133000D01*
X172237000Y-77387000D01*
X172217000Y-77387000D01*
X172217000Y-77407000D01*
X171963000Y-77407000D01*
X171963000Y-77387000D01*
X171943000Y-77387000D01*
X171943000Y-77133000D01*
X171963000Y-77133000D01*
X171963000Y-75926183D01*
X171730974Y-75805042D01*
X171580186Y-75850778D01*
X171315056Y-75977316D01*
X171079707Y-76153146D01*
X170883183Y-76371512D01*
X170825863Y-76467910D01*
X170802069Y-76423394D01*
X170614797Y-76195203D01*
X170386606Y-76007931D01*
X170126264Y-75868775D01*
X169843777Y-75783084D01*
X169623619Y-75761400D01*
X169476381Y-75761400D01*
X169256223Y-75783084D01*
X168973736Y-75868775D01*
X168713394Y-76007931D01*
X168485203Y-76195203D01*
X168297931Y-76423394D01*
X168280000Y-76456940D01*
X168262069Y-76423394D01*
X168074797Y-76195203D01*
X167846606Y-76007931D01*
X167586264Y-75868775D01*
X167303777Y-75783084D01*
X167083619Y-75761400D01*
X166936381Y-75761400D01*
X166716223Y-75783084D01*
X166433736Y-75868775D01*
X166173394Y-76007931D01*
X165945203Y-76195203D01*
X165757931Y-76423394D01*
X165740000Y-76456940D01*
X165722069Y-76423394D01*
X165534797Y-76195203D01*
X165306606Y-76007931D01*
X165046264Y-75868775D01*
X164763777Y-75783084D01*
X164543619Y-75761400D01*
X164396381Y-75761400D01*
X164176223Y-75783084D01*
X163893736Y-75868775D01*
X163633394Y-76007931D01*
X163405203Y-76195203D01*
X163217931Y-76423394D01*
X163194137Y-76467910D01*
X163136817Y-76371512D01*
X162940293Y-76153146D01*
X162704944Y-75977316D01*
X162439814Y-75850778D01*
X162289026Y-75805042D01*
X162057000Y-75926183D01*
X162057000Y-77133000D01*
X162077000Y-77133000D01*
X162077000Y-77387000D01*
X162057000Y-77387000D01*
X162057000Y-77407000D01*
X161803000Y-77407000D01*
X161803000Y-77387000D01*
X161783000Y-77387000D01*
X161783000Y-77133000D01*
X161803000Y-77133000D01*
X161803000Y-75926183D01*
X161570974Y-75805042D01*
X161420186Y-75850778D01*
X161155056Y-75977316D01*
X160919707Y-76153146D01*
X160723183Y-76371512D01*
X160665863Y-76467910D01*
X160642069Y-76423394D01*
X160454797Y-76195203D01*
X160226606Y-76007931D01*
X159966264Y-75868775D01*
X159683777Y-75783084D01*
X159463619Y-75761400D01*
X159316381Y-75761400D01*
X159096223Y-75783084D01*
X158813736Y-75868775D01*
X158553394Y-76007931D01*
X158325203Y-76195203D01*
X158137931Y-76423394D01*
X158120000Y-76456940D01*
X158102069Y-76423394D01*
X157914797Y-76195203D01*
X157686606Y-76007931D01*
X157426264Y-75868775D01*
X157143777Y-75783084D01*
X156923619Y-75761400D01*
X156776381Y-75761400D01*
X156556223Y-75783084D01*
X156273736Y-75868775D01*
X156013394Y-76007931D01*
X155785203Y-76195203D01*
X155597931Y-76423394D01*
X155458775Y-76683736D01*
X155373084Y-76966223D01*
X155344149Y-77260000D01*
X154717317Y-77260000D01*
X154645273Y-77086072D01*
X154318601Y-76597174D01*
X153902826Y-76181399D01*
X153413928Y-75854727D01*
X153012861Y-75688600D01*
X208987139Y-75688600D01*
X208586072Y-75854727D01*
X208586072Y-75854727D01*
G37*
X208586072Y-75854727D02*
X208097174Y-76181399D01*
X207681399Y-76597174D01*
X207354727Y-77086072D01*
X207129712Y-77629308D01*
X207015000Y-78206003D01*
X207015000Y-78793997D01*
X207129712Y-79370692D01*
X207354727Y-79913928D01*
X207681399Y-80402826D01*
X208097174Y-80818601D01*
X208586072Y-81145273D01*
X209129308Y-81370288D01*
X209706003Y-81485000D01*
X210293997Y-81485000D01*
X210870692Y-81370288D01*
X211413928Y-81145273D01*
X211902826Y-80818601D01*
X212318601Y-80402826D01*
X212645273Y-79913928D01*
X212816100Y-79501514D01*
X212816100Y-88975008D01*
X212751727Y-88931995D01*
X212497490Y-88826686D01*
X212227592Y-88773000D01*
X211952408Y-88773000D01*
X211682510Y-88826686D01*
X211428273Y-88931995D01*
X211199465Y-89084880D01*
X211004880Y-89279465D01*
X210851995Y-89508273D01*
X210746686Y-89762510D01*
X210693000Y-90032408D01*
X210693000Y-90307592D01*
X210746686Y-90577490D01*
X210851995Y-90831727D01*
X211004880Y-91060535D01*
X211199465Y-91255120D01*
X211428273Y-91408005D01*
X211682510Y-91513314D01*
X211952408Y-91567000D01*
X212227592Y-91567000D01*
X212497490Y-91513314D01*
X212751727Y-91408005D01*
X212816101Y-91364992D01*
X212816101Y-94055008D01*
X212751727Y-94011995D01*
X212497490Y-93906686D01*
X212227592Y-93853000D01*
X211952408Y-93853000D01*
X211682510Y-93906686D01*
X211428273Y-94011995D01*
X211199465Y-94164880D01*
X211004880Y-94359465D01*
X210851995Y-94588273D01*
X210746686Y-94842510D01*
X210693000Y-95112408D01*
X210693000Y-95387592D01*
X210746686Y-95657490D01*
X210851995Y-95911727D01*
X211004880Y-96140535D01*
X211199465Y-96335120D01*
X211428273Y-96488005D01*
X211682510Y-96593314D01*
X211952408Y-96647000D01*
X212227592Y-96647000D01*
X212497490Y-96593314D01*
X212751727Y-96488005D01*
X212816101Y-96444992D01*
X212816101Y-100498488D01*
X212645273Y-100086072D01*
X212318601Y-99597174D01*
X211902826Y-99181399D01*
X211413928Y-98854727D01*
X210870692Y-98629712D01*
X210293997Y-98515000D01*
X209706003Y-98515000D01*
X209129308Y-98629712D01*
X208586072Y-98854727D01*
X208097174Y-99181399D01*
X207681399Y-99597174D01*
X207354727Y-100086072D01*
X207129712Y-100629308D01*
X207015000Y-101206003D01*
X207015000Y-101793997D01*
X207129712Y-102370692D01*
X207354727Y-102913928D01*
X207681399Y-103402826D01*
X208097174Y-103818601D01*
X208586072Y-104145273D01*
X209004522Y-104318600D01*
X173316531Y-104318600D01*
X173710536Y-103924596D01*
X173721308Y-103920134D01*
X173915394Y-103790450D01*
X174080450Y-103625394D01*
X174210134Y-103431308D01*
X174299461Y-103215652D01*
X174345000Y-102986712D01*
X174345000Y-102753288D01*
X174340847Y-102732408D01*
X199263000Y-102732408D01*
X199263000Y-103007592D01*
X199316686Y-103277490D01*
X199421995Y-103531727D01*
X199574880Y-103760535D01*
X199769465Y-103955120D01*
X199998273Y-104108005D01*
X200252510Y-104213314D01*
X200522408Y-104267000D01*
X200797592Y-104267000D01*
X201067490Y-104213314D01*
X201321727Y-104108005D01*
X201550535Y-103955120D01*
X201745120Y-103760535D01*
X201898005Y-103531727D01*
X202003314Y-103277490D01*
X202057000Y-103007592D01*
X202057000Y-102732408D01*
X204343000Y-102732408D01*
X204343000Y-103007592D01*
X204396686Y-103277490D01*
X204501995Y-103531727D01*
X204654880Y-103760535D01*
X204849465Y-103955120D01*
X205078273Y-104108005D01*
X205332510Y-104213314D01*
X205602408Y-104267000D01*
X205877592Y-104267000D01*
X206147490Y-104213314D01*
X206401727Y-104108005D01*
X206630535Y-103955120D01*
X206825120Y-103760535D01*
X206978005Y-103531727D01*
X207083314Y-103277490D01*
X207137000Y-103007592D01*
X207137000Y-102732408D01*
X207083314Y-102462510D01*
X206978005Y-102208273D01*
X206825120Y-101979465D01*
X206630535Y-101784880D01*
X206401727Y-101631995D01*
X206147490Y-101526686D01*
X205877592Y-101473000D01*
X205602408Y-101473000D01*
X205332510Y-101526686D01*
X205078273Y-101631995D01*
X204849465Y-101784880D01*
X204654880Y-101979465D01*
X204501995Y-102208273D01*
X204396686Y-102462510D01*
X204343000Y-102732408D01*
X202057000Y-102732408D01*
X202003314Y-102462510D01*
X201898005Y-102208273D01*
X201745120Y-101979465D01*
X201550535Y-101784880D01*
X201321727Y-101631995D01*
X201067490Y-101526686D01*
X200797592Y-101473000D01*
X200522408Y-101473000D01*
X200252510Y-101526686D01*
X199998273Y-101631995D01*
X199769465Y-101784880D01*
X199574880Y-101979465D01*
X199421995Y-102208273D01*
X199316686Y-102462510D01*
X199263000Y-102732408D01*
X174340847Y-102732408D01*
X174299461Y-102524348D01*
X174210134Y-102308692D01*
X174080450Y-102114606D01*
X173915394Y-101949550D01*
X173721308Y-101819866D01*
X173505652Y-101730539D01*
X173276712Y-101685000D01*
X173043288Y-101685000D01*
X172814348Y-101730539D01*
X172598692Y-101819866D01*
X172404606Y-101949550D01*
X172285000Y-102069156D01*
X172285000Y-101355743D01*
X172290490Y-101299999D01*
X172285000Y-101244255D01*
X172285000Y-101244248D01*
X172268577Y-101077501D01*
X172203676Y-100863553D01*
X172098284Y-100666377D01*
X171956449Y-100493551D01*
X171913141Y-100458009D01*
X169107540Y-97652408D01*
X199263000Y-97652408D01*
X199263000Y-97927592D01*
X199316686Y-98197490D01*
X199421995Y-98451727D01*
X199574880Y-98680535D01*
X199769465Y-98875120D01*
X199998273Y-99028005D01*
X200252510Y-99133314D01*
X200522408Y-99187000D01*
X200797592Y-99187000D01*
X201067490Y-99133314D01*
X201321727Y-99028005D01*
X201550535Y-98875120D01*
X201670090Y-98755565D01*
X204954040Y-98755565D01*
X205021020Y-98995656D01*
X205270048Y-99112756D01*
X205537135Y-99179023D01*
X205812017Y-99191910D01*
X206084133Y-99150922D01*
X206343023Y-99057636D01*
X206458980Y-98995656D01*
X206525960Y-98755565D01*
X205740000Y-97969605D01*
X204954040Y-98755565D01*
X201670090Y-98755565D01*
X201745120Y-98680535D01*
X201898005Y-98451727D01*
X202003314Y-98197490D01*
X202057000Y-97927592D01*
X202057000Y-97862017D01*
X204338090Y-97862017D01*
X204379078Y-98134133D01*
X204472364Y-98393023D01*
X204534344Y-98508980D01*
X204774435Y-98575960D01*
X205560395Y-97790000D01*
X205919605Y-97790000D01*
X206705565Y-98575960D01*
X206945656Y-98508980D01*
X207062756Y-98259952D01*
X207129023Y-97992865D01*
X207141910Y-97717983D01*
X207100922Y-97445867D01*
X207007636Y-97186977D01*
X206945656Y-97071020D01*
X206705565Y-97004040D01*
X205919605Y-97790000D01*
X205560395Y-97790000D01*
X204774435Y-97004040D01*
X204534344Y-97071020D01*
X204417244Y-97320048D01*
X204350977Y-97587135D01*
X204338090Y-97862017D01*
X202057000Y-97862017D01*
X202057000Y-97652408D01*
X202003314Y-97382510D01*
X201898005Y-97128273D01*
X201745120Y-96899465D01*
X201670090Y-96824435D01*
X204954040Y-96824435D01*
X205740000Y-97610395D01*
X206525960Y-96824435D01*
X206458980Y-96584344D01*
X206209952Y-96467244D01*
X205942865Y-96400977D01*
X205667983Y-96388090D01*
X205395867Y-96429078D01*
X205136977Y-96522364D01*
X205021020Y-96584344D01*
X204954040Y-96824435D01*
X201670090Y-96824435D01*
X201550535Y-96704880D01*
X201321727Y-96551995D01*
X201067490Y-96446686D01*
X200797592Y-96393000D01*
X200522408Y-96393000D01*
X200252510Y-96446686D01*
X199998273Y-96551995D01*
X199769465Y-96704880D01*
X199574880Y-96899465D01*
X199421995Y-97128273D01*
X199316686Y-97382510D01*
X199263000Y-97652408D01*
X169107540Y-97652408D01*
X166567540Y-95112408D01*
X192913000Y-95112408D01*
X192913000Y-95387592D01*
X192966686Y-95657490D01*
X193071995Y-95911727D01*
X193224880Y-96140535D01*
X193419465Y-96335120D01*
X193648273Y-96488005D01*
X193902510Y-96593314D01*
X194172408Y-96647000D01*
X194447592Y-96647000D01*
X194717490Y-96593314D01*
X194971727Y-96488005D01*
X195200535Y-96335120D01*
X195320090Y-96215565D01*
X198604040Y-96215565D01*
X198671020Y-96455656D01*
X198920048Y-96572756D01*
X199187135Y-96639023D01*
X199462017Y-96651910D01*
X199734133Y-96610922D01*
X199993023Y-96517636D01*
X200108980Y-96455656D01*
X200175960Y-96215565D01*
X206224040Y-96215565D01*
X206291020Y-96455656D01*
X206540048Y-96572756D01*
X206807135Y-96639023D01*
X207082017Y-96651910D01*
X207354133Y-96610922D01*
X207613023Y-96517636D01*
X207728980Y-96455656D01*
X207795960Y-96215565D01*
X207010000Y-95429605D01*
X206224040Y-96215565D01*
X200175960Y-96215565D01*
X199390000Y-95429605D01*
X198604040Y-96215565D01*
X195320090Y-96215565D01*
X195395120Y-96140535D01*
X195548005Y-95911727D01*
X195653314Y-95657490D01*
X195707000Y-95387592D01*
X195707000Y-95322017D01*
X197988090Y-95322017D01*
X198029078Y-95594133D01*
X198122364Y-95853023D01*
X198184344Y-95968980D01*
X198424435Y-96035960D01*
X199210395Y-95250000D01*
X199569605Y-95250000D01*
X200355565Y-96035960D01*
X200595656Y-95968980D01*
X200712756Y-95719952D01*
X200779023Y-95452865D01*
X200785157Y-95322017D01*
X205608090Y-95322017D01*
X205649078Y-95594133D01*
X205742364Y-95853023D01*
X205804344Y-95968980D01*
X206044435Y-96035960D01*
X206830395Y-95250000D01*
X207189605Y-95250000D01*
X207975565Y-96035960D01*
X208215656Y-95968980D01*
X208332756Y-95719952D01*
X208399023Y-95452865D01*
X208411910Y-95177983D01*
X208370922Y-94905867D01*
X208277636Y-94646977D01*
X208215656Y-94531020D01*
X207975565Y-94464040D01*
X207189605Y-95250000D01*
X206830395Y-95250000D01*
X206044435Y-94464040D01*
X205804344Y-94531020D01*
X205687244Y-94780048D01*
X205620977Y-95047135D01*
X205608090Y-95322017D01*
X200785157Y-95322017D01*
X200791910Y-95177983D01*
X200750922Y-94905867D01*
X200657636Y-94646977D01*
X200595656Y-94531020D01*
X200355565Y-94464040D01*
X199569605Y-95250000D01*
X199210395Y-95250000D01*
X198424435Y-94464040D01*
X198184344Y-94531020D01*
X198067244Y-94780048D01*
X198000977Y-95047135D01*
X197988090Y-95322017D01*
X195707000Y-95322017D01*
X195707000Y-95112408D01*
X195653314Y-94842510D01*
X195548005Y-94588273D01*
X195395120Y-94359465D01*
X195320090Y-94284435D01*
X198604040Y-94284435D01*
X199390000Y-95070395D01*
X200175960Y-94284435D01*
X206224040Y-94284435D01*
X207010000Y-95070395D01*
X207795960Y-94284435D01*
X207728980Y-94044344D01*
X207479952Y-93927244D01*
X207212865Y-93860977D01*
X206937983Y-93848090D01*
X206665867Y-93889078D01*
X206406977Y-93982364D01*
X206291020Y-94044344D01*
X206224040Y-94284435D01*
X200175960Y-94284435D01*
X200108980Y-94044344D01*
X199859952Y-93927244D01*
X199592865Y-93860977D01*
X199317983Y-93848090D01*
X199045867Y-93889078D01*
X198786977Y-93982364D01*
X198671020Y-94044344D01*
X198604040Y-94284435D01*
X195320090Y-94284435D01*
X195200535Y-94164880D01*
X194971727Y-94011995D01*
X194717490Y-93906686D01*
X194447592Y-93853000D01*
X194172408Y-93853000D01*
X193902510Y-93906686D01*
X193648273Y-94011995D01*
X193419465Y-94164880D01*
X193224880Y-94359465D01*
X193071995Y-94588273D01*
X192966686Y-94842510D01*
X192913000Y-95112408D01*
X166567540Y-95112408D01*
X161487540Y-90032408D01*
X192913000Y-90032408D01*
X192913000Y-90307592D01*
X192966686Y-90577490D01*
X193071995Y-90831727D01*
X193224880Y-91060535D01*
X193419465Y-91255120D01*
X193648273Y-91408005D01*
X193902510Y-91513314D01*
X194172408Y-91567000D01*
X194447592Y-91567000D01*
X194717490Y-91513314D01*
X194971727Y-91408005D01*
X195200535Y-91255120D01*
X195395120Y-91060535D01*
X195548005Y-90831727D01*
X195653314Y-90577490D01*
X195707000Y-90307592D01*
X195707000Y-90032408D01*
X197993000Y-90032408D01*
X197993000Y-90307592D01*
X198046686Y-90577490D01*
X198151995Y-90831727D01*
X198304880Y-91060535D01*
X198499465Y-91255120D01*
X198728273Y-91408005D01*
X198982510Y-91513314D01*
X199252408Y-91567000D01*
X199527592Y-91567000D01*
X199797490Y-91513314D01*
X200051727Y-91408005D01*
X200280535Y-91255120D01*
X200475120Y-91060535D01*
X200628005Y-90831727D01*
X200733314Y-90577490D01*
X200787000Y-90307592D01*
X200787000Y-90032408D01*
X205613000Y-90032408D01*
X205613000Y-90307592D01*
X205666686Y-90577490D01*
X205771995Y-90831727D01*
X205924880Y-91060535D01*
X206119465Y-91255120D01*
X206348273Y-91408005D01*
X206602510Y-91513314D01*
X206872408Y-91567000D01*
X207147592Y-91567000D01*
X207417490Y-91513314D01*
X207671727Y-91408005D01*
X207900535Y-91255120D01*
X208095120Y-91060535D01*
X208248005Y-90831727D01*
X208353314Y-90577490D01*
X208407000Y-90307592D01*
X208407000Y-90032408D01*
X208353314Y-89762510D01*
X208248005Y-89508273D01*
X208095120Y-89279465D01*
X207900535Y-89084880D01*
X207671727Y-88931995D01*
X207417490Y-88826686D01*
X207147592Y-88773000D01*
X206872408Y-88773000D01*
X206602510Y-88826686D01*
X206348273Y-88931995D01*
X206119465Y-89084880D01*
X205924880Y-89279465D01*
X205771995Y-89508273D01*
X205666686Y-89762510D01*
X205613000Y-90032408D01*
X200787000Y-90032408D01*
X200733314Y-89762510D01*
X200628005Y-89508273D01*
X200475120Y-89279465D01*
X200280535Y-89084880D01*
X200051727Y-88931995D01*
X199797490Y-88826686D01*
X199527592Y-88773000D01*
X199252408Y-88773000D01*
X198982510Y-88826686D01*
X198728273Y-88931995D01*
X198499465Y-89084880D01*
X198304880Y-89279465D01*
X198151995Y-89508273D01*
X198046686Y-89762510D01*
X197993000Y-90032408D01*
X195707000Y-90032408D01*
X195653314Y-89762510D01*
X195548005Y-89508273D01*
X195395120Y-89279465D01*
X195200535Y-89084880D01*
X194971727Y-88931995D01*
X194717490Y-88826686D01*
X194447592Y-88773000D01*
X194172408Y-88773000D01*
X193902510Y-88826686D01*
X193648273Y-88931995D01*
X193419465Y-89084880D01*
X193224880Y-89279465D01*
X193071995Y-89508273D01*
X192966686Y-89762510D01*
X192913000Y-90032408D01*
X161487540Y-90032408D01*
X158947540Y-87492408D01*
X170053000Y-87492408D01*
X170053000Y-87767592D01*
X170106686Y-88037490D01*
X170211995Y-88291727D01*
X170364880Y-88520535D01*
X170559465Y-88715120D01*
X170788273Y-88868005D01*
X171042510Y-88973314D01*
X171312408Y-89027000D01*
X171587592Y-89027000D01*
X171857490Y-88973314D01*
X172111727Y-88868005D01*
X172340535Y-88715120D01*
X172460090Y-88595565D01*
X175744040Y-88595565D01*
X175811020Y-88835656D01*
X176060048Y-88952756D01*
X176327135Y-89019023D01*
X176602017Y-89031910D01*
X176874133Y-88990922D01*
X177133023Y-88897636D01*
X177248980Y-88835656D01*
X177315960Y-88595565D01*
X176530000Y-87809605D01*
X175744040Y-88595565D01*
X172460090Y-88595565D01*
X172535120Y-88520535D01*
X172688005Y-88291727D01*
X172793314Y-88037490D01*
X172847000Y-87767592D01*
X172847000Y-87702017D01*
X175128090Y-87702017D01*
X175169078Y-87974133D01*
X175262364Y-88233023D01*
X175324344Y-88348980D01*
X175564435Y-88415960D01*
X176350395Y-87630000D01*
X176709605Y-87630000D01*
X177495565Y-88415960D01*
X177735656Y-88348980D01*
X177852756Y-88099952D01*
X177919023Y-87832865D01*
X177931910Y-87557983D01*
X177922033Y-87492408D01*
X184023000Y-87492408D01*
X184023000Y-87767592D01*
X184076686Y-88037490D01*
X184181995Y-88291727D01*
X184334880Y-88520535D01*
X184529465Y-88715120D01*
X184758273Y-88868005D01*
X185012510Y-88973314D01*
X185282408Y-89027000D01*
X185557592Y-89027000D01*
X185827490Y-88973314D01*
X186081727Y-88868005D01*
X186310535Y-88715120D01*
X186505120Y-88520535D01*
X186658005Y-88291727D01*
X186763314Y-88037490D01*
X186817000Y-87767592D01*
X186817000Y-87492408D01*
X189103000Y-87492408D01*
X189103000Y-87767592D01*
X189156686Y-88037490D01*
X189261995Y-88291727D01*
X189414880Y-88520535D01*
X189609465Y-88715120D01*
X189838273Y-88868005D01*
X190092510Y-88973314D01*
X190362408Y-89027000D01*
X190637592Y-89027000D01*
X190907490Y-88973314D01*
X191161727Y-88868005D01*
X191390535Y-88715120D01*
X191585120Y-88520535D01*
X191738005Y-88291727D01*
X191843314Y-88037490D01*
X191897000Y-87767592D01*
X191897000Y-87492408D01*
X199263000Y-87492408D01*
X199263000Y-87767592D01*
X199316686Y-88037490D01*
X199421995Y-88291727D01*
X199574880Y-88520535D01*
X199769465Y-88715120D01*
X199998273Y-88868005D01*
X200252510Y-88973314D01*
X200522408Y-89027000D01*
X200797592Y-89027000D01*
X201067490Y-88973314D01*
X201321727Y-88868005D01*
X201550535Y-88715120D01*
X201670090Y-88595565D01*
X204954040Y-88595565D01*
X205021020Y-88835656D01*
X205270048Y-88952756D01*
X205537135Y-89019023D01*
X205812017Y-89031910D01*
X206084133Y-88990922D01*
X206343023Y-88897636D01*
X206458980Y-88835656D01*
X206525960Y-88595565D01*
X205740000Y-87809605D01*
X204954040Y-88595565D01*
X201670090Y-88595565D01*
X201745120Y-88520535D01*
X201898005Y-88291727D01*
X202003314Y-88037490D01*
X202057000Y-87767592D01*
X202057000Y-87702017D01*
X204338090Y-87702017D01*
X204379078Y-87974133D01*
X204472364Y-88233023D01*
X204534344Y-88348980D01*
X204774435Y-88415960D01*
X205560395Y-87630000D01*
X205919605Y-87630000D01*
X206705565Y-88415960D01*
X206945656Y-88348980D01*
X207062756Y-88099952D01*
X207129023Y-87832865D01*
X207141910Y-87557983D01*
X207100922Y-87285867D01*
X207007636Y-87026977D01*
X206945656Y-86911020D01*
X206705565Y-86844040D01*
X205919605Y-87630000D01*
X205560395Y-87630000D01*
X204774435Y-86844040D01*
X204534344Y-86911020D01*
X204417244Y-87160048D01*
X204350977Y-87427135D01*
X204338090Y-87702017D01*
X202057000Y-87702017D01*
X202057000Y-87492408D01*
X202003314Y-87222510D01*
X201898005Y-86968273D01*
X201745120Y-86739465D01*
X201670090Y-86664435D01*
X204954040Y-86664435D01*
X205740000Y-87450395D01*
X206525960Y-86664435D01*
X206458980Y-86424344D01*
X206209952Y-86307244D01*
X205942865Y-86240977D01*
X205667983Y-86228090D01*
X205395867Y-86269078D01*
X205136977Y-86362364D01*
X205021020Y-86424344D01*
X204954040Y-86664435D01*
X201670090Y-86664435D01*
X201550535Y-86544880D01*
X201321727Y-86391995D01*
X201067490Y-86286686D01*
X200797592Y-86233000D01*
X200522408Y-86233000D01*
X200252510Y-86286686D01*
X199998273Y-86391995D01*
X199769465Y-86544880D01*
X199574880Y-86739465D01*
X199421995Y-86968273D01*
X199316686Y-87222510D01*
X199263000Y-87492408D01*
X191897000Y-87492408D01*
X191843314Y-87222510D01*
X191738005Y-86968273D01*
X191585120Y-86739465D01*
X191390535Y-86544880D01*
X191161727Y-86391995D01*
X190907490Y-86286686D01*
X190637592Y-86233000D01*
X190362408Y-86233000D01*
X190092510Y-86286686D01*
X189838273Y-86391995D01*
X189609465Y-86544880D01*
X189414880Y-86739465D01*
X189261995Y-86968273D01*
X189156686Y-87222510D01*
X189103000Y-87492408D01*
X186817000Y-87492408D01*
X186763314Y-87222510D01*
X186658005Y-86968273D01*
X186505120Y-86739465D01*
X186310535Y-86544880D01*
X186081727Y-86391995D01*
X185827490Y-86286686D01*
X185557592Y-86233000D01*
X185282408Y-86233000D01*
X185012510Y-86286686D01*
X184758273Y-86391995D01*
X184529465Y-86544880D01*
X184334880Y-86739465D01*
X184181995Y-86968273D01*
X184076686Y-87222510D01*
X184023000Y-87492408D01*
X177922033Y-87492408D01*
X177890922Y-87285867D01*
X177797636Y-87026977D01*
X177735656Y-86911020D01*
X177495565Y-86844040D01*
X176709605Y-87630000D01*
X176350395Y-87630000D01*
X175564435Y-86844040D01*
X175324344Y-86911020D01*
X175207244Y-87160048D01*
X175140977Y-87427135D01*
X175128090Y-87702017D01*
X172847000Y-87702017D01*
X172847000Y-87492408D01*
X172793314Y-87222510D01*
X172688005Y-86968273D01*
X172535120Y-86739465D01*
X172460090Y-86664435D01*
X175744040Y-86664435D01*
X176530000Y-87450395D01*
X177315960Y-86664435D01*
X177248980Y-86424344D01*
X176999952Y-86307244D01*
X176732865Y-86240977D01*
X176457983Y-86228090D01*
X176185867Y-86269078D01*
X175926977Y-86362364D01*
X175811020Y-86424344D01*
X175744040Y-86664435D01*
X172460090Y-86664435D01*
X172340535Y-86544880D01*
X172111727Y-86391995D01*
X171857490Y-86286686D01*
X171587592Y-86233000D01*
X171312408Y-86233000D01*
X171042510Y-86286686D01*
X170788273Y-86391995D01*
X170559465Y-86544880D01*
X170364880Y-86739465D01*
X170211995Y-86968273D01*
X170106686Y-87222510D01*
X170053000Y-87492408D01*
X158947540Y-87492408D01*
X158261996Y-86806865D01*
X158226449Y-86763551D01*
X158053623Y-86621716D01*
X157856447Y-86516324D01*
X157642499Y-86451423D01*
X157475752Y-86435000D01*
X157475751Y-86435000D01*
X157420000Y-86429509D01*
X157364249Y-86435000D01*
X148717000Y-86435000D01*
X148717000Y-83225805D01*
X148724283Y-83225088D01*
X148730751Y-83223126D01*
X148737455Y-83222333D01*
X148795207Y-83203574D01*
X148853406Y-83185919D01*
X148859369Y-83182732D01*
X148865787Y-83180647D01*
X148918765Y-83150984D01*
X148972407Y-83122312D01*
X148977632Y-83118024D01*
X148983522Y-83114726D01*
X149029708Y-83075286D01*
X149076711Y-83036711D01*
X149080999Y-83031486D01*
X149086133Y-83027102D01*
X149123737Y-82979411D01*
X149162312Y-82932407D01*
X149165498Y-82926446D01*
X149169678Y-82921145D01*
X149197261Y-82867022D01*
X149225919Y-82813406D01*
X149227880Y-82806941D01*
X149230947Y-82800923D01*
X149247444Y-82742448D01*
X149265088Y-82684283D01*
X149265750Y-82677559D01*
X149267584Y-82671059D01*
X149272354Y-82610512D01*
X149278314Y-82550000D01*
X149274341Y-82509666D01*
X149217087Y-79581635D01*
X149354727Y-79913928D01*
X149681399Y-80402826D01*
X150097174Y-80818601D01*
X150586072Y-81145273D01*
X151129308Y-81370288D01*
X151706003Y-81485000D01*
X152293997Y-81485000D01*
X152870692Y-81370288D01*
X153413928Y-81145273D01*
X153902826Y-80818601D01*
X154318601Y-80402826D01*
X154645273Y-79913928D01*
X154870288Y-79370692D01*
X154985000Y-78793997D01*
X154985000Y-78206003D01*
X154870288Y-77629308D01*
X154717317Y-77260000D01*
X155344149Y-77260000D01*
X155373084Y-77553777D01*
X155458775Y-77836264D01*
X155597931Y-78096606D01*
X155785203Y-78324797D01*
X155793265Y-78331414D01*
X155742220Y-78346898D01*
X155631906Y-78405863D01*
X155535215Y-78485215D01*
X155455863Y-78581906D01*
X155396898Y-78692220D01*
X155360588Y-78811918D01*
X155348328Y-78936400D01*
X155348328Y-80663600D01*
X155360588Y-80788082D01*
X155396898Y-80907780D01*
X155455863Y-81018094D01*
X155535215Y-81114785D01*
X155631906Y-81194137D01*
X155742220Y-81253102D01*
X155861918Y-81289412D01*
X155986400Y-81301672D01*
X157713600Y-81301672D01*
X157838082Y-81289412D01*
X157957780Y-81253102D01*
X158068094Y-81194137D01*
X158164785Y-81114785D01*
X158244137Y-81018094D01*
X158303102Y-80907780D01*
X158318586Y-80856735D01*
X158325203Y-80864797D01*
X158553394Y-81052069D01*
X158813736Y-81191225D01*
X159096223Y-81276916D01*
X159316381Y-81298600D01*
X159463619Y-81298600D01*
X159683777Y-81276916D01*
X159966264Y-81191225D01*
X160226606Y-81052069D01*
X160454797Y-80864797D01*
X160642069Y-80636606D01*
X160660000Y-80603060D01*
X160677931Y-80636606D01*
X160865203Y-80864797D01*
X161093394Y-81052069D01*
X161353736Y-81191225D01*
X161636223Y-81276916D01*
X161856381Y-81298600D01*
X162003619Y-81298600D01*
X162223777Y-81276916D01*
X162506264Y-81191225D01*
X162766606Y-81052069D01*
X162994797Y-80864797D01*
X163182069Y-80636606D01*
X163200000Y-80603060D01*
X163217931Y-80636606D01*
X163405203Y-80864797D01*
X163633394Y-81052069D01*
X163893736Y-81191225D01*
X164176223Y-81276916D01*
X164396381Y-81298600D01*
X164543619Y-81298600D01*
X164763777Y-81276916D01*
X165046264Y-81191225D01*
X165306606Y-81052069D01*
X165534797Y-80864797D01*
X165722069Y-80636606D01*
X165745863Y-80592090D01*
X165803183Y-80688488D01*
X165999707Y-80906854D01*
X166235056Y-81082684D01*
X166500186Y-81209222D01*
X166650974Y-81254958D01*
X166883000Y-81133817D01*
X166883000Y-79927000D01*
X166863000Y-79927000D01*
X166863000Y-79673000D01*
X166883000Y-79673000D01*
X166883000Y-79653000D01*
X167137000Y-79653000D01*
X167137000Y-79673000D01*
X167157000Y-79673000D01*
X167157000Y-79927000D01*
X167137000Y-79927000D01*
X167137000Y-81133817D01*
X167369026Y-81254958D01*
X167519814Y-81209222D01*
X167784944Y-81082684D01*
X168020293Y-80906854D01*
X168216817Y-80688488D01*
X168274137Y-80592090D01*
X168297931Y-80636606D01*
X168485203Y-80864797D01*
X168713394Y-81052069D01*
X168973736Y-81191225D01*
X169256223Y-81276916D01*
X169476381Y-81298600D01*
X169623619Y-81298600D01*
X169843777Y-81276916D01*
X170126264Y-81191225D01*
X170386606Y-81052069D01*
X170614797Y-80864797D01*
X170802069Y-80636606D01*
X170820000Y-80603060D01*
X170837931Y-80636606D01*
X171025203Y-80864797D01*
X171253394Y-81052069D01*
X171442222Y-81153000D01*
X171312408Y-81153000D01*
X171042510Y-81206686D01*
X170788273Y-81311995D01*
X170559465Y-81464880D01*
X170364880Y-81659465D01*
X170211995Y-81888273D01*
X170106686Y-82142510D01*
X170053000Y-82412408D01*
X170053000Y-82687592D01*
X170106686Y-82957490D01*
X170211995Y-83211727D01*
X170364880Y-83440535D01*
X170559465Y-83635120D01*
X170788273Y-83788005D01*
X171042510Y-83893314D01*
X171312408Y-83947000D01*
X171587592Y-83947000D01*
X171857490Y-83893314D01*
X172111727Y-83788005D01*
X172340535Y-83635120D01*
X172535120Y-83440535D01*
X172688005Y-83211727D01*
X172793314Y-82957490D01*
X172847000Y-82687592D01*
X172847000Y-82412408D01*
X172793314Y-82142510D01*
X172688005Y-81888273D01*
X172535120Y-81659465D01*
X172340535Y-81464880D01*
X172111727Y-81311995D01*
X172079389Y-81298600D01*
X172163619Y-81298600D01*
X172383777Y-81276916D01*
X172666264Y-81191225D01*
X172926606Y-81052069D01*
X173154797Y-80864797D01*
X173342069Y-80636606D01*
X173360000Y-80603060D01*
X173377931Y-80636606D01*
X173565203Y-80864797D01*
X173793394Y-81052069D01*
X174053736Y-81191225D01*
X174336223Y-81276916D01*
X174556381Y-81298600D01*
X174703619Y-81298600D01*
X174923777Y-81276916D01*
X175206264Y-81191225D01*
X175466606Y-81052069D01*
X175694797Y-80864797D01*
X175882069Y-80636606D01*
X175900000Y-80603060D01*
X175917931Y-80636606D01*
X176105203Y-80864797D01*
X176333394Y-81052069D01*
X176522222Y-81153000D01*
X176392408Y-81153000D01*
X176122510Y-81206686D01*
X175868273Y-81311995D01*
X175639465Y-81464880D01*
X175444880Y-81659465D01*
X175291995Y-81888273D01*
X175186686Y-82142510D01*
X175133000Y-82412408D01*
X175133000Y-82687592D01*
X175186686Y-82957490D01*
X175291995Y-83211727D01*
X175444880Y-83440535D01*
X175639465Y-83635120D01*
X175868273Y-83788005D01*
X176122510Y-83893314D01*
X176392408Y-83947000D01*
X176667592Y-83947000D01*
X176937490Y-83893314D01*
X177191727Y-83788005D01*
X177420535Y-83635120D01*
X177540090Y-83515565D01*
X184634040Y-83515565D01*
X184701020Y-83755656D01*
X184950048Y-83872756D01*
X185217135Y-83939023D01*
X185492017Y-83951910D01*
X185764133Y-83910922D01*
X186023023Y-83817636D01*
X186138980Y-83755656D01*
X186205960Y-83515565D01*
X185420000Y-82729605D01*
X184634040Y-83515565D01*
X177540090Y-83515565D01*
X177615120Y-83440535D01*
X177768005Y-83211727D01*
X177873314Y-82957490D01*
X177927000Y-82687592D01*
X177927000Y-82622017D01*
X184018090Y-82622017D01*
X184059078Y-82894133D01*
X184152364Y-83153023D01*
X184214344Y-83268980D01*
X184454435Y-83335960D01*
X185240395Y-82550000D01*
X185599605Y-82550000D01*
X186385565Y-83335960D01*
X186625656Y-83268980D01*
X186742756Y-83019952D01*
X186809023Y-82752865D01*
X186821910Y-82477983D01*
X186780922Y-82205867D01*
X186687636Y-81946977D01*
X186625656Y-81831020D01*
X186385565Y-81764040D01*
X185599605Y-82550000D01*
X185240395Y-82550000D01*
X184454435Y-81764040D01*
X184214344Y-81831020D01*
X184097244Y-82080048D01*
X184030977Y-82347135D01*
X184018090Y-82622017D01*
X177927000Y-82622017D01*
X177927000Y-82412408D01*
X177873314Y-82142510D01*
X177768005Y-81888273D01*
X177615120Y-81659465D01*
X177420535Y-81464880D01*
X177191727Y-81311995D01*
X177159389Y-81298600D01*
X177243619Y-81298600D01*
X177463777Y-81276916D01*
X177746264Y-81191225D01*
X178006606Y-81052069D01*
X178234797Y-80864797D01*
X178422069Y-80636606D01*
X178440000Y-80603060D01*
X178457931Y-80636606D01*
X178645203Y-80864797D01*
X178873394Y-81052069D01*
X179133736Y-81191225D01*
X179416223Y-81276916D01*
X179636381Y-81298600D01*
X179783619Y-81298600D01*
X180003777Y-81276916D01*
X180286264Y-81191225D01*
X180546606Y-81052069D01*
X180774797Y-80864797D01*
X180962069Y-80636606D01*
X180980000Y-80603060D01*
X180997931Y-80636606D01*
X181185203Y-80864797D01*
X181413394Y-81052069D01*
X181673736Y-81191225D01*
X181956223Y-81276916D01*
X182176381Y-81298600D01*
X182323619Y-81298600D01*
X182543777Y-81276916D01*
X182826264Y-81191225D01*
X183086606Y-81052069D01*
X183314797Y-80864797D01*
X183502069Y-80636606D01*
X183520000Y-80603060D01*
X183537931Y-80636606D01*
X183725203Y-80864797D01*
X183953394Y-81052069D01*
X184213736Y-81191225D01*
X184496223Y-81276916D01*
X184716381Y-81298600D01*
X184786601Y-81298600D01*
X184701020Y-81344344D01*
X184634040Y-81584435D01*
X185420000Y-82370395D01*
X186205960Y-81584435D01*
X186138980Y-81344344D01*
X185889952Y-81227244D01*
X185622865Y-81160977D01*
X185438982Y-81152356D01*
X185626606Y-81052069D01*
X185854797Y-80864797D01*
X186042069Y-80636606D01*
X186065863Y-80592090D01*
X186123183Y-80688488D01*
X186319707Y-80906854D01*
X186555056Y-81082684D01*
X186820186Y-81209222D01*
X186970974Y-81254958D01*
X187203000Y-81133817D01*
X187203000Y-79927000D01*
X187183000Y-79927000D01*
X187183000Y-79673000D01*
X187203000Y-79673000D01*
X187203000Y-79653000D01*
X187457000Y-79653000D01*
X187457000Y-79673000D01*
X187477000Y-79673000D01*
X187477000Y-79927000D01*
X187457000Y-79927000D01*
X187457000Y-81133817D01*
X187689026Y-81254958D01*
X187839814Y-81209222D01*
X188104944Y-81082684D01*
X188340293Y-80906854D01*
X188536817Y-80688488D01*
X188594137Y-80592090D01*
X188617931Y-80636606D01*
X188805203Y-80864797D01*
X189033394Y-81052069D01*
X189293736Y-81191225D01*
X189576223Y-81276916D01*
X189796381Y-81298600D01*
X189870611Y-81298600D01*
X189838273Y-81311995D01*
X189609465Y-81464880D01*
X189414880Y-81659465D01*
X189261995Y-81888273D01*
X189156686Y-82142510D01*
X189103000Y-82412408D01*
X189103000Y-82687592D01*
X189156686Y-82957490D01*
X189261995Y-83211727D01*
X189414880Y-83440535D01*
X189609465Y-83635120D01*
X189838273Y-83788005D01*
X190092510Y-83893314D01*
X190362408Y-83947000D01*
X190637592Y-83947000D01*
X190907490Y-83893314D01*
X191161727Y-83788005D01*
X191390535Y-83635120D01*
X191585120Y-83440535D01*
X191738005Y-83211727D01*
X191843314Y-82957490D01*
X191897000Y-82687592D01*
X191897000Y-82412408D01*
X191843314Y-82142510D01*
X191738005Y-81888273D01*
X191585120Y-81659465D01*
X191390535Y-81464880D01*
X191161727Y-81311995D01*
X190907490Y-81206686D01*
X190637592Y-81153000D01*
X190517778Y-81153000D01*
X190706606Y-81052069D01*
X190934797Y-80864797D01*
X191122069Y-80636606D01*
X191140000Y-80603060D01*
X191157931Y-80636606D01*
X191345203Y-80864797D01*
X191573394Y-81052069D01*
X191833736Y-81191225D01*
X192116223Y-81276916D01*
X192336381Y-81298600D01*
X192483619Y-81298600D01*
X192703777Y-81276916D01*
X192986264Y-81191225D01*
X193246606Y-81052069D01*
X193474797Y-80864797D01*
X193662069Y-80636606D01*
X193680000Y-80603060D01*
X193697931Y-80636606D01*
X193885203Y-80864797D01*
X194113394Y-81052069D01*
X194373736Y-81191225D01*
X194656223Y-81276916D01*
X194876381Y-81298600D01*
X195023619Y-81298600D01*
X195243777Y-81276916D01*
X195526264Y-81191225D01*
X195786606Y-81052069D01*
X196014797Y-80864797D01*
X196202069Y-80636606D01*
X196220000Y-80603060D01*
X196237931Y-80636606D01*
X196425203Y-80864797D01*
X196653394Y-81052069D01*
X196913736Y-81191225D01*
X197196223Y-81276916D01*
X197416381Y-81298600D01*
X197563619Y-81298600D01*
X197783777Y-81276916D01*
X198066264Y-81191225D01*
X198326606Y-81052069D01*
X198554797Y-80864797D01*
X198742069Y-80636606D01*
X198760000Y-80603060D01*
X198777931Y-80636606D01*
X198965203Y-80864797D01*
X199193394Y-81052069D01*
X199453736Y-81191225D01*
X199736223Y-81276916D01*
X199956381Y-81298600D01*
X200030611Y-81298600D01*
X199998273Y-81311995D01*
X199769465Y-81464880D01*
X199574880Y-81659465D01*
X199421995Y-81888273D01*
X199316686Y-82142510D01*
X199263000Y-82412408D01*
X199263000Y-82687592D01*
X199316686Y-82957490D01*
X199421995Y-83211727D01*
X199574880Y-83440535D01*
X199769465Y-83635120D01*
X199998273Y-83788005D01*
X200252510Y-83893314D01*
X200522408Y-83947000D01*
X200797592Y-83947000D01*
X201067490Y-83893314D01*
X201321727Y-83788005D01*
X201550535Y-83635120D01*
X201745120Y-83440535D01*
X201898005Y-83211727D01*
X202003314Y-82957490D01*
X202057000Y-82687592D01*
X202057000Y-82412408D01*
X204343000Y-82412408D01*
X204343000Y-82687592D01*
X204396686Y-82957490D01*
X204501995Y-83211727D01*
X204654880Y-83440535D01*
X204849465Y-83635120D01*
X205078273Y-83788005D01*
X205332510Y-83893314D01*
X205602408Y-83947000D01*
X205877592Y-83947000D01*
X206147490Y-83893314D01*
X206401727Y-83788005D01*
X206630535Y-83635120D01*
X206825120Y-83440535D01*
X206978005Y-83211727D01*
X207083314Y-82957490D01*
X207137000Y-82687592D01*
X207137000Y-82412408D01*
X207083314Y-82142510D01*
X206978005Y-81888273D01*
X206825120Y-81659465D01*
X206630535Y-81464880D01*
X206401727Y-81311995D01*
X206147490Y-81206686D01*
X205877592Y-81153000D01*
X205737614Y-81153000D01*
X205884944Y-81082684D01*
X206120293Y-80906854D01*
X206316817Y-80688488D01*
X206466964Y-80435978D01*
X206564963Y-80159027D01*
X206444464Y-79927000D01*
X205237000Y-79927000D01*
X205237000Y-81133817D01*
X205364414Y-81200340D01*
X205332510Y-81206686D01*
X205078273Y-81311995D01*
X204849465Y-81464880D01*
X204654880Y-81659465D01*
X204501995Y-81888273D01*
X204396686Y-82142510D01*
X204343000Y-82412408D01*
X202057000Y-82412408D01*
X202003314Y-82142510D01*
X201898005Y-81888273D01*
X201745120Y-81659465D01*
X201550535Y-81464880D01*
X201321727Y-81311995D01*
X201067490Y-81206686D01*
X200797592Y-81153000D01*
X200677778Y-81153000D01*
X200866606Y-81052069D01*
X201094797Y-80864797D01*
X201282069Y-80636606D01*
X201300000Y-80603060D01*
X201317931Y-80636606D01*
X201505203Y-80864797D01*
X201733394Y-81052069D01*
X201993736Y-81191225D01*
X202276223Y-81276916D01*
X202496381Y-81298600D01*
X202643619Y-81298600D01*
X202863777Y-81276916D01*
X203146264Y-81191225D01*
X203406606Y-81052069D01*
X203634797Y-80864797D01*
X203822069Y-80636606D01*
X203845863Y-80592090D01*
X203903183Y-80688488D01*
X204099707Y-80906854D01*
X204335056Y-81082684D01*
X204600186Y-81209222D01*
X204750974Y-81254958D01*
X204983000Y-81133817D01*
X204983000Y-79927000D01*
X204963000Y-79927000D01*
X204963000Y-79673000D01*
X204983000Y-79673000D01*
X204983000Y-79653000D01*
X205237000Y-79653000D01*
X205237000Y-79673000D01*
X206444464Y-79673000D01*
X206564963Y-79440973D01*
X206466964Y-79164022D01*
X206316817Y-78911512D01*
X206120293Y-78693146D01*
X205906567Y-78533470D01*
X205946606Y-78512069D01*
X206174797Y-78324797D01*
X206362069Y-78096606D01*
X206501225Y-77836264D01*
X206586916Y-77553777D01*
X206615851Y-77260000D01*
X206586916Y-76966223D01*
X206501225Y-76683736D01*
X206362069Y-76423394D01*
X206174797Y-76195203D01*
X205946606Y-76007931D01*
X205686264Y-75868775D01*
X205403777Y-75783084D01*
X205183619Y-75761400D01*
X205036381Y-75761400D01*
X204816223Y-75783084D01*
X204533736Y-75868775D01*
X204273394Y-76007931D01*
X204045203Y-76195203D01*
X203857931Y-76423394D01*
X203840000Y-76456940D01*
X203822069Y-76423394D01*
X203634797Y-76195203D01*
X203406606Y-76007931D01*
X203146264Y-75868775D01*
X202863777Y-75783084D01*
X202643619Y-75761400D01*
X202496381Y-75761400D01*
X202276223Y-75783084D01*
X201993736Y-75868775D01*
X201733394Y-76007931D01*
X201505203Y-76195203D01*
X201317931Y-76423394D01*
X201300000Y-76456940D01*
X201282069Y-76423394D01*
X201094797Y-76195203D01*
X200866606Y-76007931D01*
X200606264Y-75868775D01*
X200323777Y-75783084D01*
X200103619Y-75761400D01*
X199956381Y-75761400D01*
X199736223Y-75783084D01*
X199453736Y-75868775D01*
X199193394Y-76007931D01*
X198965203Y-76195203D01*
X198777931Y-76423394D01*
X198754137Y-76467910D01*
X198696817Y-76371512D01*
X198500293Y-76153146D01*
X198264944Y-75977316D01*
X197999814Y-75850778D01*
X197849026Y-75805042D01*
X197617000Y-75926183D01*
X197617000Y-77133000D01*
X197637000Y-77133000D01*
X197637000Y-77387000D01*
X197617000Y-77387000D01*
X197617000Y-77407000D01*
X197363000Y-77407000D01*
X197363000Y-77387000D01*
X197343000Y-77387000D01*
X197343000Y-77133000D01*
X197363000Y-77133000D01*
X197363000Y-75926183D01*
X197130974Y-75805042D01*
X196980186Y-75850778D01*
X196715056Y-75977316D01*
X196479707Y-76153146D01*
X196283183Y-76371512D01*
X196225863Y-76467910D01*
X196202069Y-76423394D01*
X196014797Y-76195203D01*
X195786606Y-76007931D01*
X195526264Y-75868775D01*
X195243777Y-75783084D01*
X195023619Y-75761400D01*
X194876381Y-75761400D01*
X194656223Y-75783084D01*
X194373736Y-75868775D01*
X194113394Y-76007931D01*
X193885203Y-76195203D01*
X193697931Y-76423394D01*
X193674137Y-76467910D01*
X193616817Y-76371512D01*
X193420293Y-76153146D01*
X193184944Y-75977316D01*
X192919814Y-75850778D01*
X192769026Y-75805042D01*
X192537000Y-75926183D01*
X192537000Y-77133000D01*
X192557000Y-77133000D01*
X192557000Y-77387000D01*
X192537000Y-77387000D01*
X192537000Y-77407000D01*
X192283000Y-77407000D01*
X192283000Y-77387000D01*
X192263000Y-77387000D01*
X192263000Y-77133000D01*
X192283000Y-77133000D01*
X192283000Y-75926183D01*
X192050974Y-75805042D01*
X191900186Y-75850778D01*
X191635056Y-75977316D01*
X191399707Y-76153146D01*
X191203183Y-76371512D01*
X191145863Y-76467910D01*
X191122069Y-76423394D01*
X190934797Y-76195203D01*
X190706606Y-76007931D01*
X190446264Y-75868775D01*
X190163777Y-75783084D01*
X189943619Y-75761400D01*
X189796381Y-75761400D01*
X189576223Y-75783084D01*
X189293736Y-75868775D01*
X189033394Y-76007931D01*
X188805203Y-76195203D01*
X188617931Y-76423394D01*
X188600000Y-76456940D01*
X188582069Y-76423394D01*
X188394797Y-76195203D01*
X188166606Y-76007931D01*
X187906264Y-75868775D01*
X187623777Y-75783084D01*
X187403619Y-75761400D01*
X187256381Y-75761400D01*
X187036223Y-75783084D01*
X186753736Y-75868775D01*
X186493394Y-76007931D01*
X186265203Y-76195203D01*
X186077931Y-76423394D01*
X186060000Y-76456940D01*
X186042069Y-76423394D01*
X185854797Y-76195203D01*
X185626606Y-76007931D01*
X185366264Y-75868775D01*
X185083777Y-75783084D01*
X184863619Y-75761400D01*
X184716381Y-75761400D01*
X184496223Y-75783084D01*
X184213736Y-75868775D01*
X183953394Y-76007931D01*
X183725203Y-76195203D01*
X183537931Y-76423394D01*
X183520000Y-76456940D01*
X183502069Y-76423394D01*
X183314797Y-76195203D01*
X183086606Y-76007931D01*
X182826264Y-75868775D01*
X182543777Y-75783084D01*
X182323619Y-75761400D01*
X182176381Y-75761400D01*
X181956223Y-75783084D01*
X181673736Y-75868775D01*
X181413394Y-76007931D01*
X181185203Y-76195203D01*
X180997931Y-76423394D01*
X180974137Y-76467910D01*
X180916817Y-76371512D01*
X180720293Y-76153146D01*
X180484944Y-75977316D01*
X180219814Y-75850778D01*
X180069026Y-75805042D01*
X179837000Y-75926183D01*
X179837000Y-77133000D01*
X179857000Y-77133000D01*
X179857000Y-77387000D01*
X179837000Y-77387000D01*
X179837000Y-77407000D01*
X179583000Y-77407000D01*
X179583000Y-77387000D01*
X179563000Y-77387000D01*
X179563000Y-77133000D01*
X179583000Y-77133000D01*
X179583000Y-75926183D01*
X179350974Y-75805042D01*
X179200186Y-75850778D01*
X178935056Y-75977316D01*
X178699707Y-76153146D01*
X178503183Y-76371512D01*
X178445863Y-76467910D01*
X178422069Y-76423394D01*
X178234797Y-76195203D01*
X178006606Y-76007931D01*
X177746264Y-75868775D01*
X177463777Y-75783084D01*
X177243619Y-75761400D01*
X177096381Y-75761400D01*
X176876223Y-75783084D01*
X176593736Y-75868775D01*
X176333394Y-76007931D01*
X176105203Y-76195203D01*
X175917931Y-76423394D01*
X175900000Y-76456940D01*
X175882069Y-76423394D01*
X175694797Y-76195203D01*
X175466606Y-76007931D01*
X175206264Y-75868775D01*
X174923777Y-75783084D01*
X174703619Y-75761400D01*
X174556381Y-75761400D01*
X174336223Y-75783084D01*
X174053736Y-75868775D01*
X173793394Y-76007931D01*
X173565203Y-76195203D01*
X173377931Y-76423394D01*
X173354137Y-76467910D01*
X173296817Y-76371512D01*
X173100293Y-76153146D01*
X172864944Y-75977316D01*
X172599814Y-75850778D01*
X172449026Y-75805042D01*
X172217000Y-75926183D01*
X172217000Y-77133000D01*
X172237000Y-77133000D01*
X172237000Y-77387000D01*
X172217000Y-77387000D01*
X172217000Y-77407000D01*
X171963000Y-77407000D01*
X171963000Y-77387000D01*
X171943000Y-77387000D01*
X171943000Y-77133000D01*
X171963000Y-77133000D01*
X171963000Y-75926183D01*
X171730974Y-75805042D01*
X171580186Y-75850778D01*
X171315056Y-75977316D01*
X171079707Y-76153146D01*
X170883183Y-76371512D01*
X170825863Y-76467910D01*
X170802069Y-76423394D01*
X170614797Y-76195203D01*
X170386606Y-76007931D01*
X170126264Y-75868775D01*
X169843777Y-75783084D01*
X169623619Y-75761400D01*
X169476381Y-75761400D01*
X169256223Y-75783084D01*
X168973736Y-75868775D01*
X168713394Y-76007931D01*
X168485203Y-76195203D01*
X168297931Y-76423394D01*
X168280000Y-76456940D01*
X168262069Y-76423394D01*
X168074797Y-76195203D01*
X167846606Y-76007931D01*
X167586264Y-75868775D01*
X167303777Y-75783084D01*
X167083619Y-75761400D01*
X166936381Y-75761400D01*
X166716223Y-75783084D01*
X166433736Y-75868775D01*
X166173394Y-76007931D01*
X165945203Y-76195203D01*
X165757931Y-76423394D01*
X165740000Y-76456940D01*
X165722069Y-76423394D01*
X165534797Y-76195203D01*
X165306606Y-76007931D01*
X165046264Y-75868775D01*
X164763777Y-75783084D01*
X164543619Y-75761400D01*
X164396381Y-75761400D01*
X164176223Y-75783084D01*
X163893736Y-75868775D01*
X163633394Y-76007931D01*
X163405203Y-76195203D01*
X163217931Y-76423394D01*
X163194137Y-76467910D01*
X163136817Y-76371512D01*
X162940293Y-76153146D01*
X162704944Y-75977316D01*
X162439814Y-75850778D01*
X162289026Y-75805042D01*
X162057000Y-75926183D01*
X162057000Y-77133000D01*
X162077000Y-77133000D01*
X162077000Y-77387000D01*
X162057000Y-77387000D01*
X162057000Y-77407000D01*
X161803000Y-77407000D01*
X161803000Y-77387000D01*
X161783000Y-77387000D01*
X161783000Y-77133000D01*
X161803000Y-77133000D01*
X161803000Y-75926183D01*
X161570974Y-75805042D01*
X161420186Y-75850778D01*
X161155056Y-75977316D01*
X160919707Y-76153146D01*
X160723183Y-76371512D01*
X160665863Y-76467910D01*
X160642069Y-76423394D01*
X160454797Y-76195203D01*
X160226606Y-76007931D01*
X159966264Y-75868775D01*
X159683777Y-75783084D01*
X159463619Y-75761400D01*
X159316381Y-75761400D01*
X159096223Y-75783084D01*
X158813736Y-75868775D01*
X158553394Y-76007931D01*
X158325203Y-76195203D01*
X158137931Y-76423394D01*
X158120000Y-76456940D01*
X158102069Y-76423394D01*
X157914797Y-76195203D01*
X157686606Y-76007931D01*
X157426264Y-75868775D01*
X157143777Y-75783084D01*
X156923619Y-75761400D01*
X156776381Y-75761400D01*
X156556223Y-75783084D01*
X156273736Y-75868775D01*
X156013394Y-76007931D01*
X155785203Y-76195203D01*
X155597931Y-76423394D01*
X155458775Y-76683736D01*
X155373084Y-76966223D01*
X155344149Y-77260000D01*
X154717317Y-77260000D01*
X154645273Y-77086072D01*
X154318601Y-76597174D01*
X153902826Y-76181399D01*
X153413928Y-75854727D01*
X153012861Y-75688600D01*
X208987139Y-75688600D01*
X208586072Y-75854727D01*
G36*
X154820977Y-91237135D02*
G01*
X154808090Y-91512017D01*
X154849078Y-91784133D01*
X154942364Y-92043023D01*
X155004344Y-92158980D01*
X155244435Y-92225960D01*
X156030395Y-91440000D01*
X156016253Y-91425858D01*
X156195858Y-91246253D01*
X156210000Y-91260395D01*
X156224143Y-91246253D01*
X156403748Y-91425858D01*
X156389605Y-91440000D01*
X157175565Y-92225960D01*
X157415656Y-92158980D01*
X157464231Y-92055680D01*
X167775000Y-102366450D01*
X167775001Y-104084239D01*
X167769509Y-104140000D01*
X167787099Y-104318600D01*
X152995478Y-104318600D01*
X153413928Y-104145273D01*
X153902826Y-103818601D01*
X154318601Y-103402826D01*
X154645273Y-102913928D01*
X154870288Y-102370692D01*
X154985000Y-101793997D01*
X154985000Y-101683814D01*
X155164327Y-101863141D01*
X155199869Y-101906449D01*
X155372695Y-102048284D01*
X155569871Y-102153676D01*
X155734023Y-102203471D01*
X155783818Y-102218577D01*
X155804811Y-102220644D01*
X155950566Y-102235000D01*
X155950573Y-102235000D01*
X156006317Y-102240490D01*
X156062061Y-102235000D01*
X157449105Y-102235000D01*
X157399866Y-102308692D01*
X157310539Y-102524348D01*
X157265000Y-102753288D01*
X157265000Y-102986712D01*
X157310539Y-103215652D01*
X157399866Y-103431308D01*
X157529550Y-103625394D01*
X157694606Y-103790450D01*
X157888692Y-103920134D01*
X158104348Y-104009461D01*
X158333288Y-104055000D01*
X158566712Y-104055000D01*
X158795652Y-104009461D01*
X159011308Y-103920134D01*
X159205394Y-103790450D01*
X159370450Y-103625394D01*
X159500134Y-103431308D01*
X159589461Y-103215652D01*
X159635000Y-102986712D01*
X159635000Y-102753288D01*
X159589461Y-102524348D01*
X159500134Y-102308692D01*
X159370450Y-102114606D01*
X159240844Y-101985000D01*
X159370450Y-101855394D01*
X159500134Y-101661308D01*
X159589461Y-101445652D01*
X159635000Y-101216712D01*
X159635000Y-100983288D01*
X159589461Y-100754348D01*
X159500134Y-100538692D01*
X159370450Y-100344606D01*
X159205394Y-100179550D01*
X159189556Y-100168967D01*
X160925000Y-100168967D01*
X160925000Y-100491033D01*
X160987832Y-100806912D01*
X161111082Y-101104463D01*
X161290013Y-101372252D01*
X161517748Y-101599987D01*
X161785537Y-101778918D01*
X162083088Y-101902168D01*
X162398967Y-101965000D01*
X162721033Y-101965000D01*
X163036912Y-101902168D01*
X163334463Y-101778918D01*
X163602252Y-101599987D01*
X163829987Y-101372252D01*
X164008918Y-101104463D01*
X164132168Y-100806912D01*
X164195000Y-100491033D01*
X164195000Y-100168967D01*
X164132168Y-99853088D01*
X164008918Y-99555537D01*
X163829987Y-99287748D01*
X163602252Y-99060013D01*
X163334463Y-98881082D01*
X163036912Y-98757832D01*
X162721033Y-98695000D01*
X162398967Y-98695000D01*
X162083088Y-98757832D01*
X161785537Y-98881082D01*
X161517748Y-99060013D01*
X161290013Y-99287748D01*
X161111082Y-99555537D01*
X160987832Y-99853088D01*
X160925000Y-100168967D01*
X159189556Y-100168967D01*
X159011308Y-100049866D01*
X158795652Y-99960539D01*
X158566712Y-99915000D01*
X158333288Y-99915000D01*
X158104348Y-99960539D01*
X158093578Y-99965000D01*
X157280655Y-99965000D01*
X157295120Y-99950535D01*
X157448005Y-99721727D01*
X157553314Y-99467490D01*
X157607000Y-99197592D01*
X157607000Y-98922408D01*
X157553314Y-98652510D01*
X157448005Y-98398273D01*
X157295120Y-98169465D01*
X157100535Y-97974880D01*
X156871727Y-97821995D01*
X156794485Y-97790000D01*
X156871727Y-97758005D01*
X157100535Y-97605120D01*
X157295120Y-97410535D01*
X157448005Y-97181727D01*
X157553314Y-96927490D01*
X157607000Y-96657592D01*
X157607000Y-96382408D01*
X157553314Y-96112510D01*
X157448005Y-95858273D01*
X157295120Y-95629465D01*
X157100535Y-95434880D01*
X156871727Y-95281995D01*
X156794485Y-95250000D01*
X156871727Y-95218005D01*
X157100535Y-95065120D01*
X157295120Y-94870535D01*
X157448005Y-94641727D01*
X157553314Y-94387490D01*
X157607000Y-94117592D01*
X157607000Y-93842408D01*
X157553314Y-93572510D01*
X157448005Y-93318273D01*
X157295120Y-93089465D01*
X157100535Y-92894880D01*
X156871727Y-92741995D01*
X156800057Y-92712308D01*
X156813023Y-92707636D01*
X156928980Y-92645656D01*
X156995960Y-92405565D01*
X156210000Y-91619605D01*
X155424040Y-92405565D01*
X155491020Y-92645656D01*
X155626760Y-92709485D01*
X155548273Y-92741995D01*
X155319465Y-92894880D01*
X155124880Y-93089465D01*
X154971995Y-93318273D01*
X154866686Y-93572510D01*
X154813000Y-93842408D01*
X154813000Y-94117592D01*
X154866686Y-94387490D01*
X154971995Y-94641727D01*
X155124880Y-94870535D01*
X155319465Y-95065120D01*
X155548273Y-95218005D01*
X155625515Y-95250000D01*
X155548273Y-95281995D01*
X155319465Y-95434880D01*
X155124880Y-95629465D01*
X154971995Y-95858273D01*
X154866686Y-96112510D01*
X154813000Y-96382408D01*
X154813000Y-96657592D01*
X154866686Y-96927490D01*
X154971995Y-97181727D01*
X155124880Y-97410535D01*
X155319465Y-97605120D01*
X155548273Y-97758005D01*
X155625515Y-97790000D01*
X155548273Y-97821995D01*
X155319465Y-97974880D01*
X155124880Y-98169465D01*
X154971995Y-98398273D01*
X154953756Y-98442306D01*
X148717000Y-92205551D01*
X148717000Y-91058999D01*
X154865174Y-91058999D01*
X154820977Y-91237135D01*
X154820977Y-91237135D01*
G37*
X154820977Y-91237135D02*
X154808090Y-91512017D01*
X154849078Y-91784133D01*
X154942364Y-92043023D01*
X155004344Y-92158980D01*
X155244435Y-92225960D01*
X156030395Y-91440000D01*
X156016253Y-91425858D01*
X156195858Y-91246253D01*
X156210000Y-91260395D01*
X156224143Y-91246253D01*
X156403748Y-91425858D01*
X156389605Y-91440000D01*
X157175565Y-92225960D01*
X157415656Y-92158980D01*
X157464231Y-92055680D01*
X167775000Y-102366450D01*
X167775001Y-104084239D01*
X167769509Y-104140000D01*
X167787099Y-104318600D01*
X152995478Y-104318600D01*
X153413928Y-104145273D01*
X153902826Y-103818601D01*
X154318601Y-103402826D01*
X154645273Y-102913928D01*
X154870288Y-102370692D01*
X154985000Y-101793997D01*
X154985000Y-101683814D01*
X155164327Y-101863141D01*
X155199869Y-101906449D01*
X155372695Y-102048284D01*
X155569871Y-102153676D01*
X155734023Y-102203471D01*
X155783818Y-102218577D01*
X155804811Y-102220644D01*
X155950566Y-102235000D01*
X155950573Y-102235000D01*
X156006317Y-102240490D01*
X156062061Y-102235000D01*
X157449105Y-102235000D01*
X157399866Y-102308692D01*
X157310539Y-102524348D01*
X157265000Y-102753288D01*
X157265000Y-102986712D01*
X157310539Y-103215652D01*
X157399866Y-103431308D01*
X157529550Y-103625394D01*
X157694606Y-103790450D01*
X157888692Y-103920134D01*
X158104348Y-104009461D01*
X158333288Y-104055000D01*
X158566712Y-104055000D01*
X158795652Y-104009461D01*
X159011308Y-103920134D01*
X159205394Y-103790450D01*
X159370450Y-103625394D01*
X159500134Y-103431308D01*
X159589461Y-103215652D01*
X159635000Y-102986712D01*
X159635000Y-102753288D01*
X159589461Y-102524348D01*
X159500134Y-102308692D01*
X159370450Y-102114606D01*
X159240844Y-101985000D01*
X159370450Y-101855394D01*
X159500134Y-101661308D01*
X159589461Y-101445652D01*
X159635000Y-101216712D01*
X159635000Y-100983288D01*
X159589461Y-100754348D01*
X159500134Y-100538692D01*
X159370450Y-100344606D01*
X159205394Y-100179550D01*
X159189556Y-100168967D01*
X160925000Y-100168967D01*
X160925000Y-100491033D01*
X160987832Y-100806912D01*
X161111082Y-101104463D01*
X161290013Y-101372252D01*
X161517748Y-101599987D01*
X161785537Y-101778918D01*
X162083088Y-101902168D01*
X162398967Y-101965000D01*
X162721033Y-101965000D01*
X163036912Y-101902168D01*
X163334463Y-101778918D01*
X163602252Y-101599987D01*
X163829987Y-101372252D01*
X164008918Y-101104463D01*
X164132168Y-100806912D01*
X164195000Y-100491033D01*
X164195000Y-100168967D01*
X164132168Y-99853088D01*
X164008918Y-99555537D01*
X163829987Y-99287748D01*
X163602252Y-99060013D01*
X163334463Y-98881082D01*
X163036912Y-98757832D01*
X162721033Y-98695000D01*
X162398967Y-98695000D01*
X162083088Y-98757832D01*
X161785537Y-98881082D01*
X161517748Y-99060013D01*
X161290013Y-99287748D01*
X161111082Y-99555537D01*
X160987832Y-99853088D01*
X160925000Y-100168967D01*
X159189556Y-100168967D01*
X159011308Y-100049866D01*
X158795652Y-99960539D01*
X158566712Y-99915000D01*
X158333288Y-99915000D01*
X158104348Y-99960539D01*
X158093578Y-99965000D01*
X157280655Y-99965000D01*
X157295120Y-99950535D01*
X157448005Y-99721727D01*
X157553314Y-99467490D01*
X157607000Y-99197592D01*
X157607000Y-98922408D01*
X157553314Y-98652510D01*
X157448005Y-98398273D01*
X157295120Y-98169465D01*
X157100535Y-97974880D01*
X156871727Y-97821995D01*
X156794485Y-97790000D01*
X156871727Y-97758005D01*
X157100535Y-97605120D01*
X157295120Y-97410535D01*
X157448005Y-97181727D01*
X157553314Y-96927490D01*
X157607000Y-96657592D01*
X157607000Y-96382408D01*
X157553314Y-96112510D01*
X157448005Y-95858273D01*
X157295120Y-95629465D01*
X157100535Y-95434880D01*
X156871727Y-95281995D01*
X156794485Y-95250000D01*
X156871727Y-95218005D01*
X157100535Y-95065120D01*
X157295120Y-94870535D01*
X157448005Y-94641727D01*
X157553314Y-94387490D01*
X157607000Y-94117592D01*
X157607000Y-93842408D01*
X157553314Y-93572510D01*
X157448005Y-93318273D01*
X157295120Y-93089465D01*
X157100535Y-92894880D01*
X156871727Y-92741995D01*
X156800057Y-92712308D01*
X156813023Y-92707636D01*
X156928980Y-92645656D01*
X156995960Y-92405565D01*
X156210000Y-91619605D01*
X155424040Y-92405565D01*
X155491020Y-92645656D01*
X155626760Y-92709485D01*
X155548273Y-92741995D01*
X155319465Y-92894880D01*
X155124880Y-93089465D01*
X154971995Y-93318273D01*
X154866686Y-93572510D01*
X154813000Y-93842408D01*
X154813000Y-94117592D01*
X154866686Y-94387490D01*
X154971995Y-94641727D01*
X155124880Y-94870535D01*
X155319465Y-95065120D01*
X155548273Y-95218005D01*
X155625515Y-95250000D01*
X155548273Y-95281995D01*
X155319465Y-95434880D01*
X155124880Y-95629465D01*
X154971995Y-95858273D01*
X154866686Y-96112510D01*
X154813000Y-96382408D01*
X154813000Y-96657592D01*
X154866686Y-96927490D01*
X154971995Y-97181727D01*
X155124880Y-97410535D01*
X155319465Y-97605120D01*
X155548273Y-97758005D01*
X155625515Y-97790000D01*
X155548273Y-97821995D01*
X155319465Y-97974880D01*
X155124880Y-98169465D01*
X154971995Y-98398273D01*
X154953756Y-98442306D01*
X148717000Y-92205551D01*
X148717000Y-91058999D01*
X154865174Y-91058999D01*
X154820977Y-91237135D01*
M02*
