G04 #@! TF.GenerationSoftware,KiCad,Pcbnew,5.1.4*
G04 #@! TF.CreationDate,2019-11-13T10:42:40+01:00*
G04 #@! TF.ProjectId,anavi-play-phat,616e6176-692d-4706-9c61-792d70686174,rev?*
G04 #@! TF.SameCoordinates,Original*
G04 #@! TF.FileFunction,Copper,L2,Bot*
G04 #@! TF.FilePolarity,Positive*
%FSLAX46Y46*%
G04 Gerber Fmt 4.6, Leading zero omitted, Abs format (unit mm)*
G04 Created by KiCad (PCBNEW 5.1.4) date 2019-11-13 10:42:40*
%MOMM*%
%LPD*%
G04 APERTURE LIST*
%ADD10C,1.524000*%
%ADD11R,1.727200X1.727200*%
%ADD12O,1.727200X1.727200*%
%ADD13C,4.700000*%
%ADD14C,1.200000*%
%ADD15C,0.500000*%
%ADD16C,0.254000*%
G04 APERTURE END LIST*
D10*
X152400000Y-85090000D03*
X152400000Y-87630000D03*
X152400000Y-90170000D03*
X152400000Y-92710000D03*
X173990000Y-99060000D03*
X166370000Y-99060000D03*
X173990000Y-96520000D03*
X166370000Y-96520000D03*
X166370000Y-101600000D03*
X173990000Y-101600000D03*
X189230000Y-99060000D03*
X181610000Y-99060000D03*
X189230000Y-96520000D03*
X181610000Y-96520000D03*
X181610000Y-101600000D03*
X189230000Y-101600000D03*
X201930000Y-92710000D03*
X209550000Y-92710000D03*
X201930000Y-95250000D03*
X209550000Y-95250000D03*
X209550000Y-90170000D03*
X201930000Y-90170000D03*
X204470000Y-99060000D03*
X196850000Y-99060000D03*
X204470000Y-96520000D03*
X196850000Y-96520000D03*
X196850000Y-101600000D03*
X204470000Y-101600000D03*
X199390000Y-92710000D03*
X191770000Y-92710000D03*
X199390000Y-90170000D03*
X191770000Y-90170000D03*
X191770000Y-95250000D03*
X199390000Y-95250000D03*
X196850000Y-86360000D03*
X204470000Y-86360000D03*
X196850000Y-88900000D03*
X204470000Y-88900000D03*
X204470000Y-83820000D03*
X196850000Y-83820000D03*
D11*
X156850000Y-79800000D03*
D12*
X156850000Y-77260000D03*
X159390000Y-79800000D03*
X159390000Y-77260000D03*
X161930000Y-79800000D03*
X161930000Y-77260000D03*
X164470000Y-79800000D03*
X164470000Y-77260000D03*
X167010000Y-79800000D03*
X167010000Y-77260000D03*
X169550000Y-79800000D03*
X169550000Y-77260000D03*
X172090000Y-79800000D03*
X172090000Y-77260000D03*
X174630000Y-79800000D03*
X174630000Y-77260000D03*
X177170000Y-79800000D03*
X177170000Y-77260000D03*
X179710000Y-79800000D03*
X179710000Y-77260000D03*
X182250000Y-79800000D03*
X182250000Y-77260000D03*
X184790000Y-79800000D03*
X184790000Y-77260000D03*
X187330000Y-79800000D03*
X187330000Y-77260000D03*
X189870000Y-79800000D03*
X189870000Y-77260000D03*
X192410000Y-79800000D03*
X192410000Y-77260000D03*
X194950000Y-79800000D03*
X194950000Y-77260000D03*
X197490000Y-79800000D03*
X197490000Y-77260000D03*
X200030000Y-79800000D03*
X200030000Y-77260000D03*
X202570000Y-79800000D03*
X202570000Y-77260000D03*
X205110000Y-79800000D03*
X205110000Y-77260000D03*
D13*
X152000000Y-78500000D03*
X210000000Y-78500000D03*
X210000000Y-101500000D03*
X152000000Y-101500000D03*
D14*
X167640000Y-83820000D03*
X149860000Y-87630000D03*
X157480000Y-86360000D03*
X156210000Y-83820000D03*
D15*
X156845000Y-80137000D02*
X156845000Y-79756000D01*
X156845000Y-79756000D02*
X156850000Y-79800000D01*
X149860000Y-87630000D02*
X152400000Y-90170000D01*
X156850000Y-77260000D02*
X156547000Y-77260000D01*
X156850000Y-77260000D02*
X156737500Y-77260000D01*
X169550000Y-77260000D02*
X169545000Y-77216000D01*
X169550000Y-77260000D02*
X169500000Y-77250000D01*
X189870000Y-77260000D02*
X189870000Y-76639500D01*
X189870000Y-77260000D02*
X189865000Y-77216000D01*
X153670000Y-83820000D02*
X152400000Y-85090000D01*
X156210000Y-83820000D02*
X153670000Y-83820000D01*
X161925000Y-79756000D02*
X161930000Y-79800000D01*
X156210000Y-87630000D02*
X152400000Y-87630000D01*
X157480000Y-86360000D02*
X156210000Y-87630000D01*
D16*
G36*
X155597931Y-76423394D02*
G01*
X155458775Y-76683736D01*
X155373084Y-76966223D01*
X155344149Y-77260000D01*
X155373084Y-77553777D01*
X155458775Y-77836264D01*
X155597931Y-78096606D01*
X155785203Y-78324797D01*
X155793265Y-78331414D01*
X155742220Y-78346898D01*
X155631906Y-78405863D01*
X155535215Y-78485215D01*
X155455863Y-78581906D01*
X155396898Y-78692220D01*
X155360588Y-78811918D01*
X155348328Y-78936400D01*
X155348328Y-80663600D01*
X155360588Y-80788082D01*
X155396898Y-80907780D01*
X155455863Y-81018094D01*
X155535215Y-81114785D01*
X155631906Y-81194137D01*
X155742220Y-81253102D01*
X155861918Y-81289412D01*
X155986400Y-81301672D01*
X157713600Y-81301672D01*
X157838082Y-81289412D01*
X157957780Y-81253102D01*
X158068094Y-81194137D01*
X158164785Y-81114785D01*
X158244137Y-81018094D01*
X158303102Y-80907780D01*
X158318586Y-80856735D01*
X158325203Y-80864797D01*
X158553394Y-81052069D01*
X158813736Y-81191225D01*
X159096223Y-81276916D01*
X159316381Y-81298600D01*
X159463619Y-81298600D01*
X159683777Y-81276916D01*
X159966264Y-81191225D01*
X160226606Y-81052069D01*
X160454797Y-80864797D01*
X160642069Y-80636606D01*
X160660000Y-80603060D01*
X160677931Y-80636606D01*
X160865203Y-80864797D01*
X161093394Y-81052069D01*
X161353736Y-81191225D01*
X161636223Y-81276916D01*
X161856381Y-81298600D01*
X162003619Y-81298600D01*
X162223777Y-81276916D01*
X162506264Y-81191225D01*
X162766606Y-81052069D01*
X162994797Y-80864797D01*
X163182069Y-80636606D01*
X163200000Y-80603060D01*
X163217931Y-80636606D01*
X163405203Y-80864797D01*
X163633394Y-81052069D01*
X163893736Y-81191225D01*
X164176223Y-81276916D01*
X164396381Y-81298600D01*
X164543619Y-81298600D01*
X164763777Y-81276916D01*
X165046264Y-81191225D01*
X165306606Y-81052069D01*
X165534797Y-80864797D01*
X165722069Y-80636606D01*
X165745863Y-80592090D01*
X165803183Y-80688488D01*
X165999707Y-80906854D01*
X166235056Y-81082684D01*
X166500186Y-81209222D01*
X166650974Y-81254958D01*
X166883000Y-81133817D01*
X166883000Y-79927000D01*
X166863000Y-79927000D01*
X166863000Y-79673000D01*
X166883000Y-79673000D01*
X166883000Y-79653000D01*
X167137000Y-79653000D01*
X167137000Y-79673000D01*
X167157000Y-79673000D01*
X167157000Y-79927000D01*
X167137000Y-79927000D01*
X167137000Y-81133817D01*
X167369026Y-81254958D01*
X167519814Y-81209222D01*
X167784944Y-81082684D01*
X168020293Y-80906854D01*
X168216817Y-80688488D01*
X168274137Y-80592090D01*
X168297931Y-80636606D01*
X168485203Y-80864797D01*
X168713394Y-81052069D01*
X168973736Y-81191225D01*
X169256223Y-81276916D01*
X169476381Y-81298600D01*
X169623619Y-81298600D01*
X169843777Y-81276916D01*
X170126264Y-81191225D01*
X170386606Y-81052069D01*
X170614797Y-80864797D01*
X170802069Y-80636606D01*
X170820000Y-80603060D01*
X170837931Y-80636606D01*
X171025203Y-80864797D01*
X171253394Y-81052069D01*
X171513736Y-81191225D01*
X171796223Y-81276916D01*
X172016381Y-81298600D01*
X172163619Y-81298600D01*
X172383777Y-81276916D01*
X172666264Y-81191225D01*
X172926606Y-81052069D01*
X173154797Y-80864797D01*
X173342069Y-80636606D01*
X173360000Y-80603060D01*
X173377931Y-80636606D01*
X173565203Y-80864797D01*
X173793394Y-81052069D01*
X174053736Y-81191225D01*
X174336223Y-81276916D01*
X174556381Y-81298600D01*
X174703619Y-81298600D01*
X174923777Y-81276916D01*
X175206264Y-81191225D01*
X175466606Y-81052069D01*
X175694797Y-80864797D01*
X175882069Y-80636606D01*
X175900000Y-80603060D01*
X175917931Y-80636606D01*
X176105203Y-80864797D01*
X176333394Y-81052069D01*
X176593736Y-81191225D01*
X176876223Y-81276916D01*
X177096381Y-81298600D01*
X177243619Y-81298600D01*
X177463777Y-81276916D01*
X177746264Y-81191225D01*
X178006606Y-81052069D01*
X178234797Y-80864797D01*
X178422069Y-80636606D01*
X178440000Y-80603060D01*
X178457931Y-80636606D01*
X178645203Y-80864797D01*
X178873394Y-81052069D01*
X179133736Y-81191225D01*
X179416223Y-81276916D01*
X179636381Y-81298600D01*
X179783619Y-81298600D01*
X180003777Y-81276916D01*
X180286264Y-81191225D01*
X180546606Y-81052069D01*
X180774797Y-80864797D01*
X180962069Y-80636606D01*
X180980000Y-80603060D01*
X180997931Y-80636606D01*
X181185203Y-80864797D01*
X181413394Y-81052069D01*
X181673736Y-81191225D01*
X181956223Y-81276916D01*
X182176381Y-81298600D01*
X182323619Y-81298600D01*
X182543777Y-81276916D01*
X182826264Y-81191225D01*
X183086606Y-81052069D01*
X183314797Y-80864797D01*
X183502069Y-80636606D01*
X183520000Y-80603060D01*
X183537931Y-80636606D01*
X183725203Y-80864797D01*
X183953394Y-81052069D01*
X184213736Y-81191225D01*
X184496223Y-81276916D01*
X184716381Y-81298600D01*
X184863619Y-81298600D01*
X185083777Y-81276916D01*
X185366264Y-81191225D01*
X185626606Y-81052069D01*
X185854797Y-80864797D01*
X186042069Y-80636606D01*
X186065863Y-80592090D01*
X186123183Y-80688488D01*
X186319707Y-80906854D01*
X186555056Y-81082684D01*
X186820186Y-81209222D01*
X186970974Y-81254958D01*
X187203000Y-81133817D01*
X187203000Y-79927000D01*
X187183000Y-79927000D01*
X187183000Y-79673000D01*
X187203000Y-79673000D01*
X187203000Y-79653000D01*
X187457000Y-79653000D01*
X187457000Y-79673000D01*
X187477000Y-79673000D01*
X187477000Y-79927000D01*
X187457000Y-79927000D01*
X187457000Y-81133817D01*
X187689026Y-81254958D01*
X187839814Y-81209222D01*
X188104944Y-81082684D01*
X188340293Y-80906854D01*
X188536817Y-80688488D01*
X188594137Y-80592090D01*
X188617931Y-80636606D01*
X188805203Y-80864797D01*
X189033394Y-81052069D01*
X189293736Y-81191225D01*
X189576223Y-81276916D01*
X189796381Y-81298600D01*
X189943619Y-81298600D01*
X190163777Y-81276916D01*
X190446264Y-81191225D01*
X190706606Y-81052069D01*
X190934797Y-80864797D01*
X191122069Y-80636606D01*
X191140000Y-80603060D01*
X191157931Y-80636606D01*
X191345203Y-80864797D01*
X191573394Y-81052069D01*
X191833736Y-81191225D01*
X192116223Y-81276916D01*
X192336381Y-81298600D01*
X192483619Y-81298600D01*
X192703777Y-81276916D01*
X192986264Y-81191225D01*
X193246606Y-81052069D01*
X193474797Y-80864797D01*
X193662069Y-80636606D01*
X193680000Y-80603060D01*
X193697931Y-80636606D01*
X193885203Y-80864797D01*
X194113394Y-81052069D01*
X194373736Y-81191225D01*
X194656223Y-81276916D01*
X194876381Y-81298600D01*
X195023619Y-81298600D01*
X195243777Y-81276916D01*
X195526264Y-81191225D01*
X195786606Y-81052069D01*
X196014797Y-80864797D01*
X196202069Y-80636606D01*
X196220000Y-80603060D01*
X196237931Y-80636606D01*
X196425203Y-80864797D01*
X196653394Y-81052069D01*
X196913736Y-81191225D01*
X197196223Y-81276916D01*
X197416381Y-81298600D01*
X197563619Y-81298600D01*
X197783777Y-81276916D01*
X198066264Y-81191225D01*
X198326606Y-81052069D01*
X198554797Y-80864797D01*
X198742069Y-80636606D01*
X198760000Y-80603060D01*
X198777931Y-80636606D01*
X198965203Y-80864797D01*
X199193394Y-81052069D01*
X199453736Y-81191225D01*
X199736223Y-81276916D01*
X199956381Y-81298600D01*
X200103619Y-81298600D01*
X200323777Y-81276916D01*
X200606264Y-81191225D01*
X200866606Y-81052069D01*
X201094797Y-80864797D01*
X201282069Y-80636606D01*
X201300000Y-80603060D01*
X201317931Y-80636606D01*
X201505203Y-80864797D01*
X201733394Y-81052069D01*
X201993736Y-81191225D01*
X202276223Y-81276916D01*
X202496381Y-81298600D01*
X202643619Y-81298600D01*
X202863777Y-81276916D01*
X203146264Y-81191225D01*
X203406606Y-81052069D01*
X203634797Y-80864797D01*
X203822069Y-80636606D01*
X203845863Y-80592090D01*
X203903183Y-80688488D01*
X204099707Y-80906854D01*
X204335056Y-81082684D01*
X204600186Y-81209222D01*
X204750974Y-81254958D01*
X204983000Y-81133817D01*
X204983000Y-79927000D01*
X205237000Y-79927000D01*
X205237000Y-81133817D01*
X205469026Y-81254958D01*
X205619814Y-81209222D01*
X205884944Y-81082684D01*
X206120293Y-80906854D01*
X206316817Y-80688488D01*
X206466964Y-80435978D01*
X206564963Y-80159027D01*
X206444464Y-79927000D01*
X205237000Y-79927000D01*
X204983000Y-79927000D01*
X204963000Y-79927000D01*
X204963000Y-79673000D01*
X204983000Y-79673000D01*
X204983000Y-79653000D01*
X205237000Y-79653000D01*
X205237000Y-79673000D01*
X206444464Y-79673000D01*
X206564963Y-79440973D01*
X206466964Y-79164022D01*
X206316817Y-78911512D01*
X206120293Y-78693146D01*
X205906567Y-78533470D01*
X205946606Y-78512069D01*
X206174797Y-78324797D01*
X206362069Y-78096606D01*
X206501225Y-77836264D01*
X206586916Y-77553777D01*
X206615851Y-77260000D01*
X206586916Y-76966223D01*
X206501225Y-76683736D01*
X206362069Y-76423394D01*
X206282960Y-76327000D01*
X206883000Y-76327000D01*
X206883000Y-81280000D01*
X206885440Y-81304776D01*
X206892667Y-81328601D01*
X206904403Y-81350557D01*
X206920197Y-81369803D01*
X206939443Y-81385597D01*
X206961399Y-81397333D01*
X206979198Y-81403208D01*
X211963000Y-82649159D01*
X211963000Y-96420842D01*
X206979198Y-97666792D01*
X206955753Y-97675168D01*
X206934393Y-97687958D01*
X206915938Y-97704669D01*
X206901098Y-97724659D01*
X206890444Y-97747160D01*
X206884383Y-97771308D01*
X206883000Y-97790000D01*
X206883000Y-102743000D01*
X205206460Y-102743000D01*
X205255960Y-102565565D01*
X204470000Y-101779605D01*
X203684040Y-102565565D01*
X203733540Y-102743000D01*
X197653912Y-102743000D01*
X197740535Y-102685120D01*
X197935120Y-102490535D01*
X198088005Y-102261727D01*
X198193314Y-102007490D01*
X198247000Y-101737592D01*
X198247000Y-101672017D01*
X203068090Y-101672017D01*
X203109078Y-101944133D01*
X203202364Y-102203023D01*
X203264344Y-102318980D01*
X203504435Y-102385960D01*
X204290395Y-101600000D01*
X204649605Y-101600000D01*
X205435565Y-102385960D01*
X205675656Y-102318980D01*
X205792756Y-102069952D01*
X205859023Y-101802865D01*
X205871910Y-101527983D01*
X205830922Y-101255867D01*
X205737636Y-100996977D01*
X205675656Y-100881020D01*
X205435565Y-100814040D01*
X204649605Y-101600000D01*
X204290395Y-101600000D01*
X203504435Y-100814040D01*
X203264344Y-100881020D01*
X203147244Y-101130048D01*
X203080977Y-101397135D01*
X203068090Y-101672017D01*
X198247000Y-101672017D01*
X198247000Y-101462408D01*
X198193314Y-101192510D01*
X198088005Y-100938273D01*
X197935120Y-100709465D01*
X197740535Y-100514880D01*
X197511727Y-100361995D01*
X197434485Y-100330000D01*
X197511727Y-100298005D01*
X197740535Y-100145120D01*
X197935120Y-99950535D01*
X198088005Y-99721727D01*
X198193314Y-99467490D01*
X198247000Y-99197592D01*
X198247000Y-98922408D01*
X203073000Y-98922408D01*
X203073000Y-99197592D01*
X203126686Y-99467490D01*
X203231995Y-99721727D01*
X203384880Y-99950535D01*
X203579465Y-100145120D01*
X203808273Y-100298005D01*
X203879943Y-100327692D01*
X203866977Y-100332364D01*
X203751020Y-100394344D01*
X203684040Y-100634435D01*
X204470000Y-101420395D01*
X205255960Y-100634435D01*
X205188980Y-100394344D01*
X205053240Y-100330515D01*
X205131727Y-100298005D01*
X205360535Y-100145120D01*
X205555120Y-99950535D01*
X205708005Y-99721727D01*
X205813314Y-99467490D01*
X205867000Y-99197592D01*
X205867000Y-98922408D01*
X205813314Y-98652510D01*
X205708005Y-98398273D01*
X205555120Y-98169465D01*
X205360535Y-97974880D01*
X205131727Y-97821995D01*
X205060057Y-97792308D01*
X205073023Y-97787636D01*
X205188980Y-97725656D01*
X205255960Y-97485565D01*
X204470000Y-96699605D01*
X203684040Y-97485565D01*
X203751020Y-97725656D01*
X203886760Y-97789485D01*
X203808273Y-97821995D01*
X203579465Y-97974880D01*
X203384880Y-98169465D01*
X203231995Y-98398273D01*
X203126686Y-98652510D01*
X203073000Y-98922408D01*
X198247000Y-98922408D01*
X198193314Y-98652510D01*
X198088005Y-98398273D01*
X197935120Y-98169465D01*
X197740535Y-97974880D01*
X197511727Y-97821995D01*
X197434485Y-97790000D01*
X197511727Y-97758005D01*
X197740535Y-97605120D01*
X197935120Y-97410535D01*
X198088005Y-97181727D01*
X198193314Y-96927490D01*
X198247000Y-96657592D01*
X198247000Y-96382408D01*
X198213813Y-96215565D01*
X198604040Y-96215565D01*
X198671020Y-96455656D01*
X198920048Y-96572756D01*
X199187135Y-96639023D01*
X199462017Y-96651910D01*
X199734133Y-96610922D01*
X199993023Y-96517636D01*
X200108980Y-96455656D01*
X200175960Y-96215565D01*
X201144040Y-96215565D01*
X201211020Y-96455656D01*
X201460048Y-96572756D01*
X201727135Y-96639023D01*
X202002017Y-96651910D01*
X202274133Y-96610922D01*
X202326598Y-96592017D01*
X203068090Y-96592017D01*
X203109078Y-96864133D01*
X203202364Y-97123023D01*
X203264344Y-97238980D01*
X203504435Y-97305960D01*
X204290395Y-96520000D01*
X204649605Y-96520000D01*
X205435565Y-97305960D01*
X205675656Y-97238980D01*
X205792756Y-96989952D01*
X205859023Y-96722865D01*
X205871910Y-96447983D01*
X205830922Y-96175867D01*
X205737636Y-95916977D01*
X205675656Y-95801020D01*
X205435565Y-95734040D01*
X204649605Y-96520000D01*
X204290395Y-96520000D01*
X203504435Y-95734040D01*
X203264344Y-95801020D01*
X203147244Y-96050048D01*
X203080977Y-96317135D01*
X203068090Y-96592017D01*
X202326598Y-96592017D01*
X202533023Y-96517636D01*
X202648980Y-96455656D01*
X202715960Y-96215565D01*
X201930000Y-95429605D01*
X201144040Y-96215565D01*
X200175960Y-96215565D01*
X199390000Y-95429605D01*
X198604040Y-96215565D01*
X198213813Y-96215565D01*
X198193314Y-96112510D01*
X198088005Y-95858273D01*
X197935120Y-95629465D01*
X197740535Y-95434880D01*
X197571625Y-95322017D01*
X197988090Y-95322017D01*
X198029078Y-95594133D01*
X198122364Y-95853023D01*
X198184344Y-95968980D01*
X198424435Y-96035960D01*
X199210395Y-95250000D01*
X199569605Y-95250000D01*
X200355565Y-96035960D01*
X200595656Y-95968980D01*
X200657079Y-95838356D01*
X200662364Y-95853023D01*
X200724344Y-95968980D01*
X200964435Y-96035960D01*
X201750395Y-95250000D01*
X202109605Y-95250000D01*
X202895565Y-96035960D01*
X203135656Y-95968980D01*
X203252756Y-95719952D01*
X203293822Y-95554435D01*
X203684040Y-95554435D01*
X204470000Y-96340395D01*
X205255960Y-95554435D01*
X205188980Y-95314344D01*
X204939952Y-95197244D01*
X204672865Y-95130977D01*
X204397983Y-95118090D01*
X204125867Y-95159078D01*
X203866977Y-95252364D01*
X203751020Y-95314344D01*
X203684040Y-95554435D01*
X203293822Y-95554435D01*
X203319023Y-95452865D01*
X203331910Y-95177983D01*
X203290922Y-94905867D01*
X203197636Y-94646977D01*
X203135656Y-94531020D01*
X202895565Y-94464040D01*
X202109605Y-95250000D01*
X201750395Y-95250000D01*
X200964435Y-94464040D01*
X200724344Y-94531020D01*
X200662921Y-94661644D01*
X200657636Y-94646977D01*
X200595656Y-94531020D01*
X200355565Y-94464040D01*
X199569605Y-95250000D01*
X199210395Y-95250000D01*
X198424435Y-94464040D01*
X198184344Y-94531020D01*
X198067244Y-94780048D01*
X198000977Y-95047135D01*
X197988090Y-95322017D01*
X197571625Y-95322017D01*
X197511727Y-95281995D01*
X197257490Y-95176686D01*
X196987592Y-95123000D01*
X196712408Y-95123000D01*
X196442510Y-95176686D01*
X196188273Y-95281995D01*
X195959465Y-95434880D01*
X195764880Y-95629465D01*
X195611995Y-95858273D01*
X195506686Y-96112510D01*
X195453000Y-96382408D01*
X195453000Y-96657592D01*
X195506686Y-96927490D01*
X195611995Y-97181727D01*
X195764880Y-97410535D01*
X195959465Y-97605120D01*
X196188273Y-97758005D01*
X196265515Y-97790000D01*
X196188273Y-97821995D01*
X195959465Y-97974880D01*
X195764880Y-98169465D01*
X195611995Y-98398273D01*
X195506686Y-98652510D01*
X195453000Y-98922408D01*
X195453000Y-99197592D01*
X195506686Y-99467490D01*
X195611995Y-99721727D01*
X195764880Y-99950535D01*
X195959465Y-100145120D01*
X196188273Y-100298005D01*
X196265515Y-100330000D01*
X196188273Y-100361995D01*
X195959465Y-100514880D01*
X195764880Y-100709465D01*
X195611995Y-100938273D01*
X195506686Y-101192510D01*
X195453000Y-101462408D01*
X195453000Y-101737592D01*
X195506686Y-102007490D01*
X195611995Y-102261727D01*
X195764880Y-102490535D01*
X195959465Y-102685120D01*
X196046088Y-102743000D01*
X189966460Y-102743000D01*
X190015960Y-102565565D01*
X189230000Y-101779605D01*
X188444040Y-102565565D01*
X188493540Y-102743000D01*
X182413912Y-102743000D01*
X182500535Y-102685120D01*
X182695120Y-102490535D01*
X182848005Y-102261727D01*
X182953314Y-102007490D01*
X183007000Y-101737592D01*
X183007000Y-101672017D01*
X187828090Y-101672017D01*
X187869078Y-101944133D01*
X187962364Y-102203023D01*
X188024344Y-102318980D01*
X188264435Y-102385960D01*
X189050395Y-101600000D01*
X189409605Y-101600000D01*
X190195565Y-102385960D01*
X190435656Y-102318980D01*
X190552756Y-102069952D01*
X190619023Y-101802865D01*
X190631910Y-101527983D01*
X190590922Y-101255867D01*
X190497636Y-100996977D01*
X190435656Y-100881020D01*
X190195565Y-100814040D01*
X189409605Y-101600000D01*
X189050395Y-101600000D01*
X188264435Y-100814040D01*
X188024344Y-100881020D01*
X187907244Y-101130048D01*
X187840977Y-101397135D01*
X187828090Y-101672017D01*
X183007000Y-101672017D01*
X183007000Y-101462408D01*
X182953314Y-101192510D01*
X182848005Y-100938273D01*
X182695120Y-100709465D01*
X182500535Y-100514880D01*
X182271727Y-100361995D01*
X182194485Y-100330000D01*
X182271727Y-100298005D01*
X182500535Y-100145120D01*
X182695120Y-99950535D01*
X182848005Y-99721727D01*
X182953314Y-99467490D01*
X183007000Y-99197592D01*
X183007000Y-98922408D01*
X187833000Y-98922408D01*
X187833000Y-99197592D01*
X187886686Y-99467490D01*
X187991995Y-99721727D01*
X188144880Y-99950535D01*
X188339465Y-100145120D01*
X188568273Y-100298005D01*
X188639943Y-100327692D01*
X188626977Y-100332364D01*
X188511020Y-100394344D01*
X188444040Y-100634435D01*
X189230000Y-101420395D01*
X190015960Y-100634435D01*
X189948980Y-100394344D01*
X189813240Y-100330515D01*
X189891727Y-100298005D01*
X190120535Y-100145120D01*
X190315120Y-99950535D01*
X190468005Y-99721727D01*
X190573314Y-99467490D01*
X190627000Y-99197592D01*
X190627000Y-98922408D01*
X190573314Y-98652510D01*
X190468005Y-98398273D01*
X190315120Y-98169465D01*
X190120535Y-97974880D01*
X189891727Y-97821995D01*
X189820057Y-97792308D01*
X189833023Y-97787636D01*
X189948980Y-97725656D01*
X190015960Y-97485565D01*
X189230000Y-96699605D01*
X188444040Y-97485565D01*
X188511020Y-97725656D01*
X188646760Y-97789485D01*
X188568273Y-97821995D01*
X188339465Y-97974880D01*
X188144880Y-98169465D01*
X187991995Y-98398273D01*
X187886686Y-98652510D01*
X187833000Y-98922408D01*
X183007000Y-98922408D01*
X182953314Y-98652510D01*
X182848005Y-98398273D01*
X182695120Y-98169465D01*
X182500535Y-97974880D01*
X182271727Y-97821995D01*
X182194485Y-97790000D01*
X182271727Y-97758005D01*
X182500535Y-97605120D01*
X182695120Y-97410535D01*
X182848005Y-97181727D01*
X182953314Y-96927490D01*
X183007000Y-96657592D01*
X183007000Y-96592017D01*
X187828090Y-96592017D01*
X187869078Y-96864133D01*
X187962364Y-97123023D01*
X188024344Y-97238980D01*
X188264435Y-97305960D01*
X189050395Y-96520000D01*
X189409605Y-96520000D01*
X190195565Y-97305960D01*
X190435656Y-97238980D01*
X190552756Y-96989952D01*
X190619023Y-96722865D01*
X190631910Y-96447983D01*
X190590922Y-96175867D01*
X190497636Y-95916977D01*
X190435656Y-95801020D01*
X190195565Y-95734040D01*
X189409605Y-96520000D01*
X189050395Y-96520000D01*
X188264435Y-95734040D01*
X188024344Y-95801020D01*
X187907244Y-96050048D01*
X187840977Y-96317135D01*
X187828090Y-96592017D01*
X183007000Y-96592017D01*
X183007000Y-96382408D01*
X182953314Y-96112510D01*
X182848005Y-95858273D01*
X182695120Y-95629465D01*
X182620090Y-95554435D01*
X188444040Y-95554435D01*
X189230000Y-96340395D01*
X190015960Y-95554435D01*
X189948980Y-95314344D01*
X189699952Y-95197244D01*
X189432865Y-95130977D01*
X189157983Y-95118090D01*
X188885867Y-95159078D01*
X188626977Y-95252364D01*
X188511020Y-95314344D01*
X188444040Y-95554435D01*
X182620090Y-95554435D01*
X182500535Y-95434880D01*
X182271727Y-95281995D01*
X182017490Y-95176686D01*
X181747592Y-95123000D01*
X181472408Y-95123000D01*
X181202510Y-95176686D01*
X180948273Y-95281995D01*
X180719465Y-95434880D01*
X180524880Y-95629465D01*
X180371995Y-95858273D01*
X180266686Y-96112510D01*
X180213000Y-96382408D01*
X180213000Y-96657592D01*
X180266686Y-96927490D01*
X180371995Y-97181727D01*
X180524880Y-97410535D01*
X180719465Y-97605120D01*
X180948273Y-97758005D01*
X181025515Y-97790000D01*
X180948273Y-97821995D01*
X180719465Y-97974880D01*
X180524880Y-98169465D01*
X180371995Y-98398273D01*
X180266686Y-98652510D01*
X180213000Y-98922408D01*
X180213000Y-99197592D01*
X180266686Y-99467490D01*
X180371995Y-99721727D01*
X180524880Y-99950535D01*
X180719465Y-100145120D01*
X180948273Y-100298005D01*
X181025515Y-100330000D01*
X180948273Y-100361995D01*
X180719465Y-100514880D01*
X180524880Y-100709465D01*
X180371995Y-100938273D01*
X180266686Y-101192510D01*
X180213000Y-101462408D01*
X180213000Y-101737592D01*
X180266686Y-102007490D01*
X180371995Y-102261727D01*
X180524880Y-102490535D01*
X180719465Y-102685120D01*
X180806088Y-102743000D01*
X174726460Y-102743000D01*
X174775960Y-102565565D01*
X173990000Y-101779605D01*
X173204040Y-102565565D01*
X173253540Y-102743000D01*
X167173912Y-102743000D01*
X167260535Y-102685120D01*
X167455120Y-102490535D01*
X167608005Y-102261727D01*
X167713314Y-102007490D01*
X167767000Y-101737592D01*
X167767000Y-101672017D01*
X172588090Y-101672017D01*
X172629078Y-101944133D01*
X172722364Y-102203023D01*
X172784344Y-102318980D01*
X173024435Y-102385960D01*
X173810395Y-101600000D01*
X174169605Y-101600000D01*
X174955565Y-102385960D01*
X175195656Y-102318980D01*
X175312756Y-102069952D01*
X175379023Y-101802865D01*
X175391910Y-101527983D01*
X175350922Y-101255867D01*
X175257636Y-100996977D01*
X175195656Y-100881020D01*
X174955565Y-100814040D01*
X174169605Y-101600000D01*
X173810395Y-101600000D01*
X173024435Y-100814040D01*
X172784344Y-100881020D01*
X172667244Y-101130048D01*
X172600977Y-101397135D01*
X172588090Y-101672017D01*
X167767000Y-101672017D01*
X167767000Y-101462408D01*
X167713314Y-101192510D01*
X167608005Y-100938273D01*
X167455120Y-100709465D01*
X167260535Y-100514880D01*
X167031727Y-100361995D01*
X166954485Y-100330000D01*
X167031727Y-100298005D01*
X167260535Y-100145120D01*
X167455120Y-99950535D01*
X167608005Y-99721727D01*
X167713314Y-99467490D01*
X167767000Y-99197592D01*
X167767000Y-98922408D01*
X172593000Y-98922408D01*
X172593000Y-99197592D01*
X172646686Y-99467490D01*
X172751995Y-99721727D01*
X172904880Y-99950535D01*
X173099465Y-100145120D01*
X173328273Y-100298005D01*
X173399943Y-100327692D01*
X173386977Y-100332364D01*
X173271020Y-100394344D01*
X173204040Y-100634435D01*
X173990000Y-101420395D01*
X174775960Y-100634435D01*
X174708980Y-100394344D01*
X174573240Y-100330515D01*
X174651727Y-100298005D01*
X174880535Y-100145120D01*
X175075120Y-99950535D01*
X175228005Y-99721727D01*
X175333314Y-99467490D01*
X175387000Y-99197592D01*
X175387000Y-98922408D01*
X175333314Y-98652510D01*
X175228005Y-98398273D01*
X175075120Y-98169465D01*
X174880535Y-97974880D01*
X174651727Y-97821995D01*
X174580057Y-97792308D01*
X174593023Y-97787636D01*
X174708980Y-97725656D01*
X174775960Y-97485565D01*
X173990000Y-96699605D01*
X173204040Y-97485565D01*
X173271020Y-97725656D01*
X173406760Y-97789485D01*
X173328273Y-97821995D01*
X173099465Y-97974880D01*
X172904880Y-98169465D01*
X172751995Y-98398273D01*
X172646686Y-98652510D01*
X172593000Y-98922408D01*
X167767000Y-98922408D01*
X167713314Y-98652510D01*
X167608005Y-98398273D01*
X167455120Y-98169465D01*
X167260535Y-97974880D01*
X167031727Y-97821995D01*
X166954485Y-97790000D01*
X167031727Y-97758005D01*
X167260535Y-97605120D01*
X167455120Y-97410535D01*
X167608005Y-97181727D01*
X167713314Y-96927490D01*
X167767000Y-96657592D01*
X167767000Y-96592017D01*
X172588090Y-96592017D01*
X172629078Y-96864133D01*
X172722364Y-97123023D01*
X172784344Y-97238980D01*
X173024435Y-97305960D01*
X173810395Y-96520000D01*
X174169605Y-96520000D01*
X174955565Y-97305960D01*
X175195656Y-97238980D01*
X175312756Y-96989952D01*
X175379023Y-96722865D01*
X175391910Y-96447983D01*
X175350922Y-96175867D01*
X175257636Y-95916977D01*
X175195656Y-95801020D01*
X174955565Y-95734040D01*
X174169605Y-96520000D01*
X173810395Y-96520000D01*
X173024435Y-95734040D01*
X172784344Y-95801020D01*
X172667244Y-96050048D01*
X172600977Y-96317135D01*
X172588090Y-96592017D01*
X167767000Y-96592017D01*
X167767000Y-96382408D01*
X167713314Y-96112510D01*
X167608005Y-95858273D01*
X167455120Y-95629465D01*
X167380090Y-95554435D01*
X173204040Y-95554435D01*
X173990000Y-96340395D01*
X174775960Y-95554435D01*
X174708980Y-95314344D01*
X174459952Y-95197244D01*
X174192865Y-95130977D01*
X173917983Y-95118090D01*
X173645867Y-95159078D01*
X173386977Y-95252364D01*
X173271020Y-95314344D01*
X173204040Y-95554435D01*
X167380090Y-95554435D01*
X167260535Y-95434880D01*
X167031727Y-95281995D01*
X166777490Y-95176686D01*
X166507592Y-95123000D01*
X166232408Y-95123000D01*
X165962510Y-95176686D01*
X165708273Y-95281995D01*
X165479465Y-95434880D01*
X165284880Y-95629465D01*
X165131995Y-95858273D01*
X165026686Y-96112510D01*
X164973000Y-96382408D01*
X164973000Y-96657592D01*
X165026686Y-96927490D01*
X165131995Y-97181727D01*
X165284880Y-97410535D01*
X165479465Y-97605120D01*
X165708273Y-97758005D01*
X165785515Y-97790000D01*
X165708273Y-97821995D01*
X165479465Y-97974880D01*
X165284880Y-98169465D01*
X165131995Y-98398273D01*
X165026686Y-98652510D01*
X164973000Y-98922408D01*
X164973000Y-99197592D01*
X165026686Y-99467490D01*
X165131995Y-99721727D01*
X165284880Y-99950535D01*
X165479465Y-100145120D01*
X165708273Y-100298005D01*
X165785515Y-100330000D01*
X165708273Y-100361995D01*
X165479465Y-100514880D01*
X165284880Y-100709465D01*
X165131995Y-100938273D01*
X165026686Y-101192510D01*
X164973000Y-101462408D01*
X164973000Y-101737592D01*
X165026686Y-102007490D01*
X165131995Y-102261727D01*
X165284880Y-102490535D01*
X165479465Y-102685120D01*
X165566088Y-102743000D01*
X156337000Y-102743000D01*
X156337000Y-99060000D01*
X156334560Y-99035224D01*
X156327333Y-99011399D01*
X156315597Y-98989443D01*
X156299803Y-98970197D01*
X156280557Y-98954403D01*
X156257167Y-98942083D01*
X149987000Y-96434016D01*
X149987000Y-93675565D01*
X151614040Y-93675565D01*
X151681020Y-93915656D01*
X151930048Y-94032756D01*
X152197135Y-94099023D01*
X152472017Y-94111910D01*
X152744133Y-94070922D01*
X153003023Y-93977636D01*
X153118980Y-93915656D01*
X153185960Y-93675565D01*
X152400000Y-92889605D01*
X151614040Y-93675565D01*
X149987000Y-93675565D01*
X149987000Y-92782017D01*
X150998090Y-92782017D01*
X151039078Y-93054133D01*
X151132364Y-93313023D01*
X151194344Y-93428980D01*
X151434435Y-93495960D01*
X152220395Y-92710000D01*
X152579605Y-92710000D01*
X153365565Y-93495960D01*
X153605656Y-93428980D01*
X153722756Y-93179952D01*
X153789023Y-92912865D01*
X153801910Y-92637983D01*
X153760922Y-92365867D01*
X153667636Y-92106977D01*
X153605656Y-91991020D01*
X153365565Y-91924040D01*
X152579605Y-92710000D01*
X152220395Y-92710000D01*
X151434435Y-91924040D01*
X151194344Y-91991020D01*
X151077244Y-92240048D01*
X151010977Y-92507135D01*
X150998090Y-92782017D01*
X149987000Y-92782017D01*
X149987000Y-89008578D01*
X151004299Y-90025878D01*
X151003000Y-90032408D01*
X151003000Y-90307592D01*
X151056686Y-90577490D01*
X151161995Y-90831727D01*
X151314880Y-91060535D01*
X151509465Y-91255120D01*
X151738273Y-91408005D01*
X151809943Y-91437692D01*
X151796977Y-91442364D01*
X151681020Y-91504344D01*
X151614040Y-91744435D01*
X152400000Y-92530395D01*
X153185960Y-91744435D01*
X153118980Y-91504344D01*
X152983240Y-91440515D01*
X153061727Y-91408005D01*
X153290535Y-91255120D01*
X153485120Y-91060535D01*
X153638005Y-90831727D01*
X153743314Y-90577490D01*
X153797000Y-90307592D01*
X153797000Y-90032408D01*
X190373000Y-90032408D01*
X190373000Y-90307592D01*
X190426686Y-90577490D01*
X190531995Y-90831727D01*
X190684880Y-91060535D01*
X190879465Y-91255120D01*
X191108273Y-91408005D01*
X191185515Y-91440000D01*
X191108273Y-91471995D01*
X190879465Y-91624880D01*
X190684880Y-91819465D01*
X190531995Y-92048273D01*
X190426686Y-92302510D01*
X190373000Y-92572408D01*
X190373000Y-92847592D01*
X190426686Y-93117490D01*
X190531995Y-93371727D01*
X190684880Y-93600535D01*
X190879465Y-93795120D01*
X191108273Y-93948005D01*
X191185515Y-93980000D01*
X191108273Y-94011995D01*
X190879465Y-94164880D01*
X190684880Y-94359465D01*
X190531995Y-94588273D01*
X190426686Y-94842510D01*
X190373000Y-95112408D01*
X190373000Y-95387592D01*
X190426686Y-95657490D01*
X190531995Y-95911727D01*
X190684880Y-96140535D01*
X190879465Y-96335120D01*
X191108273Y-96488005D01*
X191362510Y-96593314D01*
X191632408Y-96647000D01*
X191907592Y-96647000D01*
X192177490Y-96593314D01*
X192431727Y-96488005D01*
X192660535Y-96335120D01*
X192855120Y-96140535D01*
X193008005Y-95911727D01*
X193113314Y-95657490D01*
X193167000Y-95387592D01*
X193167000Y-95112408D01*
X193113314Y-94842510D01*
X193008005Y-94588273D01*
X192855120Y-94359465D01*
X192660535Y-94164880D01*
X192431727Y-94011995D01*
X192354485Y-93980000D01*
X192431727Y-93948005D01*
X192660535Y-93795120D01*
X192855120Y-93600535D01*
X193008005Y-93371727D01*
X193113314Y-93117490D01*
X193167000Y-92847592D01*
X193167000Y-92572408D01*
X197993000Y-92572408D01*
X197993000Y-92847592D01*
X198046686Y-93117490D01*
X198151995Y-93371727D01*
X198304880Y-93600535D01*
X198499465Y-93795120D01*
X198728273Y-93948005D01*
X198799943Y-93977692D01*
X198786977Y-93982364D01*
X198671020Y-94044344D01*
X198604040Y-94284435D01*
X199390000Y-95070395D01*
X200175960Y-94284435D01*
X200108980Y-94044344D01*
X199973240Y-93980515D01*
X200051727Y-93948005D01*
X200280535Y-93795120D01*
X200475120Y-93600535D01*
X200628005Y-93371727D01*
X200660000Y-93294485D01*
X200691995Y-93371727D01*
X200844880Y-93600535D01*
X201039465Y-93795120D01*
X201268273Y-93948005D01*
X201339943Y-93977692D01*
X201326977Y-93982364D01*
X201211020Y-94044344D01*
X201144040Y-94284435D01*
X201930000Y-95070395D01*
X202715960Y-94284435D01*
X202648980Y-94044344D01*
X202513240Y-93980515D01*
X202591727Y-93948005D01*
X202820535Y-93795120D01*
X203015120Y-93600535D01*
X203168005Y-93371727D01*
X203273314Y-93117490D01*
X203327000Y-92847592D01*
X203327000Y-92572408D01*
X203273314Y-92302510D01*
X203168005Y-92048273D01*
X203015120Y-91819465D01*
X202820535Y-91624880D01*
X202591727Y-91471995D01*
X202520057Y-91442308D01*
X202533023Y-91437636D01*
X202648980Y-91375656D01*
X202715960Y-91135565D01*
X201930000Y-90349605D01*
X201144040Y-91135565D01*
X201211020Y-91375656D01*
X201346760Y-91439485D01*
X201268273Y-91471995D01*
X201039465Y-91624880D01*
X200844880Y-91819465D01*
X200691995Y-92048273D01*
X200660000Y-92125515D01*
X200628005Y-92048273D01*
X200475120Y-91819465D01*
X200280535Y-91624880D01*
X200051727Y-91471995D01*
X199980057Y-91442308D01*
X199993023Y-91437636D01*
X200108980Y-91375656D01*
X200175960Y-91135565D01*
X199390000Y-90349605D01*
X198604040Y-91135565D01*
X198671020Y-91375656D01*
X198806760Y-91439485D01*
X198728273Y-91471995D01*
X198499465Y-91624880D01*
X198304880Y-91819465D01*
X198151995Y-92048273D01*
X198046686Y-92302510D01*
X197993000Y-92572408D01*
X193167000Y-92572408D01*
X193113314Y-92302510D01*
X193008005Y-92048273D01*
X192855120Y-91819465D01*
X192660535Y-91624880D01*
X192431727Y-91471995D01*
X192354485Y-91440000D01*
X192431727Y-91408005D01*
X192660535Y-91255120D01*
X192855120Y-91060535D01*
X193008005Y-90831727D01*
X193113314Y-90577490D01*
X193167000Y-90307592D01*
X193167000Y-90032408D01*
X193133813Y-89865565D01*
X196064040Y-89865565D01*
X196131020Y-90105656D01*
X196380048Y-90222756D01*
X196647135Y-90289023D01*
X196922017Y-90301910D01*
X197194133Y-90260922D01*
X197246598Y-90242017D01*
X197988090Y-90242017D01*
X198029078Y-90514133D01*
X198122364Y-90773023D01*
X198184344Y-90888980D01*
X198424435Y-90955960D01*
X199210395Y-90170000D01*
X199569605Y-90170000D01*
X200355565Y-90955960D01*
X200595656Y-90888980D01*
X200657079Y-90758356D01*
X200662364Y-90773023D01*
X200724344Y-90888980D01*
X200964435Y-90955960D01*
X201750395Y-90170000D01*
X202109605Y-90170000D01*
X202895565Y-90955960D01*
X203135656Y-90888980D01*
X203252756Y-90639952D01*
X203319023Y-90372865D01*
X203331910Y-90097983D01*
X203290922Y-89825867D01*
X203197636Y-89566977D01*
X203135656Y-89451020D01*
X202895565Y-89384040D01*
X202109605Y-90170000D01*
X201750395Y-90170000D01*
X200964435Y-89384040D01*
X200724344Y-89451020D01*
X200662921Y-89581644D01*
X200657636Y-89566977D01*
X200595656Y-89451020D01*
X200355565Y-89384040D01*
X199569605Y-90170000D01*
X199210395Y-90170000D01*
X198424435Y-89384040D01*
X198184344Y-89451020D01*
X198067244Y-89700048D01*
X198000977Y-89967135D01*
X197988090Y-90242017D01*
X197246598Y-90242017D01*
X197453023Y-90167636D01*
X197568980Y-90105656D01*
X197635960Y-89865565D01*
X196850000Y-89079605D01*
X196064040Y-89865565D01*
X193133813Y-89865565D01*
X193113314Y-89762510D01*
X193008005Y-89508273D01*
X192855120Y-89279465D01*
X192660535Y-89084880D01*
X192491625Y-88972017D01*
X195448090Y-88972017D01*
X195489078Y-89244133D01*
X195582364Y-89503023D01*
X195644344Y-89618980D01*
X195884435Y-89685960D01*
X196670395Y-88900000D01*
X197029605Y-88900000D01*
X197815565Y-89685960D01*
X198055656Y-89618980D01*
X198172756Y-89369952D01*
X198213822Y-89204435D01*
X198604040Y-89204435D01*
X199390000Y-89990395D01*
X200175960Y-89204435D01*
X201144040Y-89204435D01*
X201930000Y-89990395D01*
X202715960Y-89204435D01*
X202648980Y-88964344D01*
X202399952Y-88847244D01*
X202132865Y-88780977D01*
X201857983Y-88768090D01*
X201585867Y-88809078D01*
X201326977Y-88902364D01*
X201211020Y-88964344D01*
X201144040Y-89204435D01*
X200175960Y-89204435D01*
X200108980Y-88964344D01*
X199859952Y-88847244D01*
X199592865Y-88780977D01*
X199317983Y-88768090D01*
X199045867Y-88809078D01*
X198786977Y-88902364D01*
X198671020Y-88964344D01*
X198604040Y-89204435D01*
X198213822Y-89204435D01*
X198239023Y-89102865D01*
X198251910Y-88827983D01*
X198210922Y-88555867D01*
X198117636Y-88296977D01*
X198055656Y-88181020D01*
X197815565Y-88114040D01*
X197029605Y-88900000D01*
X196670395Y-88900000D01*
X195884435Y-88114040D01*
X195644344Y-88181020D01*
X195527244Y-88430048D01*
X195460977Y-88697135D01*
X195448090Y-88972017D01*
X192491625Y-88972017D01*
X192431727Y-88931995D01*
X192177490Y-88826686D01*
X191907592Y-88773000D01*
X191632408Y-88773000D01*
X191362510Y-88826686D01*
X191108273Y-88931995D01*
X190879465Y-89084880D01*
X190684880Y-89279465D01*
X190531995Y-89508273D01*
X190426686Y-89762510D01*
X190373000Y-90032408D01*
X153797000Y-90032408D01*
X153743314Y-89762510D01*
X153638005Y-89508273D01*
X153485120Y-89279465D01*
X153290535Y-89084880D01*
X153061727Y-88931995D01*
X152984485Y-88900000D01*
X153061727Y-88868005D01*
X153290535Y-88715120D01*
X153485120Y-88520535D01*
X153488818Y-88515000D01*
X156166531Y-88515000D01*
X156210000Y-88519281D01*
X156253469Y-88515000D01*
X156253477Y-88515000D01*
X156383490Y-88502195D01*
X156550313Y-88451589D01*
X156704059Y-88369411D01*
X156838817Y-88258817D01*
X156866534Y-88225044D01*
X157496579Y-87595000D01*
X157601637Y-87595000D01*
X157840236Y-87547540D01*
X158064992Y-87454443D01*
X158267267Y-87319287D01*
X158439287Y-87147267D01*
X158574443Y-86944992D01*
X158667540Y-86720236D01*
X158715000Y-86481637D01*
X158715000Y-86238363D01*
X158711827Y-86222408D01*
X195453000Y-86222408D01*
X195453000Y-86497592D01*
X195506686Y-86767490D01*
X195611995Y-87021727D01*
X195764880Y-87250535D01*
X195959465Y-87445120D01*
X196188273Y-87598005D01*
X196259943Y-87627692D01*
X196246977Y-87632364D01*
X196131020Y-87694344D01*
X196064040Y-87934435D01*
X196850000Y-88720395D01*
X197635960Y-87934435D01*
X197568980Y-87694344D01*
X197433240Y-87630515D01*
X197511727Y-87598005D01*
X197740535Y-87445120D01*
X197935120Y-87250535D01*
X198088005Y-87021727D01*
X198193314Y-86767490D01*
X198247000Y-86497592D01*
X198247000Y-86222408D01*
X198193314Y-85952510D01*
X198088005Y-85698273D01*
X197935120Y-85469465D01*
X197740535Y-85274880D01*
X197511727Y-85121995D01*
X197440057Y-85092308D01*
X197453023Y-85087636D01*
X197568980Y-85025656D01*
X197635960Y-84785565D01*
X196850000Y-83999605D01*
X196064040Y-84785565D01*
X196131020Y-85025656D01*
X196266760Y-85089485D01*
X196188273Y-85121995D01*
X195959465Y-85274880D01*
X195764880Y-85469465D01*
X195611995Y-85698273D01*
X195506686Y-85952510D01*
X195453000Y-86222408D01*
X158711827Y-86222408D01*
X158667540Y-85999764D01*
X158574443Y-85775008D01*
X158439287Y-85572733D01*
X158267267Y-85400713D01*
X158064992Y-85265557D01*
X157840236Y-85172460D01*
X157601637Y-85125000D01*
X157358363Y-85125000D01*
X157119764Y-85172460D01*
X156895008Y-85265557D01*
X156692733Y-85400713D01*
X156520713Y-85572733D01*
X156385557Y-85775008D01*
X156292460Y-85999764D01*
X156245000Y-86238363D01*
X156245000Y-86343421D01*
X155843422Y-86745000D01*
X153488818Y-86745000D01*
X153485120Y-86739465D01*
X153290535Y-86544880D01*
X153061727Y-86391995D01*
X152984485Y-86360000D01*
X153061727Y-86328005D01*
X153290535Y-86175120D01*
X153485120Y-85980535D01*
X153638005Y-85751727D01*
X153743314Y-85497490D01*
X153797000Y-85227592D01*
X153797000Y-84952408D01*
X153795701Y-84945878D01*
X154036579Y-84705000D01*
X155348446Y-84705000D01*
X155422733Y-84779287D01*
X155625008Y-84914443D01*
X155849764Y-85007540D01*
X156088363Y-85055000D01*
X156331637Y-85055000D01*
X156570236Y-85007540D01*
X156794992Y-84914443D01*
X156997267Y-84779287D01*
X157169287Y-84607267D01*
X157304443Y-84404992D01*
X157397540Y-84180236D01*
X157445000Y-83941637D01*
X157445000Y-83892017D01*
X195448090Y-83892017D01*
X195489078Y-84164133D01*
X195582364Y-84423023D01*
X195644344Y-84538980D01*
X195884435Y-84605960D01*
X196670395Y-83820000D01*
X197029605Y-83820000D01*
X197815565Y-84605960D01*
X198055656Y-84538980D01*
X198172756Y-84289952D01*
X198239023Y-84022865D01*
X198251910Y-83747983D01*
X198242033Y-83682408D01*
X203073000Y-83682408D01*
X203073000Y-83957592D01*
X203126686Y-84227490D01*
X203231995Y-84481727D01*
X203384880Y-84710535D01*
X203579465Y-84905120D01*
X203808273Y-85058005D01*
X203885515Y-85090000D01*
X203808273Y-85121995D01*
X203579465Y-85274880D01*
X203384880Y-85469465D01*
X203231995Y-85698273D01*
X203126686Y-85952510D01*
X203073000Y-86222408D01*
X203073000Y-86497592D01*
X203126686Y-86767490D01*
X203231995Y-87021727D01*
X203384880Y-87250535D01*
X203579465Y-87445120D01*
X203808273Y-87598005D01*
X203885515Y-87630000D01*
X203808273Y-87661995D01*
X203579465Y-87814880D01*
X203384880Y-88009465D01*
X203231995Y-88238273D01*
X203126686Y-88492510D01*
X203073000Y-88762408D01*
X203073000Y-89037592D01*
X203126686Y-89307490D01*
X203231995Y-89561727D01*
X203384880Y-89790535D01*
X203579465Y-89985120D01*
X203808273Y-90138005D01*
X204062510Y-90243314D01*
X204332408Y-90297000D01*
X204607592Y-90297000D01*
X204877490Y-90243314D01*
X205131727Y-90138005D01*
X205289763Y-90032408D01*
X208153000Y-90032408D01*
X208153000Y-90307592D01*
X208206686Y-90577490D01*
X208311995Y-90831727D01*
X208464880Y-91060535D01*
X208659465Y-91255120D01*
X208888273Y-91408005D01*
X208965515Y-91440000D01*
X208888273Y-91471995D01*
X208659465Y-91624880D01*
X208464880Y-91819465D01*
X208311995Y-92048273D01*
X208206686Y-92302510D01*
X208153000Y-92572408D01*
X208153000Y-92847592D01*
X208206686Y-93117490D01*
X208311995Y-93371727D01*
X208464880Y-93600535D01*
X208659465Y-93795120D01*
X208888273Y-93948005D01*
X208965515Y-93980000D01*
X208888273Y-94011995D01*
X208659465Y-94164880D01*
X208464880Y-94359465D01*
X208311995Y-94588273D01*
X208206686Y-94842510D01*
X208153000Y-95112408D01*
X208153000Y-95387592D01*
X208206686Y-95657490D01*
X208311995Y-95911727D01*
X208464880Y-96140535D01*
X208659465Y-96335120D01*
X208888273Y-96488005D01*
X209142510Y-96593314D01*
X209412408Y-96647000D01*
X209687592Y-96647000D01*
X209957490Y-96593314D01*
X210211727Y-96488005D01*
X210440535Y-96335120D01*
X210635120Y-96140535D01*
X210788005Y-95911727D01*
X210893314Y-95657490D01*
X210947000Y-95387592D01*
X210947000Y-95112408D01*
X210893314Y-94842510D01*
X210788005Y-94588273D01*
X210635120Y-94359465D01*
X210440535Y-94164880D01*
X210211727Y-94011995D01*
X210134485Y-93980000D01*
X210211727Y-93948005D01*
X210440535Y-93795120D01*
X210635120Y-93600535D01*
X210788005Y-93371727D01*
X210893314Y-93117490D01*
X210947000Y-92847592D01*
X210947000Y-92572408D01*
X210893314Y-92302510D01*
X210788005Y-92048273D01*
X210635120Y-91819465D01*
X210440535Y-91624880D01*
X210211727Y-91471995D01*
X210134485Y-91440000D01*
X210211727Y-91408005D01*
X210440535Y-91255120D01*
X210635120Y-91060535D01*
X210788005Y-90831727D01*
X210893314Y-90577490D01*
X210947000Y-90307592D01*
X210947000Y-90032408D01*
X210893314Y-89762510D01*
X210788005Y-89508273D01*
X210635120Y-89279465D01*
X210440535Y-89084880D01*
X210211727Y-88931995D01*
X209957490Y-88826686D01*
X209687592Y-88773000D01*
X209412408Y-88773000D01*
X209142510Y-88826686D01*
X208888273Y-88931995D01*
X208659465Y-89084880D01*
X208464880Y-89279465D01*
X208311995Y-89508273D01*
X208206686Y-89762510D01*
X208153000Y-90032408D01*
X205289763Y-90032408D01*
X205360535Y-89985120D01*
X205555120Y-89790535D01*
X205708005Y-89561727D01*
X205813314Y-89307490D01*
X205867000Y-89037592D01*
X205867000Y-88762408D01*
X205813314Y-88492510D01*
X205708005Y-88238273D01*
X205555120Y-88009465D01*
X205360535Y-87814880D01*
X205131727Y-87661995D01*
X205054485Y-87630000D01*
X205131727Y-87598005D01*
X205360535Y-87445120D01*
X205555120Y-87250535D01*
X205708005Y-87021727D01*
X205813314Y-86767490D01*
X205867000Y-86497592D01*
X205867000Y-86222408D01*
X205813314Y-85952510D01*
X205708005Y-85698273D01*
X205555120Y-85469465D01*
X205360535Y-85274880D01*
X205131727Y-85121995D01*
X205054485Y-85090000D01*
X205131727Y-85058005D01*
X205360535Y-84905120D01*
X205555120Y-84710535D01*
X205708005Y-84481727D01*
X205813314Y-84227490D01*
X205867000Y-83957592D01*
X205867000Y-83682408D01*
X205813314Y-83412510D01*
X205708005Y-83158273D01*
X205555120Y-82929465D01*
X205360535Y-82734880D01*
X205131727Y-82581995D01*
X204877490Y-82476686D01*
X204607592Y-82423000D01*
X204332408Y-82423000D01*
X204062510Y-82476686D01*
X203808273Y-82581995D01*
X203579465Y-82734880D01*
X203384880Y-82929465D01*
X203231995Y-83158273D01*
X203126686Y-83412510D01*
X203073000Y-83682408D01*
X198242033Y-83682408D01*
X198210922Y-83475867D01*
X198117636Y-83216977D01*
X198055656Y-83101020D01*
X197815565Y-83034040D01*
X197029605Y-83820000D01*
X196670395Y-83820000D01*
X195884435Y-83034040D01*
X195644344Y-83101020D01*
X195527244Y-83350048D01*
X195460977Y-83617135D01*
X195448090Y-83892017D01*
X157445000Y-83892017D01*
X157445000Y-83698363D01*
X157397540Y-83459764D01*
X157304443Y-83235008D01*
X157169287Y-83032733D01*
X156997267Y-82860713D01*
X156987872Y-82854435D01*
X196064040Y-82854435D01*
X196850000Y-83640395D01*
X197635960Y-82854435D01*
X197568980Y-82614344D01*
X197319952Y-82497244D01*
X197052865Y-82430977D01*
X196777983Y-82418090D01*
X196505867Y-82459078D01*
X196246977Y-82552364D01*
X196131020Y-82614344D01*
X196064040Y-82854435D01*
X156987872Y-82854435D01*
X156794992Y-82725557D01*
X156570236Y-82632460D01*
X156331637Y-82585000D01*
X156088363Y-82585000D01*
X155849764Y-82632460D01*
X155625008Y-82725557D01*
X155422733Y-82860713D01*
X155348446Y-82935000D01*
X153713465Y-82935000D01*
X153669999Y-82930719D01*
X153626533Y-82935000D01*
X153626523Y-82935000D01*
X153496510Y-82947805D01*
X153329687Y-82998411D01*
X153175941Y-83080589D01*
X153175939Y-83080590D01*
X153175940Y-83080590D01*
X153074953Y-83163468D01*
X153074951Y-83163470D01*
X153041183Y-83191183D01*
X153013470Y-83224951D01*
X152544122Y-83694299D01*
X152537592Y-83693000D01*
X152262408Y-83693000D01*
X151992510Y-83746686D01*
X151738273Y-83851995D01*
X151509465Y-84004880D01*
X151314880Y-84199465D01*
X151161995Y-84428273D01*
X151056686Y-84682510D01*
X151003000Y-84952408D01*
X151003000Y-85227592D01*
X151056686Y-85497490D01*
X151161995Y-85751727D01*
X151314880Y-85980535D01*
X151509465Y-86175120D01*
X151738273Y-86328005D01*
X151815515Y-86360000D01*
X151738273Y-86391995D01*
X151509465Y-86544880D01*
X151314880Y-86739465D01*
X151161995Y-86968273D01*
X151056686Y-87222510D01*
X151047369Y-87269351D01*
X150954443Y-87045008D01*
X150819287Y-86842733D01*
X150647267Y-86670713D01*
X150444992Y-86535557D01*
X150220236Y-86442460D01*
X149981637Y-86395000D01*
X149738363Y-86395000D01*
X149499764Y-86442460D01*
X149275008Y-86535557D01*
X149186100Y-86594963D01*
X149186100Y-84673506D01*
X151198604Y-82661002D01*
X154980161Y-81400483D01*
X155002894Y-81390333D01*
X155023211Y-81375943D01*
X155040329Y-81357866D01*
X155053592Y-81336796D01*
X155062490Y-81313544D01*
X155067000Y-81280000D01*
X155067000Y-76327000D01*
X155677040Y-76327000D01*
X155597931Y-76423394D01*
X155597931Y-76423394D01*
G37*
X155597931Y-76423394D02*
X155458775Y-76683736D01*
X155373084Y-76966223D01*
X155344149Y-77260000D01*
X155373084Y-77553777D01*
X155458775Y-77836264D01*
X155597931Y-78096606D01*
X155785203Y-78324797D01*
X155793265Y-78331414D01*
X155742220Y-78346898D01*
X155631906Y-78405863D01*
X155535215Y-78485215D01*
X155455863Y-78581906D01*
X155396898Y-78692220D01*
X155360588Y-78811918D01*
X155348328Y-78936400D01*
X155348328Y-80663600D01*
X155360588Y-80788082D01*
X155396898Y-80907780D01*
X155455863Y-81018094D01*
X155535215Y-81114785D01*
X155631906Y-81194137D01*
X155742220Y-81253102D01*
X155861918Y-81289412D01*
X155986400Y-81301672D01*
X157713600Y-81301672D01*
X157838082Y-81289412D01*
X157957780Y-81253102D01*
X158068094Y-81194137D01*
X158164785Y-81114785D01*
X158244137Y-81018094D01*
X158303102Y-80907780D01*
X158318586Y-80856735D01*
X158325203Y-80864797D01*
X158553394Y-81052069D01*
X158813736Y-81191225D01*
X159096223Y-81276916D01*
X159316381Y-81298600D01*
X159463619Y-81298600D01*
X159683777Y-81276916D01*
X159966264Y-81191225D01*
X160226606Y-81052069D01*
X160454797Y-80864797D01*
X160642069Y-80636606D01*
X160660000Y-80603060D01*
X160677931Y-80636606D01*
X160865203Y-80864797D01*
X161093394Y-81052069D01*
X161353736Y-81191225D01*
X161636223Y-81276916D01*
X161856381Y-81298600D01*
X162003619Y-81298600D01*
X162223777Y-81276916D01*
X162506264Y-81191225D01*
X162766606Y-81052069D01*
X162994797Y-80864797D01*
X163182069Y-80636606D01*
X163200000Y-80603060D01*
X163217931Y-80636606D01*
X163405203Y-80864797D01*
X163633394Y-81052069D01*
X163893736Y-81191225D01*
X164176223Y-81276916D01*
X164396381Y-81298600D01*
X164543619Y-81298600D01*
X164763777Y-81276916D01*
X165046264Y-81191225D01*
X165306606Y-81052069D01*
X165534797Y-80864797D01*
X165722069Y-80636606D01*
X165745863Y-80592090D01*
X165803183Y-80688488D01*
X165999707Y-80906854D01*
X166235056Y-81082684D01*
X166500186Y-81209222D01*
X166650974Y-81254958D01*
X166883000Y-81133817D01*
X166883000Y-79927000D01*
X166863000Y-79927000D01*
X166863000Y-79673000D01*
X166883000Y-79673000D01*
X166883000Y-79653000D01*
X167137000Y-79653000D01*
X167137000Y-79673000D01*
X167157000Y-79673000D01*
X167157000Y-79927000D01*
X167137000Y-79927000D01*
X167137000Y-81133817D01*
X167369026Y-81254958D01*
X167519814Y-81209222D01*
X167784944Y-81082684D01*
X168020293Y-80906854D01*
X168216817Y-80688488D01*
X168274137Y-80592090D01*
X168297931Y-80636606D01*
X168485203Y-80864797D01*
X168713394Y-81052069D01*
X168973736Y-81191225D01*
X169256223Y-81276916D01*
X169476381Y-81298600D01*
X169623619Y-81298600D01*
X169843777Y-81276916D01*
X170126264Y-81191225D01*
X170386606Y-81052069D01*
X170614797Y-80864797D01*
X170802069Y-80636606D01*
X170820000Y-80603060D01*
X170837931Y-80636606D01*
X171025203Y-80864797D01*
X171253394Y-81052069D01*
X171513736Y-81191225D01*
X171796223Y-81276916D01*
X172016381Y-81298600D01*
X172163619Y-81298600D01*
X172383777Y-81276916D01*
X172666264Y-81191225D01*
X172926606Y-81052069D01*
X173154797Y-80864797D01*
X173342069Y-80636606D01*
X173360000Y-80603060D01*
X173377931Y-80636606D01*
X173565203Y-80864797D01*
X173793394Y-81052069D01*
X174053736Y-81191225D01*
X174336223Y-81276916D01*
X174556381Y-81298600D01*
X174703619Y-81298600D01*
X174923777Y-81276916D01*
X175206264Y-81191225D01*
X175466606Y-81052069D01*
X175694797Y-80864797D01*
X175882069Y-80636606D01*
X175900000Y-80603060D01*
X175917931Y-80636606D01*
X176105203Y-80864797D01*
X176333394Y-81052069D01*
X176593736Y-81191225D01*
X176876223Y-81276916D01*
X177096381Y-81298600D01*
X177243619Y-81298600D01*
X177463777Y-81276916D01*
X177746264Y-81191225D01*
X178006606Y-81052069D01*
X178234797Y-80864797D01*
X178422069Y-80636606D01*
X178440000Y-80603060D01*
X178457931Y-80636606D01*
X178645203Y-80864797D01*
X178873394Y-81052069D01*
X179133736Y-81191225D01*
X179416223Y-81276916D01*
X179636381Y-81298600D01*
X179783619Y-81298600D01*
X180003777Y-81276916D01*
X180286264Y-81191225D01*
X180546606Y-81052069D01*
X180774797Y-80864797D01*
X180962069Y-80636606D01*
X180980000Y-80603060D01*
X180997931Y-80636606D01*
X181185203Y-80864797D01*
X181413394Y-81052069D01*
X181673736Y-81191225D01*
X181956223Y-81276916D01*
X182176381Y-81298600D01*
X182323619Y-81298600D01*
X182543777Y-81276916D01*
X182826264Y-81191225D01*
X183086606Y-81052069D01*
X183314797Y-80864797D01*
X183502069Y-80636606D01*
X183520000Y-80603060D01*
X183537931Y-80636606D01*
X183725203Y-80864797D01*
X183953394Y-81052069D01*
X184213736Y-81191225D01*
X184496223Y-81276916D01*
X184716381Y-81298600D01*
X184863619Y-81298600D01*
X185083777Y-81276916D01*
X185366264Y-81191225D01*
X185626606Y-81052069D01*
X185854797Y-80864797D01*
X186042069Y-80636606D01*
X186065863Y-80592090D01*
X186123183Y-80688488D01*
X186319707Y-80906854D01*
X186555056Y-81082684D01*
X186820186Y-81209222D01*
X186970974Y-81254958D01*
X187203000Y-81133817D01*
X187203000Y-79927000D01*
X187183000Y-79927000D01*
X187183000Y-79673000D01*
X187203000Y-79673000D01*
X187203000Y-79653000D01*
X187457000Y-79653000D01*
X187457000Y-79673000D01*
X187477000Y-79673000D01*
X187477000Y-79927000D01*
X187457000Y-79927000D01*
X187457000Y-81133817D01*
X187689026Y-81254958D01*
X187839814Y-81209222D01*
X188104944Y-81082684D01*
X188340293Y-80906854D01*
X188536817Y-80688488D01*
X188594137Y-80592090D01*
X188617931Y-80636606D01*
X188805203Y-80864797D01*
X189033394Y-81052069D01*
X189293736Y-81191225D01*
X189576223Y-81276916D01*
X189796381Y-81298600D01*
X189943619Y-81298600D01*
X190163777Y-81276916D01*
X190446264Y-81191225D01*
X190706606Y-81052069D01*
X190934797Y-80864797D01*
X191122069Y-80636606D01*
X191140000Y-80603060D01*
X191157931Y-80636606D01*
X191345203Y-80864797D01*
X191573394Y-81052069D01*
X191833736Y-81191225D01*
X192116223Y-81276916D01*
X192336381Y-81298600D01*
X192483619Y-81298600D01*
X192703777Y-81276916D01*
X192986264Y-81191225D01*
X193246606Y-81052069D01*
X193474797Y-80864797D01*
X193662069Y-80636606D01*
X193680000Y-80603060D01*
X193697931Y-80636606D01*
X193885203Y-80864797D01*
X194113394Y-81052069D01*
X194373736Y-81191225D01*
X194656223Y-81276916D01*
X194876381Y-81298600D01*
X195023619Y-81298600D01*
X195243777Y-81276916D01*
X195526264Y-81191225D01*
X195786606Y-81052069D01*
X196014797Y-80864797D01*
X196202069Y-80636606D01*
X196220000Y-80603060D01*
X196237931Y-80636606D01*
X196425203Y-80864797D01*
X196653394Y-81052069D01*
X196913736Y-81191225D01*
X197196223Y-81276916D01*
X197416381Y-81298600D01*
X197563619Y-81298600D01*
X197783777Y-81276916D01*
X198066264Y-81191225D01*
X198326606Y-81052069D01*
X198554797Y-80864797D01*
X198742069Y-80636606D01*
X198760000Y-80603060D01*
X198777931Y-80636606D01*
X198965203Y-80864797D01*
X199193394Y-81052069D01*
X199453736Y-81191225D01*
X199736223Y-81276916D01*
X199956381Y-81298600D01*
X200103619Y-81298600D01*
X200323777Y-81276916D01*
X200606264Y-81191225D01*
X200866606Y-81052069D01*
X201094797Y-80864797D01*
X201282069Y-80636606D01*
X201300000Y-80603060D01*
X201317931Y-80636606D01*
X201505203Y-80864797D01*
X201733394Y-81052069D01*
X201993736Y-81191225D01*
X202276223Y-81276916D01*
X202496381Y-81298600D01*
X202643619Y-81298600D01*
X202863777Y-81276916D01*
X203146264Y-81191225D01*
X203406606Y-81052069D01*
X203634797Y-80864797D01*
X203822069Y-80636606D01*
X203845863Y-80592090D01*
X203903183Y-80688488D01*
X204099707Y-80906854D01*
X204335056Y-81082684D01*
X204600186Y-81209222D01*
X204750974Y-81254958D01*
X204983000Y-81133817D01*
X204983000Y-79927000D01*
X205237000Y-79927000D01*
X205237000Y-81133817D01*
X205469026Y-81254958D01*
X205619814Y-81209222D01*
X205884944Y-81082684D01*
X206120293Y-80906854D01*
X206316817Y-80688488D01*
X206466964Y-80435978D01*
X206564963Y-80159027D01*
X206444464Y-79927000D01*
X205237000Y-79927000D01*
X204983000Y-79927000D01*
X204963000Y-79927000D01*
X204963000Y-79673000D01*
X204983000Y-79673000D01*
X204983000Y-79653000D01*
X205237000Y-79653000D01*
X205237000Y-79673000D01*
X206444464Y-79673000D01*
X206564963Y-79440973D01*
X206466964Y-79164022D01*
X206316817Y-78911512D01*
X206120293Y-78693146D01*
X205906567Y-78533470D01*
X205946606Y-78512069D01*
X206174797Y-78324797D01*
X206362069Y-78096606D01*
X206501225Y-77836264D01*
X206586916Y-77553777D01*
X206615851Y-77260000D01*
X206586916Y-76966223D01*
X206501225Y-76683736D01*
X206362069Y-76423394D01*
X206282960Y-76327000D01*
X206883000Y-76327000D01*
X206883000Y-81280000D01*
X206885440Y-81304776D01*
X206892667Y-81328601D01*
X206904403Y-81350557D01*
X206920197Y-81369803D01*
X206939443Y-81385597D01*
X206961399Y-81397333D01*
X206979198Y-81403208D01*
X211963000Y-82649159D01*
X211963000Y-96420842D01*
X206979198Y-97666792D01*
X206955753Y-97675168D01*
X206934393Y-97687958D01*
X206915938Y-97704669D01*
X206901098Y-97724659D01*
X206890444Y-97747160D01*
X206884383Y-97771308D01*
X206883000Y-97790000D01*
X206883000Y-102743000D01*
X205206460Y-102743000D01*
X205255960Y-102565565D01*
X204470000Y-101779605D01*
X203684040Y-102565565D01*
X203733540Y-102743000D01*
X197653912Y-102743000D01*
X197740535Y-102685120D01*
X197935120Y-102490535D01*
X198088005Y-102261727D01*
X198193314Y-102007490D01*
X198247000Y-101737592D01*
X198247000Y-101672017D01*
X203068090Y-101672017D01*
X203109078Y-101944133D01*
X203202364Y-102203023D01*
X203264344Y-102318980D01*
X203504435Y-102385960D01*
X204290395Y-101600000D01*
X204649605Y-101600000D01*
X205435565Y-102385960D01*
X205675656Y-102318980D01*
X205792756Y-102069952D01*
X205859023Y-101802865D01*
X205871910Y-101527983D01*
X205830922Y-101255867D01*
X205737636Y-100996977D01*
X205675656Y-100881020D01*
X205435565Y-100814040D01*
X204649605Y-101600000D01*
X204290395Y-101600000D01*
X203504435Y-100814040D01*
X203264344Y-100881020D01*
X203147244Y-101130048D01*
X203080977Y-101397135D01*
X203068090Y-101672017D01*
X198247000Y-101672017D01*
X198247000Y-101462408D01*
X198193314Y-101192510D01*
X198088005Y-100938273D01*
X197935120Y-100709465D01*
X197740535Y-100514880D01*
X197511727Y-100361995D01*
X197434485Y-100330000D01*
X197511727Y-100298005D01*
X197740535Y-100145120D01*
X197935120Y-99950535D01*
X198088005Y-99721727D01*
X198193314Y-99467490D01*
X198247000Y-99197592D01*
X198247000Y-98922408D01*
X203073000Y-98922408D01*
X203073000Y-99197592D01*
X203126686Y-99467490D01*
X203231995Y-99721727D01*
X203384880Y-99950535D01*
X203579465Y-100145120D01*
X203808273Y-100298005D01*
X203879943Y-100327692D01*
X203866977Y-100332364D01*
X203751020Y-100394344D01*
X203684040Y-100634435D01*
X204470000Y-101420395D01*
X205255960Y-100634435D01*
X205188980Y-100394344D01*
X205053240Y-100330515D01*
X205131727Y-100298005D01*
X205360535Y-100145120D01*
X205555120Y-99950535D01*
X205708005Y-99721727D01*
X205813314Y-99467490D01*
X205867000Y-99197592D01*
X205867000Y-98922408D01*
X205813314Y-98652510D01*
X205708005Y-98398273D01*
X205555120Y-98169465D01*
X205360535Y-97974880D01*
X205131727Y-97821995D01*
X205060057Y-97792308D01*
X205073023Y-97787636D01*
X205188980Y-97725656D01*
X205255960Y-97485565D01*
X204470000Y-96699605D01*
X203684040Y-97485565D01*
X203751020Y-97725656D01*
X203886760Y-97789485D01*
X203808273Y-97821995D01*
X203579465Y-97974880D01*
X203384880Y-98169465D01*
X203231995Y-98398273D01*
X203126686Y-98652510D01*
X203073000Y-98922408D01*
X198247000Y-98922408D01*
X198193314Y-98652510D01*
X198088005Y-98398273D01*
X197935120Y-98169465D01*
X197740535Y-97974880D01*
X197511727Y-97821995D01*
X197434485Y-97790000D01*
X197511727Y-97758005D01*
X197740535Y-97605120D01*
X197935120Y-97410535D01*
X198088005Y-97181727D01*
X198193314Y-96927490D01*
X198247000Y-96657592D01*
X198247000Y-96382408D01*
X198213813Y-96215565D01*
X198604040Y-96215565D01*
X198671020Y-96455656D01*
X198920048Y-96572756D01*
X199187135Y-96639023D01*
X199462017Y-96651910D01*
X199734133Y-96610922D01*
X199993023Y-96517636D01*
X200108980Y-96455656D01*
X200175960Y-96215565D01*
X201144040Y-96215565D01*
X201211020Y-96455656D01*
X201460048Y-96572756D01*
X201727135Y-96639023D01*
X202002017Y-96651910D01*
X202274133Y-96610922D01*
X202326598Y-96592017D01*
X203068090Y-96592017D01*
X203109078Y-96864133D01*
X203202364Y-97123023D01*
X203264344Y-97238980D01*
X203504435Y-97305960D01*
X204290395Y-96520000D01*
X204649605Y-96520000D01*
X205435565Y-97305960D01*
X205675656Y-97238980D01*
X205792756Y-96989952D01*
X205859023Y-96722865D01*
X205871910Y-96447983D01*
X205830922Y-96175867D01*
X205737636Y-95916977D01*
X205675656Y-95801020D01*
X205435565Y-95734040D01*
X204649605Y-96520000D01*
X204290395Y-96520000D01*
X203504435Y-95734040D01*
X203264344Y-95801020D01*
X203147244Y-96050048D01*
X203080977Y-96317135D01*
X203068090Y-96592017D01*
X202326598Y-96592017D01*
X202533023Y-96517636D01*
X202648980Y-96455656D01*
X202715960Y-96215565D01*
X201930000Y-95429605D01*
X201144040Y-96215565D01*
X200175960Y-96215565D01*
X199390000Y-95429605D01*
X198604040Y-96215565D01*
X198213813Y-96215565D01*
X198193314Y-96112510D01*
X198088005Y-95858273D01*
X197935120Y-95629465D01*
X197740535Y-95434880D01*
X197571625Y-95322017D01*
X197988090Y-95322017D01*
X198029078Y-95594133D01*
X198122364Y-95853023D01*
X198184344Y-95968980D01*
X198424435Y-96035960D01*
X199210395Y-95250000D01*
X199569605Y-95250000D01*
X200355565Y-96035960D01*
X200595656Y-95968980D01*
X200657079Y-95838356D01*
X200662364Y-95853023D01*
X200724344Y-95968980D01*
X200964435Y-96035960D01*
X201750395Y-95250000D01*
X202109605Y-95250000D01*
X202895565Y-96035960D01*
X203135656Y-95968980D01*
X203252756Y-95719952D01*
X203293822Y-95554435D01*
X203684040Y-95554435D01*
X204470000Y-96340395D01*
X205255960Y-95554435D01*
X205188980Y-95314344D01*
X204939952Y-95197244D01*
X204672865Y-95130977D01*
X204397983Y-95118090D01*
X204125867Y-95159078D01*
X203866977Y-95252364D01*
X203751020Y-95314344D01*
X203684040Y-95554435D01*
X203293822Y-95554435D01*
X203319023Y-95452865D01*
X203331910Y-95177983D01*
X203290922Y-94905867D01*
X203197636Y-94646977D01*
X203135656Y-94531020D01*
X202895565Y-94464040D01*
X202109605Y-95250000D01*
X201750395Y-95250000D01*
X200964435Y-94464040D01*
X200724344Y-94531020D01*
X200662921Y-94661644D01*
X200657636Y-94646977D01*
X200595656Y-94531020D01*
X200355565Y-94464040D01*
X199569605Y-95250000D01*
X199210395Y-95250000D01*
X198424435Y-94464040D01*
X198184344Y-94531020D01*
X198067244Y-94780048D01*
X198000977Y-95047135D01*
X197988090Y-95322017D01*
X197571625Y-95322017D01*
X197511727Y-95281995D01*
X197257490Y-95176686D01*
X196987592Y-95123000D01*
X196712408Y-95123000D01*
X196442510Y-95176686D01*
X196188273Y-95281995D01*
X195959465Y-95434880D01*
X195764880Y-95629465D01*
X195611995Y-95858273D01*
X195506686Y-96112510D01*
X195453000Y-96382408D01*
X195453000Y-96657592D01*
X195506686Y-96927490D01*
X195611995Y-97181727D01*
X195764880Y-97410535D01*
X195959465Y-97605120D01*
X196188273Y-97758005D01*
X196265515Y-97790000D01*
X196188273Y-97821995D01*
X195959465Y-97974880D01*
X195764880Y-98169465D01*
X195611995Y-98398273D01*
X195506686Y-98652510D01*
X195453000Y-98922408D01*
X195453000Y-99197592D01*
X195506686Y-99467490D01*
X195611995Y-99721727D01*
X195764880Y-99950535D01*
X195959465Y-100145120D01*
X196188273Y-100298005D01*
X196265515Y-100330000D01*
X196188273Y-100361995D01*
X195959465Y-100514880D01*
X195764880Y-100709465D01*
X195611995Y-100938273D01*
X195506686Y-101192510D01*
X195453000Y-101462408D01*
X195453000Y-101737592D01*
X195506686Y-102007490D01*
X195611995Y-102261727D01*
X195764880Y-102490535D01*
X195959465Y-102685120D01*
X196046088Y-102743000D01*
X189966460Y-102743000D01*
X190015960Y-102565565D01*
X189230000Y-101779605D01*
X188444040Y-102565565D01*
X188493540Y-102743000D01*
X182413912Y-102743000D01*
X182500535Y-102685120D01*
X182695120Y-102490535D01*
X182848005Y-102261727D01*
X182953314Y-102007490D01*
X183007000Y-101737592D01*
X183007000Y-101672017D01*
X187828090Y-101672017D01*
X187869078Y-101944133D01*
X187962364Y-102203023D01*
X188024344Y-102318980D01*
X188264435Y-102385960D01*
X189050395Y-101600000D01*
X189409605Y-101600000D01*
X190195565Y-102385960D01*
X190435656Y-102318980D01*
X190552756Y-102069952D01*
X190619023Y-101802865D01*
X190631910Y-101527983D01*
X190590922Y-101255867D01*
X190497636Y-100996977D01*
X190435656Y-100881020D01*
X190195565Y-100814040D01*
X189409605Y-101600000D01*
X189050395Y-101600000D01*
X188264435Y-100814040D01*
X188024344Y-100881020D01*
X187907244Y-101130048D01*
X187840977Y-101397135D01*
X187828090Y-101672017D01*
X183007000Y-101672017D01*
X183007000Y-101462408D01*
X182953314Y-101192510D01*
X182848005Y-100938273D01*
X182695120Y-100709465D01*
X182500535Y-100514880D01*
X182271727Y-100361995D01*
X182194485Y-100330000D01*
X182271727Y-100298005D01*
X182500535Y-100145120D01*
X182695120Y-99950535D01*
X182848005Y-99721727D01*
X182953314Y-99467490D01*
X183007000Y-99197592D01*
X183007000Y-98922408D01*
X187833000Y-98922408D01*
X187833000Y-99197592D01*
X187886686Y-99467490D01*
X187991995Y-99721727D01*
X188144880Y-99950535D01*
X188339465Y-100145120D01*
X188568273Y-100298005D01*
X188639943Y-100327692D01*
X188626977Y-100332364D01*
X188511020Y-100394344D01*
X188444040Y-100634435D01*
X189230000Y-101420395D01*
X190015960Y-100634435D01*
X189948980Y-100394344D01*
X189813240Y-100330515D01*
X189891727Y-100298005D01*
X190120535Y-100145120D01*
X190315120Y-99950535D01*
X190468005Y-99721727D01*
X190573314Y-99467490D01*
X190627000Y-99197592D01*
X190627000Y-98922408D01*
X190573314Y-98652510D01*
X190468005Y-98398273D01*
X190315120Y-98169465D01*
X190120535Y-97974880D01*
X189891727Y-97821995D01*
X189820057Y-97792308D01*
X189833023Y-97787636D01*
X189948980Y-97725656D01*
X190015960Y-97485565D01*
X189230000Y-96699605D01*
X188444040Y-97485565D01*
X188511020Y-97725656D01*
X188646760Y-97789485D01*
X188568273Y-97821995D01*
X188339465Y-97974880D01*
X188144880Y-98169465D01*
X187991995Y-98398273D01*
X187886686Y-98652510D01*
X187833000Y-98922408D01*
X183007000Y-98922408D01*
X182953314Y-98652510D01*
X182848005Y-98398273D01*
X182695120Y-98169465D01*
X182500535Y-97974880D01*
X182271727Y-97821995D01*
X182194485Y-97790000D01*
X182271727Y-97758005D01*
X182500535Y-97605120D01*
X182695120Y-97410535D01*
X182848005Y-97181727D01*
X182953314Y-96927490D01*
X183007000Y-96657592D01*
X183007000Y-96592017D01*
X187828090Y-96592017D01*
X187869078Y-96864133D01*
X187962364Y-97123023D01*
X188024344Y-97238980D01*
X188264435Y-97305960D01*
X189050395Y-96520000D01*
X189409605Y-96520000D01*
X190195565Y-97305960D01*
X190435656Y-97238980D01*
X190552756Y-96989952D01*
X190619023Y-96722865D01*
X190631910Y-96447983D01*
X190590922Y-96175867D01*
X190497636Y-95916977D01*
X190435656Y-95801020D01*
X190195565Y-95734040D01*
X189409605Y-96520000D01*
X189050395Y-96520000D01*
X188264435Y-95734040D01*
X188024344Y-95801020D01*
X187907244Y-96050048D01*
X187840977Y-96317135D01*
X187828090Y-96592017D01*
X183007000Y-96592017D01*
X183007000Y-96382408D01*
X182953314Y-96112510D01*
X182848005Y-95858273D01*
X182695120Y-95629465D01*
X182620090Y-95554435D01*
X188444040Y-95554435D01*
X189230000Y-96340395D01*
X190015960Y-95554435D01*
X189948980Y-95314344D01*
X189699952Y-95197244D01*
X189432865Y-95130977D01*
X189157983Y-95118090D01*
X188885867Y-95159078D01*
X188626977Y-95252364D01*
X188511020Y-95314344D01*
X188444040Y-95554435D01*
X182620090Y-95554435D01*
X182500535Y-95434880D01*
X182271727Y-95281995D01*
X182017490Y-95176686D01*
X181747592Y-95123000D01*
X181472408Y-95123000D01*
X181202510Y-95176686D01*
X180948273Y-95281995D01*
X180719465Y-95434880D01*
X180524880Y-95629465D01*
X180371995Y-95858273D01*
X180266686Y-96112510D01*
X180213000Y-96382408D01*
X180213000Y-96657592D01*
X180266686Y-96927490D01*
X180371995Y-97181727D01*
X180524880Y-97410535D01*
X180719465Y-97605120D01*
X180948273Y-97758005D01*
X181025515Y-97790000D01*
X180948273Y-97821995D01*
X180719465Y-97974880D01*
X180524880Y-98169465D01*
X180371995Y-98398273D01*
X180266686Y-98652510D01*
X180213000Y-98922408D01*
X180213000Y-99197592D01*
X180266686Y-99467490D01*
X180371995Y-99721727D01*
X180524880Y-99950535D01*
X180719465Y-100145120D01*
X180948273Y-100298005D01*
X181025515Y-100330000D01*
X180948273Y-100361995D01*
X180719465Y-100514880D01*
X180524880Y-100709465D01*
X180371995Y-100938273D01*
X180266686Y-101192510D01*
X180213000Y-101462408D01*
X180213000Y-101737592D01*
X180266686Y-102007490D01*
X180371995Y-102261727D01*
X180524880Y-102490535D01*
X180719465Y-102685120D01*
X180806088Y-102743000D01*
X174726460Y-102743000D01*
X174775960Y-102565565D01*
X173990000Y-101779605D01*
X173204040Y-102565565D01*
X173253540Y-102743000D01*
X167173912Y-102743000D01*
X167260535Y-102685120D01*
X167455120Y-102490535D01*
X167608005Y-102261727D01*
X167713314Y-102007490D01*
X167767000Y-101737592D01*
X167767000Y-101672017D01*
X172588090Y-101672017D01*
X172629078Y-101944133D01*
X172722364Y-102203023D01*
X172784344Y-102318980D01*
X173024435Y-102385960D01*
X173810395Y-101600000D01*
X174169605Y-101600000D01*
X174955565Y-102385960D01*
X175195656Y-102318980D01*
X175312756Y-102069952D01*
X175379023Y-101802865D01*
X175391910Y-101527983D01*
X175350922Y-101255867D01*
X175257636Y-100996977D01*
X175195656Y-100881020D01*
X174955565Y-100814040D01*
X174169605Y-101600000D01*
X173810395Y-101600000D01*
X173024435Y-100814040D01*
X172784344Y-100881020D01*
X172667244Y-101130048D01*
X172600977Y-101397135D01*
X172588090Y-101672017D01*
X167767000Y-101672017D01*
X167767000Y-101462408D01*
X167713314Y-101192510D01*
X167608005Y-100938273D01*
X167455120Y-100709465D01*
X167260535Y-100514880D01*
X167031727Y-100361995D01*
X166954485Y-100330000D01*
X167031727Y-100298005D01*
X167260535Y-100145120D01*
X167455120Y-99950535D01*
X167608005Y-99721727D01*
X167713314Y-99467490D01*
X167767000Y-99197592D01*
X167767000Y-98922408D01*
X172593000Y-98922408D01*
X172593000Y-99197592D01*
X172646686Y-99467490D01*
X172751995Y-99721727D01*
X172904880Y-99950535D01*
X173099465Y-100145120D01*
X173328273Y-100298005D01*
X173399943Y-100327692D01*
X173386977Y-100332364D01*
X173271020Y-100394344D01*
X173204040Y-100634435D01*
X173990000Y-101420395D01*
X174775960Y-100634435D01*
X174708980Y-100394344D01*
X174573240Y-100330515D01*
X174651727Y-100298005D01*
X174880535Y-100145120D01*
X175075120Y-99950535D01*
X175228005Y-99721727D01*
X175333314Y-99467490D01*
X175387000Y-99197592D01*
X175387000Y-98922408D01*
X175333314Y-98652510D01*
X175228005Y-98398273D01*
X175075120Y-98169465D01*
X174880535Y-97974880D01*
X174651727Y-97821995D01*
X174580057Y-97792308D01*
X174593023Y-97787636D01*
X174708980Y-97725656D01*
X174775960Y-97485565D01*
X173990000Y-96699605D01*
X173204040Y-97485565D01*
X173271020Y-97725656D01*
X173406760Y-97789485D01*
X173328273Y-97821995D01*
X173099465Y-97974880D01*
X172904880Y-98169465D01*
X172751995Y-98398273D01*
X172646686Y-98652510D01*
X172593000Y-98922408D01*
X167767000Y-98922408D01*
X167713314Y-98652510D01*
X167608005Y-98398273D01*
X167455120Y-98169465D01*
X167260535Y-97974880D01*
X167031727Y-97821995D01*
X166954485Y-97790000D01*
X167031727Y-97758005D01*
X167260535Y-97605120D01*
X167455120Y-97410535D01*
X167608005Y-97181727D01*
X167713314Y-96927490D01*
X167767000Y-96657592D01*
X167767000Y-96592017D01*
X172588090Y-96592017D01*
X172629078Y-96864133D01*
X172722364Y-97123023D01*
X172784344Y-97238980D01*
X173024435Y-97305960D01*
X173810395Y-96520000D01*
X174169605Y-96520000D01*
X174955565Y-97305960D01*
X175195656Y-97238980D01*
X175312756Y-96989952D01*
X175379023Y-96722865D01*
X175391910Y-96447983D01*
X175350922Y-96175867D01*
X175257636Y-95916977D01*
X175195656Y-95801020D01*
X174955565Y-95734040D01*
X174169605Y-96520000D01*
X173810395Y-96520000D01*
X173024435Y-95734040D01*
X172784344Y-95801020D01*
X172667244Y-96050048D01*
X172600977Y-96317135D01*
X172588090Y-96592017D01*
X167767000Y-96592017D01*
X167767000Y-96382408D01*
X167713314Y-96112510D01*
X167608005Y-95858273D01*
X167455120Y-95629465D01*
X167380090Y-95554435D01*
X173204040Y-95554435D01*
X173990000Y-96340395D01*
X174775960Y-95554435D01*
X174708980Y-95314344D01*
X174459952Y-95197244D01*
X174192865Y-95130977D01*
X173917983Y-95118090D01*
X173645867Y-95159078D01*
X173386977Y-95252364D01*
X173271020Y-95314344D01*
X173204040Y-95554435D01*
X167380090Y-95554435D01*
X167260535Y-95434880D01*
X167031727Y-95281995D01*
X166777490Y-95176686D01*
X166507592Y-95123000D01*
X166232408Y-95123000D01*
X165962510Y-95176686D01*
X165708273Y-95281995D01*
X165479465Y-95434880D01*
X165284880Y-95629465D01*
X165131995Y-95858273D01*
X165026686Y-96112510D01*
X164973000Y-96382408D01*
X164973000Y-96657592D01*
X165026686Y-96927490D01*
X165131995Y-97181727D01*
X165284880Y-97410535D01*
X165479465Y-97605120D01*
X165708273Y-97758005D01*
X165785515Y-97790000D01*
X165708273Y-97821995D01*
X165479465Y-97974880D01*
X165284880Y-98169465D01*
X165131995Y-98398273D01*
X165026686Y-98652510D01*
X164973000Y-98922408D01*
X164973000Y-99197592D01*
X165026686Y-99467490D01*
X165131995Y-99721727D01*
X165284880Y-99950535D01*
X165479465Y-100145120D01*
X165708273Y-100298005D01*
X165785515Y-100330000D01*
X165708273Y-100361995D01*
X165479465Y-100514880D01*
X165284880Y-100709465D01*
X165131995Y-100938273D01*
X165026686Y-101192510D01*
X164973000Y-101462408D01*
X164973000Y-101737592D01*
X165026686Y-102007490D01*
X165131995Y-102261727D01*
X165284880Y-102490535D01*
X165479465Y-102685120D01*
X165566088Y-102743000D01*
X156337000Y-102743000D01*
X156337000Y-99060000D01*
X156334560Y-99035224D01*
X156327333Y-99011399D01*
X156315597Y-98989443D01*
X156299803Y-98970197D01*
X156280557Y-98954403D01*
X156257167Y-98942083D01*
X149987000Y-96434016D01*
X149987000Y-93675565D01*
X151614040Y-93675565D01*
X151681020Y-93915656D01*
X151930048Y-94032756D01*
X152197135Y-94099023D01*
X152472017Y-94111910D01*
X152744133Y-94070922D01*
X153003023Y-93977636D01*
X153118980Y-93915656D01*
X153185960Y-93675565D01*
X152400000Y-92889605D01*
X151614040Y-93675565D01*
X149987000Y-93675565D01*
X149987000Y-92782017D01*
X150998090Y-92782017D01*
X151039078Y-93054133D01*
X151132364Y-93313023D01*
X151194344Y-93428980D01*
X151434435Y-93495960D01*
X152220395Y-92710000D01*
X152579605Y-92710000D01*
X153365565Y-93495960D01*
X153605656Y-93428980D01*
X153722756Y-93179952D01*
X153789023Y-92912865D01*
X153801910Y-92637983D01*
X153760922Y-92365867D01*
X153667636Y-92106977D01*
X153605656Y-91991020D01*
X153365565Y-91924040D01*
X152579605Y-92710000D01*
X152220395Y-92710000D01*
X151434435Y-91924040D01*
X151194344Y-91991020D01*
X151077244Y-92240048D01*
X151010977Y-92507135D01*
X150998090Y-92782017D01*
X149987000Y-92782017D01*
X149987000Y-89008578D01*
X151004299Y-90025878D01*
X151003000Y-90032408D01*
X151003000Y-90307592D01*
X151056686Y-90577490D01*
X151161995Y-90831727D01*
X151314880Y-91060535D01*
X151509465Y-91255120D01*
X151738273Y-91408005D01*
X151809943Y-91437692D01*
X151796977Y-91442364D01*
X151681020Y-91504344D01*
X151614040Y-91744435D01*
X152400000Y-92530395D01*
X153185960Y-91744435D01*
X153118980Y-91504344D01*
X152983240Y-91440515D01*
X153061727Y-91408005D01*
X153290535Y-91255120D01*
X153485120Y-91060535D01*
X153638005Y-90831727D01*
X153743314Y-90577490D01*
X153797000Y-90307592D01*
X153797000Y-90032408D01*
X190373000Y-90032408D01*
X190373000Y-90307592D01*
X190426686Y-90577490D01*
X190531995Y-90831727D01*
X190684880Y-91060535D01*
X190879465Y-91255120D01*
X191108273Y-91408005D01*
X191185515Y-91440000D01*
X191108273Y-91471995D01*
X190879465Y-91624880D01*
X190684880Y-91819465D01*
X190531995Y-92048273D01*
X190426686Y-92302510D01*
X190373000Y-92572408D01*
X190373000Y-92847592D01*
X190426686Y-93117490D01*
X190531995Y-93371727D01*
X190684880Y-93600535D01*
X190879465Y-93795120D01*
X191108273Y-93948005D01*
X191185515Y-93980000D01*
X191108273Y-94011995D01*
X190879465Y-94164880D01*
X190684880Y-94359465D01*
X190531995Y-94588273D01*
X190426686Y-94842510D01*
X190373000Y-95112408D01*
X190373000Y-95387592D01*
X190426686Y-95657490D01*
X190531995Y-95911727D01*
X190684880Y-96140535D01*
X190879465Y-96335120D01*
X191108273Y-96488005D01*
X191362510Y-96593314D01*
X191632408Y-96647000D01*
X191907592Y-96647000D01*
X192177490Y-96593314D01*
X192431727Y-96488005D01*
X192660535Y-96335120D01*
X192855120Y-96140535D01*
X193008005Y-95911727D01*
X193113314Y-95657490D01*
X193167000Y-95387592D01*
X193167000Y-95112408D01*
X193113314Y-94842510D01*
X193008005Y-94588273D01*
X192855120Y-94359465D01*
X192660535Y-94164880D01*
X192431727Y-94011995D01*
X192354485Y-93980000D01*
X192431727Y-93948005D01*
X192660535Y-93795120D01*
X192855120Y-93600535D01*
X193008005Y-93371727D01*
X193113314Y-93117490D01*
X193167000Y-92847592D01*
X193167000Y-92572408D01*
X197993000Y-92572408D01*
X197993000Y-92847592D01*
X198046686Y-93117490D01*
X198151995Y-93371727D01*
X198304880Y-93600535D01*
X198499465Y-93795120D01*
X198728273Y-93948005D01*
X198799943Y-93977692D01*
X198786977Y-93982364D01*
X198671020Y-94044344D01*
X198604040Y-94284435D01*
X199390000Y-95070395D01*
X200175960Y-94284435D01*
X200108980Y-94044344D01*
X199973240Y-93980515D01*
X200051727Y-93948005D01*
X200280535Y-93795120D01*
X200475120Y-93600535D01*
X200628005Y-93371727D01*
X200660000Y-93294485D01*
X200691995Y-93371727D01*
X200844880Y-93600535D01*
X201039465Y-93795120D01*
X201268273Y-93948005D01*
X201339943Y-93977692D01*
X201326977Y-93982364D01*
X201211020Y-94044344D01*
X201144040Y-94284435D01*
X201930000Y-95070395D01*
X202715960Y-94284435D01*
X202648980Y-94044344D01*
X202513240Y-93980515D01*
X202591727Y-93948005D01*
X202820535Y-93795120D01*
X203015120Y-93600535D01*
X203168005Y-93371727D01*
X203273314Y-93117490D01*
X203327000Y-92847592D01*
X203327000Y-92572408D01*
X203273314Y-92302510D01*
X203168005Y-92048273D01*
X203015120Y-91819465D01*
X202820535Y-91624880D01*
X202591727Y-91471995D01*
X202520057Y-91442308D01*
X202533023Y-91437636D01*
X202648980Y-91375656D01*
X202715960Y-91135565D01*
X201930000Y-90349605D01*
X201144040Y-91135565D01*
X201211020Y-91375656D01*
X201346760Y-91439485D01*
X201268273Y-91471995D01*
X201039465Y-91624880D01*
X200844880Y-91819465D01*
X200691995Y-92048273D01*
X200660000Y-92125515D01*
X200628005Y-92048273D01*
X200475120Y-91819465D01*
X200280535Y-91624880D01*
X200051727Y-91471995D01*
X199980057Y-91442308D01*
X199993023Y-91437636D01*
X200108980Y-91375656D01*
X200175960Y-91135565D01*
X199390000Y-90349605D01*
X198604040Y-91135565D01*
X198671020Y-91375656D01*
X198806760Y-91439485D01*
X198728273Y-91471995D01*
X198499465Y-91624880D01*
X198304880Y-91819465D01*
X198151995Y-92048273D01*
X198046686Y-92302510D01*
X197993000Y-92572408D01*
X193167000Y-92572408D01*
X193113314Y-92302510D01*
X193008005Y-92048273D01*
X192855120Y-91819465D01*
X192660535Y-91624880D01*
X192431727Y-91471995D01*
X192354485Y-91440000D01*
X192431727Y-91408005D01*
X192660535Y-91255120D01*
X192855120Y-91060535D01*
X193008005Y-90831727D01*
X193113314Y-90577490D01*
X193167000Y-90307592D01*
X193167000Y-90032408D01*
X193133813Y-89865565D01*
X196064040Y-89865565D01*
X196131020Y-90105656D01*
X196380048Y-90222756D01*
X196647135Y-90289023D01*
X196922017Y-90301910D01*
X197194133Y-90260922D01*
X197246598Y-90242017D01*
X197988090Y-90242017D01*
X198029078Y-90514133D01*
X198122364Y-90773023D01*
X198184344Y-90888980D01*
X198424435Y-90955960D01*
X199210395Y-90170000D01*
X199569605Y-90170000D01*
X200355565Y-90955960D01*
X200595656Y-90888980D01*
X200657079Y-90758356D01*
X200662364Y-90773023D01*
X200724344Y-90888980D01*
X200964435Y-90955960D01*
X201750395Y-90170000D01*
X202109605Y-90170000D01*
X202895565Y-90955960D01*
X203135656Y-90888980D01*
X203252756Y-90639952D01*
X203319023Y-90372865D01*
X203331910Y-90097983D01*
X203290922Y-89825867D01*
X203197636Y-89566977D01*
X203135656Y-89451020D01*
X202895565Y-89384040D01*
X202109605Y-90170000D01*
X201750395Y-90170000D01*
X200964435Y-89384040D01*
X200724344Y-89451020D01*
X200662921Y-89581644D01*
X200657636Y-89566977D01*
X200595656Y-89451020D01*
X200355565Y-89384040D01*
X199569605Y-90170000D01*
X199210395Y-90170000D01*
X198424435Y-89384040D01*
X198184344Y-89451020D01*
X198067244Y-89700048D01*
X198000977Y-89967135D01*
X197988090Y-90242017D01*
X197246598Y-90242017D01*
X197453023Y-90167636D01*
X197568980Y-90105656D01*
X197635960Y-89865565D01*
X196850000Y-89079605D01*
X196064040Y-89865565D01*
X193133813Y-89865565D01*
X193113314Y-89762510D01*
X193008005Y-89508273D01*
X192855120Y-89279465D01*
X192660535Y-89084880D01*
X192491625Y-88972017D01*
X195448090Y-88972017D01*
X195489078Y-89244133D01*
X195582364Y-89503023D01*
X195644344Y-89618980D01*
X195884435Y-89685960D01*
X196670395Y-88900000D01*
X197029605Y-88900000D01*
X197815565Y-89685960D01*
X198055656Y-89618980D01*
X198172756Y-89369952D01*
X198213822Y-89204435D01*
X198604040Y-89204435D01*
X199390000Y-89990395D01*
X200175960Y-89204435D01*
X201144040Y-89204435D01*
X201930000Y-89990395D01*
X202715960Y-89204435D01*
X202648980Y-88964344D01*
X202399952Y-88847244D01*
X202132865Y-88780977D01*
X201857983Y-88768090D01*
X201585867Y-88809078D01*
X201326977Y-88902364D01*
X201211020Y-88964344D01*
X201144040Y-89204435D01*
X200175960Y-89204435D01*
X200108980Y-88964344D01*
X199859952Y-88847244D01*
X199592865Y-88780977D01*
X199317983Y-88768090D01*
X199045867Y-88809078D01*
X198786977Y-88902364D01*
X198671020Y-88964344D01*
X198604040Y-89204435D01*
X198213822Y-89204435D01*
X198239023Y-89102865D01*
X198251910Y-88827983D01*
X198210922Y-88555867D01*
X198117636Y-88296977D01*
X198055656Y-88181020D01*
X197815565Y-88114040D01*
X197029605Y-88900000D01*
X196670395Y-88900000D01*
X195884435Y-88114040D01*
X195644344Y-88181020D01*
X195527244Y-88430048D01*
X195460977Y-88697135D01*
X195448090Y-88972017D01*
X192491625Y-88972017D01*
X192431727Y-88931995D01*
X192177490Y-88826686D01*
X191907592Y-88773000D01*
X191632408Y-88773000D01*
X191362510Y-88826686D01*
X191108273Y-88931995D01*
X190879465Y-89084880D01*
X190684880Y-89279465D01*
X190531995Y-89508273D01*
X190426686Y-89762510D01*
X190373000Y-90032408D01*
X153797000Y-90032408D01*
X153743314Y-89762510D01*
X153638005Y-89508273D01*
X153485120Y-89279465D01*
X153290535Y-89084880D01*
X153061727Y-88931995D01*
X152984485Y-88900000D01*
X153061727Y-88868005D01*
X153290535Y-88715120D01*
X153485120Y-88520535D01*
X153488818Y-88515000D01*
X156166531Y-88515000D01*
X156210000Y-88519281D01*
X156253469Y-88515000D01*
X156253477Y-88515000D01*
X156383490Y-88502195D01*
X156550313Y-88451589D01*
X156704059Y-88369411D01*
X156838817Y-88258817D01*
X156866534Y-88225044D01*
X157496579Y-87595000D01*
X157601637Y-87595000D01*
X157840236Y-87547540D01*
X158064992Y-87454443D01*
X158267267Y-87319287D01*
X158439287Y-87147267D01*
X158574443Y-86944992D01*
X158667540Y-86720236D01*
X158715000Y-86481637D01*
X158715000Y-86238363D01*
X158711827Y-86222408D01*
X195453000Y-86222408D01*
X195453000Y-86497592D01*
X195506686Y-86767490D01*
X195611995Y-87021727D01*
X195764880Y-87250535D01*
X195959465Y-87445120D01*
X196188273Y-87598005D01*
X196259943Y-87627692D01*
X196246977Y-87632364D01*
X196131020Y-87694344D01*
X196064040Y-87934435D01*
X196850000Y-88720395D01*
X197635960Y-87934435D01*
X197568980Y-87694344D01*
X197433240Y-87630515D01*
X197511727Y-87598005D01*
X197740535Y-87445120D01*
X197935120Y-87250535D01*
X198088005Y-87021727D01*
X198193314Y-86767490D01*
X198247000Y-86497592D01*
X198247000Y-86222408D01*
X198193314Y-85952510D01*
X198088005Y-85698273D01*
X197935120Y-85469465D01*
X197740535Y-85274880D01*
X197511727Y-85121995D01*
X197440057Y-85092308D01*
X197453023Y-85087636D01*
X197568980Y-85025656D01*
X197635960Y-84785565D01*
X196850000Y-83999605D01*
X196064040Y-84785565D01*
X196131020Y-85025656D01*
X196266760Y-85089485D01*
X196188273Y-85121995D01*
X195959465Y-85274880D01*
X195764880Y-85469465D01*
X195611995Y-85698273D01*
X195506686Y-85952510D01*
X195453000Y-86222408D01*
X158711827Y-86222408D01*
X158667540Y-85999764D01*
X158574443Y-85775008D01*
X158439287Y-85572733D01*
X158267267Y-85400713D01*
X158064992Y-85265557D01*
X157840236Y-85172460D01*
X157601637Y-85125000D01*
X157358363Y-85125000D01*
X157119764Y-85172460D01*
X156895008Y-85265557D01*
X156692733Y-85400713D01*
X156520713Y-85572733D01*
X156385557Y-85775008D01*
X156292460Y-85999764D01*
X156245000Y-86238363D01*
X156245000Y-86343421D01*
X155843422Y-86745000D01*
X153488818Y-86745000D01*
X153485120Y-86739465D01*
X153290535Y-86544880D01*
X153061727Y-86391995D01*
X152984485Y-86360000D01*
X153061727Y-86328005D01*
X153290535Y-86175120D01*
X153485120Y-85980535D01*
X153638005Y-85751727D01*
X153743314Y-85497490D01*
X153797000Y-85227592D01*
X153797000Y-84952408D01*
X153795701Y-84945878D01*
X154036579Y-84705000D01*
X155348446Y-84705000D01*
X155422733Y-84779287D01*
X155625008Y-84914443D01*
X155849764Y-85007540D01*
X156088363Y-85055000D01*
X156331637Y-85055000D01*
X156570236Y-85007540D01*
X156794992Y-84914443D01*
X156997267Y-84779287D01*
X157169287Y-84607267D01*
X157304443Y-84404992D01*
X157397540Y-84180236D01*
X157445000Y-83941637D01*
X157445000Y-83892017D01*
X195448090Y-83892017D01*
X195489078Y-84164133D01*
X195582364Y-84423023D01*
X195644344Y-84538980D01*
X195884435Y-84605960D01*
X196670395Y-83820000D01*
X197029605Y-83820000D01*
X197815565Y-84605960D01*
X198055656Y-84538980D01*
X198172756Y-84289952D01*
X198239023Y-84022865D01*
X198251910Y-83747983D01*
X198242033Y-83682408D01*
X203073000Y-83682408D01*
X203073000Y-83957592D01*
X203126686Y-84227490D01*
X203231995Y-84481727D01*
X203384880Y-84710535D01*
X203579465Y-84905120D01*
X203808273Y-85058005D01*
X203885515Y-85090000D01*
X203808273Y-85121995D01*
X203579465Y-85274880D01*
X203384880Y-85469465D01*
X203231995Y-85698273D01*
X203126686Y-85952510D01*
X203073000Y-86222408D01*
X203073000Y-86497592D01*
X203126686Y-86767490D01*
X203231995Y-87021727D01*
X203384880Y-87250535D01*
X203579465Y-87445120D01*
X203808273Y-87598005D01*
X203885515Y-87630000D01*
X203808273Y-87661995D01*
X203579465Y-87814880D01*
X203384880Y-88009465D01*
X203231995Y-88238273D01*
X203126686Y-88492510D01*
X203073000Y-88762408D01*
X203073000Y-89037592D01*
X203126686Y-89307490D01*
X203231995Y-89561727D01*
X203384880Y-89790535D01*
X203579465Y-89985120D01*
X203808273Y-90138005D01*
X204062510Y-90243314D01*
X204332408Y-90297000D01*
X204607592Y-90297000D01*
X204877490Y-90243314D01*
X205131727Y-90138005D01*
X205289763Y-90032408D01*
X208153000Y-90032408D01*
X208153000Y-90307592D01*
X208206686Y-90577490D01*
X208311995Y-90831727D01*
X208464880Y-91060535D01*
X208659465Y-91255120D01*
X208888273Y-91408005D01*
X208965515Y-91440000D01*
X208888273Y-91471995D01*
X208659465Y-91624880D01*
X208464880Y-91819465D01*
X208311995Y-92048273D01*
X208206686Y-92302510D01*
X208153000Y-92572408D01*
X208153000Y-92847592D01*
X208206686Y-93117490D01*
X208311995Y-93371727D01*
X208464880Y-93600535D01*
X208659465Y-93795120D01*
X208888273Y-93948005D01*
X208965515Y-93980000D01*
X208888273Y-94011995D01*
X208659465Y-94164880D01*
X208464880Y-94359465D01*
X208311995Y-94588273D01*
X208206686Y-94842510D01*
X208153000Y-95112408D01*
X208153000Y-95387592D01*
X208206686Y-95657490D01*
X208311995Y-95911727D01*
X208464880Y-96140535D01*
X208659465Y-96335120D01*
X208888273Y-96488005D01*
X209142510Y-96593314D01*
X209412408Y-96647000D01*
X209687592Y-96647000D01*
X209957490Y-96593314D01*
X210211727Y-96488005D01*
X210440535Y-96335120D01*
X210635120Y-96140535D01*
X210788005Y-95911727D01*
X210893314Y-95657490D01*
X210947000Y-95387592D01*
X210947000Y-95112408D01*
X210893314Y-94842510D01*
X210788005Y-94588273D01*
X210635120Y-94359465D01*
X210440535Y-94164880D01*
X210211727Y-94011995D01*
X210134485Y-93980000D01*
X210211727Y-93948005D01*
X210440535Y-93795120D01*
X210635120Y-93600535D01*
X210788005Y-93371727D01*
X210893314Y-93117490D01*
X210947000Y-92847592D01*
X210947000Y-92572408D01*
X210893314Y-92302510D01*
X210788005Y-92048273D01*
X210635120Y-91819465D01*
X210440535Y-91624880D01*
X210211727Y-91471995D01*
X210134485Y-91440000D01*
X210211727Y-91408005D01*
X210440535Y-91255120D01*
X210635120Y-91060535D01*
X210788005Y-90831727D01*
X210893314Y-90577490D01*
X210947000Y-90307592D01*
X210947000Y-90032408D01*
X210893314Y-89762510D01*
X210788005Y-89508273D01*
X210635120Y-89279465D01*
X210440535Y-89084880D01*
X210211727Y-88931995D01*
X209957490Y-88826686D01*
X209687592Y-88773000D01*
X209412408Y-88773000D01*
X209142510Y-88826686D01*
X208888273Y-88931995D01*
X208659465Y-89084880D01*
X208464880Y-89279465D01*
X208311995Y-89508273D01*
X208206686Y-89762510D01*
X208153000Y-90032408D01*
X205289763Y-90032408D01*
X205360535Y-89985120D01*
X205555120Y-89790535D01*
X205708005Y-89561727D01*
X205813314Y-89307490D01*
X205867000Y-89037592D01*
X205867000Y-88762408D01*
X205813314Y-88492510D01*
X205708005Y-88238273D01*
X205555120Y-88009465D01*
X205360535Y-87814880D01*
X205131727Y-87661995D01*
X205054485Y-87630000D01*
X205131727Y-87598005D01*
X205360535Y-87445120D01*
X205555120Y-87250535D01*
X205708005Y-87021727D01*
X205813314Y-86767490D01*
X205867000Y-86497592D01*
X205867000Y-86222408D01*
X205813314Y-85952510D01*
X205708005Y-85698273D01*
X205555120Y-85469465D01*
X205360535Y-85274880D01*
X205131727Y-85121995D01*
X205054485Y-85090000D01*
X205131727Y-85058005D01*
X205360535Y-84905120D01*
X205555120Y-84710535D01*
X205708005Y-84481727D01*
X205813314Y-84227490D01*
X205867000Y-83957592D01*
X205867000Y-83682408D01*
X205813314Y-83412510D01*
X205708005Y-83158273D01*
X205555120Y-82929465D01*
X205360535Y-82734880D01*
X205131727Y-82581995D01*
X204877490Y-82476686D01*
X204607592Y-82423000D01*
X204332408Y-82423000D01*
X204062510Y-82476686D01*
X203808273Y-82581995D01*
X203579465Y-82734880D01*
X203384880Y-82929465D01*
X203231995Y-83158273D01*
X203126686Y-83412510D01*
X203073000Y-83682408D01*
X198242033Y-83682408D01*
X198210922Y-83475867D01*
X198117636Y-83216977D01*
X198055656Y-83101020D01*
X197815565Y-83034040D01*
X197029605Y-83820000D01*
X196670395Y-83820000D01*
X195884435Y-83034040D01*
X195644344Y-83101020D01*
X195527244Y-83350048D01*
X195460977Y-83617135D01*
X195448090Y-83892017D01*
X157445000Y-83892017D01*
X157445000Y-83698363D01*
X157397540Y-83459764D01*
X157304443Y-83235008D01*
X157169287Y-83032733D01*
X156997267Y-82860713D01*
X156987872Y-82854435D01*
X196064040Y-82854435D01*
X196850000Y-83640395D01*
X197635960Y-82854435D01*
X197568980Y-82614344D01*
X197319952Y-82497244D01*
X197052865Y-82430977D01*
X196777983Y-82418090D01*
X196505867Y-82459078D01*
X196246977Y-82552364D01*
X196131020Y-82614344D01*
X196064040Y-82854435D01*
X156987872Y-82854435D01*
X156794992Y-82725557D01*
X156570236Y-82632460D01*
X156331637Y-82585000D01*
X156088363Y-82585000D01*
X155849764Y-82632460D01*
X155625008Y-82725557D01*
X155422733Y-82860713D01*
X155348446Y-82935000D01*
X153713465Y-82935000D01*
X153669999Y-82930719D01*
X153626533Y-82935000D01*
X153626523Y-82935000D01*
X153496510Y-82947805D01*
X153329687Y-82998411D01*
X153175941Y-83080589D01*
X153175939Y-83080590D01*
X153175940Y-83080590D01*
X153074953Y-83163468D01*
X153074951Y-83163470D01*
X153041183Y-83191183D01*
X153013470Y-83224951D01*
X152544122Y-83694299D01*
X152537592Y-83693000D01*
X152262408Y-83693000D01*
X151992510Y-83746686D01*
X151738273Y-83851995D01*
X151509465Y-84004880D01*
X151314880Y-84199465D01*
X151161995Y-84428273D01*
X151056686Y-84682510D01*
X151003000Y-84952408D01*
X151003000Y-85227592D01*
X151056686Y-85497490D01*
X151161995Y-85751727D01*
X151314880Y-85980535D01*
X151509465Y-86175120D01*
X151738273Y-86328005D01*
X151815515Y-86360000D01*
X151738273Y-86391995D01*
X151509465Y-86544880D01*
X151314880Y-86739465D01*
X151161995Y-86968273D01*
X151056686Y-87222510D01*
X151047369Y-87269351D01*
X150954443Y-87045008D01*
X150819287Y-86842733D01*
X150647267Y-86670713D01*
X150444992Y-86535557D01*
X150220236Y-86442460D01*
X149981637Y-86395000D01*
X149738363Y-86395000D01*
X149499764Y-86442460D01*
X149275008Y-86535557D01*
X149186100Y-86594963D01*
X149186100Y-84673506D01*
X151198604Y-82661002D01*
X154980161Y-81400483D01*
X155002894Y-81390333D01*
X155023211Y-81375943D01*
X155040329Y-81357866D01*
X155053592Y-81336796D01*
X155062490Y-81313544D01*
X155067000Y-81280000D01*
X155067000Y-76327000D01*
X155677040Y-76327000D01*
X155597931Y-76423394D01*
G36*
X192537000Y-77133000D02*
G01*
X192557000Y-77133000D01*
X192557000Y-77387000D01*
X192537000Y-77387000D01*
X192537000Y-77407000D01*
X192283000Y-77407000D01*
X192283000Y-77387000D01*
X192263000Y-77387000D01*
X192263000Y-77133000D01*
X192283000Y-77133000D01*
X192283000Y-77113000D01*
X192537000Y-77113000D01*
X192537000Y-77133000D01*
X192537000Y-77133000D01*
G37*
X192537000Y-77133000D02*
X192557000Y-77133000D01*
X192557000Y-77387000D01*
X192537000Y-77387000D01*
X192537000Y-77407000D01*
X192283000Y-77407000D01*
X192283000Y-77387000D01*
X192263000Y-77387000D01*
X192263000Y-77133000D01*
X192283000Y-77133000D01*
X192283000Y-77113000D01*
X192537000Y-77113000D01*
X192537000Y-77133000D01*
G36*
X162057000Y-77133000D02*
G01*
X162077000Y-77133000D01*
X162077000Y-77387000D01*
X162057000Y-77387000D01*
X162057000Y-77407000D01*
X161803000Y-77407000D01*
X161803000Y-77387000D01*
X161783000Y-77387000D01*
X161783000Y-77133000D01*
X161803000Y-77133000D01*
X161803000Y-77113000D01*
X162057000Y-77113000D01*
X162057000Y-77133000D01*
X162057000Y-77133000D01*
G37*
X162057000Y-77133000D02*
X162077000Y-77133000D01*
X162077000Y-77387000D01*
X162057000Y-77387000D01*
X162057000Y-77407000D01*
X161803000Y-77407000D01*
X161803000Y-77387000D01*
X161783000Y-77387000D01*
X161783000Y-77133000D01*
X161803000Y-77133000D01*
X161803000Y-77113000D01*
X162057000Y-77113000D01*
X162057000Y-77133000D01*
G36*
X172217000Y-77133000D02*
G01*
X172237000Y-77133000D01*
X172237000Y-77387000D01*
X172217000Y-77387000D01*
X172217000Y-77407000D01*
X171963000Y-77407000D01*
X171963000Y-77387000D01*
X171943000Y-77387000D01*
X171943000Y-77133000D01*
X171963000Y-77133000D01*
X171963000Y-77113000D01*
X172217000Y-77113000D01*
X172217000Y-77133000D01*
X172217000Y-77133000D01*
G37*
X172217000Y-77133000D02*
X172237000Y-77133000D01*
X172237000Y-77387000D01*
X172217000Y-77387000D01*
X172217000Y-77407000D01*
X171963000Y-77407000D01*
X171963000Y-77387000D01*
X171943000Y-77387000D01*
X171943000Y-77133000D01*
X171963000Y-77133000D01*
X171963000Y-77113000D01*
X172217000Y-77113000D01*
X172217000Y-77133000D01*
G36*
X179837000Y-77133000D02*
G01*
X179857000Y-77133000D01*
X179857000Y-77387000D01*
X179837000Y-77387000D01*
X179837000Y-77407000D01*
X179583000Y-77407000D01*
X179583000Y-77387000D01*
X179563000Y-77387000D01*
X179563000Y-77133000D01*
X179583000Y-77133000D01*
X179583000Y-77113000D01*
X179837000Y-77113000D01*
X179837000Y-77133000D01*
X179837000Y-77133000D01*
G37*
X179837000Y-77133000D02*
X179857000Y-77133000D01*
X179857000Y-77387000D01*
X179837000Y-77387000D01*
X179837000Y-77407000D01*
X179583000Y-77407000D01*
X179583000Y-77387000D01*
X179563000Y-77387000D01*
X179563000Y-77133000D01*
X179583000Y-77133000D01*
X179583000Y-77113000D01*
X179837000Y-77113000D01*
X179837000Y-77133000D01*
G36*
X197617000Y-77133000D02*
G01*
X197637000Y-77133000D01*
X197637000Y-77387000D01*
X197617000Y-77387000D01*
X197617000Y-77407000D01*
X197363000Y-77407000D01*
X197363000Y-77387000D01*
X197343000Y-77387000D01*
X197343000Y-77133000D01*
X197363000Y-77133000D01*
X197363000Y-77113000D01*
X197617000Y-77113000D01*
X197617000Y-77133000D01*
X197617000Y-77133000D01*
G37*
X197617000Y-77133000D02*
X197637000Y-77133000D01*
X197637000Y-77387000D01*
X197617000Y-77387000D01*
X197617000Y-77407000D01*
X197363000Y-77407000D01*
X197363000Y-77387000D01*
X197343000Y-77387000D01*
X197343000Y-77133000D01*
X197363000Y-77133000D01*
X197363000Y-77113000D01*
X197617000Y-77113000D01*
X197617000Y-77133000D01*
M02*
