M48
; DRILL file {KiCad 5.1.4} date dim. 17 nov. 2019 07:58:21 CET
; FORMAT={-:-/ absolute / inch / decimal}
; #@! TF.CreationDate,2019-11-17T07:58:21+01:00
; #@! TF.GenerationSoftware,Kicad,Pcbnew,5.1.4
; #@! TF.FileFunction,Plated,1,2,PTH
FMAT,2
INCH
T1C0.0276
T2C0.0400
T3C0.0472
T4C0.1063
%
G90
G05
T1
X6.2382Y-3.9803
X6.2382Y-4.05
X6.7382Y-4.05
X6.8173Y-4.05
T2
X6.1752Y-3.0417
X6.1752Y-3.1417
X6.2752Y-3.0417
X6.2752Y-3.1417
X6.3752Y-3.0417
X6.3752Y-3.1417
X6.4752Y-3.0417
X6.4752Y-3.1417
X6.5752Y-3.0417
X6.5752Y-3.1417
X6.6752Y-3.0417
X6.6752Y-3.1417
X6.7752Y-3.0417
X6.7752Y-3.1417
X6.8752Y-3.0417
X6.8752Y-3.1417
X6.9752Y-3.0417
X6.9752Y-3.1417
X7.0752Y-3.0417
X7.0752Y-3.1417
X7.1752Y-3.0417
X7.1752Y-3.1417
X7.2752Y-3.0417
X7.2752Y-3.1417
X7.3752Y-3.0417
X7.3752Y-3.1417
X7.4752Y-3.0417
X7.4752Y-3.1417
X7.5752Y-3.0417
X7.5752Y-3.1417
X7.6752Y-3.0417
X7.6752Y-3.1417
X7.7752Y-3.0417
X7.7752Y-3.1417
X7.8752Y-3.0417
X7.8752Y-3.1417
X7.9752Y-3.0417
X7.9752Y-3.1417
X8.0752Y-3.0417
X8.0752Y-3.1417
T3
X7.9Y-3.25
X7.9Y-3.45
X8.1Y-3.25
X8.1Y-3.45
X6.75Y-3.25
X6.75Y-3.45
X6.95Y-3.25
X6.95Y-3.45
X7.65Y-3.55
X7.65Y-3.75
X7.85Y-3.55
X7.85Y-3.75
X7.3Y-3.25
X7.3Y-3.45
X7.5Y-3.25
X7.5Y-3.45
X8.15Y-3.55
X8.15Y-3.75
X8.35Y-3.55
X8.35Y-3.75
X7.9Y-3.85
X7.9Y-4.05
X8.1Y-3.85
X8.1Y-4.05
X6.15Y-3.6
X6.15Y-3.7
X6.15Y-3.8
X6.15Y-3.9
T4
X5.9843Y-3.0906
X8.2677Y-3.0906
X8.2677Y-3.9961
X5.9843Y-3.9961
T0
M30
