M48
; DRILL file {KiCad 5.1.4} date mer. 13 nov. 2019 10:42:33 CET
; FORMAT={-:-/ absolute / inch / decimal}
; #@! TF.CreationDate,2019-11-13T10:42:33+01:00
; #@! TF.GenerationSoftware,Kicad,Pcbnew,5.1.4
; #@! TF.FileFunction,Plated,1,2,PTH
FMAT,2
INCH
T1C0.0276
T2C0.0300
T3C0.0400
T4C0.1063
%
G90
G05
T1
X5.9Y-3.45
X6.15Y-3.3
X6.2Y-3.4
X6.6Y-3.3
T2
X7.15Y-3.8
X7.15Y-3.9
X7.15Y-4.0
X7.45Y-3.8
X7.45Y-3.9
X7.45Y-4.0
X6.55Y-3.8
X6.55Y-3.9
X6.55Y-4.0
X6.85Y-3.8
X6.85Y-3.9
X6.85Y-4.0
X6.0Y-3.35
X6.0Y-3.45
X6.0Y-3.55
X6.0Y-3.65
X7.95Y-3.55
X7.95Y-3.65
X7.95Y-3.75
X8.25Y-3.55
X8.25Y-3.65
X8.25Y-3.75
X7.75Y-3.8
X7.75Y-3.9
X7.75Y-4.0
X8.05Y-3.8
X8.05Y-3.9
X8.05Y-4.0
X7.75Y-3.3
X7.75Y-3.4
X7.75Y-3.5
X8.05Y-3.3
X8.05Y-3.4
X8.05Y-3.5
X7.55Y-3.55
X7.55Y-3.65
X7.55Y-3.75
X7.85Y-3.55
X7.85Y-3.65
X7.85Y-3.75
T3
X6.1752Y-3.0417
X6.1752Y-3.1417
X6.2752Y-3.0417
X6.2752Y-3.1417
X6.3752Y-3.0417
X6.3752Y-3.1417
X6.4752Y-3.0417
X6.4752Y-3.1417
X6.5752Y-3.0417
X6.5752Y-3.1417
X6.6752Y-3.0417
X6.6752Y-3.1417
X6.7752Y-3.0417
X6.7752Y-3.1417
X6.8752Y-3.0417
X6.8752Y-3.1417
X6.9752Y-3.0417
X6.9752Y-3.1417
X7.0752Y-3.0417
X7.0752Y-3.1417
X7.1752Y-3.0417
X7.1752Y-3.1417
X7.2752Y-3.0417
X7.2752Y-3.1417
X7.3752Y-3.0417
X7.3752Y-3.1417
X7.4752Y-3.0417
X7.4752Y-3.1417
X7.5752Y-3.0417
X7.5752Y-3.1417
X7.6752Y-3.0417
X7.6752Y-3.1417
X7.7752Y-3.0417
X7.7752Y-3.1417
X7.8752Y-3.0417
X7.8752Y-3.1417
X7.9752Y-3.0417
X7.9752Y-3.1417
X8.0752Y-3.0417
X8.0752Y-3.1417
T4
X5.9843Y-3.0906
X8.2677Y-3.9961
X5.9843Y-3.9961
X8.2677Y-3.0906
T0
M30
